<?xml version="1.0" encoding="utf-8" standalone="no"?>
<!DOCTYPE svg PUBLIC "-//W3C//DTD SVG 1.1//EN"
  "http://www.w3.org/Graphics/SVG/1.1/DTD/svg11.dtd">
<svg xmlns:xlink="http://www.w3.org/1999/xlink" width="344.4pt" height="286.515pt" viewBox="0 0 344.4 286.515" xmlns="http://www.w3.org/2000/svg" version="1.1">
 <metadata>
  <rdf:RDF xmlns:dc="http://purl.org/dc/elements/1.1/" xmlns:cc="http://creativecommons.org/ns#" xmlns:rdf="http://www.w3.org/1999/02/22-rdf-syntax-ns#">
   <cc:Work>
    <dc:type rdf:resource="http://purl.org/dc/dcmitype/StillImage"/>
    <dc:date>2022-09-18T14:46:52.671077</dc:date>
    <dc:format>image/svg+xml</dc:format>
    <dc:creator>
     <cc:Agent>
      <dc:title>Matplotlib v3.5.1, https://matplotlib.org/</dc:title>
     </cc:Agent>
    </dc:creator>
   </cc:Work>
  </rdf:RDF>
 </metadata>
 <defs>
  <style type="text/css">*{stroke-linejoin: round; stroke-linecap: butt}</style>
 </defs>
 <g id="figure_1">
  <g id="patch_1">
   <path d="M 0 286.515 
L 344.4 286.515 
L 344.4 0 
L 0 0 
z
" style="fill: #ffffff"/>
  </g>
  <g id="axes_1">
   <g id="patch_2">
    <path d="M 37.2 253.44 
L 164.018182 253.44 
L 164.018182 36 
L 37.2 36 
z
" style="fill: #eaeaf2"/>
   </g>
   <g id="matplotlib.axis_1">
    <g id="xtick_1">
     <g id="line2d_1"/>
    </g>
    <g id="text_1">
     <!-- 第1组 -->
     <g style="fill: #262626" transform="translate(80.609091 277.315)scale(0.16 -0.16)">
      <defs>
       <path id="SimHei-7b2c" d="M 4475 -350 
Q 4450 -125 4250 200 
Q 4900 175 5087 262 
Q 5275 350 5275 1000 
L 3475 1000 
L 3475 175 
Q 3475 -50 3500 -675 
L 2975 -675 
Q 3000 -25 3000 175 
L 3000 775 
Q 2625 400 2037 50 
Q 1450 -300 700 -600 
Q 600 -350 325 -150 
Q 900 -25 1600 312 
Q 2300 650 2625 1000 
L 875 1000 
Q 975 1750 1000 2450 
L 3000 2450 
L 3000 3100 
L 1975 3100 
Q 1525 3100 975 3075 
L 975 3525 
Q 1525 3500 1825 3500 
L 5400 3500 
Q 5375 3050 5375 2725 
Q 5375 2400 5400 2050 
L 3475 2050 
L 3475 1400 
L 5800 1400 
Q 5725 525 5662 225 
Q 5600 -75 5275 -187 
Q 4950 -300 4475 -350 
z
M 2050 5025 
Q 1775 4800 1650 4625 
L 2500 4625 
Q 3025 4625 3325 4650 
L 3325 4225 
L 2325 4225 
Q 2475 4000 2625 3725 
Q 2400 3650 2200 3550 
Q 2050 3900 1825 4225 
L 1425 4225 
Q 1150 3825 725 3350 
Q 500 3500 250 3600 
Q 700 3975 975 4375 
Q 1250 4775 1450 5275 
Q 1825 5075 2050 5025 
z
M 3600 3550 
Q 3350 3650 3125 3750 
Q 3375 3975 3600 4387 
Q 3825 4800 3950 5200 
Q 4225 5075 4525 4975 
Q 4400 4875 4275 4650 
L 5250 4650 
Q 5425 4650 6000 4675 
L 6000 4225 
Q 5625 4250 5000 4250 
Q 5175 4000 5350 3725 
Q 5075 3650 4900 3550 
Q 4725 3900 4475 4250 
L 4075 4250 
Q 3850 3850 3600 3550 
z
M 3000 1400 
L 3000 2050 
L 1475 2050 
Q 1425 1750 1400 1400 
L 3000 1400 
z
M 4900 2450 
L 4900 3100 
L 3475 3100 
L 3475 2450 
L 4900 2450 
z
" transform="scale(0.015625)"/>
       <path id="SimHei-31" d="M 1400 3600 
Q 1075 3275 575 2975 
L 575 3450 
Q 1200 3875 1600 4450 
L 1900 4450 
L 1900 150 
L 1400 150 
L 1400 3600 
z
" transform="scale(0.015625)"/>
       <path id="SimHei-7ec4" d="M 6125 -425 
Q 5750 -400 5225 -400 
L 3275 -400 
Q 2775 -400 2400 -425 
L 2400 50 
Q 2725 25 2950 25 
L 2950 3775 
Q 2950 4375 2900 4625 
L 5525 4625 
Q 5500 4400 5500 3775 
L 5500 25 
Q 5825 25 6125 50 
L 6125 -425 
z
M 1725 4825 
Q 1500 4550 1287 4137 
Q 1075 3725 725 3050 
Q 950 3050 1550 3075 
Q 1800 3550 1900 3975 
Q 2075 3825 2450 3675 
Q 2225 3350 1937 2875 
Q 1650 2400 1150 1625 
Q 1950 1725 2425 1775 
L 2425 1350 
Q 2100 1325 1575 1250 
Q 1050 1175 575 1050 
Q 550 1300 400 1575 
Q 675 1675 912 1975 
Q 1150 2275 1375 2725 
Q 1225 2725 950 2687 
Q 675 2650 425 2525 
Q 325 2825 225 3050 
Q 450 3300 712 3862 
Q 975 4425 1150 5075 
Q 1425 4925 1725 4825 
z
M 5025 25 
L 5025 1275 
L 3425 1275 
L 3425 25 
L 5025 25 
z
M 5025 3125 
L 5025 4225 
L 3425 4225 
L 3425 3125 
L 5025 3125 
z
M 5025 1700 
L 5025 2725 
L 3425 2725 
L 3425 1700 
L 5025 1700 
z
M 2375 175 
Q 1875 100 1375 -12 
Q 875 -125 450 -300 
Q 375 -75 250 250 
Q 925 325 1162 375 
Q 1400 425 2375 600 
L 2375 175 
z
" transform="scale(0.015625)"/>
      </defs>
      <use xlink:href="#SimHei-7b2c"/>
      <use xlink:href="#SimHei-31" x="100"/>
      <use xlink:href="#SimHei-7ec4" x="150"/>
     </g>
    </g>
   </g>
   <g id="matplotlib.axis_2">
    <g id="ytick_1">
     <g id="line2d_2">
      <path d="M 37.2 243.556364 
L 164.018182 243.556364 
" clip-path="url(#p740f49cf31)" style="fill: none; stroke: #ffffff; stroke-linecap: round"/>
     </g>
     <g id="line2d_3"/>
     <g id="text_2">
      <!-- 0 -->
      <g style="fill: #262626" transform="translate(22.2 249.056364)scale(0.16 -0.16)">
       <defs>
        <path id="SimHei-30" d="M 225 2537 
Q 250 3200 412 3587 
Q 575 3975 875 4225 
Q 1175 4475 1612 4475 
Q 2050 4475 2375 4112 
Q 2700 3750 2800 3200 
Q 2900 2650 2862 1937 
Q 2825 1225 2612 775 
Q 2400 325 1975 150 
Q 1550 -25 1125 187 
Q 700 400 525 750 
Q 350 1100 275 1487 
Q 200 1875 225 2537 
z
M 750 2687 
Q 675 2000 800 1462 
Q 925 925 1212 700 
Q 1500 475 1800 612 
Q 2100 750 2237 1162 
Q 2375 1575 2375 2062 
Q 2375 2550 2337 2950 
Q 2300 3350 2112 3675 
Q 1925 4000 1612 4012 
Q 1300 4025 1062 3700 
Q 825 3375 750 2687 
z
" transform="scale(0.015625)"/>
       </defs>
       <use xlink:href="#SimHei-30"/>
      </g>
     </g>
    </g>
    <g id="ytick_2">
     <g id="line2d_4">
      <path d="M 37.2 185.073308 
L 164.018182 185.073308 
" clip-path="url(#p740f49cf31)" style="fill: none; stroke: #ffffff; stroke-linecap: round"/>
     </g>
     <g id="line2d_5"/>
     <g id="text_3">
      <!-- 1 -->
      <g style="fill: #262626" transform="translate(22.2 190.573308)scale(0.16 -0.16)">
       <use xlink:href="#SimHei-31"/>
      </g>
     </g>
    </g>
    <g id="ytick_3">
     <g id="line2d_6">
      <path d="M 37.2 126.590253 
L 164.018182 126.590253 
" clip-path="url(#p740f49cf31)" style="fill: none; stroke: #ffffff; stroke-linecap: round"/>
     </g>
     <g id="line2d_7"/>
     <g id="text_4">
      <!-- 2 -->
      <g style="fill: #262626" transform="translate(22.2 132.090253)scale(0.16 -0.16)">
       <defs>
        <path id="SimHei-32" d="M 300 250 
Q 325 625 650 925 
Q 975 1225 1475 1862 
Q 1975 2500 2125 2850 
Q 2275 3200 2237 3450 
Q 2200 3700 2000 3862 
Q 1800 4025 1537 4000 
Q 1275 3975 1037 3800 
Q 800 3625 675 3275 
L 200 3350 
Q 400 3925 712 4187 
Q 1025 4450 1450 4475 
Q 1700 4500 1900 4462 
Q 2100 4425 2312 4287 
Q 2525 4150 2662 3875 
Q 2800 3600 2762 3212 
Q 2725 2825 2375 2287 
Q 2025 1750 1025 600 
L 2825 600 
L 2825 150 
L 300 150 
L 300 250 
z
" transform="scale(0.015625)"/>
       </defs>
       <use xlink:href="#SimHei-32"/>
      </g>
     </g>
    </g>
    <g id="ytick_4">
     <g id="line2d_8">
      <path d="M 37.2 68.107197 
L 164.018182 68.107197 
" clip-path="url(#p740f49cf31)" style="fill: none; stroke: #ffffff; stroke-linecap: round"/>
     </g>
     <g id="line2d_9"/>
     <g id="text_5">
      <!-- 3 -->
      <g style="fill: #262626" transform="translate(22.2 73.607197)scale(0.16 -0.16)">
       <defs>
        <path id="SimHei-33" d="M 250 1225 
L 700 1300 
Q 800 975 1025 762 
Q 1250 550 1587 562 
Q 1925 575 2125 837 
Q 2325 1100 2300 1437 
Q 2275 1775 2037 1962 
Q 1800 2150 1275 2225 
L 1275 2550 
Q 1800 2600 2037 2825 
Q 2275 3050 2250 3412 
Q 2225 3775 1925 3937 
Q 1625 4100 1287 3975 
Q 950 3850 750 3275 
L 300 3350 
Q 450 3800 712 4100 
Q 975 4400 1425 4450 
Q 1875 4500 2212 4337 
Q 2550 4175 2687 3837 
Q 2825 3500 2725 3100 
Q 2625 2700 2150 2400 
Q 2500 2250 2687 1950 
Q 2875 1650 2812 1162 
Q 2750 675 2375 375 
Q 2000 75 1525 87 
Q 1050 100 700 387 
Q 350 675 250 1225 
z
" transform="scale(0.015625)"/>
       </defs>
       <use xlink:href="#SimHei-33"/>
      </g>
     </g>
    </g>
   </g>
   <g id="patch_3">
    <path d="M 75.245455 243.556364 
L 125.972727 243.556364 
L 125.972727 243.556364 
L 75.245455 243.556364 
L 75.245455 243.556364 
z
" clip-path="url(#p740f49cf31)" style="fill: #5875a4; stroke: #4c4c4c; stroke-width: 1.75; stroke-linejoin: miter"/>
   </g>
   <g id="line2d_10">
    <path d="M 100.609091 243.556364 
L 100.609091 243.556364 
" clip-path="url(#p740f49cf31)" style="fill: none; stroke: #4c4c4c; stroke-width: 1.75; stroke-linecap: round"/>
   </g>
   <g id="line2d_11">
    <path d="M 100.609091 243.556364 
L 100.609091 243.556364 
" clip-path="url(#p740f49cf31)" style="fill: none; stroke: #4c4c4c; stroke-width: 1.75; stroke-linecap: round"/>
   </g>
   <g id="line2d_12">
    <path d="M 87.927273 243.556364 
L 113.290909 243.556364 
" clip-path="url(#p740f49cf31)" style="fill: none; stroke: #4c4c4c; stroke-width: 1.75; stroke-linecap: round"/>
   </g>
   <g id="line2d_13">
    <path d="M 87.927273 243.556364 
L 113.290909 243.556364 
" clip-path="url(#p740f49cf31)" style="fill: none; stroke: #4c4c4c; stroke-width: 1.75; stroke-linecap: round"/>
   </g>
   <g id="line2d_14"/>
   <g id="line2d_15">
    <path d="M 75.245455 243.556364 
L 125.972727 243.556364 
" clip-path="url(#p740f49cf31)" style="fill: none; stroke: #4c4c4c; stroke-width: 1.75; stroke-linecap: round"/>
   </g>
   <g id="patch_4">
    <path d="M 37.2 253.44 
L 37.2 36 
" style="fill: none"/>
   </g>
   <g id="patch_5">
    <path d="M 164.018182 253.44 
L 164.018182 36 
" style="fill: none"/>
   </g>
   <g id="patch_6">
    <path d="M 37.2 253.44 
L 164.018182 253.44 
" style="fill: none"/>
   </g>
   <g id="patch_7">
    <path d="M 37.2 36 
L 164.018182 36 
" style="fill: none"/>
   </g>
  </g>
  <g id="axes_2">
   <g id="patch_8">
    <path d="M 189.381818 253.44 
L 316.2 253.44 
L 316.2 36 
L 189.381818 36 
z
" style="fill: #eaeaf2"/>
   </g>
   <g id="matplotlib.axis_3">
    <g id="xtick_2">
     <g id="line2d_16"/>
    </g>
    <g id="text_6">
     <!-- 第2组 -->
     <g style="fill: #262626" transform="translate(232.790909 277.315)scale(0.16 -0.16)">
      <use xlink:href="#SimHei-7b2c"/>
      <use xlink:href="#SimHei-32" x="100"/>
      <use xlink:href="#SimHei-7ec4" x="150"/>
     </g>
    </g>
   </g>
   <g id="matplotlib.axis_4">
    <g id="ytick_5">
     <g id="line2d_17">
      <path d="M 189.381818 243.556364 
L 316.2 243.556364 
" clip-path="url(#p7f6daeddfa)" style="fill: none; stroke: #ffffff; stroke-linecap: round"/>
     </g>
     <g id="line2d_18"/>
    </g>
    <g id="ytick_6">
     <g id="line2d_19">
      <path d="M 189.381818 185.073308 
L 316.2 185.073308 
" clip-path="url(#p7f6daeddfa)" style="fill: none; stroke: #ffffff; stroke-linecap: round"/>
     </g>
     <g id="line2d_20"/>
    </g>
    <g id="ytick_7">
     <g id="line2d_21">
      <path d="M 189.381818 126.590253 
L 316.2 126.590253 
" clip-path="url(#p7f6daeddfa)" style="fill: none; stroke: #ffffff; stroke-linecap: round"/>
     </g>
     <g id="line2d_22"/>
    </g>
    <g id="ytick_8">
     <g id="line2d_23">
      <path d="M 189.381818 68.107197 
L 316.2 68.107197 
" clip-path="url(#p7f6daeddfa)" style="fill: none; stroke: #ffffff; stroke-linecap: round"/>
     </g>
     <g id="line2d_24"/>
    </g>
   </g>
   <g id="patch_9">
    <path d="M 227.427273 243.556364 
L 278.154545 243.556364 
L 278.154545 120.741947 
L 227.427273 120.741947 
L 227.427273 243.556364 
z
" clip-path="url(#p7f6daeddfa)" style="fill: #5f9e6e; stroke: #4c4c4c; stroke-width: 1.75; stroke-linejoin: miter"/>
   </g>
   <g id="line2d_25">
    <path d="M 252.790909 243.556364 
L 252.790909 243.556364 
" clip-path="url(#p7f6daeddfa)" style="fill: none; stroke: #4c4c4c; stroke-width: 1.75; stroke-linecap: round"/>
   </g>
   <g id="line2d_26">
    <path d="M 252.790909 120.741947 
L 252.790909 45.883636 
" clip-path="url(#p7f6daeddfa)" style="fill: none; stroke: #4c4c4c; stroke-width: 1.75; stroke-linecap: round"/>
   </g>
   <g id="line2d_27">
    <path d="M 240.109091 243.556364 
L 265.472727 243.556364 
" clip-path="url(#p7f6daeddfa)" style="fill: none; stroke: #4c4c4c; stroke-width: 1.75; stroke-linecap: round"/>
   </g>
   <g id="line2d_28">
    <path d="M 240.109091 45.883636 
L 265.472727 45.883636 
" clip-path="url(#p7f6daeddfa)" style="fill: none; stroke: #4c4c4c; stroke-width: 1.75; stroke-linecap: round"/>
   </g>
   <g id="line2d_29"/>
   <g id="line2d_30">
    <path d="M 227.427273 243.556364 
L 278.154545 243.556364 
" clip-path="url(#p7f6daeddfa)" style="fill: none; stroke: #4c4c4c; stroke-width: 1.75; stroke-linecap: round"/>
   </g>
   <g id="patch_10">
    <path d="M 189.381818 253.44 
L 189.381818 36 
" style="fill: none"/>
   </g>
   <g id="patch_11">
    <path d="M 316.2 253.44 
L 316.2 36 
" style="fill: none"/>
   </g>
   <g id="patch_12">
    <path d="M 189.381818 253.44 
L 316.2 253.44 
" style="fill: none"/>
   </g>
   <g id="patch_13">
    <path d="M 189.381818 36 
L 316.2 36 
" style="fill: none"/>
   </g>
  </g>
  <g id="text_7">
   <!-- 高钾亚类氧化钠(Na2O)含量箱型图 -->
   <g style="fill: #262626" transform="translate(7.2 25.160937)scale(0.22 -0.22)">
    <defs>
     <path id="SimHei-9ad8" d="M 5825 -25 
Q 5850 -400 5550 -500 
Q 5250 -600 4975 -625 
Q 4875 -325 4725 -100 
Q 4975 -100 5175 -87 
Q 5375 -75 5350 250 
L 5350 1825 
L 1100 1825 
L 1100 -575 
L 600 -575 
Q 625 -225 625 850 
Q 625 1950 600 2200 
L 5850 2200 
Q 5825 1850 5825 1425 
L 5825 -25 
z
M 4925 3800 
Q 4900 3475 4900 3175 
Q 4900 2900 4925 2600 
L 1400 2600 
Q 1425 2825 1425 3175 
Q 1425 3525 1400 3800 
L 4925 3800 
z
M 4500 1400 
Q 4475 1125 4475 800 
Q 4475 500 4500 200 
L 1950 200 
Q 2000 500 2000 800 
Q 2000 1125 1950 1400 
L 4500 1400 
z
M 425 4600 
Q 750 4575 1125 4575 
L 2925 4575 
Q 2850 4875 2750 5100 
Q 3050 5125 3350 5200 
Q 3400 4950 3525 4575 
L 5250 4575 
Q 5600 4575 5975 4600 
L 5975 4150 
Q 5600 4175 5050 4175 
L 1150 4175 
Q 750 4175 425 4150 
L 425 4600 
z
M 4450 2975 
L 4450 3425 
L 1900 3425 
L 1900 2975 
L 4450 2975 
z
M 4025 550 
L 4025 1050 
L 2400 1050 
L 2400 550 
L 4025 550 
z
" transform="scale(0.015625)"/>
     <path id="SimHei-94be" d="M 5775 4775 
Q 5750 4325 5750 3775 
L 5750 2075 
Q 5750 1625 5775 1200 
L 5300 1200 
L 5300 1450 
L 4475 1450 
L 4475 550 
Q 4475 125 4500 -575 
L 4000 -575 
Q 4025 150 4025 550 
L 4025 1450 
L 3225 1450 
L 3225 1150 
L 2750 1150 
Q 2775 1625 2775 2075 
L 2775 3800 
Q 2775 4300 2750 4775 
L 5775 4775 
z
M 1800 5000 
Q 1525 4525 1375 4225 
L 1675 4225 
Q 1975 4225 2400 4250 
L 2400 3775 
Q 1950 3800 1675 3800 
L 1150 3800 
Q 925 3425 775 3200 
Q 1150 3175 1525 3175 
Q 1900 3175 2350 3200 
L 2350 2750 
Q 1900 2775 1650 2775 
L 1650 2000 
L 1800 2000 
Q 2050 2000 2450 2025 
L 2450 1575 
Q 2000 1600 1650 1600 
L 1650 325 
Q 1975 600 2200 850 
Q 2300 625 2475 400 
Q 2200 225 1900 -25 
Q 1600 -275 1425 -475 
Q 1225 -250 1050 -75 
Q 1150 25 1200 200 
L 1200 1600 
Q 850 1600 475 1575 
L 475 2025 
Q 875 2000 1200 2000 
L 1200 2775 
Q 1050 2775 700 2750 
L 700 3075 
L 575 2900 
Q 425 3075 200 3250 
Q 500 3550 812 4125 
Q 1125 4700 1275 5200 
Q 1475 5125 1800 5000 
z
M 5300 3300 
L 5300 4375 
L 4475 4375 
L 4475 3300 
L 5300 3300 
z
M 5300 1850 
L 5300 2900 
L 4475 2900 
L 4475 1850 
L 5300 1850 
z
M 4025 3300 
L 4025 4375 
L 3225 4375 
L 3225 3300 
L 4025 3300 
z
M 4025 1850 
L 4025 2900 
L 3225 2900 
L 3225 1850 
L 4025 1850 
z
" transform="scale(0.015625)"/>
     <path id="SimHei-4e9a" d="M 4650 4775 
Q 5175 4775 5625 4800 
L 5625 4325 
Q 5200 4350 4650 4350 
L 4050 4350 
L 4050 125 
L 4775 125 
Q 5375 125 6000 150 
L 6000 -375 
Q 5400 -350 4800 -350 
L 1500 -350 
Q 950 -350 400 -375 
L 400 150 
Q 950 125 1500 125 
L 2250 125 
L 2250 4350 
L 1700 4350 
Q 1175 4350 675 4325 
L 675 4800 
Q 1175 4775 1700 4775 
L 4650 4775 
z
M 3550 125 
L 3550 4350 
L 2750 4350 
L 2750 125 
L 3550 125 
z
M 1225 3450 
Q 1400 3075 1600 2637 
Q 1800 2200 2075 1450 
Q 1800 1325 1600 1225 
Q 1400 1850 750 3200 
Q 1000 3325 1225 3450 
z
M 5675 3175 
Q 5425 2775 5212 2312 
Q 5000 1850 4675 1175 
Q 4425 1300 4200 1400 
Q 4950 2775 5150 3450 
Q 5375 3325 5675 3175 
z
" transform="scale(0.015625)"/>
     <path id="SimHei-7c7b" d="M 2125 3875 
Q 1750 4375 1325 4725 
Q 1525 4875 1675 5050 
L 2525 4225 
Q 2400 4125 2200 3875 
L 3025 3875 
L 3025 4550 
Q 3025 4900 3000 5125 
L 3525 5125 
Q 3500 4850 3500 4550 
L 3500 3875 
L 4325 3875 
Q 4125 4050 4000 4150 
Q 4450 4575 4800 5175 
Q 5000 5000 5275 4825 
Q 5100 4675 4912 4475 
Q 4725 4275 4400 3875 
L 5025 3875 
Q 5425 3875 5900 3900 
L 5900 3450 
Q 5425 3475 5025 3475 
L 3500 3475 
L 3500 3050 
Q 3500 2650 3525 2175 
L 3175 2175 
Q 3475 2075 3675 2000 
Q 3575 1875 3525 1575 
L 5025 1575 
Q 5525 1575 6025 1600 
L 6025 1150 
Q 5550 1175 5050 1175 
L 3675 1175 
Q 4050 600 4712 275 
Q 5375 -50 6050 -175 
Q 5850 -350 5725 -675 
Q 4975 -450 4350 -37 
Q 3725 375 3300 950 
Q 3050 350 2425 -50 
Q 1800 -450 775 -700 
Q 650 -425 475 -225 
Q 1375 -100 2012 225 
Q 2650 550 2900 1175 
L 1625 1175 
Q 1025 1175 525 1150 
L 525 1600 
Q 950 1575 1600 1575 
L 3025 1575 
Q 3075 1825 3100 2175 
L 3000 2175 
Q 3025 2675 3025 3050 
L 3025 3325 
Q 2725 2900 2237 2550 
Q 1750 2200 925 1825 
Q 850 2025 625 2275 
Q 1175 2400 1725 2737 
Q 2275 3075 2600 3475 
L 1550 3475 
Q 1050 3475 600 3425 
L 600 3900 
Q 1075 3875 1550 3875 
L 2125 3875 
z
M 4100 3450 
Q 4850 3000 5800 2350 
Q 5575 2125 5425 1925 
Q 4700 2550 3825 3075 
Q 3975 3250 4100 3450 
z
" transform="scale(0.015625)"/>
     <path id="SimHei-6c27" d="M 1825 2675 
Q 2125 2375 2300 2100 
Q 2125 1975 1950 1900 
L 2900 1900 
Q 3150 2200 3325 2625 
Q 3525 2500 3850 2400 
Q 3700 2300 3400 1900 
L 3625 1900 
Q 3950 1900 4300 1925 
L 4300 1525 
Q 3825 1550 3525 1550 
L 2850 1550 
L 2850 1075 
L 3400 1075 
Q 3675 1075 4050 1100 
L 4050 700 
Q 3675 725 3400 725 
L 2850 725 
L 2850 325 
L 3775 325 
Q 4075 325 4450 350 
L 4450 -75 
Q 4075 -50 3775 -50 
L 2850 -50 
Q 2850 -350 2875 -675 
L 2375 -675 
Q 2400 -350 2400 -50 
L 1325 -50 
Q 975 -50 600 -75 
L 600 350 
Q 975 350 1325 325 
L 2400 325 
L 2400 725 
L 1700 725 
Q 1300 725 925 700 
L 925 1100 
Q 1300 1100 1675 1075 
L 2400 1075 
L 2400 1550 
L 1525 1550 
Q 1200 1550 750 1525 
L 750 1925 
Q 1200 1925 1525 1900 
L 1925 1900 
Q 1725 2175 1475 2425 
Q 1600 2525 1825 2675 
z
M 1775 2750 
Q 1375 2750 750 2700 
L 750 3175 
Q 1375 3150 1775 3150 
L 5225 3150 
Q 5125 2250 5150 1537 
Q 5175 825 5325 250 
Q 5475 -325 5650 550 
Q 5800 325 6125 225 
Q 5800 -575 5587 -650 
Q 5375 -725 5100 -337 
Q 4825 50 4750 1000 
Q 4675 1950 4725 2750 
L 1775 2750 
z
M 2225 5025 
Q 2050 4900 1925 4775 
L 4675 4775 
Q 5000 4775 5575 4800 
L 5575 4350 
Q 5125 4375 4725 4375 
L 1675 4375 
Q 1475 4150 1212 3862 
Q 950 3575 600 3275 
Q 450 3425 200 3600 
Q 500 3800 925 4250 
Q 1350 4700 1675 5300 
Q 1925 5125 2225 5025 
z
M 4250 3925 
Q 4725 3925 5050 3950 
L 5050 3525 
Q 4725 3550 4250 3550 
L 2500 3550 
Q 2025 3550 1425 3525 
L 1425 3950 
Q 2025 3925 2500 3925 
L 4250 3925 
z
" transform="scale(0.015625)"/>
     <path id="SimHei-5316" d="M 3925 5025 
Q 3900 4900 3900 4400 
L 3900 2625 
Q 4375 3025 4775 3450 
Q 5175 3875 5400 4300 
Q 5600 4100 5900 3925 
Q 5700 3700 5225 3212 
Q 4750 2725 4487 2512 
Q 4225 2300 3900 2025 
L 3900 450 
Q 3900 50 4225 50 
L 5200 50 
Q 5400 75 5462 262 
Q 5525 450 5575 850 
Q 5800 650 6150 600 
Q 6000 -100 5825 -250 
Q 5650 -400 5350 -400 
L 3950 -400 
Q 3425 -400 3400 200 
L 3400 1675 
Q 3225 1525 2962 1350 
Q 2700 1175 2375 975 
Q 2225 1225 2025 1400 
Q 2350 1550 2737 1787 
Q 3125 2025 3400 2250 
L 3400 4500 
Q 3400 4800 3375 5025 
L 3925 5025 
z
M 2400 4850 
Q 2175 4550 2075 4337 
Q 1975 4125 1825 3775 
L 1825 675 
Q 1825 -75 1850 -550 
L 1325 -550 
Q 1350 -125 1350 650 
L 1350 3050 
Q 1125 2725 962 2525 
Q 800 2325 675 2175 
Q 500 2375 275 2525 
Q 625 2850 875 3212 
Q 1125 3575 1312 3912 
Q 1500 4250 1625 4575 
Q 1750 4900 1825 5100 
Q 1975 4975 2400 4850 
z
" transform="scale(0.015625)"/>
     <path id="SimHei-94a0" d="M 3250 -475 
L 2800 -475 
Q 2825 -25 2825 650 
L 2825 3050 
Q 2825 3675 2800 4125 
L 4100 4125 
Q 4100 4650 4075 5200 
Q 4350 5200 4650 5175 
Q 4575 5000 4550 4737 
Q 4525 4475 4525 4125 
L 5925 4125 
Q 5900 3775 5900 3175 
L 5900 50 
Q 5900 -325 5637 -400 
Q 5375 -475 5050 -525 
Q 4950 -250 4825 -25 
Q 5200 -25 5325 12 
Q 5450 50 5450 275 
L 5450 3750 
L 4525 3750 
Q 4500 3250 4450 2700 
Q 5100 2025 5350 1600 
Q 5150 1425 5000 1275 
Q 4700 1825 4350 2250 
Q 4025 1575 3625 1025 
Q 3425 1150 3250 1225 
L 3250 -475 
z
M 200 3050 
Q 450 3300 725 3850 
Q 1000 4400 1150 5150 
Q 1400 5050 1700 5025 
Q 1600 4825 1375 4225 
L 1850 4225 
Q 2100 4225 2575 4250 
L 2575 3825 
Q 2225 3850 1850 3850 
L 1225 3850 
Q 1100 3575 875 3150 
Q 1150 3125 1525 3125 
Q 1900 3125 2275 3150 
L 2275 2750 
Q 2000 2775 1675 2775 
L 1675 2000 
L 2050 2000 
Q 2250 2000 2500 2025 
L 2500 1600 
Q 2250 1625 2100 1625 
L 1675 1625 
L 1675 450 
Q 2200 825 2425 1000 
Q 2450 800 2525 550 
Q 2300 400 1950 150 
Q 1600 -100 1350 -350 
Q 1175 -125 1025 50 
Q 1175 125 1250 525 
L 1250 1625 
Q 925 1625 525 1600 
L 525 2025 
Q 925 2000 1250 2000 
L 1250 2775 
Q 1100 2775 800 2750 
L 800 3025 
L 600 2725 
Q 425 2925 200 3050 
z
M 3250 1375 
Q 3525 1675 3687 1962 
Q 3850 2250 3950 2562 
Q 4050 2875 4100 3750 
L 3250 3750 
L 3250 1375 
z
" transform="scale(0.015625)"/>
     <path id="SimHei-28" d="M 2975 -200 
L 2700 -475 
Q 2075 125 1762 775 
Q 1450 1425 1450 2250 
Q 1450 3075 1762 3725 
Q 2075 4375 2700 5000 
L 2975 4725 
Q 2400 4175 2112 3587 
Q 1825 3000 1825 2250 
Q 1825 1500 2112 912 
Q 2400 325 2975 -200 
z
" transform="scale(0.015625)"/>
     <path id="SimHei-4e" d="M 2850 125 
L 2225 125 
L 850 3225 
L 825 3225 
L 825 125 
L 250 125 
L 250 4400 
L 875 4400 
L 2250 1300 
L 2275 1300 
L 2275 4400 
L 2850 4400 
L 2850 125 
z
" transform="scale(0.015625)"/>
     <path id="SimHei-61" d="M 2875 125 
L 2275 125 
Q 2225 175 2200 262 
Q 2175 350 2175 475 
Q 2000 275 1750 175 
Q 1500 75 1225 75 
Q 825 75 550 275 
Q 275 475 275 850 
Q 275 1225 525 1450 
Q 775 1675 1300 1750 
Q 1650 1800 1912 1875 
Q 2175 1950 2175 2075 
Q 2175 2225 2062 2375 
Q 1950 2525 1575 2525 
Q 1275 2525 1137 2412 
Q 1000 2300 950 2100 
L 400 2100 
Q 450 2500 762 2737 
Q 1075 2975 1575 2975 
Q 2125 2975 2400 2725 
Q 2675 2475 2675 2025 
L 2675 650 
Q 2675 500 2725 375 
Q 2775 250 2875 125 
z
M 2175 1050 
L 2175 1550 
Q 2025 1500 1887 1462 
Q 1750 1425 1425 1375 
Q 1050 1325 937 1200 
Q 825 1075 825 900 
Q 825 750 937 637 
Q 1050 525 1275 525 
Q 1500 525 1762 650 
Q 2025 775 2175 1050 
z
" transform="scale(0.015625)"/>
     <path id="SimHei-4f" d="M 2950 2275 
Q 2950 1100 2587 587 
Q 2225 75 1575 75 
Q 925 75 550 587 
Q 175 1100 175 2275 
Q 175 3450 550 3950 
Q 925 4450 1575 4450 
Q 2225 4450 2587 3950 
Q 2950 3450 2950 2275 
z
M 2350 2275 
Q 2350 3325 2125 3650 
Q 1900 3975 1575 3975 
Q 1250 3975 1012 3650 
Q 775 3325 775 2275 
Q 775 1225 1012 887 
Q 1250 550 1575 550 
Q 1900 550 2125 887 
Q 2350 1225 2350 2275 
z
" transform="scale(0.015625)"/>
     <path id="SimHei-29" d="M 1675 2250 
Q 1675 1425 1362 775 
Q 1050 125 425 -475 
L 150 -200 
Q 725 325 1012 912 
Q 1300 1500 1300 2250 
Q 1300 3000 1012 3587 
Q 725 4175 150 4725 
L 425 5000 
Q 1050 4375 1362 3725 
Q 1675 3075 1675 2250 
z
" transform="scale(0.015625)"/>
     <path id="SimHei-542b" d="M 4525 -575 
L 4525 -200 
L 1850 -200 
L 1850 -625 
L 1325 -625 
Q 1350 -275 1350 275 
Q 1350 850 1325 1450 
L 5050 1450 
Q 5025 1175 5025 425 
Q 5025 -300 5050 -575 
L 4525 -575 
z
M 3350 4850 
Q 3625 4525 4325 4062 
Q 5025 3600 6150 3300 
Q 5850 3075 5750 2750 
Q 5050 3025 4337 3462 
Q 3625 3900 3125 4500 
Q 2500 3800 1912 3387 
Q 1325 2975 625 2650 
Q 550 2850 275 3100 
Q 1100 3325 1862 3925 
Q 2625 4525 2975 5275 
Q 3325 5150 3525 5050 
L 3350 4850 
z
M 4525 200 
L 4525 1050 
L 1850 1050 
L 1850 200 
L 4525 200 
z
M 4775 2875 
Q 4525 2600 4200 2200 
Q 3875 1800 3600 1500 
Q 3425 1675 3250 1750 
Q 3525 2025 3875 2500 
L 1975 2500 
Q 1750 2500 1350 2475 
L 1350 2900 
Q 1750 2875 1975 2875 
L 4775 2875 
z
M 3050 3925 
Q 3425 3400 3475 3225 
Q 3375 3200 3050 3025 
Q 2850 3475 2675 3700 
Q 2925 3800 3050 3925 
z
" transform="scale(0.015625)"/>
     <path id="SimHei-91cf" d="M 5250 2500 
Q 5225 2200 5225 1700 
Q 5225 1225 5250 950 
L 3425 950 
L 3425 625 
L 4575 625 
Q 5000 625 5375 650 
L 5375 275 
Q 5025 300 4575 300 
L 3425 300 
L 3425 -75 
L 5125 -75 
Q 5525 -75 5925 -50 
L 5925 -425 
Q 5525 -400 5125 -400 
L 1275 -400 
Q 900 -400 475 -425 
L 475 -50 
Q 925 -50 1275 -75 
L 2975 -75 
L 2975 300 
L 1725 300 
Q 1350 300 975 250 
L 975 650 
Q 1375 625 1725 625 
L 2975 625 
L 2975 950 
L 1150 950 
Q 1175 1375 1175 1775 
Q 1175 2175 1150 2500 
L 5250 2500 
z
M 5200 4950 
Q 5175 4575 5175 4250 
Q 5175 3925 5200 3400 
L 1200 3400 
Q 1225 3925 1225 4250 
Q 1225 4575 1200 4950 
L 5200 4950 
z
M 4900 3100 
Q 5500 3125 6000 3150 
L 6000 2750 
Q 5500 2775 4925 2775 
L 1650 2775 
Q 975 2775 325 2750 
L 325 3150 
Q 975 3125 1650 3100 
L 4900 3100 
z
M 4725 3700 
L 4725 4025 
L 1675 4025 
L 1675 3700 
L 4725 3700 
z
M 4725 4350 
L 4725 4650 
L 1675 4650 
L 1675 4350 
L 4725 4350 
z
M 4750 1875 
L 4750 2175 
L 3425 2175 
L 3425 1875 
L 4750 1875 
z
M 2975 1875 
L 2975 2175 
L 1650 2175 
L 1650 1875 
L 2975 1875 
z
M 2975 1275 
L 2975 1550 
L 1650 1550 
L 1650 1275 
L 2975 1275 
z
M 4750 1275 
L 4750 1550 
L 3425 1550 
L 3425 1275 
L 4750 1275 
z
" transform="scale(0.015625)"/>
     <path id="SimHei-7bb1" d="M 5750 3350 
Q 5725 2925 5725 2625 
L 5725 750 
Q 5725 200 5750 -575 
L 5250 -575 
L 5250 -75 
L 3525 -75 
L 3525 -575 
L 3050 -575 
Q 3075 125 3075 600 
L 3075 2575 
Q 3075 2900 3050 3350 
L 5750 3350 
z
M 1450 2625 
Q 1450 3125 1425 3525 
L 1950 3525 
Q 1925 3200 1925 2625 
Q 2325 2625 2725 2650 
L 2725 2250 
Q 2375 2275 1925 2275 
L 1925 1675 
Q 2050 1750 2275 1950 
Q 2725 1425 2950 1100 
Q 2725 1000 2550 825 
Q 2375 1150 1925 1625 
L 1925 525 
Q 1925 0 1950 -625 
L 1425 -625 
Q 1450 0 1450 525 
L 1450 1450 
Q 1350 1200 1187 875 
Q 1025 550 600 25 
Q 450 300 250 450 
Q 575 775 875 1250 
Q 1175 1725 1325 2275 
Q 875 2275 450 2250 
L 450 2650 
Q 875 2625 1450 2625 
z
M 3350 4300 
Q 2825 4325 2325 4325 
Q 2400 4050 2550 3625 
Q 2275 3550 2050 3450 
Q 1975 3875 1850 4325 
L 1550 4325 
Q 1325 4000 1125 3787 
Q 925 3575 700 3400 
Q 525 3600 250 3750 
Q 800 4125 1100 4562 
Q 1400 5000 1500 5275 
Q 1775 5175 2125 5075 
Q 1975 4925 1825 4700 
L 2600 4700 
Q 3050 4700 3350 4725 
L 3350 4300 
z
M 5375 3675 
Q 5125 3575 4900 3475 
Q 4800 3825 4675 4275 
L 4175 4275 
Q 3775 3650 3600 3450 
Q 3325 3600 3125 3700 
Q 3450 4025 3700 4425 
Q 3950 4825 4125 5250 
Q 4400 5175 4700 5075 
Q 4525 4900 4400 4650 
L 5375 4650 
Q 5600 4650 6075 4675 
L 6075 4250 
Q 5375 4275 5125 4275 
Q 5200 4050 5375 3675 
z
M 5250 300 
L 5250 1025 
L 3525 1025 
L 3525 300 
L 5250 300 
z
M 5250 2375 
L 5250 3000 
L 3525 3000 
L 3525 2375 
L 5250 2375 
z
M 5250 1400 
L 5250 2000 
L 3525 2000 
L 3525 1400 
L 5250 1400 
z
" transform="scale(0.015625)"/>
     <path id="SimHei-578b" d="M 2625 1775 
Q 2650 2325 2650 2700 
L 2650 3000 
L 1825 3000 
Q 1725 2375 1425 2000 
Q 1125 1625 775 1425 
Q 650 1650 375 1900 
Q 850 2075 1062 2362 
Q 1275 2650 1350 3000 
Q 900 3000 375 2975 
L 375 3450 
Q 925 3425 1400 3425 
Q 1425 3950 1425 4475 
Q 1075 4475 700 4450 
L 700 4900 
Q 1050 4875 1525 4875 
L 3000 4875 
Q 3275 4875 3650 4900 
L 3650 4450 
Q 3325 4475 3125 4475 
L 3125 3425 
Q 3450 3425 3825 3450 
L 3825 2975 
Q 3450 3000 3125 3000 
L 3125 2675 
Q 3125 2225 3150 1775 
L 2625 1775 
z
M 3000 1175 
Q 3000 1375 2975 1725 
L 3500 1725 
Q 3475 1375 3475 1175 
L 4550 1175 
Q 5050 1175 5450 1200 
L 5450 725 
Q 4975 750 4550 750 
L 3475 750 
L 3475 -50 
L 5275 -50 
Q 5700 -50 6100 -25 
L 6100 -500 
Q 5725 -475 5300 -475 
L 1250 -475 
Q 775 -475 400 -500 
L 400 -25 
Q 775 -50 1250 -50 
L 3000 -50 
L 3000 750 
L 2025 750 
Q 1500 750 975 725 
L 1050 1200 
Q 1500 1175 2025 1175 
L 3000 1175 
z
M 5775 5200 
Q 5750 4775 5750 4325 
L 5750 2400 
Q 5775 1950 5612 1775 
Q 5450 1600 4900 1525 
Q 4825 1775 4675 2100 
Q 5175 2075 5237 2150 
Q 5300 2225 5300 2525 
L 5300 4325 
Q 5300 4775 5275 5200 
L 5775 5200 
z
M 4600 4750 
Q 4575 4450 4575 3975 
L 4575 3200 
Q 4575 2825 4600 2425 
L 4100 2425 
Q 4125 2825 4125 3200 
L 4125 3975 
Q 4125 4450 4100 4750 
L 4600 4750 
z
M 2650 3425 
L 2650 4475 
L 1875 4475 
Q 1850 3750 1850 3425 
L 2650 3425 
z
" transform="scale(0.015625)"/>
     <path id="SimHei-56fe" d="M 5800 4975 
Q 5775 4350 5775 3600 
L 5775 925 
Q 5775 150 5800 -600 
L 5300 -600 
L 5300 -275 
L 1125 -275 
L 1125 -650 
L 625 -650 
Q 650 125 650 950 
L 650 3600 
Q 650 4325 625 4975 
L 5800 4975 
z
M 5300 150 
L 5300 4575 
L 1125 4575 
L 1125 150 
L 5300 150 
z
M 3225 4250 
Q 3075 4100 2950 3925 
L 4625 3925 
Q 4525 3700 4300 3375 
Q 4075 3050 3600 2600 
Q 4350 2225 5075 2150 
Q 4900 1925 4775 1675 
Q 3850 1950 3225 2350 
Q 2500 1875 1675 1650 
Q 1600 1875 1400 2075 
Q 2200 2200 2875 2600 
Q 2525 2925 2375 3150 
Q 2150 2900 1900 2650 
Q 1725 2850 1525 2950 
Q 1950 3300 2250 3737 
Q 2550 4175 2675 4475 
Q 2925 4350 3225 4250 
z
M 2450 1275 
Q 3550 950 4100 725 
Q 3975 525 3850 300 
Q 2825 725 2275 850 
Q 2375 1050 2450 1275 
z
M 2925 2050 
Q 3775 1700 4075 1600 
Q 3950 1400 3850 1150 
Q 3000 1550 2700 1650 
Q 2825 1825 2925 2050 
z
M 2625 3450 
Q 3000 3025 3275 2850 
Q 3600 3100 3875 3525 
L 2675 3525 
L 2625 3450 
z
" transform="scale(0.015625)"/>
    </defs>
    <use xlink:href="#SimHei-9ad8"/>
    <use xlink:href="#SimHei-94be" x="100"/>
    <use xlink:href="#SimHei-4e9a" x="200"/>
    <use xlink:href="#SimHei-7c7b" x="300"/>
    <use xlink:href="#SimHei-6c27" x="400"/>
    <use xlink:href="#SimHei-5316" x="500"/>
    <use xlink:href="#SimHei-94a0" x="600"/>
    <use xlink:href="#SimHei-28" x="700"/>
    <use xlink:href="#SimHei-4e" x="750"/>
    <use xlink:href="#SimHei-61" x="800"/>
    <use xlink:href="#SimHei-32" x="850"/>
    <use xlink:href="#SimHei-4f" x="900"/>
    <use xlink:href="#SimHei-29" x="950"/>
    <use xlink:href="#SimHei-542b" x="1000"/>
    <use xlink:href="#SimHei-91cf" x="1100"/>
    <use xlink:href="#SimHei-7bb1" x="1200"/>
    <use xlink:href="#SimHei-578b" x="1300"/>
    <use xlink:href="#SimHei-56fe" x="1400"/>
   </g>
  </g>
 </g>
 <defs>
  <clipPath id="p740f49cf31">
   <rect x="37.2" y="36" width="126.818182" height="217.44"/>
  </clipPath>
  <clipPath id="p7f6daeddfa">
   <rect x="189.381818" y="36" width="126.818182" height="217.44"/>
  </clipPath>
 </defs>
</svg>
