<svg width="1779" height="1086" xmlns="http://www.w3.org/2000/svg" xmlns:xlink="http://www.w3.org/1999/xlink" overflow="hidden"><defs><clipPath id="clip0"><rect x="2200" y="604" width="1779" height="1086"/></clipPath><clipPath id="clip1"><rect x="2200" y="603" width="1778" height="1087"/></clipPath><clipPath id="clip2"><rect x="2200" y="603" width="1778" height="1087"/></clipPath><clipPath id="clip3"><rect x="2352" y="782" width="1575" height="666"/></clipPath><clipPath id="clip4"><rect x="2200" y="603" width="1778" height="1087"/></clipPath><clipPath id="clip5"><rect x="2352" y="782" width="1575" height="666"/></clipPath><clipPath id="clip6"><rect x="2200" y="603" width="1778" height="1087"/></clipPath><clipPath id="clip7"><rect x="2352" y="782" width="1575" height="666"/></clipPath><clipPath id="clip8"><rect x="2200" y="603" width="1778" height="1087"/></clipPath><clipPath id="clip9"><rect x="2352" y="782" width="1575" height="666"/></clipPath><clipPath id="clip10"><rect x="2200" y="603" width="1778" height="1087"/></clipPath><clipPath id="clip11"><rect x="2200" y="603" width="1778" height="1087"/></clipPath><clipPath id="clip12"><rect x="2200" y="603" width="1778" height="1087"/></clipPath><clipPath id="clip13"><rect x="2200" y="603" width="1778" height="1087"/></clipPath><clipPath id="clip14"><rect x="2200" y="603" width="1778" height="1087"/></clipPath><clipPath id="clip15"><rect x="2200" y="603" width="1778" height="1087"/></clipPath><clipPath id="clip16"><rect x="2200" y="603" width="1778" height="1087"/></clipPath><clipPath id="clip17"><rect x="2200" y="603" width="1778" height="1087"/></clipPath><clipPath id="clip18"><rect x="2200" y="603" width="1778" height="1087"/></clipPath><clipPath id="clip19"><rect x="2200" y="603" width="1778" height="1087"/></clipPath><clipPath id="clip20"><rect x="2200" y="603" width="1778" height="1087"/></clipPath><clipPath id="clip21"><rect x="2200" y="603" width="1778" height="1087"/></clipPath><clipPath id="clip22"><rect x="2200" y="603" width="1778" height="1087"/></clipPath><clipPath id="clip23"><rect x="2200" y="603" width="1778" height="1087"/></clipPath><clipPath id="clip24"><rect x="2200" y="603" width="1778" height="1087"/></clipPath><clipPath id="clip25"><rect x="2200" y="603" width="1778" height="1087"/></clipPath><clipPath id="clip26"><rect x="2200" y="603" width="1778" height="1087"/></clipPath><clipPath id="clip27"><rect x="2200" y="603" width="1778" height="1087"/></clipPath><clipPath id="clip28"><rect x="2200" y="603" width="1778" height="1087"/></clipPath><clipPath id="clip29"><rect x="2200" y="603" width="1778" height="1087"/></clipPath><clipPath id="clip30"><rect x="2200" y="603" width="1778" height="1087"/></clipPath><clipPath id="clip31"><rect x="2200" y="603" width="1778" height="1087"/></clipPath><clipPath id="clip32"><rect x="2200" y="603" width="1778" height="1087"/></clipPath><clipPath id="clip33"><rect x="2200" y="603" width="1778" height="1087"/></clipPath><clipPath id="clip34"><rect x="2200" y="603" width="1778" height="1087"/></clipPath><clipPath id="clip35"><rect x="2200" y="603" width="1778" height="1087"/></clipPath><clipPath id="clip36"><rect x="2200" y="603" width="1778" height="1087"/></clipPath><clipPath id="clip37"><rect x="2200" y="603" width="1778" height="1087"/></clipPath><clipPath id="clip38"><rect x="2200" y="603" width="1778" height="1087"/></clipPath><clipPath id="clip39"><rect x="2200" y="603" width="1778" height="1087"/></clipPath><clipPath id="clip40"><rect x="2200" y="603" width="1778" height="1087"/></clipPath><clipPath id="clip41"><rect x="2200" y="603" width="1778" height="1087"/></clipPath><clipPath id="clip42"><rect x="2200" y="603" width="1778" height="1087"/></clipPath></defs><g clip-path="url(#clip0)" transform="translate(-2200 -604)"><g clip-path="url(#clip1)"><path d="M2352.5 1445.5 3923.5 1445.5M2352.5 1379.55 3923.5 1379.55M2352.5 1312.54 3923.5 1312.54M2352.5 1246.54 3923.5 1246.54M2352.5 1180.54 3923.5 1180.54M2352.5 1113.54 3923.5 1113.54M2352.5 981.532 3923.5 981.532M2352.5 915.53 3923.5 915.53M2352.5 848.528 3923.5 848.528M2352.5 782.5 3923.5 782.5" stroke="#D9D9D9" stroke-width="3.4375" stroke-linejoin="round" stroke-miterlimit="10" fill="none"/></g><g clip-path="url(#clip2)"><path d="M2352.5 1047.5 3923.5 1047.5" stroke="#D9D9D9" stroke-width="3.4375" stroke-linejoin="round" stroke-miterlimit="10" fill="none" fill-rule="evenodd"/></g><g clip-path="url(#clip3)"><path d="M2465 1009.03 2689.09 926 2914.1 1028.03 3138.1 1134.04 3363.11 1204.04 3587.12 1229 3812 1182.04" stroke="#DD8C32" stroke-width="10.3125" stroke-linecap="round" stroke-linejoin="round" stroke-miterlimit="10" fill="none"/></g><g clip-path="url(#clip4)"><path d="M2481 1008.91C2481 1017.75 2473.84 1024.91 2465 1024.91 2456.16 1024.91 2449 1017.75 2449 1008.91 2449 1000.08 2456.16 992.912 2465 992.912 2473.84 992.912 2481 1000.08 2481 1008.91Z" stroke="#DD8C32" stroke-width="10.3125" stroke-linejoin="round" stroke-miterlimit="10" fill="#FFFFFF"/><path d="M2705 925.912C2705 934.748 2697.84 941.911 2689 941.911 2680.16 941.911 2673 934.748 2673 925.912 2673 917.075 2680.16 909.912 2689 909.912 2697.84 909.912 2705 917.075 2705 925.912Z" stroke="#DD8C32" stroke-width="10.3125" stroke-linejoin="round" stroke-miterlimit="10" fill="#FFFFFF"/><path d="M2930 1027.91C2930 1036.75 2922.84 1043.91 2914 1043.91 2905.16 1043.91 2898 1036.75 2898 1027.91 2898 1019.08 2905.16 1011.91 2914 1011.91 2922.84 1011.91 2930 1019.08 2930 1027.91Z" stroke="#DD8C32" stroke-width="10.3125" stroke-linejoin="round" stroke-miterlimit="10" fill="#FFFFFF"/><path d="M3154 1133.91C3154 1142.75 3146.84 1149.91 3138 1149.91 3129.16 1149.91 3122 1142.75 3122 1133.91 3122 1125.08 3129.16 1117.91 3138 1117.91 3146.84 1117.91 3154 1125.08 3154 1133.91Z" stroke="#DD8C32" stroke-width="10.3125" stroke-linejoin="round" stroke-miterlimit="10" fill="#FFFFFF"/><path d="M3379 1203.91C3379 1212.75 3371.84 1219.91 3363 1219.91 3354.16 1219.91 3347 1212.75 3347 1203.91 3347 1195.08 3354.16 1187.91 3363 1187.91 3371.84 1187.91 3379 1195.08 3379 1203.91Z" stroke="#DD8C32" stroke-width="10.3125" stroke-linejoin="round" stroke-miterlimit="10" fill="#FFFFFF"/><path d="M3603 1228.91C3603 1237.75 3595.84 1244.91 3587 1244.91 3578.16 1244.91 3571 1237.75 3571 1228.91 3571 1220.08 3578.16 1212.91 3587 1212.91 3595.84 1212.91 3603 1220.08 3603 1228.91Z" stroke="#DD8C32" stroke-width="10.3125" stroke-linejoin="round" stroke-miterlimit="10" fill="#FFFFFF"/><path d="M3828 1181.91C3828 1190.75 3820.84 1197.91 3812 1197.91 3803.16 1197.91 3796 1190.75 3796 1181.91 3796 1173.08 3803.16 1165.91 3812 1165.91 3820.84 1165.91 3828 1173.08 3828 1181.91Z" stroke="#DD8C32" stroke-width="10.3125" stroke-linejoin="round" stroke-miterlimit="10" fill="#FFFFFF"/></g><g clip-path="url(#clip5)"><path d="M2465 1135.04 2689.09 1179 2914.1 1177.04 3138.1 1167.04 3363.11 1128.04 3587.12 1038.03 3812 924" stroke="#EFC653" stroke-width="10.3125" stroke-linecap="round" stroke-linejoin="round" stroke-miterlimit="10" fill="none"/></g><g clip-path="url(#clip6)"><path d="M2481 1134.91C2481 1143.75 2473.84 1150.91 2465 1150.91 2456.16 1150.91 2449 1143.75 2449 1134.91 2449 1126.08 2456.16 1118.91 2465 1118.91 2473.84 1118.91 2481 1126.08 2481 1134.91Z" stroke="#EFC653" stroke-width="10.3125" stroke-linejoin="round" stroke-miterlimit="10" fill="#FFFFFF"/><path d="M2705 1178.91C2705 1187.75 2697.84 1194.91 2689 1194.91 2680.16 1194.91 2673 1187.75 2673 1178.91 2673 1170.08 2680.16 1162.91 2689 1162.91 2697.84 1162.91 2705 1170.08 2705 1178.91Z" stroke="#EFC653" stroke-width="10.3125" stroke-linejoin="round" stroke-miterlimit="10" fill="#FFFFFF"/><path d="M2930 1177.91C2930 1186.75 2922.84 1193.91 2914 1193.91 2905.16 1193.91 2898 1186.75 2898 1177.91 2898 1169.08 2905.16 1161.91 2914 1161.91 2922.84 1161.91 2930 1169.08 2930 1177.91Z" stroke="#EFC653" stroke-width="10.3125" stroke-linejoin="round" stroke-miterlimit="10" fill="#FFFFFF"/><path d="M3154 1166.91C3154 1175.75 3146.84 1182.91 3138 1182.91 3129.16 1182.91 3122 1175.75 3122 1166.91 3122 1158.08 3129.16 1150.91 3138 1150.91 3146.84 1150.91 3154 1158.08 3154 1166.91Z" stroke="#EFC653" stroke-width="10.3125" stroke-linejoin="round" stroke-miterlimit="10" fill="#FFFFFF"/><path d="M3379 1127.91C3379 1136.75 3371.84 1143.91 3363 1143.91 3354.16 1143.91 3347 1136.75 3347 1127.91 3347 1119.08 3354.16 1111.91 3363 1111.91 3371.84 1111.91 3379 1119.08 3379 1127.91Z" stroke="#EFC653" stroke-width="10.3125" stroke-linejoin="round" stroke-miterlimit="10" fill="#FFFFFF"/><path d="M3603 1037.91C3603 1046.75 3595.84 1053.91 3587 1053.91 3578.16 1053.91 3571 1046.75 3571 1037.91 3571 1029.08 3578.16 1021.91 3587 1021.91 3595.84 1021.91 3603 1029.08 3603 1037.91Z" stroke="#EFC653" stroke-width="10.3125" stroke-linejoin="round" stroke-miterlimit="10" fill="#FFFFFF"/><path d="M3828 923.912C3828 932.748 3820.84 939.912 3812 939.912 3803.16 939.912 3796 932.748 3796 923.912 3796 915.075 3803.16 907.912 3812 907.912 3820.84 907.912 3828 915.075 3828 923.912Z" stroke="#EFC653" stroke-width="10.3125" stroke-linejoin="round" stroke-miterlimit="10" fill="#FFFFFF"/></g><g clip-path="url(#clip7)"><path d="M2465 813 2689.09 972.032 2914.1 1035.03 3138.1 1115.04 3363.11 1145.04 3587.12 1147.04 3812 1238" stroke="#E31E26" stroke-width="10.3125" stroke-linecap="round" stroke-linejoin="round" stroke-miterlimit="10" fill="none"/></g><g clip-path="url(#clip8)"><path d="M2481 812.912C2481 821.748 2473.84 828.912 2465 828.912 2456.16 828.912 2449 821.748 2449 812.912 2449 804.075 2456.16 796.912 2465 796.912 2473.84 796.912 2481 804.075 2481 812.912Z" stroke="#E31E26" stroke-width="10.3125" stroke-linejoin="round" stroke-miterlimit="10" fill="#FFFFFF"/><path d="M2705 971.912C2705 980.748 2697.84 987.912 2689 987.912 2680.16 987.912 2673 980.748 2673 971.912 2673 963.075 2680.16 955.912 2689 955.912 2697.84 955.912 2705 963.075 2705 971.912Z" stroke="#E31E26" stroke-width="10.3125" stroke-linejoin="round" stroke-miterlimit="10" fill="#FFFFFF"/><path d="M2930 1034.91C2930 1043.75 2922.84 1050.91 2914 1050.91 2905.16 1050.91 2898 1043.75 2898 1034.91 2898 1026.08 2905.16 1018.91 2914 1018.91 2922.84 1018.91 2930 1026.08 2930 1034.91Z" stroke="#E31E26" stroke-width="10.3125" stroke-linejoin="round" stroke-miterlimit="10" fill="#FFFFFF"/><path d="M3154 1114.91C3154 1123.75 3146.84 1130.91 3138 1130.91 3129.16 1130.91 3122 1123.75 3122 1114.91 3122 1106.08 3129.16 1098.91 3138 1098.91 3146.84 1098.91 3154 1106.08 3154 1114.91Z" stroke="#E31E26" stroke-width="10.3125" stroke-linejoin="round" stroke-miterlimit="10" fill="#FFFFFF"/><path d="M3379 1145.91C3379 1154.75 3371.84 1161.91 3363 1161.91 3354.16 1161.91 3347 1154.75 3347 1145.91 3347 1137.08 3354.16 1129.91 3363 1129.91 3371.84 1129.91 3379 1137.08 3379 1145.91Z" stroke="#E31E26" stroke-width="10.3125" stroke-linejoin="round" stroke-miterlimit="10" fill="#FFFFFF"/><path d="M3603 1146.91C3603 1155.75 3595.84 1162.91 3587 1162.91 3578.16 1162.91 3571 1155.75 3571 1146.91 3571 1138.08 3578.16 1130.91 3587 1130.91 3595.84 1130.91 3603 1138.08 3603 1146.91Z" stroke="#E31E26" stroke-width="10.3125" stroke-linejoin="round" stroke-miterlimit="10" fill="#FFFFFF"/><path d="M3828 1237.91C3828 1246.75 3820.84 1253.91 3812 1253.91 3803.16 1253.91 3796 1246.75 3796 1237.91 3796 1229.08 3803.16 1221.91 3812 1221.91 3820.84 1221.91 3828 1229.08 3828 1237.91Z" stroke="#E31E26" stroke-width="10.3125" stroke-linejoin="round" stroke-miterlimit="10" fill="#FFFFFF"/></g><g clip-path="url(#clip9)"><path d="M2465 1247.04 2689.09 1418 2914.1 1274.04 3138.1 1118.04 3363.11 1002.03 3587.12 923.03 3812 891" stroke="#A1BF64" stroke-width="10.3125" stroke-linecap="round" stroke-linejoin="round" stroke-miterlimit="10" fill="none"/></g><g clip-path="url(#clip10)"><path d="M2481 1246.91C2481 1255.75 2473.84 1262.91 2465 1262.91 2456.16 1262.91 2449 1255.75 2449 1246.91 2449 1238.08 2456.16 1230.91 2465 1230.91 2473.84 1230.91 2481 1238.08 2481 1246.91Z" stroke="#A1BF64" stroke-width="10.3125" stroke-linejoin="round" stroke-miterlimit="10" fill="#FFFFFF"/><path d="M2705 1417.91C2705 1426.75 2697.84 1433.91 2689 1433.91 2680.16 1433.91 2673 1426.75 2673 1417.91 2673 1409.08 2680.16 1401.91 2689 1401.91 2697.84 1401.91 2705 1409.08 2705 1417.91Z" stroke="#A1BF64" stroke-width="10.3125" stroke-linejoin="round" stroke-miterlimit="10" fill="#FFFFFF"/><path d="M2930 1273.91C2930 1282.75 2922.84 1289.91 2914 1289.91 2905.16 1289.91 2898 1282.75 2898 1273.91 2898 1265.08 2905.16 1257.91 2914 1257.91 2922.84 1257.91 2930 1265.08 2930 1273.91Z" stroke="#A1BF64" stroke-width="10.3125" stroke-linejoin="round" stroke-miterlimit="10" fill="#FFFFFF"/><path d="M3154 1117.91C3154 1126.75 3146.84 1133.91 3138 1133.91 3129.16 1133.91 3122 1126.75 3122 1117.91 3122 1109.08 3129.16 1101.91 3138 1101.91 3146.84 1101.91 3154 1109.08 3154 1117.91Z" stroke="#A1BF64" stroke-width="10.3125" stroke-linejoin="round" stroke-miterlimit="10" fill="#FFFFFF"/><path d="M3379 1001.91C3379 1010.75 3371.84 1017.91 3363 1017.91 3354.16 1017.91 3347 1010.75 3347 1001.91 3347 993.075 3354.16 985.912 3363 985.912 3371.84 985.912 3379 993.075 3379 1001.91Z" stroke="#A1BF64" stroke-width="10.3125" stroke-linejoin="round" stroke-miterlimit="10" fill="#FFFFFF"/><path d="M3603 922.912C3603 931.748 3595.84 938.912 3587 938.912 3578.16 938.912 3571 931.748 3571 922.912 3571 914.075 3578.16 906.912 3587 906.912 3595.84 906.912 3603 914.075 3603 922.912Z" stroke="#A1BF64" stroke-width="10.3125" stroke-linejoin="round" stroke-miterlimit="10" fill="#FFFFFF"/><path d="M3828 890.912C3828 899.748 3820.84 906.912 3812 906.912 3803.16 906.912 3796 899.748 3796 890.912 3796 882.075 3803.16 874.912 3812 874.912 3820.84 874.912 3828 882.075 3828 890.912Z" stroke="#A1BF64" stroke-width="10.3125" stroke-linejoin="round" stroke-miterlimit="10" fill="#FFFFFF"/></g><g clip-path="url(#clip11)"><text fill="#595959" font-family="DengXian,DengXian_MSFontService,sans-serif" font-weight="400" font-size="41" transform="matrix(1 0 0 1 2246.93 1457)">-1.5</text></g><g clip-path="url(#clip12)"><text fill="#595959" font-family="DengXian,DengXian_MSFontService,sans-serif" font-weight="400" font-size="41" transform="matrix(1 0 0 1 2225.21 1390)">-1.25</text></g><g clip-path="url(#clip13)"><text fill="#595959" font-family="DengXian,DengXian_MSFontService,sans-serif" font-weight="400" font-size="41" transform="matrix(1 0 0 1 2277.71 1324)">-1</text></g><g clip-path="url(#clip14)"><text fill="#595959" font-family="DengXian,DengXian_MSFontService,sans-serif" font-weight="400" font-size="41" transform="matrix(1 0 0 1 2225.21 1258)">-0.75</text></g><g clip-path="url(#clip15)"><text fill="#595959" font-family="DengXian,DengXian_MSFontService,sans-serif" font-weight="400" font-size="41" transform="matrix(1 0 0 1 2246.93 1191)">-0.5</text></g><g clip-path="url(#clip16)"><text fill="#595959" font-family="DengXian,DengXian_MSFontService,sans-serif" font-weight="400" font-size="41" transform="matrix(1 0 0 1 2225.21 1125)">-0.25</text></g><g clip-path="url(#clip17)"><text fill="#595959" font-family="DengXian,DengXian_MSFontService,sans-serif" font-weight="400" font-size="41" transform="matrix(1 0 0 1 2298.34 1059)">0</text></g><g clip-path="url(#clip18)"><text fill="#595959" font-family="DengXian,DengXian_MSFontService,sans-serif" font-weight="400" font-size="41" transform="matrix(1 0 0 1 2245.83 992)">0.25</text></g><g clip-path="url(#clip19)"><text fill="#595959" font-family="DengXian,DengXian_MSFontService,sans-serif" font-weight="400" font-size="41" transform="matrix(1 0 0 1 2267.56 926)">0.5</text></g><g clip-path="url(#clip20)"><text fill="#595959" font-family="DengXian,DengXian_MSFontService,sans-serif" font-weight="400" font-size="41" transform="matrix(1 0 0 1 2245.83 860)">0.75</text></g><g clip-path="url(#clip21)"><text fill="#595959" font-family="DengXian,DengXian_MSFontService,sans-serif" font-weight="400" font-size="41" transform="matrix(1 0 0 1 2298.34 794)">1</text></g><g clip-path="url(#clip22)"><text fill="#595959" font-family="Times New Roman,Times New Roman_MSFontService,sans-serif" font-weight="400" font-size="41" transform="matrix(1 0 0 1 2426.53 1507)">1 try</text></g><g clip-path="url(#clip23)"><text fill="#595959" font-family="Times New Roman,Times New Roman_MSFontService,sans-serif" font-weight="400" font-size="41" transform="matrix(1 0 0 1 2638.37 1507)">2 tries</text></g><g clip-path="url(#clip24)"><text fill="#595959" font-family="Times New Roman,Times New Roman_MSFontService,sans-serif" font-weight="400" font-size="41" transform="matrix(1 0 0 1 2862.81 1507)">3 tries</text></g><g clip-path="url(#clip25)"><text fill="#595959" font-family="Times New Roman,Times New Roman_MSFontService,sans-serif" font-weight="400" font-size="41" transform="matrix(1 0 0 1 3087.25 1507)">4 tries</text></g><g clip-path="url(#clip26)"><text fill="#595959" font-family="Times New Roman,Times New Roman_MSFontService,sans-serif" font-weight="400" font-size="41" transform="matrix(1 0 0 1 3311.69 1507)">5 tries</text></g><g clip-path="url(#clip27)"><text fill="#595959" font-family="Times New Roman,Times New Roman_MSFontService,sans-serif" font-weight="400" font-size="41" transform="matrix(1 0 0 1 3536.13 1507)">6 tries</text></g><g clip-path="url(#clip28)"><text fill="#595959" font-family="Times New Roman,Times New Roman_MSFontService,sans-serif" font-weight="400" font-size="41" transform="matrix(1 0 0 1 3731.36 1507)">7 or more</text></g><g clip-path="url(#clip29)"><text fill="#595959" font-family="Times New Roman,Times New Roman_MSFontService,sans-serif" font-weight="400" font-size="41" transform="matrix(1 0 0 1 3742.25 1554)">tries (X)</text></g><g clip-path="url(#clip30)"><text fill="#595959" font-family="DengXian,DengXian_MSFontService,sans-serif" font-weight="400" font-size="64" transform="matrix(1 0 0 1 2552.41 700)">The Coefficients of Dirichlet Regression</text></g><g clip-path="url(#clip31)"><path d="M2593 1628 2681 1628" stroke="#DD8C32" stroke-width="10.3125" stroke-linecap="round" stroke-linejoin="round" stroke-miterlimit="10" fill="none" fill-rule="evenodd"/></g><g clip-path="url(#clip32)"><path d="M2648 1627.5C2648 1633.85 2642.85 1639 2636.5 1639 2630.15 1639 2625 1633.85 2625 1627.5 2625 1621.15 2630.15 1616 2636.5 1616 2642.85 1616 2648 1621.15 2648 1627.5Z" stroke="#DD8C32" stroke-width="10.3125" stroke-linejoin="round" stroke-miterlimit="10" fill="#FFFFFF"/></g><g clip-path="url(#clip33)"><text fill="#595959" font-family="DengXian,DengXian_MSFontService,sans-serif" font-weight="400" font-size="41" transform="matrix(1 0 0 1 2690.22 1639)">t</text></g><g clip-path="url(#clip34)"><path d="M2753 1628 2841 1628" stroke="#EFC653" stroke-width="10.3125" stroke-linecap="round" stroke-linejoin="round" stroke-miterlimit="10" fill="none" fill-rule="evenodd"/></g><g clip-path="url(#clip35)"><path d="M2808 1627.5C2808 1633.85 2802.85 1639 2796.5 1639 2790.15 1639 2785 1633.85 2785 1627.5 2785 1621.15 2790.15 1616 2796.5 1616 2802.85 1616 2808 1621.15 2808 1627.5Z" stroke="#EFC653" stroke-width="10.3125" stroke-linejoin="round" stroke-miterlimit="10" fill="#FFFFFF"/></g><g clip-path="url(#clip36)"><text fill="#595959" font-family="DengXian,DengXian_MSFontService,sans-serif" font-weight="400" font-size="41" transform="matrix(1 0 0 1 2849.82 1639)">er</text></g><g clip-path="url(#clip37)"><path d="M2934 1628 3022 1628" stroke="#E31E26" stroke-width="10.3125" stroke-linecap="round" stroke-linejoin="round" stroke-miterlimit="10" fill="none" fill-rule="evenodd"/></g><g clip-path="url(#clip38)"><path d="M2990 1627.5C2990 1633.85 2984.85 1639 2978.5 1639 2972.15 1639 2967 1633.85 2967 1627.5 2967 1621.15 2972.15 1616 2978.5 1616 2984.85 1616 2990 1621.15 2990 1627.5Z" stroke="#E31E26" stroke-width="10.3125" stroke-linejoin="round" stroke-miterlimit="10" fill="#FFFFFF"/></g><g clip-path="url(#clip39)"><text fill="#595959" font-family="DengXian,DengXian_MSFontService,sans-serif" font-weight="400" font-size="41" transform="matrix(1 0 0 1 3031.49 1639)">Frequency</text></g><g clip-path="url(#clip40)"><path d="M3264 1628 3352 1628" stroke="#A1BF64" stroke-width="10.3125" stroke-linecap="round" stroke-linejoin="round" stroke-miterlimit="10" fill="none" fill-rule="evenodd"/></g><g clip-path="url(#clip41)"><path d="M3319 1627.5C3319 1633.85 3313.85 1639 3307.5 1639 3301.15 1639 3296 1633.85 3296 1627.5 3296 1621.15 3301.15 1616 3307.5 1616 3313.85 1616 3319 1621.15 3319 1627.5Z" stroke="#A1BF64" stroke-width="10.3125" stroke-linejoin="round" stroke-miterlimit="10" fill="#FFFFFF"/></g><g clip-path="url(#clip42)"><text fill="#595959" font-family="DengXian,DengXian_MSFontService,sans-serif" font-weight="400" font-size="41" transform="matrix(1 0 0 1 3361.13 1639)">Char Repition</text></g></g></svg>