<?xml version="1.0" encoding="utf-8" standalone="no"?>
<!DOCTYPE svg PUBLIC "-//W3C//DTD SVG 1.1//EN"
  "http://www.w3.org/Graphics/SVG/1.1/DTD/svg11.dtd">
<svg xmlns:xlink="http://www.w3.org/1999/xlink" width="576pt" height="288pt" viewBox="0 0 576 288" xmlns="http://www.w3.org/2000/svg" version="1.1">
 <metadata>
  <rdf:RDF xmlns:dc="http://purl.org/dc/elements/1.1/" xmlns:cc="http://creativecommons.org/ns#" xmlns:rdf="http://www.w3.org/1999/02/22-rdf-syntax-ns#">
   <cc:Work>
    <dc:type rdf:resource="http://purl.org/dc/dcmitype/StillImage"/>
    <dc:date>2023-02-18T17:45:08.097353</dc:date>
    <dc:format>image/svg+xml</dc:format>
    <dc:creator>
     <cc:Agent>
      <dc:title>Matplotlib v3.5.1, https://matplotlib.org/</dc:title>
     </cc:Agent>
    </dc:creator>
   </cc:Work>
  </rdf:RDF>
 </metadata>
 <defs>
  <style type="text/css">*{stroke-linejoin: round; stroke-linecap: butt}</style>
 </defs>
 <g id="figure_1">
  <g id="patch_1">
   <path d="M 0 288 
L 576 288 
L 576 0 
L 0 0 
L 0 288 
z
" style="fill: none"/>
  </g>
  <g id="axes_1">
   <g id="patch_2">
    <path d="M 32.12524 269.87476 
L 572.99976 269.87476 
L 572.99976 17.34399 
L 32.12524 17.34399 
z
" style="fill: #ffffff"/>
   </g>
   <g id="matplotlib.axis_1">
    <g id="xtick_1">
     <g id="line2d_1">
      <defs>
       <path id="m011b166ea6" d="M 0 0 
L 0 3.5 
" style="stroke: #000000; stroke-width: 0.8"/>
      </defs>
      <g>
       <use xlink:href="#m011b166ea6" x="56.710445" y="269.87476" style="stroke: #000000; stroke-width: 0.8"/>
      </g>
     </g>
     <g id="text_1">
      <!-- 2022-03 -->
      <g transform="translate(39.210445 283.74976)scale(0.1 -0.1)">
       <defs>
        <path id="SimHei-32" d="M 300 250 
Q 325 625 650 925 
Q 975 1225 1475 1862 
Q 1975 2500 2125 2850 
Q 2275 3200 2237 3450 
Q 2200 3700 2000 3862 
Q 1800 4025 1537 4000 
Q 1275 3975 1037 3800 
Q 800 3625 675 3275 
L 200 3350 
Q 400 3925 712 4187 
Q 1025 4450 1450 4475 
Q 1700 4500 1900 4462 
Q 2100 4425 2312 4287 
Q 2525 4150 2662 3875 
Q 2800 3600 2762 3212 
Q 2725 2825 2375 2287 
Q 2025 1750 1025 600 
L 2825 600 
L 2825 150 
L 300 150 
L 300 250 
z
" transform="scale(0.015625)"/>
        <path id="SimHei-30" d="M 225 2537 
Q 250 3200 412 3587 
Q 575 3975 875 4225 
Q 1175 4475 1612 4475 
Q 2050 4475 2375 4112 
Q 2700 3750 2800 3200 
Q 2900 2650 2862 1937 
Q 2825 1225 2612 775 
Q 2400 325 1975 150 
Q 1550 -25 1125 187 
Q 700 400 525 750 
Q 350 1100 275 1487 
Q 200 1875 225 2537 
z
M 750 2687 
Q 675 2000 800 1462 
Q 925 925 1212 700 
Q 1500 475 1800 612 
Q 2100 750 2237 1162 
Q 2375 1575 2375 2062 
Q 2375 2550 2337 2950 
Q 2300 3350 2112 3675 
Q 1925 4000 1612 4012 
Q 1300 4025 1062 3700 
Q 825 3375 750 2687 
z
" transform="scale(0.015625)"/>
        <path id="SimHei-2d" d="M 2975 2125 
L 125 2125 
L 125 2525 
L 2975 2525 
L 2975 2125 
z
" transform="scale(0.015625)"/>
        <path id="SimHei-33" d="M 250 1225 
L 700 1300 
Q 800 975 1025 762 
Q 1250 550 1587 562 
Q 1925 575 2125 837 
Q 2325 1100 2300 1437 
Q 2275 1775 2037 1962 
Q 1800 2150 1275 2225 
L 1275 2550 
Q 1800 2600 2037 2825 
Q 2275 3050 2250 3412 
Q 2225 3775 1925 3937 
Q 1625 4100 1287 3975 
Q 950 3850 750 3275 
L 300 3350 
Q 450 3800 712 4100 
Q 975 4400 1425 4450 
Q 1875 4500 2212 4337 
Q 2550 4175 2687 3837 
Q 2825 3500 2725 3100 
Q 2625 2700 2150 2400 
Q 2500 2250 2687 1950 
Q 2875 1650 2812 1162 
Q 2750 675 2375 375 
Q 2000 75 1525 87 
Q 1050 100 700 387 
Q 350 675 250 1225 
z
" transform="scale(0.015625)"/>
       </defs>
       <use xlink:href="#SimHei-32"/>
       <use xlink:href="#SimHei-30" x="50"/>
       <use xlink:href="#SimHei-32" x="100"/>
       <use xlink:href="#SimHei-32" x="150"/>
       <use xlink:href="#SimHei-2d" x="200"/>
       <use xlink:href="#SimHei-30" x="250"/>
       <use xlink:href="#SimHei-33" x="300"/>
      </g>
     </g>
    </g>
    <g id="xtick_2">
     <g id="line2d_2">
      <g>
       <use xlink:href="#m011b166ea6" x="106.686929" y="269.87476" style="stroke: #000000; stroke-width: 0.8"/>
      </g>
     </g>
     <g id="text_2">
      <!-- 2022-04 -->
      <g transform="translate(89.186929 283.74976)scale(0.1 -0.1)">
       <defs>
        <path id="SimHei-34" d="M 2000 1100 
L 75 1100 
L 75 1525 
L 2100 4450 
L 2475 4450 
L 2475 1525 
L 3075 1525 
L 3075 1100 
L 2475 1100 
L 2475 150 
L 2000 150 
L 2000 1100 
z
M 2000 1525 
L 2000 3500 
L 600 1525 
L 2000 1525 
z
" transform="scale(0.015625)"/>
       </defs>
       <use xlink:href="#SimHei-32"/>
       <use xlink:href="#SimHei-30" x="50"/>
       <use xlink:href="#SimHei-32" x="100"/>
       <use xlink:href="#SimHei-32" x="150"/>
       <use xlink:href="#SimHei-2d" x="200"/>
       <use xlink:href="#SimHei-30" x="250"/>
       <use xlink:href="#SimHei-34" x="300"/>
      </g>
     </g>
    </g>
    <g id="xtick_3">
     <g id="line2d_3">
      <g>
       <use xlink:href="#m011b166ea6" x="155.051267" y="269.87476" style="stroke: #000000; stroke-width: 0.8"/>
      </g>
     </g>
     <g id="text_3">
      <!-- 2022-05 -->
      <g transform="translate(137.551267 283.74976)scale(0.1 -0.1)">
       <defs>
        <path id="SimHei-35" d="M 550 1325 
Q 725 650 1150 575 
Q 1575 500 1837 662 
Q 2100 825 2212 1087 
Q 2325 1350 2312 1675 
Q 2300 2000 2137 2225 
Q 1975 2450 1725 2525 
Q 1475 2600 1162 2525 
Q 850 2450 650 2175 
L 225 2225 
Q 275 2375 700 4375 
L 2675 4375 
L 2675 3925 
L 1075 3925 
Q 950 3250 825 2850 
Q 1200 3025 1525 3012 
Q 1850 3000 2150 2862 
Q 2450 2725 2587 2487 
Q 2725 2250 2787 2012 
Q 2850 1775 2837 1500 
Q 2825 1225 2725 937 
Q 2625 650 2425 462 
Q 2225 275 1937 162 
Q 1650 50 1275 75 
Q 900 100 562 350 
Q 225 600 100 1200 
L 550 1325 
z
" transform="scale(0.015625)"/>
       </defs>
       <use xlink:href="#SimHei-32"/>
       <use xlink:href="#SimHei-30" x="50"/>
       <use xlink:href="#SimHei-32" x="100"/>
       <use xlink:href="#SimHei-32" x="150"/>
       <use xlink:href="#SimHei-2d" x="200"/>
       <use xlink:href="#SimHei-30" x="250"/>
       <use xlink:href="#SimHei-35" x="300"/>
      </g>
     </g>
    </g>
    <g id="xtick_4">
     <g id="line2d_4">
      <g>
       <use xlink:href="#m011b166ea6" x="205.02775" y="269.87476" style="stroke: #000000; stroke-width: 0.8"/>
      </g>
     </g>
     <g id="text_4">
      <!-- 2022-06 -->
      <g transform="translate(187.52775 283.74976)scale(0.1 -0.1)">
       <defs>
        <path id="SimHei-36" d="M 250 1612 
Q 275 1975 387 2225 
Q 500 2475 725 2850 
L 1750 4450 
L 2325 4450 
L 1275 2800 
Q 1950 2975 2350 2750 
Q 2750 2525 2887 2237 
Q 3025 1950 3037 1612 
Q 3050 1275 2937 950 
Q 2825 625 2537 362 
Q 2250 100 1737 75 
Q 1225 50 862 262 
Q 500 475 362 862 
Q 225 1250 250 1612 
z
M 1025 787 
Q 1250 550 1625 525 
Q 2000 500 2250 775 
Q 2500 1050 2500 1575 
Q 2500 2100 2187 2300 
Q 1875 2500 1487 2450 
Q 1100 2400 925 2075 
Q 750 1750 775 1387 
Q 800 1025 1025 787 
z
" transform="scale(0.015625)"/>
       </defs>
       <use xlink:href="#SimHei-32"/>
       <use xlink:href="#SimHei-30" x="50"/>
       <use xlink:href="#SimHei-32" x="100"/>
       <use xlink:href="#SimHei-32" x="150"/>
       <use xlink:href="#SimHei-2d" x="200"/>
       <use xlink:href="#SimHei-30" x="250"/>
       <use xlink:href="#SimHei-36" x="300"/>
      </g>
     </g>
    </g>
    <g id="xtick_5">
     <g id="line2d_5">
      <g>
       <use xlink:href="#m011b166ea6" x="253.392089" y="269.87476" style="stroke: #000000; stroke-width: 0.8"/>
      </g>
     </g>
     <g id="text_5">
      <!-- 2022-07 -->
      <g transform="translate(235.892089 283.74976)scale(0.1 -0.1)">
       <defs>
        <path id="SimHei-37" d="M 850 150 
Q 1300 2050 2425 3925 
L 275 3925 
L 275 4375 
L 2950 4375 
L 2950 3950 
Q 1775 2050 1400 150 
L 850 150 
z
" transform="scale(0.015625)"/>
       </defs>
       <use xlink:href="#SimHei-32"/>
       <use xlink:href="#SimHei-30" x="50"/>
       <use xlink:href="#SimHei-32" x="100"/>
       <use xlink:href="#SimHei-32" x="150"/>
       <use xlink:href="#SimHei-2d" x="200"/>
       <use xlink:href="#SimHei-30" x="250"/>
       <use xlink:href="#SimHei-37" x="300"/>
      </g>
     </g>
    </g>
    <g id="xtick_6">
     <g id="line2d_6">
      <g>
       <use xlink:href="#m011b166ea6" x="303.368572" y="269.87476" style="stroke: #000000; stroke-width: 0.8"/>
      </g>
     </g>
     <g id="text_6">
      <!-- 2022-08 -->
      <g transform="translate(285.868572 283.74976)scale(0.1 -0.1)">
       <defs>
        <path id="SimHei-38" d="M 175 1375 
Q 175 1675 325 1962 
Q 475 2250 825 2425 
Q 525 2600 425 2812 
Q 325 3025 312 3300 
Q 300 3575 387 3775 
Q 475 3975 650 4150 
Q 825 4325 1037 4387 
Q 1250 4450 1500 4450 
Q 1750 4450 1950 4400 
Q 2150 4350 2375 4187 
Q 2600 4025 2700 3725 
Q 2800 3425 2687 3025 
Q 2575 2625 2100 2400 
Q 2525 2275 2700 2012 
Q 2875 1750 2875 1375 
Q 2875 1000 2762 775 
Q 2650 550 2512 400 
Q 2375 250 2137 162 
Q 1900 75 1537 75 
Q 1175 75 912 162 
Q 650 250 475 425 
Q 300 600 237 837 
Q 175 1075 175 1375 
z
M 687 1400 
Q 675 1100 787 875 
Q 900 650 1200 587 
Q 1500 525 1825 600 
Q 2150 675 2275 950 
Q 2400 1225 2362 1500 
Q 2325 1775 2050 1962 
Q 1775 2150 1450 2125 
Q 1125 2100 912 1900 
Q 700 1700 687 1400 
z
M 775 3350 
Q 775 3100 950 2875 
Q 1125 2650 1500 2650 
Q 1875 2650 2062 2875 
Q 2250 3100 2237 3412 
Q 2225 3725 2012 3875 
Q 1800 4025 1437 4000 
Q 1075 3975 925 3787 
Q 775 3600 775 3350 
z
" transform="scale(0.015625)"/>
       </defs>
       <use xlink:href="#SimHei-32"/>
       <use xlink:href="#SimHei-30" x="50"/>
       <use xlink:href="#SimHei-32" x="100"/>
       <use xlink:href="#SimHei-32" x="150"/>
       <use xlink:href="#SimHei-2d" x="200"/>
       <use xlink:href="#SimHei-30" x="250"/>
       <use xlink:href="#SimHei-38" x="300"/>
      </g>
     </g>
    </g>
    <g id="xtick_7">
     <g id="line2d_7">
      <g>
       <use xlink:href="#m011b166ea6" x="353.345056" y="269.87476" style="stroke: #000000; stroke-width: 0.8"/>
      </g>
     </g>
     <g id="text_7">
      <!-- 2022-09 -->
      <g transform="translate(335.845056 283.74976)scale(0.1 -0.1)">
       <defs>
        <path id="SimHei-39" d="M 800 75 
Q 1350 1000 1700 1750 
Q 1075 1650 662 1912 
Q 250 2175 162 2625 
Q 75 3075 175 3437 
Q 275 3800 487 4037 
Q 700 4275 1000 4375 
Q 1300 4475 1537 4475 
Q 1775 4475 2025 4375 
Q 2275 4275 2475 4075 
Q 2675 3875 2750 3662 
Q 2825 3450 2825 3112 
Q 2825 2775 2575 2250 
Q 2325 1725 1350 75 
L 800 75 
z
M 662 2875 
Q 700 2550 937 2337 
Q 1175 2125 1450 2150 
Q 1725 2175 1887 2300 
Q 2050 2425 2200 2725 
Q 2300 3100 2250 3362 
Q 2200 3625 1987 3800 
Q 1775 3975 1525 3975 
Q 1375 4000 1137 3900 
Q 900 3800 762 3500 
Q 625 3200 662 2875 
z
" transform="scale(0.015625)"/>
       </defs>
       <use xlink:href="#SimHei-32"/>
       <use xlink:href="#SimHei-30" x="50"/>
       <use xlink:href="#SimHei-32" x="100"/>
       <use xlink:href="#SimHei-32" x="150"/>
       <use xlink:href="#SimHei-2d" x="200"/>
       <use xlink:href="#SimHei-30" x="250"/>
       <use xlink:href="#SimHei-39" x="300"/>
      </g>
     </g>
    </g>
    <g id="xtick_8">
     <g id="line2d_8">
      <g>
       <use xlink:href="#m011b166ea6" x="401.709394" y="269.87476" style="stroke: #000000; stroke-width: 0.8"/>
      </g>
     </g>
     <g id="text_8">
      <!-- 2022-10 -->
      <g transform="translate(384.209394 283.74976)scale(0.1 -0.1)">
       <defs>
        <path id="SimHei-31" d="M 1400 3600 
Q 1075 3275 575 2975 
L 575 3450 
Q 1200 3875 1600 4450 
L 1900 4450 
L 1900 150 
L 1400 150 
L 1400 3600 
z
" transform="scale(0.015625)"/>
       </defs>
       <use xlink:href="#SimHei-32"/>
       <use xlink:href="#SimHei-30" x="50"/>
       <use xlink:href="#SimHei-32" x="100"/>
       <use xlink:href="#SimHei-32" x="150"/>
       <use xlink:href="#SimHei-2d" x="200"/>
       <use xlink:href="#SimHei-31" x="250"/>
       <use xlink:href="#SimHei-30" x="300"/>
      </g>
     </g>
    </g>
    <g id="xtick_9">
     <g id="line2d_9">
      <g>
       <use xlink:href="#m011b166ea6" x="451.685877" y="269.87476" style="stroke: #000000; stroke-width: 0.8"/>
      </g>
     </g>
     <g id="text_9">
      <!-- 2022-11 -->
      <g transform="translate(434.185877 283.74976)scale(0.1 -0.1)">
       <use xlink:href="#SimHei-32"/>
       <use xlink:href="#SimHei-30" x="50"/>
       <use xlink:href="#SimHei-32" x="100"/>
       <use xlink:href="#SimHei-32" x="150"/>
       <use xlink:href="#SimHei-2d" x="200"/>
       <use xlink:href="#SimHei-31" x="250"/>
       <use xlink:href="#SimHei-31" x="300"/>
      </g>
     </g>
    </g>
    <g id="xtick_10">
     <g id="line2d_10">
      <g>
       <use xlink:href="#m011b166ea6" x="500.050216" y="269.87476" style="stroke: #000000; stroke-width: 0.8"/>
      </g>
     </g>
     <g id="text_10">
      <!-- 2022-12 -->
      <g transform="translate(482.550216 283.74976)scale(0.1 -0.1)">
       <use xlink:href="#SimHei-32"/>
       <use xlink:href="#SimHei-30" x="50"/>
       <use xlink:href="#SimHei-32" x="100"/>
       <use xlink:href="#SimHei-32" x="150"/>
       <use xlink:href="#SimHei-2d" x="200"/>
       <use xlink:href="#SimHei-31" x="250"/>
       <use xlink:href="#SimHei-32" x="300"/>
      </g>
     </g>
    </g>
    <g id="xtick_11">
     <g id="line2d_11">
      <g>
       <use xlink:href="#m011b166ea6" x="550.026699" y="269.87476" style="stroke: #000000; stroke-width: 0.8"/>
      </g>
     </g>
     <g id="text_11">
      <!-- 2023-01 -->
      <g transform="translate(532.526699 283.74976)scale(0.1 -0.1)">
       <use xlink:href="#SimHei-32"/>
       <use xlink:href="#SimHei-30" x="50"/>
       <use xlink:href="#SimHei-32" x="100"/>
       <use xlink:href="#SimHei-33" x="150"/>
       <use xlink:href="#SimHei-2d" x="200"/>
       <use xlink:href="#SimHei-30" x="250"/>
       <use xlink:href="#SimHei-31" x="300"/>
      </g>
     </g>
    </g>
   </g>
   <g id="matplotlib.axis_2">
    <g id="ytick_1">
     <g id="line2d_12">
      <defs>
       <path id="m88072a64c6" d="M 0 0 
L -3.5 0 
" style="stroke: #000000; stroke-width: 0.8"/>
      </defs>
      <g>
       <use xlink:href="#m88072a64c6" x="32.12524" y="268.822502" style="stroke: #000000; stroke-width: 0.8"/>
      </g>
     </g>
     <g id="text_12">
      <!-- -1 -->
      <g transform="translate(15.12524 272.260002)scale(0.1 -0.1)">
       <use xlink:href="#SimHei-2d"/>
       <use xlink:href="#SimHei-31" x="50"/>
      </g>
     </g>
    </g>
    <g id="ytick_2">
     <g id="line2d_13">
      <g>
       <use xlink:href="#m88072a64c6" x="32.12524" y="216.939762" style="stroke: #000000; stroke-width: 0.8"/>
      </g>
     </g>
     <g id="text_13">
      <!-- 0 -->
      <g transform="translate(20.12524 220.377262)scale(0.1 -0.1)">
       <use xlink:href="#SimHei-30"/>
      </g>
     </g>
    </g>
    <g id="ytick_3">
     <g id="line2d_14">
      <g>
       <use xlink:href="#m88072a64c6" x="32.12524" y="165.057021" style="stroke: #000000; stroke-width: 0.8"/>
      </g>
     </g>
     <g id="text_14">
      <!-- 1 -->
      <g transform="translate(20.12524 168.494521)scale(0.1 -0.1)">
       <use xlink:href="#SimHei-31"/>
      </g>
     </g>
    </g>
    <g id="ytick_4">
     <g id="line2d_15">
      <g>
       <use xlink:href="#m88072a64c6" x="32.12524" y="113.17428" style="stroke: #000000; stroke-width: 0.8"/>
      </g>
     </g>
     <g id="text_15">
      <!-- 2 -->
      <g transform="translate(20.12524 116.61178)scale(0.1 -0.1)">
       <use xlink:href="#SimHei-32"/>
      </g>
     </g>
    </g>
    <g id="ytick_5">
     <g id="line2d_16">
      <g>
       <use xlink:href="#m88072a64c6" x="32.12524" y="61.29154" style="stroke: #000000; stroke-width: 0.8"/>
      </g>
     </g>
     <g id="text_16">
      <!-- 3 -->
      <g transform="translate(20.12524 64.72904)scale(0.1 -0.1)">
       <use xlink:href="#SimHei-33"/>
      </g>
     </g>
    </g>
    <g id="text_17">
     <!-- Percentage -->
     <g transform="translate(9.87524 168.609375)rotate(-90)scale(0.1 -0.1)">
      <defs>
       <path id="SimHei-50" d="M 2950 3100 
Q 2950 2500 2600 2150 
Q 2250 1800 1625 1800 
L 900 1800 
L 900 125 
L 325 125 
L 325 4400 
L 1625 4400 
Q 2250 4400 2600 4050 
Q 2950 3700 2950 3100 
z
M 2375 3100 
Q 2375 3575 2150 3750 
Q 1925 3925 1475 3925 
L 900 3925 
L 900 2275 
L 1475 2275 
Q 1925 2275 2150 2450 
Q 2375 2625 2375 3100 
z
" transform="scale(0.015625)"/>
       <path id="SimHei-65" d="M 2850 1075 
Q 2800 625 2450 350 
Q 2100 75 1625 75 
Q 1025 75 637 462 
Q 250 850 250 1525 
Q 250 2200 637 2587 
Q 1025 2975 1625 2975 
Q 2150 2975 2487 2637 
Q 2825 2300 2825 1525 
L 800 1525 
Q 800 975 1037 750 
Q 1275 525 1625 525 
Q 1900 525 2075 662 
Q 2250 800 2300 1075 
L 2850 1075 
z
M 2250 1925 
Q 2200 2275 2025 2412 
Q 1850 2550 1575 2550 
Q 1325 2550 1125 2412 
Q 925 2275 825 1925 
L 2250 1925 
z
" transform="scale(0.015625)"/>
       <path id="SimHei-72" d="M 2500 2425 
Q 2025 2500 1700 2287 
Q 1375 2075 1150 1550 
L 1150 125 
L 650 125 
L 650 2925 
L 1150 2925 
L 1150 2200 
Q 1375 2600 1712 2787 
Q 2050 2975 2500 2975 
L 2500 2425 
z
" transform="scale(0.015625)"/>
       <path id="SimHei-63" d="M 2850 1250 
Q 2850 725 2487 400 
Q 2125 75 1575 75 
Q 1025 75 625 462 
Q 225 850 225 1525 
Q 225 2200 625 2587 
Q 1025 2975 1575 2975 
Q 2125 2975 2450 2687 
Q 2775 2400 2775 2000 
L 2225 2000 
Q 2200 2300 2012 2412 
Q 1825 2525 1575 2525 
Q 1275 2525 1025 2287 
Q 775 2050 775 1525 
Q 775 1000 1025 762 
Q 1275 525 1575 525 
Q 1900 525 2100 700 
Q 2300 875 2300 1250 
L 2850 1250 
z
" transform="scale(0.015625)"/>
       <path id="SimHei-6e" d="M 2800 125 
L 2300 125 
L 2300 1925 
Q 2300 2225 2150 2400 
Q 2000 2575 1750 2575 
Q 1425 2575 1137 2237 
Q 850 1900 850 1400 
L 850 125 
L 350 125 
L 350 2925 
L 850 2925 
L 850 2400 
Q 1050 2675 1287 2825 
Q 1525 2975 1900 2975 
Q 2350 2975 2575 2725 
Q 2800 2475 2800 2100 
L 2800 125 
z
" transform="scale(0.015625)"/>
       <path id="SimHei-74" d="M 2750 200 
Q 2625 150 2462 112 
Q 2300 75 2025 75 
Q 1575 75 1300 325 
Q 1025 575 1025 1025 
L 1025 2525 
L 175 2525 
L 175 2925 
L 1025 2925 
L 1025 3900 
L 1525 3900 
L 1525 2925 
L 2550 2925 
L 2550 2525 
L 1525 2525 
L 1525 1000 
Q 1525 800 1625 662 
Q 1725 525 2000 525 
Q 2275 525 2450 575 
Q 2625 625 2750 700 
L 2750 200 
z
" transform="scale(0.015625)"/>
       <path id="SimHei-61" d="M 2875 125 
L 2275 125 
Q 2225 175 2200 262 
Q 2175 350 2175 475 
Q 2000 275 1750 175 
Q 1500 75 1225 75 
Q 825 75 550 275 
Q 275 475 275 850 
Q 275 1225 525 1450 
Q 775 1675 1300 1750 
Q 1650 1800 1912 1875 
Q 2175 1950 2175 2075 
Q 2175 2225 2062 2375 
Q 1950 2525 1575 2525 
Q 1275 2525 1137 2412 
Q 1000 2300 950 2100 
L 400 2100 
Q 450 2500 762 2737 
Q 1075 2975 1575 2975 
Q 2125 2975 2400 2725 
Q 2675 2475 2675 2025 
L 2675 650 
Q 2675 500 2725 375 
Q 2775 250 2875 125 
z
M 2175 1050 
L 2175 1550 
Q 2025 1500 1887 1462 
Q 1750 1425 1425 1375 
Q 1050 1325 937 1200 
Q 825 1075 825 900 
Q 825 750 937 637 
Q 1050 525 1275 525 
Q 1500 525 1762 650 
Q 2025 775 2175 1050 
z
" transform="scale(0.015625)"/>
       <path id="SimHei-67" d="M 2975 2500 
Q 2800 2550 2637 2562 
Q 2475 2575 2300 2525 
Q 2375 2450 2425 2337 
Q 2475 2225 2475 2000 
Q 2475 1575 2187 1300 
Q 1900 1025 1475 1025 
Q 1375 1025 1212 1062 
Q 1050 1100 950 1150 
Q 875 1100 850 1050 
Q 825 1000 825 925 
Q 825 800 1000 737 
Q 1175 675 1625 675 
Q 2350 675 2612 475 
Q 2875 275 2875 -25 
Q 2875 -425 2487 -612 
Q 2100 -800 1575 -800 
Q 900 -800 575 -625 
Q 250 -450 250 -150 
Q 250 0 375 150 
Q 500 300 700 400 
Q 550 475 462 587 
Q 375 700 375 875 
Q 375 1025 487 1137 
Q 600 1250 750 1325 
Q 625 1450 550 1625 
Q 475 1800 475 2000 
Q 475 2425 762 2700 
Q 1050 2975 1475 2975 
Q 1700 2975 1862 2912 
Q 2025 2850 2150 2725 
Q 2350 2875 2550 2937 
Q 2750 3000 2975 2975 
L 2975 2500 
z
M 1975 2000 
Q 1975 2250 1850 2400 
Q 1725 2550 1475 2550 
Q 1225 2550 1100 2400 
Q 975 2250 975 2000 
Q 975 1750 1100 1600 
Q 1225 1450 1475 1450 
Q 1725 1450 1850 1600 
Q 1975 1750 1975 2000 
z
M 2400 -75 
Q 2400 25 2287 125 
Q 2175 225 1725 225 
Q 1625 225 1450 237 
Q 1275 250 1050 275 
Q 850 200 775 100 
Q 700 0 700 -100 
Q 700 -250 900 -350 
Q 1100 -450 1600 -450 
Q 2025 -450 2212 -337 
Q 2400 -225 2400 -75 
z
" transform="scale(0.015625)"/>
      </defs>
      <use xlink:href="#SimHei-50"/>
      <use xlink:href="#SimHei-65" x="50"/>
      <use xlink:href="#SimHei-72" x="100"/>
      <use xlink:href="#SimHei-63" x="150"/>
      <use xlink:href="#SimHei-65" x="200"/>
      <use xlink:href="#SimHei-6e" x="250"/>
      <use xlink:href="#SimHei-74" x="300"/>
      <use xlink:href="#SimHei-61" x="350"/>
      <use xlink:href="#SimHei-67" x="400"/>
      <use xlink:href="#SimHei-65" x="450"/>
     </g>
    </g>
   </g>
   <g id="line2d_17">
    <path d="M 56.710445 228.445486 
L 58.32259 238.735265 
L 59.934735 232.249847 
L 61.546879 221.047554 
L 63.159024 228.555867 
L 64.771169 229.804553 
L 66.383313 235.455687 
L 67.995458 228.642352 
L 69.607602 230.112539 
L 71.219747 226.995105 
L 72.831892 192.021574 
L 74.444036 226.620324 
L 76.056181 222.550075 
L 77.668326 222.232455 
L 79.28047 232.428017 
L 80.892615 221.066943 
L 82.504759 218.813702 
L 84.116904 223.738351 
L 85.729049 212.584168 
L 87.341193 215.112878 
L 88.953338 225.541403 
L 90.565482 219.428524 
L 92.177627 221.426294 
L 93.789772 220.270657 
L 95.401916 212.328703 
L 97.014061 185.761877 
L 98.626206 201.282074 
L 100.23835 199.349226 
L 101.850495 225.014629 
L 103.462639 214.73586 
L 105.074784 197.187673 
L 106.686929 204.310848 
L 108.299073 215.410808 
L 109.911218 198.290018 
L 111.523363 214.418062 
L 113.135507 207.279274 
L 114.747652 203.55326 
L 116.359796 204.318435 
L 119.584086 212.945136 
L 121.19623 219.861218 
L 122.808375 205.684259 
L 124.420519 222.977178 
L 126.032664 221.114488 
L 127.644809 215.865456 
L 129.256953 213.666729 
L 130.869098 218.508726 
L 132.481243 217.006725 
L 134.093387 222.14858 
L 135.705532 174.420671 
L 137.317676 218.802193 
L 138.929821 196.737532 
L 140.541966 230.064777 
L 142.15411 216.821522 
L 143.766255 210.639214 
L 145.3784 201.269902 
L 146.990544 232.401731 
L 148.602689 230.843654 
L 150.214833 207.634997 
L 151.826978 236.39309 
L 153.439123 196.793925 
L 155.051267 199.382351 
L 156.663412 228.360449 
L 158.275557 226.593054 
L 159.887701 235.71206 
L 161.499846 204.113894 
L 163.11199 213.020802 
L 164.724135 223.132179 
L 166.33628 212.291981 
L 167.948424 232.234354 
L 169.560569 211.259843 
L 171.172713 221.213607 
L 172.784858 221.728487 
L 174.397003 224.761185 
L 176.009147 220.986845 
L 177.621292 212.534026 
L 179.233437 205.355707 
L 180.845581 224.274318 
L 182.457726 210.977682 
L 184.06987 222.818353 
L 185.682015 212.173225 
L 187.29416 216.657606 
L 188.906304 226.713555 
L 190.518449 222.346281 
L 193.742738 207.056498 
L 195.354883 218.743074 
L 196.967027 214.430972 
L 198.579172 215.594064 
L 200.191317 205.13118 
L 201.803461 208.750319 
L 203.415606 218.229395 
L 205.02775 220.083707 
L 206.639895 210.131165 
L 208.25204 221.477501 
L 209.864184 221.59046 
L 211.476329 220.737317 
L 213.088474 215.321868 
L 214.700618 231.287538 
L 216.312763 228.586777 
L 217.924907 217.37658 
L 221.149197 214.782394 
L 222.761341 227.543236 
L 224.373486 226.038124 
L 225.985631 216.424816 
L 227.597775 219.999757 
L 229.20992 227.97211 
L 230.822064 224.340755 
L 232.434209 178.785647 
L 234.046354 217.583643 
L 235.658498 226.152078 
L 237.270643 227.127579 
L 238.882788 213.088232 
L 240.494932 231.62126 
L 242.107077 225.358186 
L 243.719221 223.022994 
L 245.331366 229.864681 
L 246.943511 222.681743 
L 248.555655 220.15143 
L 250.1678 190.375621 
L 251.779944 199.506437 
L 253.392089 224.638484 
L 255.004234 206.090917 
L 256.616378 199.540669 
L 258.228523 208.403143 
L 259.840668 228.780543 
L 261.452812 202.983898 
L 263.064957 208.276168 
L 264.677101 225.309171 
L 266.289246 216.000101 
L 267.901391 215.724369 
L 269.513535 212.813342 
L 271.12568 226.592779 
L 272.737825 234.896979 
L 274.349969 219.826606 
L 275.962114 210.397292 
L 277.574258 216.499359 
L 279.186403 217.583673 
L 280.798548 225.504875 
L 282.410692 221.558768 
L 284.022837 206.522603 
L 287.247126 218.604828 
L 288.859271 222.398468 
L 290.471415 218.362172 
L 292.08356 222.045156 
L 293.695705 201.964955 
L 295.307849 220.779872 
L 296.919994 219.591637 
L 298.532138 224.318501 
L 300.144283 226.555685 
L 301.756428 221.862689 
L 303.368572 201.858734 
L 304.980717 169.634273 
L 306.592862 220.450942 
L 308.205006 205.382515 
L 309.817151 194.383293 
L 311.429295 218.524228 
L 313.04144 215.180608 
L 314.653585 208.493414 
L 316.265729 244.33523 
L 317.877874 218.606178 
L 319.490019 223.987139 
L 321.102163 208.668572 
L 322.714308 208.350554 
L 324.326452 190.355266 
L 325.938597 212.445779 
L 327.550742 225.281073 
L 329.162886 220.075541 
L 330.775031 208.787251 
L 332.387175 223.825878 
L 333.99932 240.797388 
L 335.611465 217.522235 
L 337.223609 232.103452 
L 338.835754 232.70016 
L 340.447899 233.864469 
L 342.060043 236.193782 
L 343.672188 229.642262 
L 345.284332 223.970348 
L 346.896477 194.242776 
L 348.508622 223.420774 
L 350.120766 227.244592 
L 351.732911 224.491201 
L 353.345056 213.183623 
L 354.9572 232.291087 
L 356.569345 212.522734 
L 358.181489 223.007786 
L 359.793634 222.363405 
L 361.405779 216.826467 
L 363.017923 213.055425 
L 364.630068 206.974983 
L 366.242212 225.264185 
L 367.854357 203.046639 
L 369.466502 198.235946 
L 371.078646 184.693766 
L 372.690791 224.606405 
L 374.302936 224.533 
L 375.91508 230.370976 
L 377.527225 124.823581 
L 379.139369 223.47866 
L 380.751514 224.449527 
L 382.363659 194.827416 
L 383.975803 233.613551 
L 385.587948 232.853169 
L 387.200093 233.802629 
L 388.812237 227.347576 
L 390.424382 218.073651 
L 392.036526 226.141339 
L 393.648671 235.182318 
L 395.260816 226.192626 
L 396.87296 210.384686 
L 398.485105 226.4219 
L 400.09725 233.184866 
L 401.709394 213.702219 
L 403.321539 231.206152 
L 404.933683 234.57412 
L 406.545828 218.402284 
L 408.157973 228.631702 
L 409.770117 236.040132 
L 411.382262 205.163333 
L 412.994406 204.747048 
L 414.606551 226.99077 
L 416.218696 203.615857 
L 417.83084 218.628596 
L 419.442985 191.694958 
L 421.05513 205.310403 
L 422.667274 222.005858 
L 424.279419 184.159483 
L 425.891563 230.719669 
L 427.503708 226.555062 
L 429.115853 212.264712 
L 430.727997 206.970869 
L 432.340142 218.737701 
L 433.952287 211.899119 
L 435.564431 217.510099 
L 437.176576 182.760941 
L 438.78872 223.169017 
L 440.400865 216.414962 
L 442.01301 217.479925 
L 443.625154 226.576541 
L 445.237299 227.390746 
L 446.849443 195.14304 
L 448.461588 192.595847 
L 450.073733 215.087088 
L 451.685877 28.822661 
L 453.298022 223.031995 
L 454.910167 222.498226 
L 458.134456 237.695982 
L 459.7466 213.710375 
L 461.358745 233.165598 
L 462.97089 237.453035 
L 464.583034 238.065285 
L 466.195179 230.379326 
L 467.807324 229.648701 
L 469.419468 221.28122 
L 471.031613 196.095467 
L 472.643757 235.125316 
L 474.255902 218.976884 
L 475.868047 201.373888 
L 477.480191 238.238454 
L 479.092336 200.71898 
L 480.704481 213.233606 
L 482.316625 218.23782 
L 483.92877 208.032591 
L 485.540914 239.612972 
L 487.153059 239.294873 
L 488.765204 205.255077 
L 490.377348 215.688147 
L 491.989493 239.032137 
L 496.825927 212.007333 
L 498.438071 146.74219 
L 500.050216 210.527319 
L 501.662361 221.232489 
L 503.274505 223.98541 
L 504.88665 228.016339 
L 506.498794 222.660242 
L 508.110939 218.58714 
L 509.723084 217.421121 
L 511.335228 258.396089 
L 512.947373 238.702635 
L 514.559518 214.031845 
L 516.171662 223.312244 
L 517.783807 227.360604 
L 519.395951 238.202802 
L 521.008096 204.152476 
L 522.620241 216.112516 
L 524.232385 222.868528 
L 525.84453 228.927602 
L 527.456674 219.828377 
L 529.068819 231.31626 
L 530.680964 230.357509 
L 532.293108 237.548436 
L 533.905253 198.107809 
L 535.517398 213.138423 
L 537.129542 224.457471 
L 538.741687 191.601264 
L 540.353831 184.141087 
L 541.965976 215.788882 
L 543.578121 214.700442 
L 545.190265 214.740883 
L 546.80241 229.275935 
L 548.414555 229.281007 
L 548.414555 229.281007 
" clip-path="url(#p315131ed40)" style="fill: none; stroke: #1f77b4; stroke-width: 1.5; stroke-linecap: square"/>
   </g>
   <g id="patch_3">
    <path d="M 32.12524 269.87476 
L 32.12524 17.34399 
" style="fill: none; stroke: #000000; stroke-width: 0.8; stroke-linejoin: miter; stroke-linecap: square"/>
   </g>
   <g id="patch_4">
    <path d="M 572.99976 269.87476 
L 572.99976 17.34399 
" style="fill: none; stroke: #000000; stroke-width: 0.8; stroke-linejoin: miter; stroke-linecap: square"/>
   </g>
   <g id="patch_5">
    <path d="M 32.12524 269.87476 
L 572.99976 269.87476 
" style="fill: none; stroke: #000000; stroke-width: 0.8; stroke-linejoin: miter; stroke-linecap: square"/>
   </g>
   <g id="patch_6">
    <path d="M 32.12524 17.34399 
L 572.99976 17.34399 
" style="fill: none; stroke: #000000; stroke-width: 0.8; stroke-linejoin: miter; stroke-linecap: square"/>
   </g>
   <g id="text_18">
    <!-- Percentage Fluctuation of Hard Mode -->
    <g transform="translate(197.5625 11.34399)scale(0.12 -0.12)">
     <defs>
      <path id="SimHei-20" transform="scale(0.015625)"/>
      <path id="SimHei-46" d="M 2925 3925 
L 875 3925 
L 875 2525 
L 2425 2525 
L 2425 2050 
L 875 2050 
L 875 125 
L 300 125 
L 300 4400 
L 2925 4400 
L 2925 3925 
z
" transform="scale(0.015625)"/>
      <path id="SimHei-6c" d="M 1825 125 
L 1325 125 
L 1325 4400 
L 1825 4400 
L 1825 125 
z
" transform="scale(0.015625)"/>
      <path id="SimHei-75" d="M 2800 125 
L 2300 125 
L 2300 650 
Q 2100 375 1862 225 
Q 1625 75 1250 75 
Q 800 75 575 325 
Q 350 575 350 950 
L 350 2925 
L 850 2925 
L 850 1125 
Q 850 825 1000 650 
Q 1150 475 1400 475 
Q 1725 475 2012 812 
Q 2300 1150 2300 1650 
L 2300 2925 
L 2800 2925 
L 2800 125 
z
" transform="scale(0.015625)"/>
      <path id="SimHei-69" d="M 1800 3725 
L 1300 3725 
L 1300 4375 
L 1800 4375 
L 1800 3725 
z
M 1800 125 
L 1300 125 
L 1300 2925 
L 1800 2925 
L 1800 125 
z
" transform="scale(0.015625)"/>
      <path id="SimHei-6f" d="M 2925 1525 
Q 2925 875 2525 475 
Q 2125 75 1575 75 
Q 1025 75 625 475 
Q 225 875 225 1525 
Q 225 2175 625 2575 
Q 1025 2975 1575 2975 
Q 2125 2975 2525 2575 
Q 2925 2175 2925 1525 
z
M 2375 1525 
Q 2375 2025 2125 2275 
Q 1875 2525 1575 2525 
Q 1275 2525 1025 2275 
Q 775 2025 775 1525 
Q 775 1025 1025 775 
Q 1275 525 1575 525 
Q 1875 525 2125 775 
Q 2375 1025 2375 1525 
z
" transform="scale(0.015625)"/>
      <path id="SimHei-66" d="M 2850 3825 
Q 2725 3900 2550 3950 
Q 2375 4000 2100 4000 
Q 1825 4000 1725 3862 
Q 1625 3725 1625 3525 
L 1625 2925 
L 2650 2925 
L 2650 2525 
L 1625 2525 
L 1625 125 
L 1125 125 
L 1125 2525 
L 275 2525 
L 275 2925 
L 1125 2925 
L 1125 3500 
Q 1125 3950 1400 4200 
Q 1675 4450 2125 4450 
Q 2400 4450 2562 4412 
Q 2725 4375 2850 4325 
L 2850 3825 
z
" transform="scale(0.015625)"/>
      <path id="SimHei-48" d="M 2850 125 
L 2275 125 
L 2275 2125 
L 850 2125 
L 850 125 
L 275 125 
L 275 4400 
L 850 4400 
L 850 2600 
L 2275 2600 
L 2275 4400 
L 2850 4400 
L 2850 125 
z
" transform="scale(0.015625)"/>
      <path id="SimHei-64" d="M 2750 125 
L 2250 125 
L 2250 500 
Q 2100 275 1900 175 
Q 1700 75 1425 75 
Q 925 75 575 437 
Q 225 800 225 1525 
Q 225 2250 575 2625 
Q 925 3000 1425 3000 
Q 1700 3000 1900 2887 
Q 2100 2775 2250 2550 
L 2250 4400 
L 2750 4400 
L 2750 125 
z
M 2250 1525 
Q 2250 2000 2037 2275 
Q 1825 2550 1525 2550 
Q 1150 2550 962 2275 
Q 775 2000 775 1525 
Q 775 1050 962 787 
Q 1150 525 1525 525 
Q 1825 525 2037 787 
Q 2250 1050 2250 1525 
z
" transform="scale(0.015625)"/>
      <path id="SimHei-4d" d="M 2925 125 
L 2425 125 
L 2425 3175 
L 2375 3175 
L 1775 125 
L 1375 125 
L 775 3175 
L 725 3175 
L 725 125 
L 225 125 
L 225 4400 
L 1000 4400 
L 1550 1575 
L 1600 1575 
L 2150 4400 
L 2925 4400 
L 2925 125 
z
" transform="scale(0.015625)"/>
     </defs>
     <use xlink:href="#SimHei-50"/>
     <use xlink:href="#SimHei-65" x="50"/>
     <use xlink:href="#SimHei-72" x="100"/>
     <use xlink:href="#SimHei-63" x="150"/>
     <use xlink:href="#SimHei-65" x="200"/>
     <use xlink:href="#SimHei-6e" x="250"/>
     <use xlink:href="#SimHei-74" x="300"/>
     <use xlink:href="#SimHei-61" x="350"/>
     <use xlink:href="#SimHei-67" x="400"/>
     <use xlink:href="#SimHei-65" x="450"/>
     <use xlink:href="#SimHei-20" x="500"/>
     <use xlink:href="#SimHei-46" x="550"/>
     <use xlink:href="#SimHei-6c" x="600"/>
     <use xlink:href="#SimHei-75" x="650"/>
     <use xlink:href="#SimHei-63" x="700"/>
     <use xlink:href="#SimHei-74" x="750"/>
     <use xlink:href="#SimHei-75" x="800"/>
     <use xlink:href="#SimHei-61" x="850"/>
     <use xlink:href="#SimHei-74" x="900"/>
     <use xlink:href="#SimHei-69" x="950"/>
     <use xlink:href="#SimHei-6f" x="1000"/>
     <use xlink:href="#SimHei-6e" x="1050"/>
     <use xlink:href="#SimHei-20" x="1100"/>
     <use xlink:href="#SimHei-6f" x="1150"/>
     <use xlink:href="#SimHei-66" x="1200"/>
     <use xlink:href="#SimHei-20" x="1250"/>
     <use xlink:href="#SimHei-48" x="1300"/>
     <use xlink:href="#SimHei-61" x="1350"/>
     <use xlink:href="#SimHei-72" x="1400"/>
     <use xlink:href="#SimHei-64" x="1450"/>
     <use xlink:href="#SimHei-20" x="1500"/>
     <use xlink:href="#SimHei-4d" x="1550"/>
     <use xlink:href="#SimHei-6f" x="1600"/>
     <use xlink:href="#SimHei-64" x="1650"/>
     <use xlink:href="#SimHei-65" x="1700"/>
    </g>
   </g>
   <g id="legend_1">
    <g id="patch_7">
     <path d="M 39.12524 38.59399 
L 231.12524 38.59399 
Q 233.12524 38.59399 233.12524 36.59399 
L 233.12524 24.34399 
Q 233.12524 22.34399 231.12524 22.34399 
L 39.12524 22.34399 
Q 37.12524 22.34399 37.12524 24.34399 
L 37.12524 36.59399 
Q 37.12524 38.59399 39.12524 38.59399 
z
" style="fill: #ffffff; opacity: 0.8; stroke: #cccccc; stroke-linejoin: miter"/>
    </g>
    <g id="line2d_18">
     <path d="M 41.12524 29.84399 
L 51.12524 29.84399 
L 61.12524 29.84399 
" style="fill: none; stroke: #1f77b4; stroke-width: 1.5; stroke-linecap: square"/>
    </g>
    <g id="text_19">
     <!-- Hard Mode percentage fluctuation -->
     <g transform="translate(69.12524 33.34399)scale(0.1 -0.1)">
      <defs>
       <path id="SimHei-70" d="M 2825 1525 
Q 2825 800 2475 425 
Q 2125 50 1625 50 
Q 1350 50 1150 162 
Q 950 275 800 500 
L 800 -800 
L 300 -800 
L 300 2925 
L 800 2925 
L 800 2550 
Q 950 2775 1150 2875 
Q 1350 2975 1625 2975 
Q 2125 2975 2475 2612 
Q 2825 2250 2825 1525 
z
M 2275 1525 
Q 2275 2000 2087 2262 
Q 1900 2525 1525 2525 
Q 1225 2525 1012 2262 
Q 800 2000 800 1525 
Q 800 1050 1012 775 
Q 1225 500 1525 500 
Q 1900 500 2087 775 
Q 2275 1050 2275 1525 
z
" transform="scale(0.015625)"/>
      </defs>
      <use xlink:href="#SimHei-48"/>
      <use xlink:href="#SimHei-61" x="50"/>
      <use xlink:href="#SimHei-72" x="100"/>
      <use xlink:href="#SimHei-64" x="150"/>
      <use xlink:href="#SimHei-20" x="200"/>
      <use xlink:href="#SimHei-4d" x="250"/>
      <use xlink:href="#SimHei-6f" x="300"/>
      <use xlink:href="#SimHei-64" x="350"/>
      <use xlink:href="#SimHei-65" x="400"/>
      <use xlink:href="#SimHei-20" x="450"/>
      <use xlink:href="#SimHei-70" x="500"/>
      <use xlink:href="#SimHei-65" x="550"/>
      <use xlink:href="#SimHei-72" x="600"/>
      <use xlink:href="#SimHei-63" x="650"/>
      <use xlink:href="#SimHei-65" x="700"/>
      <use xlink:href="#SimHei-6e" x="750"/>
      <use xlink:href="#SimHei-74" x="800"/>
      <use xlink:href="#SimHei-61" x="850"/>
      <use xlink:href="#SimHei-67" x="900"/>
      <use xlink:href="#SimHei-65" x="950"/>
      <use xlink:href="#SimHei-20" x="1000"/>
      <use xlink:href="#SimHei-66" x="1050"/>
      <use xlink:href="#SimHei-6c" x="1100"/>
      <use xlink:href="#SimHei-75" x="1150"/>
      <use xlink:href="#SimHei-63" x="1200"/>
      <use xlink:href="#SimHei-74" x="1250"/>
      <use xlink:href="#SimHei-75" x="1300"/>
      <use xlink:href="#SimHei-61" x="1350"/>
      <use xlink:href="#SimHei-74" x="1400"/>
      <use xlink:href="#SimHei-69" x="1450"/>
      <use xlink:href="#SimHei-6f" x="1500"/>
      <use xlink:href="#SimHei-6e" x="1550"/>
     </g>
    </g>
   </g>
  </g>
 </g>
 <defs>
  <clipPath id="p315131ed40">
   <rect x="32.12524" y="17.34399" width="540.87452" height="252.53077"/>
  </clipPath>
 </defs>
</svg>
