<?xml version="1.0" encoding="utf-8" standalone="no"?>
<!DOCTYPE svg PUBLIC "-//W3C//DTD SVG 1.1//EN"
  "http://www.w3.org/Graphics/SVG/1.1/DTD/svg11.dtd">
<svg xmlns:xlink="http://www.w3.org/1999/xlink" width="720pt" height="288pt" viewBox="0 0 720 288" xmlns="http://www.w3.org/2000/svg" version="1.1">
 <metadata>
  <rdf:RDF xmlns:dc="http://purl.org/dc/elements/1.1/" xmlns:cc="http://creativecommons.org/ns#" xmlns:rdf="http://www.w3.org/1999/02/22-rdf-syntax-ns#">
   <cc:Work>
    <dc:type rdf:resource="http://purl.org/dc/dcmitype/StillImage"/>
    <dc:date>2023-02-22T13:24:25.966663</dc:date>
    <dc:format>image/svg+xml</dc:format>
    <dc:creator>
     <cc:Agent>
      <dc:title>Matplotlib v3.7.0, https://matplotlib.org/</dc:title>
     </cc:Agent>
    </dc:creator>
   </cc:Work>
  </rdf:RDF>
 </metadata>
 <defs>
  <style type="text/css">*{stroke-linejoin: round; stroke-linecap: butt}</style>
 </defs>
 <g id="figure_1">
  <g id="patch_1">
   <path d="M 0 288 
L 720 288 
L 720 0 
L 0 0 
z
" style="fill: #ffffff"/>
  </g>
  <g id="axes_1">
   <g id="patch_2">
    <path d="M 55.490865 268.321635 
L 716.99976 268.321635 
L 716.99976 18.118365 
L 55.490865 18.118365 
z
" style="fill: #ffffff"/>
   </g>
   <g id="PolyCollection_1">
    <path d="M 556.964391 189.867137 
L 556.964391 229.27253 
L 559.167218 222.170017 
L 561.370045 230.175551 
L 563.572872 240.217238 
L 565.775699 239.087948 
L 567.978525 248.589244 
L 570.181352 247.223576 
L 572.384179 245.55377 
L 574.587006 243.532936 
L 576.789833 242.451338 
L 578.99266 237.745203 
L 581.195486 244.258309 
L 583.398313 241.176977 
L 585.60114 248.81106 
L 587.803967 247.933083 
L 590.006794 245.834684 
L 592.20962 241.275826 
L 594.412447 243.446257 
L 596.615274 243.349564 
L 598.818101 243.247468 
L 601.020928 248.397196 
L 603.223755 249.579085 
L 605.426581 241.258291 
L 607.629408 244.331141 
L 609.832235 241.448816 
L 612.035062 244.668978 
L 614.237889 245.133342 
L 616.440716 251.724863 
L 618.643542 246.135161 
L 620.846369 247.499201 
L 623.049196 244.291305 
L 625.252023 244.794068 
L 627.45485 245.354134 
L 629.657676 244.926833 
L 631.860503 248.060542 
L 634.06333 249.386311 
L 636.266157 245.350623 
L 638.468984 244.354574 
L 640.671811 246.26617 
L 642.874637 248.780994 
L 645.077464 242.693291 
L 647.280291 250.500601 
L 649.483118 250.202982 
L 651.685945 247.011551 
L 653.888772 246.511555 
L 656.091598 248.618141 
L 658.294425 243.516376 
L 660.497252 246.303768 
L 662.700079 250.96587 
L 664.902906 250.813139 
L 667.105732 249.504801 
L 669.308559 248.685959 
L 671.511386 240.657978 
L 673.714213 248.930792 
L 675.91704 243.633803 
L 678.119867 253.784142 
L 680.322693 251.6783 
L 682.52552 250.394624 
L 684.728347 245.446304 
L 686.931174 247.81259 
L 686.931174 207.215725 
L 686.931174 207.215725 
L 684.728347 204.510981 
L 682.52552 209.745144 
L 680.322693 212.459727 
L 678.119867 215.003319 
L 675.91704 206.168328 
L 673.714213 206.650355 
L 671.511386 201.95682 
L 669.308559 207.365099 
L 667.105732 210.209166 
L 664.902906 211.471697 
L 662.700079 210.614236 
L 660.497252 206.669477 
L 658.294425 204.485668 
L 656.091598 207.088155 
L 653.888772 205.805425 
L 651.685945 207.222481 
L 649.483118 210.058679 
L 647.280291 212.603034 
L 645.077464 203.411875 
L 642.874637 209.223994 
L 640.671811 205.942001 
L 638.468984 205.935009 
L 636.266157 206.035287 
L 634.06333 210.676828 
L 631.860503 207.589516 
L 629.657676 205.071756 
L 627.45485 206.61333 
L 625.252023 202.975941 
L 623.049196 203.91601 
L 620.846369 206.235047 
L 618.643542 206.541667 
L 616.440716 212.696225 
L 614.237889 204.336116 
L 612.035062 204.84414 
L 609.832235 203.299448 
L 607.629408 205.333652 
L 605.426581 202.945942 
L 603.223755 210.133558 
L 601.020928 211.602273 
L 598.818101 202.6352 
L 596.615274 202.8956 
L 594.412447 202.929305 
L 592.20962 200.885275 
L 590.006794 207.627707 
L 587.803967 206.886545 
L 585.60114 209.393437 
L 583.398313 199.944475 
L 581.195486 203.038798 
L 578.99266 198.336425 
L 576.789833 203.763584 
L 574.587006 204.349481 
L 572.384179 207.746729 
L 570.181352 207.067052 
L 567.978525 207.675845 
L 565.775699 200.708783 
L 563.572872 200.796245 
L 561.370045 190.281173 
L 559.167218 183.188326 
L 556.964391 189.867137 
z
" clip-path="url(#pdfb286b185)" style="fill: #1f77b4; fill-opacity: 0.5"/>
   </g>
   <g id="matplotlib.axis_1">
    <g id="xtick_1">
     <g id="line2d_1">
      <path d="M 85.559451 268.321635 
L 85.559451 18.118365 
" clip-path="url(#pdfb286b185)" style="fill: none; stroke: #b0b0b0; stroke-opacity: 0.5; stroke-width: 0.8; stroke-linecap: square"/>
     </g>
     <g id="line2d_2">
      <defs>
       <path id="m627a6b7ef8" d="M 0 0 
L 0 3.5 
" style="stroke: #000000; stroke-width: 0.8"/>
      </defs>
      <g>
       <use xlink:href="#m627a6b7ef8" x="85.559451" y="268.321635" style="stroke: #000000; stroke-width: 0.8"/>
      </g>
     </g>
     <g id="text_1">
      <!-- 2022-06 -->
      <g transform="translate(64.668045 282.920073) scale(0.1 -0.1)">
       <defs>
        <path id="DejaVuSans-32" d="M 1228 531 
L 3431 531 
L 3431 0 
L 469 0 
L 469 531 
Q 828 903 1448 1529 
Q 2069 2156 2228 2338 
Q 2531 2678 2651 2914 
Q 2772 3150 2772 3378 
Q 2772 3750 2511 3984 
Q 2250 4219 1831 4219 
Q 1534 4219 1204 4116 
Q 875 4013 500 3803 
L 500 4441 
Q 881 4594 1212 4672 
Q 1544 4750 1819 4750 
Q 2544 4750 2975 4387 
Q 3406 4025 3406 3419 
Q 3406 3131 3298 2873 
Q 3191 2616 2906 2266 
Q 2828 2175 2409 1742 
Q 1991 1309 1228 531 
z
" transform="scale(0.015625)"/>
        <path id="DejaVuSans-30" d="M 2034 4250 
Q 1547 4250 1301 3770 
Q 1056 3291 1056 2328 
Q 1056 1369 1301 889 
Q 1547 409 2034 409 
Q 2525 409 2770 889 
Q 3016 1369 3016 2328 
Q 3016 3291 2770 3770 
Q 2525 4250 2034 4250 
z
M 2034 4750 
Q 2819 4750 3233 4129 
Q 3647 3509 3647 2328 
Q 3647 1150 3233 529 
Q 2819 -91 2034 -91 
Q 1250 -91 836 529 
Q 422 1150 422 2328 
Q 422 3509 836 4129 
Q 1250 4750 2034 4750 
z
" transform="scale(0.015625)"/>
        <path id="DejaVuSans-2d" d="M 313 2009 
L 1997 2009 
L 1997 1497 
L 313 1497 
L 313 2009 
z
" transform="scale(0.015625)"/>
        <path id="DejaVuSans-36" d="M 2113 2584 
Q 1688 2584 1439 2293 
Q 1191 2003 1191 1497 
Q 1191 994 1439 701 
Q 1688 409 2113 409 
Q 2538 409 2786 701 
Q 3034 994 3034 1497 
Q 3034 2003 2786 2293 
Q 2538 2584 2113 2584 
z
M 3366 4563 
L 3366 3988 
Q 3128 4100 2886 4159 
Q 2644 4219 2406 4219 
Q 1781 4219 1451 3797 
Q 1122 3375 1075 2522 
Q 1259 2794 1537 2939 
Q 1816 3084 2150 3084 
Q 2853 3084 3261 2657 
Q 3669 2231 3669 1497 
Q 3669 778 3244 343 
Q 2819 -91 2113 -91 
Q 1303 -91 875 529 
Q 447 1150 447 2328 
Q 447 3434 972 4092 
Q 1497 4750 2381 4750 
Q 2619 4750 2861 4703 
Q 3103 4656 3366 4563 
z
" transform="scale(0.015625)"/>
       </defs>
       <use xlink:href="#DejaVuSans-32"/>
       <use xlink:href="#DejaVuSans-30" x="63.623047"/>
       <use xlink:href="#DejaVuSans-32" x="127.246094"/>
       <use xlink:href="#DejaVuSans-32" x="190.869141"/>
       <use xlink:href="#DejaVuSans-2d" x="254.492188"/>
       <use xlink:href="#DejaVuSans-30" x="290.576172"/>
       <use xlink:href="#DejaVuSans-36" x="354.199219"/>
      </g>
     </g>
    </g>
    <g id="xtick_2">
     <g id="line2d_3">
      <path d="M 151.644256 268.321635 
L 151.644256 18.118365 
" clip-path="url(#pdfb286b185)" style="fill: none; stroke: #b0b0b0; stroke-opacity: 0.5; stroke-width: 0.8; stroke-linecap: square"/>
     </g>
     <g id="line2d_4">
      <g>
       <use xlink:href="#m627a6b7ef8" x="151.644256" y="268.321635" style="stroke: #000000; stroke-width: 0.8"/>
      </g>
     </g>
     <g id="text_2">
      <!-- 2022-07 -->
      <g transform="translate(130.75285 282.920073) scale(0.1 -0.1)">
       <defs>
        <path id="DejaVuSans-37" d="M 525 4666 
L 3525 4666 
L 3525 4397 
L 1831 0 
L 1172 0 
L 2766 4134 
L 525 4134 
L 525 4666 
z
" transform="scale(0.015625)"/>
       </defs>
       <use xlink:href="#DejaVuSans-32"/>
       <use xlink:href="#DejaVuSans-30" x="63.623047"/>
       <use xlink:href="#DejaVuSans-32" x="127.246094"/>
       <use xlink:href="#DejaVuSans-32" x="190.869141"/>
       <use xlink:href="#DejaVuSans-2d" x="254.492188"/>
       <use xlink:href="#DejaVuSans-30" x="290.576172"/>
       <use xlink:href="#DejaVuSans-37" x="354.199219"/>
      </g>
     </g>
    </g>
    <g id="xtick_3">
     <g id="line2d_5">
      <path d="M 219.931887 268.321635 
L 219.931887 18.118365 
" clip-path="url(#pdfb286b185)" style="fill: none; stroke: #b0b0b0; stroke-opacity: 0.5; stroke-width: 0.8; stroke-linecap: square"/>
     </g>
     <g id="line2d_6">
      <g>
       <use xlink:href="#m627a6b7ef8" x="219.931887" y="268.321635" style="stroke: #000000; stroke-width: 0.8"/>
      </g>
     </g>
     <g id="text_3">
      <!-- 2022-08 -->
      <g transform="translate(199.040481 282.920073) scale(0.1 -0.1)">
       <defs>
        <path id="DejaVuSans-38" d="M 2034 2216 
Q 1584 2216 1326 1975 
Q 1069 1734 1069 1313 
Q 1069 891 1326 650 
Q 1584 409 2034 409 
Q 2484 409 2743 651 
Q 3003 894 3003 1313 
Q 3003 1734 2745 1975 
Q 2488 2216 2034 2216 
z
M 1403 2484 
Q 997 2584 770 2862 
Q 544 3141 544 3541 
Q 544 4100 942 4425 
Q 1341 4750 2034 4750 
Q 2731 4750 3128 4425 
Q 3525 4100 3525 3541 
Q 3525 3141 3298 2862 
Q 3072 2584 2669 2484 
Q 3125 2378 3379 2068 
Q 3634 1759 3634 1313 
Q 3634 634 3220 271 
Q 2806 -91 2034 -91 
Q 1263 -91 848 271 
Q 434 634 434 1313 
Q 434 1759 690 2068 
Q 947 2378 1403 2484 
z
M 1172 3481 
Q 1172 3119 1398 2916 
Q 1625 2713 2034 2713 
Q 2441 2713 2670 2916 
Q 2900 3119 2900 3481 
Q 2900 3844 2670 4047 
Q 2441 4250 2034 4250 
Q 1625 4250 1398 4047 
Q 1172 3844 1172 3481 
z
" transform="scale(0.015625)"/>
       </defs>
       <use xlink:href="#DejaVuSans-32"/>
       <use xlink:href="#DejaVuSans-30" x="63.623047"/>
       <use xlink:href="#DejaVuSans-32" x="127.246094"/>
       <use xlink:href="#DejaVuSans-32" x="190.869141"/>
       <use xlink:href="#DejaVuSans-2d" x="254.492188"/>
       <use xlink:href="#DejaVuSans-30" x="290.576172"/>
       <use xlink:href="#DejaVuSans-38" x="354.199219"/>
      </g>
     </g>
    </g>
    <g id="xtick_4">
     <g id="line2d_7">
      <path d="M 288.219519 268.321635 
L 288.219519 18.118365 
" clip-path="url(#pdfb286b185)" style="fill: none; stroke: #b0b0b0; stroke-opacity: 0.5; stroke-width: 0.8; stroke-linecap: square"/>
     </g>
     <g id="line2d_8">
      <g>
       <use xlink:href="#m627a6b7ef8" x="288.219519" y="268.321635" style="stroke: #000000; stroke-width: 0.8"/>
      </g>
     </g>
     <g id="text_4">
      <!-- 2022-09 -->
      <g transform="translate(267.328113 282.920073) scale(0.1 -0.1)">
       <defs>
        <path id="DejaVuSans-39" d="M 703 97 
L 703 672 
Q 941 559 1184 500 
Q 1428 441 1663 441 
Q 2288 441 2617 861 
Q 2947 1281 2994 2138 
Q 2813 1869 2534 1725 
Q 2256 1581 1919 1581 
Q 1219 1581 811 2004 
Q 403 2428 403 3163 
Q 403 3881 828 4315 
Q 1253 4750 1959 4750 
Q 2769 4750 3195 4129 
Q 3622 3509 3622 2328 
Q 3622 1225 3098 567 
Q 2575 -91 1691 -91 
Q 1453 -91 1209 -44 
Q 966 3 703 97 
z
M 1959 2075 
Q 2384 2075 2632 2365 
Q 2881 2656 2881 3163 
Q 2881 3666 2632 3958 
Q 2384 4250 1959 4250 
Q 1534 4250 1286 3958 
Q 1038 3666 1038 3163 
Q 1038 2656 1286 2365 
Q 1534 2075 1959 2075 
z
" transform="scale(0.015625)"/>
       </defs>
       <use xlink:href="#DejaVuSans-32"/>
       <use xlink:href="#DejaVuSans-30" x="63.623047"/>
       <use xlink:href="#DejaVuSans-32" x="127.246094"/>
       <use xlink:href="#DejaVuSans-32" x="190.869141"/>
       <use xlink:href="#DejaVuSans-2d" x="254.492188"/>
       <use xlink:href="#DejaVuSans-30" x="290.576172"/>
       <use xlink:href="#DejaVuSans-39" x="354.199219"/>
      </g>
     </g>
    </g>
    <g id="xtick_5">
     <g id="line2d_9">
      <path d="M 354.304324 268.321635 
L 354.304324 18.118365 
" clip-path="url(#pdfb286b185)" style="fill: none; stroke: #b0b0b0; stroke-opacity: 0.5; stroke-width: 0.8; stroke-linecap: square"/>
     </g>
     <g id="line2d_10">
      <g>
       <use xlink:href="#m627a6b7ef8" x="354.304324" y="268.321635" style="stroke: #000000; stroke-width: 0.8"/>
      </g>
     </g>
     <g id="text_5">
      <!-- 2022-10 -->
      <g transform="translate(333.412917 282.920073) scale(0.1 -0.1)">
       <defs>
        <path id="DejaVuSans-31" d="M 794 531 
L 1825 531 
L 1825 4091 
L 703 3866 
L 703 4441 
L 1819 4666 
L 2450 4666 
L 2450 531 
L 3481 531 
L 3481 0 
L 794 0 
L 794 531 
z
" transform="scale(0.015625)"/>
       </defs>
       <use xlink:href="#DejaVuSans-32"/>
       <use xlink:href="#DejaVuSans-30" x="63.623047"/>
       <use xlink:href="#DejaVuSans-32" x="127.246094"/>
       <use xlink:href="#DejaVuSans-32" x="190.869141"/>
       <use xlink:href="#DejaVuSans-2d" x="254.492188"/>
       <use xlink:href="#DejaVuSans-31" x="290.576172"/>
       <use xlink:href="#DejaVuSans-30" x="354.199219"/>
      </g>
     </g>
    </g>
    <g id="xtick_6">
     <g id="line2d_11">
      <path d="M 422.591955 268.321635 
L 422.591955 18.118365 
" clip-path="url(#pdfb286b185)" style="fill: none; stroke: #b0b0b0; stroke-opacity: 0.5; stroke-width: 0.8; stroke-linecap: square"/>
     </g>
     <g id="line2d_12">
      <g>
       <use xlink:href="#m627a6b7ef8" x="422.591955" y="268.321635" style="stroke: #000000; stroke-width: 0.8"/>
      </g>
     </g>
     <g id="text_6">
      <!-- 2022-11 -->
      <g transform="translate(401.700549 282.920073) scale(0.1 -0.1)">
       <use xlink:href="#DejaVuSans-32"/>
       <use xlink:href="#DejaVuSans-30" x="63.623047"/>
       <use xlink:href="#DejaVuSans-32" x="127.246094"/>
       <use xlink:href="#DejaVuSans-32" x="190.869141"/>
       <use xlink:href="#DejaVuSans-2d" x="254.492188"/>
       <use xlink:href="#DejaVuSans-31" x="290.576172"/>
       <use xlink:href="#DejaVuSans-31" x="354.199219"/>
      </g>
     </g>
    </g>
    <g id="xtick_7">
     <g id="line2d_13">
      <path d="M 488.67676 268.321635 
L 488.67676 18.118365 
" clip-path="url(#pdfb286b185)" style="fill: none; stroke: #b0b0b0; stroke-opacity: 0.5; stroke-width: 0.8; stroke-linecap: square"/>
     </g>
     <g id="line2d_14">
      <g>
       <use xlink:href="#m627a6b7ef8" x="488.67676" y="268.321635" style="stroke: #000000; stroke-width: 0.8"/>
      </g>
     </g>
     <g id="text_7">
      <!-- 2022-12 -->
      <g transform="translate(467.785354 282.920073) scale(0.1 -0.1)">
       <use xlink:href="#DejaVuSans-32"/>
       <use xlink:href="#DejaVuSans-30" x="63.623047"/>
       <use xlink:href="#DejaVuSans-32" x="127.246094"/>
       <use xlink:href="#DejaVuSans-32" x="190.869141"/>
       <use xlink:href="#DejaVuSans-2d" x="254.492188"/>
       <use xlink:href="#DejaVuSans-31" x="290.576172"/>
       <use xlink:href="#DejaVuSans-32" x="354.199219"/>
      </g>
     </g>
    </g>
    <g id="xtick_8">
     <g id="line2d_15">
      <path d="M 556.964391 268.321635 
L 556.964391 18.118365 
" clip-path="url(#pdfb286b185)" style="fill: none; stroke: #b0b0b0; stroke-opacity: 0.5; stroke-width: 0.8; stroke-linecap: square"/>
     </g>
     <g id="line2d_16">
      <g>
       <use xlink:href="#m627a6b7ef8" x="556.964391" y="268.321635" style="stroke: #000000; stroke-width: 0.8"/>
      </g>
     </g>
     <g id="text_8">
      <!-- 2023-01 -->
      <g transform="translate(536.072985 282.920073) scale(0.1 -0.1)">
       <defs>
        <path id="DejaVuSans-33" d="M 2597 2516 
Q 3050 2419 3304 2112 
Q 3559 1806 3559 1356 
Q 3559 666 3084 287 
Q 2609 -91 1734 -91 
Q 1441 -91 1130 -33 
Q 819 25 488 141 
L 488 750 
Q 750 597 1062 519 
Q 1375 441 1716 441 
Q 2309 441 2620 675 
Q 2931 909 2931 1356 
Q 2931 1769 2642 2001 
Q 2353 2234 1838 2234 
L 1294 2234 
L 1294 2753 
L 1863 2753 
Q 2328 2753 2575 2939 
Q 2822 3125 2822 3475 
Q 2822 3834 2567 4026 
Q 2313 4219 1838 4219 
Q 1578 4219 1281 4162 
Q 984 4106 628 3988 
L 628 4550 
Q 988 4650 1302 4700 
Q 1616 4750 1894 4750 
Q 2613 4750 3031 4423 
Q 3450 4097 3450 3541 
Q 3450 3153 3228 2886 
Q 3006 2619 2597 2516 
z
" transform="scale(0.015625)"/>
       </defs>
       <use xlink:href="#DejaVuSans-32"/>
       <use xlink:href="#DejaVuSans-30" x="63.623047"/>
       <use xlink:href="#DejaVuSans-32" x="127.246094"/>
       <use xlink:href="#DejaVuSans-33" x="190.869141"/>
       <use xlink:href="#DejaVuSans-2d" x="254.492188"/>
       <use xlink:href="#DejaVuSans-30" x="290.576172"/>
       <use xlink:href="#DejaVuSans-31" x="354.199219"/>
      </g>
     </g>
    </g>
    <g id="xtick_9">
     <g id="line2d_17">
      <path d="M 625.252023 268.321635 
L 625.252023 18.118365 
" clip-path="url(#pdfb286b185)" style="fill: none; stroke: #b0b0b0; stroke-opacity: 0.5; stroke-width: 0.8; stroke-linecap: square"/>
     </g>
     <g id="line2d_18">
      <g>
       <use xlink:href="#m627a6b7ef8" x="625.252023" y="268.321635" style="stroke: #000000; stroke-width: 0.8"/>
      </g>
     </g>
     <g id="text_9">
      <!-- 2023-02 -->
      <g transform="translate(604.360617 282.920073) scale(0.1 -0.1)">
       <use xlink:href="#DejaVuSans-32"/>
       <use xlink:href="#DejaVuSans-30" x="63.623047"/>
       <use xlink:href="#DejaVuSans-32" x="127.246094"/>
       <use xlink:href="#DejaVuSans-33" x="190.869141"/>
       <use xlink:href="#DejaVuSans-2d" x="254.492188"/>
       <use xlink:href="#DejaVuSans-30" x="290.576172"/>
       <use xlink:href="#DejaVuSans-32" x="354.199219"/>
      </g>
     </g>
    </g>
    <g id="xtick_10">
     <g id="line2d_19">
      <path d="M 686.931174 268.321635 
L 686.931174 18.118365 
" clip-path="url(#pdfb286b185)" style="fill: none; stroke: #b0b0b0; stroke-opacity: 0.5; stroke-width: 0.8; stroke-linecap: square"/>
     </g>
     <g id="line2d_20">
      <g>
       <use xlink:href="#m627a6b7ef8" x="686.931174" y="268.321635" style="stroke: #000000; stroke-width: 0.8"/>
      </g>
     </g>
     <g id="text_10">
      <!-- 2023-03 -->
      <g transform="translate(666.039768 282.920073) scale(0.1 -0.1)">
       <use xlink:href="#DejaVuSans-32"/>
       <use xlink:href="#DejaVuSans-30" x="63.623047"/>
       <use xlink:href="#DejaVuSans-32" x="127.246094"/>
       <use xlink:href="#DejaVuSans-33" x="190.869141"/>
       <use xlink:href="#DejaVuSans-2d" x="254.492188"/>
       <use xlink:href="#DejaVuSans-30" x="290.576172"/>
       <use xlink:href="#DejaVuSans-33" x="354.199219"/>
      </g>
     </g>
    </g>
   </g>
   <g id="matplotlib.axis_2">
    <g id="ytick_1">
     <g id="line2d_21">
      <path d="M 55.490865 236.673359 
L 716.99976 236.673359 
" clip-path="url(#pdfb286b185)" style="fill: none; stroke: #b0b0b0; stroke-opacity: 0.5; stroke-width: 0.8; stroke-linecap: square"/>
     </g>
     <g id="line2d_22">
      <defs>
       <path id="ma8ef9dea23" d="M 0 0 
L -3.5 0 
" style="stroke: #000000; stroke-width: 0.8"/>
      </defs>
      <g>
       <use xlink:href="#ma8ef9dea23" x="55.490865" y="236.673359" style="stroke: #000000; stroke-width: 0.8"/>
      </g>
     </g>
     <g id="text_11">
      <!-- 20000 -->
      <g transform="translate(16.678365 240.472578) scale(0.1 -0.1)">
       <use xlink:href="#DejaVuSans-32"/>
       <use xlink:href="#DejaVuSans-30" x="63.623047"/>
       <use xlink:href="#DejaVuSans-30" x="127.246094"/>
       <use xlink:href="#DejaVuSans-30" x="190.869141"/>
       <use xlink:href="#DejaVuSans-30" x="254.492188"/>
      </g>
     </g>
    </g>
    <g id="ytick_2">
     <g id="line2d_23">
      <path d="M 55.490865 191.06967 
L 716.99976 191.06967 
" clip-path="url(#pdfb286b185)" style="fill: none; stroke: #b0b0b0; stroke-opacity: 0.5; stroke-width: 0.8; stroke-linecap: square"/>
     </g>
     <g id="line2d_24">
      <g>
       <use xlink:href="#ma8ef9dea23" x="55.490865" y="191.06967" style="stroke: #000000; stroke-width: 0.8"/>
      </g>
     </g>
     <g id="text_12">
      <!-- 30000 -->
      <g transform="translate(16.678365 194.868889) scale(0.1 -0.1)">
       <use xlink:href="#DejaVuSans-33"/>
       <use xlink:href="#DejaVuSans-30" x="63.623047"/>
       <use xlink:href="#DejaVuSans-30" x="127.246094"/>
       <use xlink:href="#DejaVuSans-30" x="190.869141"/>
       <use xlink:href="#DejaVuSans-30" x="254.492188"/>
      </g>
     </g>
    </g>
    <g id="ytick_3">
     <g id="line2d_25">
      <path d="M 55.490865 145.465982 
L 716.99976 145.465982 
" clip-path="url(#pdfb286b185)" style="fill: none; stroke: #b0b0b0; stroke-opacity: 0.5; stroke-width: 0.8; stroke-linecap: square"/>
     </g>
     <g id="line2d_26">
      <g>
       <use xlink:href="#ma8ef9dea23" x="55.490865" y="145.465982" style="stroke: #000000; stroke-width: 0.8"/>
      </g>
     </g>
     <g id="text_13">
      <!-- 40000 -->
      <g transform="translate(16.678365 149.2652) scale(0.1 -0.1)">
       <defs>
        <path id="DejaVuSans-34" d="M 2419 4116 
L 825 1625 
L 2419 1625 
L 2419 4116 
z
M 2253 4666 
L 3047 4666 
L 3047 1625 
L 3713 1625 
L 3713 1100 
L 3047 1100 
L 3047 0 
L 2419 0 
L 2419 1100 
L 313 1100 
L 313 1709 
L 2253 4666 
z
" transform="scale(0.015625)"/>
       </defs>
       <use xlink:href="#DejaVuSans-34"/>
       <use xlink:href="#DejaVuSans-30" x="63.623047"/>
       <use xlink:href="#DejaVuSans-30" x="127.246094"/>
       <use xlink:href="#DejaVuSans-30" x="190.869141"/>
       <use xlink:href="#DejaVuSans-30" x="254.492188"/>
      </g>
     </g>
    </g>
    <g id="ytick_4">
     <g id="line2d_27">
      <path d="M 55.490865 99.862293 
L 716.99976 99.862293 
" clip-path="url(#pdfb286b185)" style="fill: none; stroke: #b0b0b0; stroke-opacity: 0.5; stroke-width: 0.8; stroke-linecap: square"/>
     </g>
     <g id="line2d_28">
      <g>
       <use xlink:href="#ma8ef9dea23" x="55.490865" y="99.862293" style="stroke: #000000; stroke-width: 0.8"/>
      </g>
     </g>
     <g id="text_14">
      <!-- 50000 -->
      <g transform="translate(16.678365 103.661512) scale(0.1 -0.1)">
       <defs>
        <path id="DejaVuSans-35" d="M 691 4666 
L 3169 4666 
L 3169 4134 
L 1269 4134 
L 1269 2991 
Q 1406 3038 1543 3061 
Q 1681 3084 1819 3084 
Q 2600 3084 3056 2656 
Q 3513 2228 3513 1497 
Q 3513 744 3044 326 
Q 2575 -91 1722 -91 
Q 1428 -91 1123 -41 
Q 819 9 494 109 
L 494 744 
Q 775 591 1075 516 
Q 1375 441 1709 441 
Q 2250 441 2565 725 
Q 2881 1009 2881 1497 
Q 2881 1984 2565 2268 
Q 2250 2553 1709 2553 
Q 1456 2553 1204 2497 
Q 953 2441 691 2322 
L 691 4666 
z
" transform="scale(0.015625)"/>
       </defs>
       <use xlink:href="#DejaVuSans-35"/>
       <use xlink:href="#DejaVuSans-30" x="63.623047"/>
       <use xlink:href="#DejaVuSans-30" x="127.246094"/>
       <use xlink:href="#DejaVuSans-30" x="190.869141"/>
       <use xlink:href="#DejaVuSans-30" x="254.492188"/>
      </g>
     </g>
    </g>
    <g id="ytick_5">
     <g id="line2d_29">
      <path d="M 55.490865 54.258604 
L 716.99976 54.258604 
" clip-path="url(#pdfb286b185)" style="fill: none; stroke: #b0b0b0; stroke-opacity: 0.5; stroke-width: 0.8; stroke-linecap: square"/>
     </g>
     <g id="line2d_30">
      <g>
       <use xlink:href="#ma8ef9dea23" x="55.490865" y="54.258604" style="stroke: #000000; stroke-width: 0.8"/>
      </g>
     </g>
     <g id="text_15">
      <!-- 60000 -->
      <g transform="translate(16.678365 58.057823) scale(0.1 -0.1)">
       <use xlink:href="#DejaVuSans-36"/>
       <use xlink:href="#DejaVuSans-30" x="63.623047"/>
       <use xlink:href="#DejaVuSans-30" x="127.246094"/>
       <use xlink:href="#DejaVuSans-30" x="190.869141"/>
       <use xlink:href="#DejaVuSans-30" x="254.492188"/>
      </g>
     </g>
    </g>
    <g id="text_16">
     <!-- Player count -->
     <g transform="translate(10.598678 174.474688) rotate(-90) scale(0.1 -0.1)">
      <defs>
       <path id="DejaVuSans-50" d="M 1259 4147 
L 1259 2394 
L 2053 2394 
Q 2494 2394 2734 2622 
Q 2975 2850 2975 3272 
Q 2975 3691 2734 3919 
Q 2494 4147 2053 4147 
L 1259 4147 
z
M 628 4666 
L 2053 4666 
Q 2838 4666 3239 4311 
Q 3641 3956 3641 3272 
Q 3641 2581 3239 2228 
Q 2838 1875 2053 1875 
L 1259 1875 
L 1259 0 
L 628 0 
L 628 4666 
z
" transform="scale(0.015625)"/>
       <path id="DejaVuSans-6c" d="M 603 4863 
L 1178 4863 
L 1178 0 
L 603 0 
L 603 4863 
z
" transform="scale(0.015625)"/>
       <path id="DejaVuSans-61" d="M 2194 1759 
Q 1497 1759 1228 1600 
Q 959 1441 959 1056 
Q 959 750 1161 570 
Q 1363 391 1709 391 
Q 2188 391 2477 730 
Q 2766 1069 2766 1631 
L 2766 1759 
L 2194 1759 
z
M 3341 1997 
L 3341 0 
L 2766 0 
L 2766 531 
Q 2569 213 2275 61 
Q 1981 -91 1556 -91 
Q 1019 -91 701 211 
Q 384 513 384 1019 
Q 384 1609 779 1909 
Q 1175 2209 1959 2209 
L 2766 2209 
L 2766 2266 
Q 2766 2663 2505 2880 
Q 2244 3097 1772 3097 
Q 1472 3097 1187 3025 
Q 903 2953 641 2809 
L 641 3341 
Q 956 3463 1253 3523 
Q 1550 3584 1831 3584 
Q 2591 3584 2966 3190 
Q 3341 2797 3341 1997 
z
" transform="scale(0.015625)"/>
       <path id="DejaVuSans-79" d="M 2059 -325 
Q 1816 -950 1584 -1140 
Q 1353 -1331 966 -1331 
L 506 -1331 
L 506 -850 
L 844 -850 
Q 1081 -850 1212 -737 
Q 1344 -625 1503 -206 
L 1606 56 
L 191 3500 
L 800 3500 
L 1894 763 
L 2988 3500 
L 3597 3500 
L 2059 -325 
z
" transform="scale(0.015625)"/>
       <path id="DejaVuSans-65" d="M 3597 1894 
L 3597 1613 
L 953 1613 
Q 991 1019 1311 708 
Q 1631 397 2203 397 
Q 2534 397 2845 478 
Q 3156 559 3463 722 
L 3463 178 
Q 3153 47 2828 -22 
Q 2503 -91 2169 -91 
Q 1331 -91 842 396 
Q 353 884 353 1716 
Q 353 2575 817 3079 
Q 1281 3584 2069 3584 
Q 2775 3584 3186 3129 
Q 3597 2675 3597 1894 
z
M 3022 2063 
Q 3016 2534 2758 2815 
Q 2500 3097 2075 3097 
Q 1594 3097 1305 2825 
Q 1016 2553 972 2059 
L 3022 2063 
z
" transform="scale(0.015625)"/>
       <path id="DejaVuSans-72" d="M 2631 2963 
Q 2534 3019 2420 3045 
Q 2306 3072 2169 3072 
Q 1681 3072 1420 2755 
Q 1159 2438 1159 1844 
L 1159 0 
L 581 0 
L 581 3500 
L 1159 3500 
L 1159 2956 
Q 1341 3275 1631 3429 
Q 1922 3584 2338 3584 
Q 2397 3584 2469 3576 
Q 2541 3569 2628 3553 
L 2631 2963 
z
" transform="scale(0.015625)"/>
       <path id="DejaVuSans-20" transform="scale(0.015625)"/>
       <path id="DejaVuSans-63" d="M 3122 3366 
L 3122 2828 
Q 2878 2963 2633 3030 
Q 2388 3097 2138 3097 
Q 1578 3097 1268 2742 
Q 959 2388 959 1747 
Q 959 1106 1268 751 
Q 1578 397 2138 397 
Q 2388 397 2633 464 
Q 2878 531 3122 666 
L 3122 134 
Q 2881 22 2623 -34 
Q 2366 -91 2075 -91 
Q 1284 -91 818 406 
Q 353 903 353 1747 
Q 353 2603 823 3093 
Q 1294 3584 2113 3584 
Q 2378 3584 2631 3529 
Q 2884 3475 3122 3366 
z
" transform="scale(0.015625)"/>
       <path id="DejaVuSans-6f" d="M 1959 3097 
Q 1497 3097 1228 2736 
Q 959 2375 959 1747 
Q 959 1119 1226 758 
Q 1494 397 1959 397 
Q 2419 397 2687 759 
Q 2956 1122 2956 1747 
Q 2956 2369 2687 2733 
Q 2419 3097 1959 3097 
z
M 1959 3584 
Q 2709 3584 3137 3096 
Q 3566 2609 3566 1747 
Q 3566 888 3137 398 
Q 2709 -91 1959 -91 
Q 1206 -91 779 398 
Q 353 888 353 1747 
Q 353 2609 779 3096 
Q 1206 3584 1959 3584 
z
" transform="scale(0.015625)"/>
       <path id="DejaVuSans-75" d="M 544 1381 
L 544 3500 
L 1119 3500 
L 1119 1403 
Q 1119 906 1312 657 
Q 1506 409 1894 409 
Q 2359 409 2629 706 
Q 2900 1003 2900 1516 
L 2900 3500 
L 3475 3500 
L 3475 0 
L 2900 0 
L 2900 538 
Q 2691 219 2414 64 
Q 2138 -91 1772 -91 
Q 1169 -91 856 284 
Q 544 659 544 1381 
z
M 1991 3584 
L 1991 3584 
z
" transform="scale(0.015625)"/>
       <path id="DejaVuSans-6e" d="M 3513 2113 
L 3513 0 
L 2938 0 
L 2938 2094 
Q 2938 2591 2744 2837 
Q 2550 3084 2163 3084 
Q 1697 3084 1428 2787 
Q 1159 2491 1159 1978 
L 1159 0 
L 581 0 
L 581 3500 
L 1159 3500 
L 1159 2956 
Q 1366 3272 1645 3428 
Q 1925 3584 2291 3584 
Q 2894 3584 3203 3211 
Q 3513 2838 3513 2113 
z
" transform="scale(0.015625)"/>
       <path id="DejaVuSans-74" d="M 1172 4494 
L 1172 3500 
L 2356 3500 
L 2356 3053 
L 1172 3053 
L 1172 1153 
Q 1172 725 1289 603 
Q 1406 481 1766 481 
L 2356 481 
L 2356 0 
L 1766 0 
Q 1100 0 847 248 
Q 594 497 594 1153 
L 594 3053 
L 172 3053 
L 172 3500 
L 594 3500 
L 594 4494 
L 1172 4494 
z
" transform="scale(0.015625)"/>
      </defs>
      <use xlink:href="#DejaVuSans-50"/>
      <use xlink:href="#DejaVuSans-6c" x="60.302734"/>
      <use xlink:href="#DejaVuSans-61" x="88.085938"/>
      <use xlink:href="#DejaVuSans-79" x="149.365234"/>
      <use xlink:href="#DejaVuSans-65" x="208.544922"/>
      <use xlink:href="#DejaVuSans-72" x="270.068359"/>
      <use xlink:href="#DejaVuSans-20" x="311.181641"/>
      <use xlink:href="#DejaVuSans-63" x="342.96875"/>
      <use xlink:href="#DejaVuSans-6f" x="397.949219"/>
      <use xlink:href="#DejaVuSans-75" x="459.130859"/>
      <use xlink:href="#DejaVuSans-6e" x="522.509766"/>
      <use xlink:href="#DejaVuSans-74" x="585.888672"/>
     </g>
    </g>
   </g>
   <g id="line2d_31">
    <path d="M 85.559451 39.478449 
L 87.762278 48.430453 
L 89.965105 29.491241 
L 92.167932 62.179965 
L 94.370758 69.134528 
L 96.573585 61.199486 
L 98.776412 58.860016 
L 100.979239 49.579666 
L 103.182066 54.167397 
L 105.384893 75.34575 
L 107.587719 90.933091 
L 109.790546 69.380787 
L 111.993373 82.523771 
L 114.1962 54.404536 
L 116.399027 72.550244 
L 118.601853 84.220228 
L 120.80468 78.588172 
L 123.007507 112.608524 
L 125.210334 75.423276 
L 127.413161 97.655074 
L 129.615988 84.62154 
L 131.818814 110.601962 
L 134.021641 85.674985 
L 136.224468 97.048545 
L 138.427295 117.697896 
L 140.630122 97.810127 
L 142.832949 109.046876 
L 145.035775 112.120564 
L 147.238602 119.722699 
L 149.441429 126.257708 
L 151.644256 112.412428 
L 153.847083 137.416931 
L 156.049909 143.249642 
L 158.252736 133.403806 
L 160.455563 124.588613 
L 162.65839 111.974633 
L 164.861217 129.928805 
L 167.064044 132.669587 
L 169.26687 113.114725 
L 171.469697 137.325723 
L 173.672524 142.980581 
L 175.875351 113.953833 
L 178.078178 116.981918 
L 180.281005 142.962339 
L 182.483831 148.959224 
L 184.686658 151.079796 
L 186.889485 147.239965 
L 189.092312 133.727592 
L 191.295139 146.984585 
L 193.497965 135.264437 
L 195.700792 149.634159 
L 197.903619 131.333399 
L 200.106446 160.200533 
L 202.309273 146.318771 
L 204.5121 148.986586 
L 206.714926 149.246527 
L 208.917753 152.835538 
L 211.12058 142.501742 
L 213.323407 155.539837 
L 215.526234 157.537278 
L 217.729061 148.886258 
L 219.931887 160.688493 
L 222.134714 168.68282 
L 224.337541 152.849219 
L 226.540368 158.102764 
L 228.743195 157.550959 
L 230.946021 150.751449 
L 233.148848 162.690495 
L 235.351675 165.914676 
L 237.554502 162.690495 
L 239.757329 156.164607 
L 241.960156 157.774417 
L 244.162982 171.925242 
L 246.365809 167.009164 
L 248.568636 183.535941 
L 250.771463 166.553127 
L 252.97429 167.788987 
L 255.177117 164.551125 
L 257.379943 168.550569 
L 259.58277 172.987808 
L 261.785597 153.469429 
L 263.988424 165.454078 
L 266.191251 164.218218 
L 268.394077 174.884921 
L 270.596904 174.196306 
L 272.799731 160.346465 
L 275.002558 169.562971 
L 277.205385 185.410253 
L 279.408212 190.093751 
L 281.611038 171.546731 
L 283.813865 174.37872 
L 286.016692 166.70362 
L 288.219519 182.391288 
L 290.422346 164.966119 
L 292.625173 185.638271 
L 294.827999 181.866846 
L 297.030826 178.606182 
L 299.233653 178.601622 
L 301.43648 186.545784 
L 303.639307 182.122227 
L 305.842133 181.164549 
L 308.04496 194.549232 
L 310.247787 200.70573 
L 312.450614 194.959665 
L 314.653441 193.363536 
L 316.856268 181.30136 
L 319.059094 175.819797 
L 321.261921 157.737934 
L 323.464748 175.48233 
L 325.667575 176.923406 
L 327.870402 168.039808 
L 330.073229 185.246079 
L 332.276055 182.058381 
L 334.478882 170.753227 
L 336.681709 184.188074 
L 338.884536 178.405526 
L 341.087363 195.657401 
L 343.290189 183.289681 
L 345.493016 186.577707 
L 347.695843 184.890371 
L 349.89867 188.894374 
L 352.101497 185.492339 
L 354.304324 199.269214 
L 356.50715 190.668358 
L 358.709977 180.635546 
L 360.912804 181.885087 
L 363.115631 186.805725 
L 365.318458 179.56842 
L 367.521285 195.51147 
L 369.724111 205.184012 
L 371.926938 198.329778 
L 374.129765 205.307142 
L 376.332592 197.568196 
L 378.535419 194.941424 
L 380.738245 203.852384 
L 382.941072 196.058714 
L 385.143899 189.231842 
L 387.346726 188.976461 
L 389.549553 185.282562 
L 391.75238 197.399462 
L 393.955206 198.721969 
L 396.158033 196.811175 
L 398.36086 197.285453 
L 400.563687 195.246968 
L 402.766514 194.357696 
L 404.96934 195.871739 
L 407.172167 195.844377 
L 409.374994 190.782367 
L 411.577821 201.973512 
L 413.780648 200.623643 
L 415.983475 213.160097 
L 418.186301 215.367316 
L 420.389128 207.040082 
L 422.591955 202.461472 
L 424.794782 201.69533 
L 426.997609 193.103595 
L 429.200436 203.245855 
L 431.403262 192.241685 
L 433.606089 186.199196 
L 435.808916 208.87335 
L 438.011743 203.779418 
L 440.21457 195.703005 
L 444.620223 209.343068 
L 446.82305 215.42204 
L 449.025877 213.483883 
L 451.228704 206.866788 
L 453.431531 202.584602 
L 455.634357 211.244742 
L 457.837184 202.630205 
L 460.040011 194.681483 
L 462.242838 215.016167 
L 464.445665 213.912558 
L 466.648492 217.118497 
L 468.851318 202.757896 
L 471.054145 206.287621 
L 473.256972 201.535717 
L 475.459799 217.533491 
L 477.662626 207.573645 
L 479.865452 212.932079 
L 482.068279 209.078567 
L 484.271106 219.62214 
L 486.473933 227.853606 
L 488.67676 224.68871 
L 490.879587 215.485885 
L 493.082413 219.01105 
L 495.28524 211.240182 
L 497.488067 222.294516 
L 499.690894 220.671025 
L 501.893721 214.332112 
L 504.096548 231.205477 
L 506.299374 220.073616 
L 508.502201 231.397012 
L 510.705028 227.794321 
L 512.907855 223.571419 
L 515.110682 217.971286 
L 517.313508 232.915615 
L 519.516335 226.749996 
L 521.719162 223.662627 
L 523.921989 226.020337 
L 526.124816 226.7956 
L 528.327643 209.265542 
L 532.733296 226.731755 
L 534.936123 234.438778 
L 537.13895 227.839925 
L 539.341777 235.391895 
L 541.544604 256.948759 
L 543.74743 236.623195 
L 545.950257 232.664795 
L 548.153084 235.9437 
L 550.355911 236.668799 
L 552.558738 231.182675 
L 554.761564 234.940419 
L 554.761564 234.940419 
" clip-path="url(#pdfb286b185)" style="fill: none; stroke: #1f77b4; stroke-width: 1.5; stroke-linecap: square"/>
   </g>
   <g id="line2d_32">
    <path d="M 85.559451 39.682598 
L 87.762278 47.271071 
L 89.965105 37.073623 
L 92.167932 59.981432 
L 94.370758 68.077467 
L 98.776412 58.751802 
L 100.979239 50.919735 
L 103.182066 57.363767 
L 107.587719 84.003458 
L 109.790546 77.526467 
L 111.993373 80.729604 
L 114.1962 63.406731 
L 116.399027 74.279216 
L 118.601853 83.197986 
L 120.80468 80.751675 
L 123.007507 106.597753 
L 125.210334 78.112208 
L 127.413161 97.149358 
L 129.615988 92.250257 
L 131.818814 105.582044 
L 134.021641 91.955552 
L 136.224468 95.546392 
L 138.427295 112.423903 
L 140.630122 102.751606 
L 142.832949 107.76443 
L 145.035775 108.256784 
L 147.238602 116.964376 
L 149.441429 125.000131 
L 151.644256 111.834891 
L 153.847083 130.521142 
L 156.049909 140.342052 
L 158.252736 133.647568 
L 160.455563 120.960779 
L 162.65839 118.158082 
L 164.861217 119.442557 
L 167.064044 128.987269 
L 169.26687 119.130465 
L 171.469697 132.94374 
L 173.672524 138.00886 
L 175.875351 119.11853 
L 178.078178 118.381358 
L 180.281005 138.085002 
L 182.483831 145.398389 
L 184.686658 150.655498 
L 186.889485 146.879382 
L 189.092312 138.203613 
L 191.295139 140.03376 
L 193.497965 134.491953 
L 195.700792 143.18423 
L 197.903619 134.487203 
L 200.106446 158.62072 
L 202.309273 150.620769 
L 204.5121 144.343653 
L 206.714926 143.594878 
L 208.917753 149.124442 
L 211.12058 146.294509 
L 213.323407 150.388398 
L 215.526234 157.4767 
L 217.729061 152.050333 
L 219.931887 153.490836 
L 222.134714 163.680855 
L 224.337541 153.483671 
L 226.540368 156.513163 
L 228.743195 151.525042 
L 230.946021 154.470945 
L 233.148848 160.969281 
L 235.351675 161.592598 
L 237.554502 161.880417 
L 239.757329 155.758741 
L 241.960156 161.395975 
L 244.162982 167.415594 
L 246.365809 166.5307 
L 248.568636 176.143085 
L 250.771463 167.00033 
L 252.97429 167.180221 
L 255.177117 166.786406 
L 257.379943 167.658828 
L 259.58277 169.460342 
L 261.785597 162.824892 
L 263.988424 166.272433 
L 266.191251 164.885752 
L 268.394077 169.51649 
L 270.596904 171.854049 
L 272.799731 165.277271 
L 275.002558 169.173432 
L 277.205385 181.849796 
L 279.408212 188.842714 
L 281.611038 173.930069 
L 283.813865 171.583228 
L 286.016692 170.110556 
L 288.219519 174.991869 
L 290.422346 172.368475 
L 292.625173 184.992298 
L 294.827999 183.313796 
L 297.030826 181.326941 
L 299.233653 176.246396 
L 301.43648 185.473063 
L 303.639307 183.666337 
L 305.842133 181.328449 
L 308.04496 192.313826 
L 310.247787 195.342662 
L 312.450614 194.496956 
L 314.653441 192.979877 
L 316.856268 183.892293 
L 319.059094 175.453836 
L 321.261921 164.274566 
L 323.464748 177.639879 
L 325.667575 177.907042 
L 327.870402 172.216143 
L 330.073229 184.348643 
L 332.276055 183.206797 
L 334.478882 180.435426 
L 336.681709 183.626157 
L 338.884536 190.873668 
L 341.087363 193.544371 
L 343.290189 191.771686 
L 345.493016 187.750605 
L 347.695843 189.403758 
L 349.89867 193.011977 
L 352.101497 188.556244 
L 354.304324 198.831433 
L 356.50715 194.732503 
L 358.709977 183.752459 
L 360.912804 184.728802 
L 363.115631 186.304843 
L 365.318458 184.418216 
L 367.521285 194.355453 
L 369.724111 205.409996 
L 371.926938 203.075263 
L 374.129765 201.916723 
L 376.332592 196.722379 
L 378.535419 195.677914 
L 380.738245 199.682336 
L 382.941072 196.401334 
L 385.143899 194.067742 
L 387.346726 193.83514 
L 389.549553 190.766752 
L 391.75238 193.743602 
L 393.955206 200.013234 
L 396.158033 201.707855 
L 398.36086 199.363389 
L 400.563687 199.491357 
L 402.766514 197.996664 
L 404.96934 195.921922 
L 407.172167 196.755561 
L 409.374994 197.411387 
L 411.577821 201.655175 
L 413.780648 200.805846 
L 415.983475 210.516527 
L 418.186301 213.340386 
L 420.389128 209.683249 
L 422.591955 205.49763 
L 424.794782 202.429957 
L 426.997609 198.219446 
L 429.200436 201.415582 
L 431.403262 198.189056 
L 433.606089 190.454585 
L 435.808916 206.552637 
L 438.011743 209.085909 
L 440.21457 198.425149 
L 442.417396 203.971249 
L 444.620223 208.138429 
L 446.82305 216.541832 
L 449.025877 214.790433 
L 451.228704 212.75613 
L 453.431531 202.557152 
L 455.634357 206.650991 
L 457.837184 210.038202 
L 460.040011 199.592946 
L 462.242838 210.488316 
L 464.445665 216.650288 
L 466.648492 214.505156 
L 468.851318 204.957928 
L 471.054145 207.33541 
L 473.256972 202.093629 
L 475.459799 214.142922 
L 477.662626 215.189417 
L 479.865452 214.027937 
L 482.068279 210.447098 
L 484.271106 213.307698 
L 486.473933 223.613717 
L 488.67676 221.54828 
L 490.879587 215.682242 
L 493.082413 220.492645 
L 495.28524 217.565187 
L 497.488067 215.537846 
L 499.690894 220.582622 
L 501.893721 213.977521 
L 504.096548 221.751575 
L 506.299374 221.84988 
L 508.502201 224.024135 
L 510.705028 230.249028 
L 512.907855 221.570838 
L 515.110682 220.765897 
L 517.313508 221.163811 
L 519.516335 225.919176 
L 521.719162 223.424252 
L 523.921989 226.791369 
L 526.124816 225.671338 
L 528.327643 215.44686 
L 530.530469 217.041838 
L 532.733296 220.922083 
L 534.936123 231.418428 
L 537.13895 224.855272 
L 539.341777 233.512371 
L 541.544604 248.40737 
L 543.74743 235.337523 
L 545.950257 225.454317 
L 548.153084 234.082917 
L 550.355911 233.259662 
L 552.558738 226.477597 
L 554.761564 229.9558 
L 556.964391 209.488867 
L 559.167218 204.567841 
L 561.370045 209.315835 
L 563.572872 219.908476 
L 565.775699 220.233558 
L 567.978525 229.197576 
L 570.181352 226.787441 
L 572.384179 226.52817 
L 574.587006 223.539757 
L 576.789833 223.868946 
L 578.99266 218.668093 
L 581.195486 223.68569 
L 583.398313 221.27422 
L 585.60114 229.012186 
L 590.006794 226.031658 
L 592.20962 220.210632 
L 594.412447 223.068665 
L 596.615274 223.222413 
L 598.818101 223.058078 
L 601.020928 230.009264 
L 603.223755 229.971505 
L 605.426581 222.310014 
L 607.629408 224.548698 
L 609.832235 222.543694 
L 612.035062 224.945379 
L 614.237889 223.995057 
L 616.440716 232.377682 
L 618.643542 226.191314 
L 620.846369 226.590294 
L 623.049196 223.966693 
L 625.252023 224.210369 
L 627.45485 225.826799 
L 629.657676 226.308638 
L 631.860503 228.543368 
L 634.06333 230.418175 
L 636.266157 225.955564 
L 638.468984 225.581328 
L 640.671811 225.040426 
L 642.874637 228.089685 
L 645.077464 222.424289 
L 647.280291 232.720844 
L 649.483118 229.734703 
L 651.685945 227.522092 
L 653.888772 226.363903 
L 656.091598 227.256448 
L 658.294425 224.159081 
L 660.497252 226.556111 
L 662.700079 231.992313 
L 664.902906 231.256757 
L 667.105732 228.260771 
L 669.308559 228.5366 
L 671.511386 223.283082 
L 673.714213 228.248698 
L 675.91704 225.785923 
L 678.119867 233.473252 
L 682.52552 230.393416 
L 684.728347 224.523704 
L 686.931174 227.333683 
L 686.931174 227.333683 
" clip-path="url(#pdfb286b185)" style="fill: none; stroke: #ff7f0e; stroke-width: 1.5; stroke-linecap: square"/>
   </g>
   <g id="line2d_33">
    <path d="M 85.559451 53.819463 
L 92.167932 60.651365 
L 98.776412 67.220156 
L 105.384893 73.53597 
L 111.993373 79.608548 
L 118.601853 85.447258 
L 125.210334 91.061107 
L 134.021641 98.211374 
L 142.832949 104.996856 
L 151.644256 111.436163 
L 160.455563 117.546956 
L 169.26687 123.345994 
L 178.078178 128.849183 
L 186.889485 134.071615 
L 195.700792 139.027614 
L 204.5121 143.730773 
L 213.323407 148.193991 
L 222.134714 152.429508 
L 230.946021 156.448942 
L 239.757329 160.263317 
L 250.771463 164.758806 
L 261.785597 168.969464 
L 272.799731 172.913338 
L 283.813865 176.607331 
L 294.827999 180.067275 
L 305.842133 183.307999 
L 316.856268 186.343393 
L 330.073229 189.73309 
L 343.290189 192.866725 
L 356.50715 195.763642 
L 369.724111 198.441723 
L 382.941072 200.917498 
L 398.36086 203.570536 
L 413.780648 205.991261 
L 429.200436 208.200018 
L 446.82305 210.488491 
L 464.445665 212.549418 
L 484.271106 214.624055 
L 504.096548 216.468108 
L 526.124816 218.277691 
L 548.153084 219.865231 
L 572.384179 221.387481 
L 598.818101 222.816255 
L 627.45485 224.13068 
L 658.294425 225.317135 
L 686.931174 226.240195 
L 686.931174 226.240195 
" clip-path="url(#pdfb286b185)" style="fill: none; stroke-dasharray: 8,2,1.25,2; stroke-dashoffset: 0; stroke: #2ca02c; stroke-width: 1.25"/>
   </g>
   <g id="line2d_34">
    <path d="M 556.964391 268.321635 
L 556.964391 18.118365 
" clip-path="url(#pdfb286b185)" style="fill: none; stroke: #000000; stroke-width: 0.75; stroke-linecap: square"/>
   </g>
   <g id="patch_3">
    <path d="M 55.490865 268.321635 
L 55.490865 18.118365 
" style="fill: none; stroke: #000000; stroke-width: 0.8; stroke-linejoin: miter; stroke-linecap: square"/>
   </g>
   <g id="patch_4">
    <path d="M 716.99976 268.321635 
L 716.99976 18.118365 
" style="fill: none; stroke: #000000; stroke-width: 0.8; stroke-linejoin: miter; stroke-linecap: square"/>
   </g>
   <g id="patch_5">
    <path d="M 55.490865 268.321635 
L 716.99976 268.321635 
" style="fill: none; stroke: #000000; stroke-width: 0.8; stroke-linejoin: miter; stroke-linecap: square"/>
   </g>
   <g id="patch_6">
    <path d="M 55.490865 18.118365 
L 716.99976 18.118365 
" style="fill: none; stroke: #000000; stroke-width: 0.8; stroke-linejoin: miter; stroke-linecap: square"/>
   </g>
   <g id="text_17">
    <!-- Player Count Forecast -->
    <g transform="translate(320.560312 12.118365) scale(0.12 -0.12)">
     <defs>
      <path id="DejaVuSans-43" d="M 4122 4306 
L 4122 3641 
Q 3803 3938 3442 4084 
Q 3081 4231 2675 4231 
Q 1875 4231 1450 3742 
Q 1025 3253 1025 2328 
Q 1025 1406 1450 917 
Q 1875 428 2675 428 
Q 3081 428 3442 575 
Q 3803 722 4122 1019 
L 4122 359 
Q 3791 134 3420 21 
Q 3050 -91 2638 -91 
Q 1578 -91 968 557 
Q 359 1206 359 2328 
Q 359 3453 968 4101 
Q 1578 4750 2638 4750 
Q 3056 4750 3426 4639 
Q 3797 4528 4122 4306 
z
" transform="scale(0.015625)"/>
      <path id="DejaVuSans-46" d="M 628 4666 
L 3309 4666 
L 3309 4134 
L 1259 4134 
L 1259 2759 
L 3109 2759 
L 3109 2228 
L 1259 2228 
L 1259 0 
L 628 0 
L 628 4666 
z
" transform="scale(0.015625)"/>
      <path id="DejaVuSans-73" d="M 2834 3397 
L 2834 2853 
Q 2591 2978 2328 3040 
Q 2066 3103 1784 3103 
Q 1356 3103 1142 2972 
Q 928 2841 928 2578 
Q 928 2378 1081 2264 
Q 1234 2150 1697 2047 
L 1894 2003 
Q 2506 1872 2764 1633 
Q 3022 1394 3022 966 
Q 3022 478 2636 193 
Q 2250 -91 1575 -91 
Q 1294 -91 989 -36 
Q 684 19 347 128 
L 347 722 
Q 666 556 975 473 
Q 1284 391 1588 391 
Q 1994 391 2212 530 
Q 2431 669 2431 922 
Q 2431 1156 2273 1281 
Q 2116 1406 1581 1522 
L 1381 1569 
Q 847 1681 609 1914 
Q 372 2147 372 2553 
Q 372 3047 722 3315 
Q 1072 3584 1716 3584 
Q 2034 3584 2315 3537 
Q 2597 3491 2834 3397 
z
" transform="scale(0.015625)"/>
     </defs>
     <use xlink:href="#DejaVuSans-50"/>
     <use xlink:href="#DejaVuSans-6c" x="60.302734"/>
     <use xlink:href="#DejaVuSans-61" x="88.085938"/>
     <use xlink:href="#DejaVuSans-79" x="149.365234"/>
     <use xlink:href="#DejaVuSans-65" x="208.544922"/>
     <use xlink:href="#DejaVuSans-72" x="270.068359"/>
     <use xlink:href="#DejaVuSans-20" x="311.181641"/>
     <use xlink:href="#DejaVuSans-43" x="342.96875"/>
     <use xlink:href="#DejaVuSans-6f" x="412.792969"/>
     <use xlink:href="#DejaVuSans-75" x="473.974609"/>
     <use xlink:href="#DejaVuSans-6e" x="537.353516"/>
     <use xlink:href="#DejaVuSans-74" x="600.732422"/>
     <use xlink:href="#DejaVuSans-20" x="639.941406"/>
     <use xlink:href="#DejaVuSans-46" x="671.728516"/>
     <use xlink:href="#DejaVuSans-6f" x="725.623047"/>
     <use xlink:href="#DejaVuSans-72" x="786.804688"/>
     <use xlink:href="#DejaVuSans-65" x="825.667969"/>
     <use xlink:href="#DejaVuSans-63" x="887.191406"/>
     <use xlink:href="#DejaVuSans-61" x="942.171875"/>
     <use xlink:href="#DejaVuSans-73" x="1003.451172"/>
     <use xlink:href="#DejaVuSans-74" x="1055.550781"/>
    </g>
   </g>
   <g id="legend_1">
    <g id="patch_7">
     <path d="M 581.952885 84.830865 
L 709.99976 84.830865 
Q 711.99976 84.830865 711.99976 82.830865 
L 711.99976 25.118365 
Q 711.99976 23.118365 709.99976 23.118365 
L 581.952885 23.118365 
Q 579.952885 23.118365 579.952885 25.118365 
L 579.952885 82.830865 
Q 579.952885 84.830865 581.952885 84.830865 
z
" style="fill: #ffffff; opacity: 0.8; stroke: #cccccc; stroke-linejoin: miter"/>
    </g>
    <g id="line2d_35">
     <path d="M 583.952885 31.216802 
L 593.952885 31.216802 
L 603.952885 31.216802 
" style="fill: none; stroke: #1f77b4; stroke-width: 1.5; stroke-linecap: square"/>
    </g>
    <g id="text_18">
     <!-- Actual -->
     <g transform="translate(611.952885 34.716802) scale(0.1 -0.1)">
      <defs>
       <path id="DejaVuSans-41" d="M 2188 4044 
L 1331 1722 
L 3047 1722 
L 2188 4044 
z
M 1831 4666 
L 2547 4666 
L 4325 0 
L 3669 0 
L 3244 1197 
L 1141 1197 
L 716 0 
L 50 0 
L 1831 4666 
z
" transform="scale(0.015625)"/>
      </defs>
      <use xlink:href="#DejaVuSans-41"/>
      <use xlink:href="#DejaVuSans-63" x="66.658203"/>
      <use xlink:href="#DejaVuSans-74" x="121.638672"/>
      <use xlink:href="#DejaVuSans-75" x="160.847656"/>
      <use xlink:href="#DejaVuSans-61" x="224.226562"/>
      <use xlink:href="#DejaVuSans-6c" x="285.505859"/>
     </g>
    </g>
    <g id="line2d_36">
     <path d="M 583.952885 45.894927 
L 593.952885 45.894927 
L 603.952885 45.894927 
" style="fill: none; stroke: #ff7f0e; stroke-width: 1.5; stroke-linecap: square"/>
    </g>
    <g id="text_19">
     <!-- Prediction -->
     <g transform="translate(611.952885 49.394927) scale(0.1 -0.1)">
      <defs>
       <path id="DejaVuSans-64" d="M 2906 2969 
L 2906 4863 
L 3481 4863 
L 3481 0 
L 2906 0 
L 2906 525 
Q 2725 213 2448 61 
Q 2172 -91 1784 -91 
Q 1150 -91 751 415 
Q 353 922 353 1747 
Q 353 2572 751 3078 
Q 1150 3584 1784 3584 
Q 2172 3584 2448 3432 
Q 2725 3281 2906 2969 
z
M 947 1747 
Q 947 1113 1208 752 
Q 1469 391 1925 391 
Q 2381 391 2643 752 
Q 2906 1113 2906 1747 
Q 2906 2381 2643 2742 
Q 2381 3103 1925 3103 
Q 1469 3103 1208 2742 
Q 947 2381 947 1747 
z
" transform="scale(0.015625)"/>
       <path id="DejaVuSans-69" d="M 603 3500 
L 1178 3500 
L 1178 0 
L 603 0 
L 603 3500 
z
M 603 4863 
L 1178 4863 
L 1178 4134 
L 603 4134 
L 603 4863 
z
" transform="scale(0.015625)"/>
      </defs>
      <use xlink:href="#DejaVuSans-50"/>
      <use xlink:href="#DejaVuSans-72" x="58.552734"/>
      <use xlink:href="#DejaVuSans-65" x="97.416016"/>
      <use xlink:href="#DejaVuSans-64" x="158.939453"/>
      <use xlink:href="#DejaVuSans-69" x="222.416016"/>
      <use xlink:href="#DejaVuSans-63" x="250.199219"/>
      <use xlink:href="#DejaVuSans-74" x="305.179688"/>
      <use xlink:href="#DejaVuSans-69" x="344.388672"/>
      <use xlink:href="#DejaVuSans-6f" x="372.171875"/>
      <use xlink:href="#DejaVuSans-6e" x="433.353516"/>
     </g>
    </g>
    <g id="patch_8">
     <path d="M 583.952885 64.073052 
L 603.952885 64.073052 
L 603.952885 57.073052 
L 583.952885 57.073052 
z
" style="fill: #1f77b4; fill-opacity: 0.5"/>
    </g>
    <g id="text_20">
     <!-- confidence interval -->
     <g transform="translate(611.952885 64.073052) scale(0.1 -0.1)">
      <defs>
       <path id="DejaVuSans-66" d="M 2375 4863 
L 2375 4384 
L 1825 4384 
Q 1516 4384 1395 4259 
Q 1275 4134 1275 3809 
L 1275 3500 
L 2222 3500 
L 2222 3053 
L 1275 3053 
L 1275 0 
L 697 0 
L 697 3053 
L 147 3053 
L 147 3500 
L 697 3500 
L 697 3744 
Q 697 4328 969 4595 
Q 1241 4863 1831 4863 
L 2375 4863 
z
" transform="scale(0.015625)"/>
       <path id="DejaVuSans-76" d="M 191 3500 
L 800 3500 
L 1894 563 
L 2988 3500 
L 3597 3500 
L 2284 0 
L 1503 0 
L 191 3500 
z
" transform="scale(0.015625)"/>
      </defs>
      <use xlink:href="#DejaVuSans-63"/>
      <use xlink:href="#DejaVuSans-6f" x="54.980469"/>
      <use xlink:href="#DejaVuSans-6e" x="116.162109"/>
      <use xlink:href="#DejaVuSans-66" x="179.541016"/>
      <use xlink:href="#DejaVuSans-69" x="214.746094"/>
      <use xlink:href="#DejaVuSans-64" x="242.529297"/>
      <use xlink:href="#DejaVuSans-65" x="306.005859"/>
      <use xlink:href="#DejaVuSans-6e" x="367.529297"/>
      <use xlink:href="#DejaVuSans-63" x="430.908203"/>
      <use xlink:href="#DejaVuSans-65" x="485.888672"/>
      <use xlink:href="#DejaVuSans-20" x="547.412109"/>
      <use xlink:href="#DejaVuSans-69" x="579.199219"/>
      <use xlink:href="#DejaVuSans-6e" x="606.982422"/>
      <use xlink:href="#DejaVuSans-74" x="670.361328"/>
      <use xlink:href="#DejaVuSans-65" x="709.570312"/>
      <use xlink:href="#DejaVuSans-72" x="771.09375"/>
      <use xlink:href="#DejaVuSans-76" x="812.207031"/>
      <use xlink:href="#DejaVuSans-61" x="871.386719"/>
      <use xlink:href="#DejaVuSans-6c" x="932.666016"/>
     </g>
    </g>
    <g id="line2d_37">
     <path d="M 583.952885 75.251177 
L 593.952885 75.251177 
L 603.952885 75.251177 
" style="fill: none; stroke-dasharray: 8,2,1.25,2; stroke-dashoffset: 0; stroke: #2ca02c; stroke-width: 1.25"/>
    </g>
    <g id="text_21">
     <!-- Trend -->
     <g transform="translate(611.952885 78.751177) scale(0.1 -0.1)">
      <defs>
       <path id="DejaVuSans-54" d="M -19 4666 
L 3928 4666 
L 3928 4134 
L 2272 4134 
L 2272 0 
L 1638 0 
L 1638 4134 
L -19 4134 
L -19 4666 
z
" transform="scale(0.015625)"/>
      </defs>
      <use xlink:href="#DejaVuSans-54"/>
      <use xlink:href="#DejaVuSans-72" x="46.333984"/>
      <use xlink:href="#DejaVuSans-65" x="85.197266"/>
      <use xlink:href="#DejaVuSans-6e" x="146.720703"/>
      <use xlink:href="#DejaVuSans-64" x="210.099609"/>
     </g>
    </g>
   </g>
  </g>
 </g>
 <defs>
  <clipPath id="pdfb286b185">
   <rect x="55.490865" y="18.118365" width="661.508895" height="250.20327"/>
  </clipPath>
 </defs>
</svg>
