<?xml version="1.0" encoding="utf-8" standalone="no"?>
<!DOCTYPE svg PUBLIC "-//W3C//DTD SVG 1.1//EN"
  "http://www.w3.org/Graphics/SVG/1.1/DTD/svg11.dtd">
<svg xmlns:xlink="http://www.w3.org/1999/xlink" width="576pt" height="432pt" viewBox="0 0 576 432" xmlns="http://www.w3.org/2000/svg" version="1.1">
 <metadata>
  <rdf:RDF xmlns:dc="http://purl.org/dc/elements/1.1/" xmlns:cc="http://creativecommons.org/ns#" xmlns:rdf="http://www.w3.org/1999/02/22-rdf-syntax-ns#">
   <cc:Work>
    <dc:type rdf:resource="http://purl.org/dc/dcmitype/StillImage"/>
    <dc:date>2023-02-19T14:25:58.771594</dc:date>
    <dc:format>image/svg+xml</dc:format>
    <dc:creator>
     <cc:Agent>
      <dc:title>Matplotlib v3.7.0, https://matplotlib.org/</dc:title>
     </cc:Agent>
    </dc:creator>
   </cc:Work>
  </rdf:RDF>
 </metadata>
 <defs>
  <style type="text/css">*{stroke-linejoin: round; stroke-linecap: butt}</style>
 </defs>
 <g id="figure_1">
  <g id="patch_1">
   <path d="M 0 432 
L 576 432 
L 576 0 
L 0 0 
z
" style="fill: #ffffff"/>
  </g>
  <g id="axes_1">
   <g id="patch_2">
    <path d="M 70.233052 110.64351 
L 572.99976 110.64351 
L 572.99976 3.00024 
L 70.233052 3.00024 
z
" style="fill: #ffffff"/>
   </g>
   <g id="PolyCollection_1">
    <defs>
     <path id="m729b11b242" d="M 93.086085 -381.663721 
L 93.086085 -381.663721 
L 94.179531 -383.509076 
L 95.272978 -385.354431 
L 96.366424 -387.199786 
L 97.459871 -389.045141 
L 98.553317 -390.890496 
L 99.646764 -392.73585 
L 100.74021 -394.581205 
L 101.833657 -396.42656 
L 102.927103 -398.271915 
L 104.02055 -400.11727 
L 105.113996 -401.962625 
L 106.207443 -403.80798 
L 107.300889 -405.653335 
L 108.394336 -407.49869 
L 109.487782 -409.344045 
L 110.581229 -411.1894 
L 111.674675 -413.034755 
L 112.768122 -414.88011 
L 113.861568 -416.725464 
L 114.955015 -418.570819 
L 116.048461 -420.416174 
L 117.141908 -422.261529 
L 118.235354 -424.106884 
L 119.328801 -424.102115 
L 120.422248 -424.097347 
L 121.515694 -424.092578 
L 122.609141 -424.087809 
L 123.702587 -424.083041 
L 124.796034 -424.078272 
L 125.88948 -424.073503 
L 126.982927 -424.068735 
L 128.076373 -424.063966 
L 129.16982 -424.059197 
L 130.263266 -424.054429 
L 131.356713 -423.238503 
L 132.450159 -422.422578 
L 133.543606 -421.606653 
L 134.637052 -420.790728 
L 135.730499 -419.974803 
L 136.823945 -419.158877 
L 137.917392 -418.342952 
L 139.010838 -417.527027 
L 140.104285 -416.711102 
L 141.197731 -415.895177 
L 142.291178 -415.079251 
L 143.384624 -414.263326 
L 144.478071 -413.447401 
L 145.571517 -412.631476 
L 146.664964 -411.815551 
L 147.75841 -410.999625 
L 148.851857 -410.1837 
L 149.945303 -409.367775 
L 151.03875 -408.55185 
L 152.132196 -407.735925 
L 153.225643 -406.919999 
L 154.319089 -406.104074 
L 155.412536 -405.288149 
L 156.505983 -404.472224 
L 157.599429 -403.656299 
L 158.692876 -402.840375 
L 159.786322 -402.02445 
L 160.879769 -401.208525 
L 161.973215 -400.3926 
L 163.066662 -399.576675 
L 164.160108 -398.760751 
L 165.253555 -397.944826 
L 166.347001 -397.128901 
L 167.440448 -396.312976 
L 168.533894 -395.497051 
L 169.627341 -394.681737 
L 170.720787 -393.866423 
L 171.814234 -393.051109 
L 172.90768 -392.235795 
L 174.001127 -391.420481 
L 175.094573 -390.605167 
L 176.18802 -389.789853 
L 177.281466 -388.974539 
L 178.374913 -388.159225 
L 179.468359 -387.343911 
L 180.561806 -386.528597 
L 181.655252 -385.939341 
L 182.748699 -385.350085 
L 183.842145 -384.760829 
L 184.935592 -384.171574 
L 186.029038 -383.582318 
L 187.122485 -382.993062 
L 188.215931 -382.403806 
L 189.309378 -381.81455 
L 190.402824 -381.225294 
L 191.496271 -380.636038 
L 192.589718 -380.046782 
L 193.683164 -379.457526 
L 194.776611 -379.053473 
L 195.870057 -378.64942 
L 196.963504 -378.245367 
L 198.05695 -377.841314 
L 199.150397 -377.437261 
L 200.243843 -377.033207 
L 201.33729 -376.629154 
L 202.430736 -376.225101 
L 203.524183 -375.821048 
L 204.617629 -375.416995 
L 205.711076 -375.012942 
L 206.804522 -374.673892 
L 207.897969 -374.334842 
L 208.991415 -373.995792 
L 210.084862 -373.656742 
L 211.178308 -373.317692 
L 212.271755 -372.978642 
L 213.365201 -372.639592 
L 214.458648 -372.300542 
L 215.552094 -371.961492 
L 216.645541 -371.622442 
L 217.738987 -371.283392 
L 218.832434 -370.972082 
L 219.92588 -370.660772 
L 221.019327 -370.349462 
L 222.112773 -370.038152 
L 223.20622 -369.726842 
L 224.299666 -369.415532 
L 225.393113 -369.104222 
L 226.486559 -368.792913 
L 227.580006 -368.481603 
L 228.673452 -368.170293 
L 229.766899 -367.858983 
L 230.860346 -367.547673 
L 231.953792 -367.334161 
L 233.047239 -367.12065 
L 234.140685 -366.907138 
L 235.234132 -366.693626 
L 236.327578 -366.480114 
L 237.421025 -366.266603 
L 238.514471 -366.053091 
L 239.607918 -365.839579 
L 240.701364 -365.626067 
L 241.794811 -365.412556 
L 242.888257 -365.199044 
L 243.981704 -365.07613 
L 245.07515 -364.953216 
L 246.168597 -364.830301 
L 247.262043 -364.707387 
L 248.35549 -364.584473 
L 249.448936 -364.461559 
L 250.542383 -364.338644 
L 251.635829 -364.21573 
L 252.729276 -364.092816 
L 253.822722 -363.969902 
L 254.916169 -363.846987 
L 256.009615 -363.724073 
L 257.103062 -363.603472 
L 258.196508 -363.48287 
L 259.289955 -363.362269 
L 260.383401 -363.241668 
L 261.476848 -363.121066 
L 262.570294 -363.000465 
L 263.663741 -362.879863 
L 264.757187 -362.759262 
L 265.850634 -362.638661 
L 266.944081 -362.518059 
L 268.037527 -362.397458 
L 269.130974 -362.27839 
L 270.22442 -362.159323 
L 271.317867 -362.040255 
L 272.411313 -361.921188 
L 273.50476 -361.80212 
L 274.598206 -361.683053 
L 275.691653 -361.563985 
L 276.785099 -361.444918 
L 277.878546 -361.32585 
L 278.971992 -361.206783 
L 280.065439 -361.087715 
L 281.158885 -360.968648 
L 282.252332 -360.881748 
L 283.345778 -360.794848 
L 284.439225 -360.707948 
L 285.532671 -360.621048 
L 286.626118 -360.534148 
L 287.719564 -360.447248 
L 288.813011 -360.360348 
L 289.906457 -360.273448 
L 290.999904 -360.186548 
L 292.09335 -360.099648 
L 293.186797 -360.012748 
L 294.280243 -359.9397 
L 295.37369 -359.866651 
L 296.467136 -359.793602 
L 297.560583 -359.720554 
L 298.654029 -359.647505 
L 299.747476 -359.574456 
L 300.840922 -359.501408 
L 301.934369 -359.428359 
L 303.027815 -359.35531 
L 304.121262 -359.282261 
L 305.214709 -359.209213 
L 306.308155 -359.158186 
L 307.401602 -359.107159 
L 308.495048 -359.056132 
L 309.588495 -359.005105 
L 310.681941 -358.954077 
L 311.775388 -358.90305 
L 312.868834 -358.852023 
L 313.962281 -358.800996 
L 315.055727 -358.749969 
L 316.149174 -358.698942 
L 317.24262 -358.647915 
L 318.336067 -358.596888 
L 319.429513 -358.563847 
L 320.52296 -358.530807 
L 321.616406 -358.497766 
L 322.709853 -358.464725 
L 323.803299 -358.431684 
L 324.896746 -358.398644 
L 325.990192 -358.365603 
L 327.083639 -358.332562 
L 328.177085 -358.299521 
L 329.270532 -358.266481 
L 330.363978 -358.23344 
L 331.457425 -358.206089 
L 332.550871 -358.178738 
L 333.644318 -358.151387 
L 334.737764 -358.124036 
L 335.831211 -358.096685 
L 336.924657 -358.069335 
L 338.018104 -358.041984 
L 339.11155 -358.014633 
L 340.204997 -357.987282 
L 341.298444 -357.959931 
L 342.39189 -357.93258 
L 343.485337 -357.905229 
L 344.578783 -357.877897 
L 345.67223 -357.850565 
L 346.765676 -357.823233 
L 347.859123 -357.795901 
L 348.952569 -357.768568 
L 350.046016 -357.741236 
L 351.139462 -357.713904 
L 352.232909 -357.686572 
L 353.326355 -357.65924 
L 354.419802 -357.631908 
L 355.513248 -357.604575 
L 356.606695 -357.577247 
L 357.700141 -357.549918 
L 358.793588 -357.52259 
L 359.887034 -357.495261 
L 360.980481 -357.467932 
L 362.073927 -357.440604 
L 363.167374 -357.413275 
L 364.26082 -357.385947 
L 365.354267 -357.358618 
L 366.447713 -357.331289 
L 367.54116 -357.303961 
L 368.634606 -357.276632 
L 369.728053 -357.249305 
L 370.821499 -357.221977 
L 371.914946 -357.194649 
L 373.008392 -357.167321 
L 374.101839 -357.139994 
L 375.195285 -357.112666 
L 376.288732 -357.085338 
L 377.382179 -357.058011 
L 378.475625 -357.030683 
L 379.569072 -357.003355 
L 380.662518 -356.976027 
L 381.755965 -356.948704 
L 382.849411 -356.92138 
L 383.942858 -356.894056 
L 385.036304 -356.866733 
L 386.129751 -356.839409 
L 387.223197 -356.812085 
L 388.316644 -356.784762 
L 389.41009 -356.757438 
L 390.503537 -356.730114 
L 391.596983 -356.702791 
L 392.69043 -356.675467 
L 393.783876 -356.648143 
L 394.877323 -356.62082 
L 395.970769 -356.593496 
L 397.064216 -356.566172 
L 398.157662 -356.538849 
L 399.251109 -356.511525 
L 400.344555 -356.484202 
L 401.438002 -356.456878 
L 402.531448 -356.429555 
L 403.624895 -356.402231 
L 404.718341 -356.374907 
L 405.811788 -356.347584 
L 406.905234 -356.32026 
L 407.998681 -356.292937 
L 409.092127 -356.265613 
L 410.185574 -356.23829 
L 411.27902 -356.210966 
L 412.372467 -356.183643 
L 413.465913 -356.156319 
L 414.55936 -356.128995 
L 415.652807 -356.101672 
L 416.746253 -356.074348 
L 417.8397 -356.047025 
L 418.933146 -356.019701 
L 420.026593 -355.992378 
L 421.120039 -355.965054 
L 422.213486 -355.937731 
L 423.306932 -355.910407 
L 424.400379 -355.883083 
L 425.493825 -355.85576 
L 426.587272 -355.828436 
L 427.680718 -355.801113 
L 428.774165 -355.773789 
L 429.867611 -355.746466 
L 430.961058 -355.719142 
L 432.054504 -355.691819 
L 433.147951 -355.664495 
L 434.241397 -355.637171 
L 435.334844 -355.609848 
L 436.42829 -355.582524 
L 437.521737 -355.555201 
L 438.615183 -355.527877 
L 439.70863 -355.500554 
L 440.802076 -355.47323 
L 441.895523 -355.445907 
L 442.988969 -355.418583 
L 444.082416 -355.391259 
L 445.175862 -355.363936 
L 446.269309 -355.336612 
L 447.362755 -355.309289 
L 448.456202 -355.281965 
L 449.549648 -355.254642 
L 450.643095 -355.227318 
L 451.736542 -355.199994 
L 452.829988 -355.172671 
L 453.923435 -355.145347 
L 455.016881 -355.118024 
L 456.110328 -355.0907 
L 457.203774 -355.063377 
L 458.297221 -355.036053 
L 459.390667 -355.00873 
L 460.484114 -354.981406 
L 461.57756 -354.954082 
L 462.671007 -354.926759 
L 463.764453 -354.899435 
L 464.8579 -354.872112 
L 465.951346 -354.844788 
L 467.044793 -354.817465 
L 468.138239 -354.790141 
L 469.231686 -354.762818 
L 470.325132 -354.735494 
L 471.418579 -354.70817 
L 472.512025 -354.680847 
L 473.605472 -354.653523 
L 474.698918 -354.6262 
L 475.792365 -354.598876 
L 476.885811 -354.571553 
L 477.979258 -354.544229 
L 479.072704 -354.516906 
L 480.166151 -354.489582 
L 481.259597 -354.462258 
L 482.353044 -354.434935 
L 483.44649 -354.407611 
L 484.539937 -354.380288 
L 485.633383 -354.331205 
L 486.72683 -354.206019 
L 487.820276 -354.073779 
L 488.913723 -353.913609 
L 490.00717 -353.661779 
L 491.100616 -353.433105 
L 492.194063 -353.211184 
L 493.287509 -352.941368 
L 494.380956 -352.720156 
L 495.474402 -352.431679 
L 496.567849 -352.01928 
L 497.661295 -351.690979 
L 498.754742 -351.323778 
L 499.848188 -350.918204 
L 500.941635 -350.52858 
L 502.035081 -350.207171 
L 503.128528 -349.825842 
L 504.221974 -349.447951 
L 505.315421 -349.035257 
L 506.408867 -348.558397 
L 507.502314 -348.140003 
L 508.59576 -347.665863 
L 509.689207 -347.099691 
L 510.782653 -346.62116 
L 511.8761 -346.083723 
L 512.969546 -345.616685 
L 514.062993 -345.194153 
L 515.156439 -344.770792 
L 516.249886 -344.390139 
L 517.343332 -344.033609 
L 518.436779 -343.533098 
L 519.530225 -342.972266 
L 520.623672 -342.355913 
L 521.717118 -341.811929 
L 522.810565 -341.337833 
L 523.904011 -340.561265 
L 524.997458 -340.167225 
L 526.090905 -339.620053 
L 527.184351 -339.072881 
L 528.277798 -338.208052 
L 529.371244 -337.226658 
L 530.464691 -336.731689 
L 531.558137 -336.15288 
L 532.651584 -335.704842 
L 533.74503 -335.262648 
L 534.838477 -334.779235 
L 535.931923 -333.734193 
L 537.02537 -332.984728 
L 538.118816 -332.653483 
L 539.212263 -332.192002 
L 540.305709 -331.62791 
L 541.399156 -331.173167 
L 542.492602 -330.720277 
L 543.586049 -329.790709 
L 544.679495 -329.116323 
L 545.772942 -328.623971 
L 546.866388 -328.149341 
L 547.959835 -327.470803 
L 549.053281 -326.906753 
L 550.146728 -326.249366 
L 550.146728 -383.369423 
L 550.146728 -383.369423 
L 549.053281 -382.920934 
L 547.959835 -382.452137 
L 546.866388 -381.638041 
L 545.772942 -380.563647 
L 544.679495 -379.479292 
L 543.586049 -378.88638 
L 542.492602 -378.377021 
L 541.399156 -377.769778 
L 540.305709 -377.113577 
L 539.212263 -376.636638 
L 538.118816 -376.16001 
L 537.02537 -375.606879 
L 535.931923 -375.211737 
L 534.838477 -374.386005 
L 533.74503 -373.767707 
L 532.651584 -373.031259 
L 531.558137 -372.211057 
L 530.464691 -371.40101 
L 529.371244 -370.779789 
L 528.277798 -370.327656 
L 527.184351 -369.880835 
L 526.090905 -369.469424 
L 524.997458 -368.974704 
L 523.904011 -368.372412 
L 522.810565 -367.751936 
L 521.717118 -367.126668 
L 520.623672 -366.398371 
L 519.530225 -365.88346 
L 518.436779 -365.265019 
L 517.343332 -364.779853 
L 516.249886 -364.187327 
L 515.156439 -363.602984 
L 514.062993 -363.035935 
L 512.969546 -362.63555 
L 511.8761 -362.154138 
L 510.782653 -361.705054 
L 509.689207 -361.281934 
L 508.59576 -360.706632 
L 507.502314 -360.270881 
L 506.408867 -359.929094 
L 505.315421 -359.689258 
L 504.221974 -359.145256 
L 503.128528 -358.76427 
L 502.035081 -358.330135 
L 500.941635 -357.939158 
L 499.848188 -357.541059 
L 498.754742 -357.106926 
L 497.661295 -356.805385 
L 496.567849 -356.665414 
L 495.474402 -356.375569 
L 494.380956 -356.129214 
L 493.287509 -355.746447 
L 492.194063 -355.485721 
L 491.100616 -355.273738 
L 490.00717 -355.018558 
L 488.913723 -354.739629 
L 487.820276 -354.527878 
L 486.72683 -354.417558 
L 485.633383 -354.35661 
L 484.539937 -354.380288 
L 483.44649 -354.407611 
L 482.353044 -354.434935 
L 481.259597 -354.462258 
L 480.166151 -354.489582 
L 479.072704 -354.516906 
L 477.979258 -354.544229 
L 476.885811 -354.571553 
L 475.792365 -354.598876 
L 474.698918 -354.6262 
L 473.605472 -354.653523 
L 472.512025 -354.680847 
L 471.418579 -354.70817 
L 470.325132 -354.735494 
L 469.231686 -354.762818 
L 468.138239 -354.790141 
L 467.044793 -354.817465 
L 465.951346 -354.844788 
L 464.8579 -354.872112 
L 463.764453 -354.899435 
L 462.671007 -354.926759 
L 461.57756 -354.954082 
L 460.484114 -354.981406 
L 459.390667 -355.00873 
L 458.297221 -355.036053 
L 457.203774 -355.063377 
L 456.110328 -355.0907 
L 455.016881 -355.118024 
L 453.923435 -355.145347 
L 452.829988 -355.172671 
L 451.736542 -355.199994 
L 450.643095 -355.227318 
L 449.549648 -355.254642 
L 448.456202 -355.281965 
L 447.362755 -355.309289 
L 446.269309 -355.336612 
L 445.175862 -355.363936 
L 444.082416 -355.391259 
L 442.988969 -355.418583 
L 441.895523 -355.445907 
L 440.802076 -355.47323 
L 439.70863 -355.500554 
L 438.615183 -355.527877 
L 437.521737 -355.555201 
L 436.42829 -355.582524 
L 435.334844 -355.609848 
L 434.241397 -355.637171 
L 433.147951 -355.664495 
L 432.054504 -355.691819 
L 430.961058 -355.719142 
L 429.867611 -355.746466 
L 428.774165 -355.773789 
L 427.680718 -355.801113 
L 426.587272 -355.828436 
L 425.493825 -355.85576 
L 424.400379 -355.883083 
L 423.306932 -355.910407 
L 422.213486 -355.937731 
L 421.120039 -355.965054 
L 420.026593 -355.992378 
L 418.933146 -356.019701 
L 417.8397 -356.047025 
L 416.746253 -356.074348 
L 415.652807 -356.101672 
L 414.55936 -356.128995 
L 413.465913 -356.156319 
L 412.372467 -356.183643 
L 411.27902 -356.210966 
L 410.185574 -356.23829 
L 409.092127 -356.265613 
L 407.998681 -356.292937 
L 406.905234 -356.32026 
L 405.811788 -356.347584 
L 404.718341 -356.374907 
L 403.624895 -356.402231 
L 402.531448 -356.429555 
L 401.438002 -356.456878 
L 400.344555 -356.484202 
L 399.251109 -356.511525 
L 398.157662 -356.538849 
L 397.064216 -356.566172 
L 395.970769 -356.593496 
L 394.877323 -356.62082 
L 393.783876 -356.648143 
L 392.69043 -356.675467 
L 391.596983 -356.702791 
L 390.503537 -356.730114 
L 389.41009 -356.757438 
L 388.316644 -356.784762 
L 387.223197 -356.812085 
L 386.129751 -356.839409 
L 385.036304 -356.866733 
L 383.942858 -356.894056 
L 382.849411 -356.92138 
L 381.755965 -356.948704 
L 380.662518 -356.976027 
L 379.569072 -357.003355 
L 378.475625 -357.030683 
L 377.382179 -357.058011 
L 376.288732 -357.085338 
L 375.195285 -357.112666 
L 374.101839 -357.139994 
L 373.008392 -357.167321 
L 371.914946 -357.194649 
L 370.821499 -357.221977 
L 369.728053 -357.249305 
L 368.634606 -357.276632 
L 367.54116 -357.303961 
L 366.447713 -357.331289 
L 365.354267 -357.358618 
L 364.26082 -357.385947 
L 363.167374 -357.413275 
L 362.073927 -357.440604 
L 360.980481 -357.467932 
L 359.887034 -357.495261 
L 358.793588 -357.52259 
L 357.700141 -357.549918 
L 356.606695 -357.577247 
L 355.513248 -357.604575 
L 354.419802 -357.631908 
L 353.326355 -357.65924 
L 352.232909 -357.686572 
L 351.139462 -357.713904 
L 350.046016 -357.741236 
L 348.952569 -357.768568 
L 347.859123 -357.795901 
L 346.765676 -357.823233 
L 345.67223 -357.850565 
L 344.578783 -357.877897 
L 343.485337 -357.905229 
L 342.39189 -357.93258 
L 341.298444 -357.959931 
L 340.204997 -357.987282 
L 339.11155 -358.014633 
L 338.018104 -358.041984 
L 336.924657 -358.069335 
L 335.831211 -358.096685 
L 334.737764 -358.124036 
L 333.644318 -358.151387 
L 332.550871 -358.178738 
L 331.457425 -358.206089 
L 330.363978 -358.23344 
L 329.270532 -358.266481 
L 328.177085 -358.299521 
L 327.083639 -358.332562 
L 325.990192 -358.365603 
L 324.896746 -358.398644 
L 323.803299 -358.431684 
L 322.709853 -358.464725 
L 321.616406 -358.497766 
L 320.52296 -358.530807 
L 319.429513 -358.563847 
L 318.336067 -358.596888 
L 317.24262 -358.647915 
L 316.149174 -358.698942 
L 315.055727 -358.749969 
L 313.962281 -358.800996 
L 312.868834 -358.852023 
L 311.775388 -358.90305 
L 310.681941 -358.954077 
L 309.588495 -359.005105 
L 308.495048 -359.056132 
L 307.401602 -359.107159 
L 306.308155 -359.158186 
L 305.214709 -359.209213 
L 304.121262 -359.282261 
L 303.027815 -359.35531 
L 301.934369 -359.428359 
L 300.840922 -359.501408 
L 299.747476 -359.574456 
L 298.654029 -359.647505 
L 297.560583 -359.720554 
L 296.467136 -359.793602 
L 295.37369 -359.866651 
L 294.280243 -359.9397 
L 293.186797 -360.012748 
L 292.09335 -360.099648 
L 290.999904 -360.186548 
L 289.906457 -360.273448 
L 288.813011 -360.360348 
L 287.719564 -360.447248 
L 286.626118 -360.534148 
L 285.532671 -360.621048 
L 284.439225 -360.707948 
L 283.345778 -360.794848 
L 282.252332 -360.881748 
L 281.158885 -360.968648 
L 280.065439 -361.087715 
L 278.971992 -361.206783 
L 277.878546 -361.32585 
L 276.785099 -361.444918 
L 275.691653 -361.563985 
L 274.598206 -361.683053 
L 273.50476 -361.80212 
L 272.411313 -361.921188 
L 271.317867 -362.040255 
L 270.22442 -362.159323 
L 269.130974 -362.27839 
L 268.037527 -362.397458 
L 266.944081 -362.518059 
L 265.850634 -362.638661 
L 264.757187 -362.759262 
L 263.663741 -362.879863 
L 262.570294 -363.000465 
L 261.476848 -363.121066 
L 260.383401 -363.241668 
L 259.289955 -363.362269 
L 258.196508 -363.48287 
L 257.103062 -363.603472 
L 256.009615 -363.724073 
L 254.916169 -363.846987 
L 253.822722 -363.969902 
L 252.729276 -364.092816 
L 251.635829 -364.21573 
L 250.542383 -364.338644 
L 249.448936 -364.461559 
L 248.35549 -364.584473 
L 247.262043 -364.707387 
L 246.168597 -364.830301 
L 245.07515 -364.953216 
L 243.981704 -365.07613 
L 242.888257 -365.199044 
L 241.794811 -365.412556 
L 240.701364 -365.626067 
L 239.607918 -365.839579 
L 238.514471 -366.053091 
L 237.421025 -366.266603 
L 236.327578 -366.480114 
L 235.234132 -366.693626 
L 234.140685 -366.907138 
L 233.047239 -367.12065 
L 231.953792 -367.334161 
L 230.860346 -367.547673 
L 229.766899 -367.858983 
L 228.673452 -368.170293 
L 227.580006 -368.481603 
L 226.486559 -368.792913 
L 225.393113 -369.104222 
L 224.299666 -369.415532 
L 223.20622 -369.726842 
L 222.112773 -370.038152 
L 221.019327 -370.349462 
L 219.92588 -370.660772 
L 218.832434 -370.972082 
L 217.738987 -371.283392 
L 216.645541 -371.622442 
L 215.552094 -371.961492 
L 214.458648 -372.300542 
L 213.365201 -372.639592 
L 212.271755 -372.978642 
L 211.178308 -373.317692 
L 210.084862 -373.656742 
L 208.991415 -373.995792 
L 207.897969 -374.334842 
L 206.804522 -374.673892 
L 205.711076 -375.012942 
L 204.617629 -375.416995 
L 203.524183 -375.821048 
L 202.430736 -376.225101 
L 201.33729 -376.629154 
L 200.243843 -377.033207 
L 199.150397 -377.437261 
L 198.05695 -377.841314 
L 196.963504 -378.245367 
L 195.870057 -378.64942 
L 194.776611 -379.053473 
L 193.683164 -379.457526 
L 192.589718 -380.046782 
L 191.496271 -380.636038 
L 190.402824 -381.225294 
L 189.309378 -381.81455 
L 188.215931 -382.403806 
L 187.122485 -382.993062 
L 186.029038 -383.582318 
L 184.935592 -384.171574 
L 183.842145 -384.760829 
L 182.748699 -385.350085 
L 181.655252 -385.939341 
L 180.561806 -386.528597 
L 179.468359 -387.343911 
L 178.374913 -388.159225 
L 177.281466 -388.974539 
L 176.18802 -389.789853 
L 175.094573 -390.605167 
L 174.001127 -391.420481 
L 172.90768 -392.235795 
L 171.814234 -393.051109 
L 170.720787 -393.866423 
L 169.627341 -394.681737 
L 168.533894 -395.497051 
L 167.440448 -396.312976 
L 166.347001 -397.128901 
L 165.253555 -397.944826 
L 164.160108 -398.760751 
L 163.066662 -399.576675 
L 161.973215 -400.3926 
L 160.879769 -401.208525 
L 159.786322 -402.02445 
L 158.692876 -402.840375 
L 157.599429 -403.656299 
L 156.505983 -404.472224 
L 155.412536 -405.288149 
L 154.319089 -406.104074 
L 153.225643 -406.919999 
L 152.132196 -407.735925 
L 151.03875 -408.55185 
L 149.945303 -409.367775 
L 148.851857 -410.1837 
L 147.75841 -410.999625 
L 146.664964 -411.815551 
L 145.571517 -412.631476 
L 144.478071 -413.447401 
L 143.384624 -414.263326 
L 142.291178 -415.079251 
L 141.197731 -415.895177 
L 140.104285 -416.711102 
L 139.010838 -417.527027 
L 137.917392 -418.342952 
L 136.823945 -419.158877 
L 135.730499 -419.974803 
L 134.637052 -420.790728 
L 133.543606 -421.606653 
L 132.450159 -422.422578 
L 131.356713 -423.238503 
L 130.263266 -424.054429 
L 129.16982 -424.059197 
L 128.076373 -424.063966 
L 126.982927 -424.068735 
L 125.88948 -424.073503 
L 124.796034 -424.078272 
L 123.702587 -424.083041 
L 122.609141 -424.087809 
L 121.515694 -424.092578 
L 120.422248 -424.097347 
L 119.328801 -424.102115 
L 118.235354 -424.106884 
L 117.141908 -422.261529 
L 116.048461 -420.416174 
L 114.955015 -418.570819 
L 113.861568 -416.725464 
L 112.768122 -414.88011 
L 111.674675 -413.034755 
L 110.581229 -411.1894 
L 109.487782 -409.344045 
L 108.394336 -407.49869 
L 107.300889 -405.653335 
L 106.207443 -403.80798 
L 105.113996 -401.962625 
L 104.02055 -400.11727 
L 102.927103 -398.271915 
L 101.833657 -396.42656 
L 100.74021 -394.581205 
L 99.646764 -392.73585 
L 98.553317 -390.890496 
L 97.459871 -389.045141 
L 96.366424 -387.199786 
L 95.272978 -385.354431 
L 94.179531 -383.509076 
L 93.086085 -381.663721 
z
" style="stroke: #0072b2; stroke-opacity: 0.2"/>
    </defs>
    <g clip-path="url(#p4ebdd4e5a4)">
     <use xlink:href="#m729b11b242" x="0" y="432" style="fill: #0072b2; fill-opacity: 0.2; stroke: #0072b2; stroke-opacity: 0.2"/>
    </g>
   </g>
   <g id="matplotlib.axis_1">
    <g id="xtick_1">
     <g id="line2d_1">
      <path d="M 86.525406 110.64351 
L 86.525406 3.00024 
" clip-path="url(#p4ebdd4e5a4)" style="fill: none; stroke: #808080; stroke-opacity: 0.2; stroke-linecap: square"/>
     </g>
     <g id="line2d_2">
      <defs>
       <path id="m16ff696167" d="M 0 0 
L 0 3.5 
" style="stroke: #000000; stroke-width: 0.8"/>
      </defs>
      <g>
       <use xlink:href="#m16ff696167" x="86.525406" y="110.64351" style="stroke: #000000; stroke-width: 0.8"/>
      </g>
     </g>
     <g id="text_1">
      <!-- 2022-01 -->
      <g transform="translate(65.633999 125.241948) scale(0.1 -0.1)">
       <defs>
        <path id="DejaVuSans-32" d="M 1228 531 
L 3431 531 
L 3431 0 
L 469 0 
L 469 531 
Q 828 903 1448 1529 
Q 2069 2156 2228 2338 
Q 2531 2678 2651 2914 
Q 2772 3150 2772 3378 
Q 2772 3750 2511 3984 
Q 2250 4219 1831 4219 
Q 1534 4219 1204 4116 
Q 875 4013 500 3803 
L 500 4441 
Q 881 4594 1212 4672 
Q 1544 4750 1819 4750 
Q 2544 4750 2975 4387 
Q 3406 4025 3406 3419 
Q 3406 3131 3298 2873 
Q 3191 2616 2906 2266 
Q 2828 2175 2409 1742 
Q 1991 1309 1228 531 
z
" transform="scale(0.015625)"/>
        <path id="DejaVuSans-30" d="M 2034 4250 
Q 1547 4250 1301 3770 
Q 1056 3291 1056 2328 
Q 1056 1369 1301 889 
Q 1547 409 2034 409 
Q 2525 409 2770 889 
Q 3016 1369 3016 2328 
Q 3016 3291 2770 3770 
Q 2525 4250 2034 4250 
z
M 2034 4750 
Q 2819 4750 3233 4129 
Q 3647 3509 3647 2328 
Q 3647 1150 3233 529 
Q 2819 -91 2034 -91 
Q 1250 -91 836 529 
Q 422 1150 422 2328 
Q 422 3509 836 4129 
Q 1250 4750 2034 4750 
z
" transform="scale(0.015625)"/>
        <path id="DejaVuSans-2d" d="M 313 2009 
L 1997 2009 
L 1997 1497 
L 313 1497 
L 313 2009 
z
" transform="scale(0.015625)"/>
        <path id="DejaVuSans-31" d="M 794 531 
L 1825 531 
L 1825 4091 
L 703 3866 
L 703 4441 
L 1819 4666 
L 2450 4666 
L 2450 531 
L 3481 531 
L 3481 0 
L 794 0 
L 794 531 
z
" transform="scale(0.015625)"/>
       </defs>
       <use xlink:href="#DejaVuSans-32"/>
       <use xlink:href="#DejaVuSans-30" x="63.623047"/>
       <use xlink:href="#DejaVuSans-32" x="127.246094"/>
       <use xlink:href="#DejaVuSans-32" x="190.869141"/>
       <use xlink:href="#DejaVuSans-2d" x="254.492188"/>
       <use xlink:href="#DejaVuSans-30" x="290.576172"/>
       <use xlink:href="#DejaVuSans-31" x="354.199219"/>
      </g>
     </g>
    </g>
    <g id="xtick_2">
     <g id="line2d_3">
      <path d="M 151.03875 110.64351 
L 151.03875 3.00024 
" clip-path="url(#p4ebdd4e5a4)" style="fill: none; stroke: #808080; stroke-opacity: 0.2; stroke-linecap: square"/>
     </g>
     <g id="line2d_4">
      <g>
       <use xlink:href="#m16ff696167" x="151.03875" y="110.64351" style="stroke: #000000; stroke-width: 0.8"/>
      </g>
     </g>
     <g id="text_2">
      <!-- 2022-03 -->
      <g transform="translate(130.147344 125.241948) scale(0.1 -0.1)">
       <defs>
        <path id="DejaVuSans-33" d="M 2597 2516 
Q 3050 2419 3304 2112 
Q 3559 1806 3559 1356 
Q 3559 666 3084 287 
Q 2609 -91 1734 -91 
Q 1441 -91 1130 -33 
Q 819 25 488 141 
L 488 750 
Q 750 597 1062 519 
Q 1375 441 1716 441 
Q 2309 441 2620 675 
Q 2931 909 2931 1356 
Q 2931 1769 2642 2001 
Q 2353 2234 1838 2234 
L 1294 2234 
L 1294 2753 
L 1863 2753 
Q 2328 2753 2575 2939 
Q 2822 3125 2822 3475 
Q 2822 3834 2567 4026 
Q 2313 4219 1838 4219 
Q 1578 4219 1281 4162 
Q 984 4106 628 3988 
L 628 4550 
Q 988 4650 1302 4700 
Q 1616 4750 1894 4750 
Q 2613 4750 3031 4423 
Q 3450 4097 3450 3541 
Q 3450 3153 3228 2886 
Q 3006 2619 2597 2516 
z
" transform="scale(0.015625)"/>
       </defs>
       <use xlink:href="#DejaVuSans-32"/>
       <use xlink:href="#DejaVuSans-30" x="63.623047"/>
       <use xlink:href="#DejaVuSans-32" x="127.246094"/>
       <use xlink:href="#DejaVuSans-32" x="190.869141"/>
       <use xlink:href="#DejaVuSans-2d" x="254.492188"/>
       <use xlink:href="#DejaVuSans-30" x="290.576172"/>
       <use xlink:href="#DejaVuSans-33" x="354.199219"/>
      </g>
     </g>
    </g>
    <g id="xtick_3">
     <g id="line2d_5">
      <path d="M 217.738987 110.64351 
L 217.738987 3.00024 
" clip-path="url(#p4ebdd4e5a4)" style="fill: none; stroke: #808080; stroke-opacity: 0.2; stroke-linecap: square"/>
     </g>
     <g id="line2d_6">
      <g>
       <use xlink:href="#m16ff696167" x="217.738987" y="110.64351" style="stroke: #000000; stroke-width: 0.8"/>
      </g>
     </g>
     <g id="text_3">
      <!-- 2022-05 -->
      <g transform="translate(196.847581 125.241948) scale(0.1 -0.1)">
       <defs>
        <path id="DejaVuSans-35" d="M 691 4666 
L 3169 4666 
L 3169 4134 
L 1269 4134 
L 1269 2991 
Q 1406 3038 1543 3061 
Q 1681 3084 1819 3084 
Q 2600 3084 3056 2656 
Q 3513 2228 3513 1497 
Q 3513 744 3044 326 
Q 2575 -91 1722 -91 
Q 1428 -91 1123 -41 
Q 819 9 494 109 
L 494 744 
Q 775 591 1075 516 
Q 1375 441 1709 441 
Q 2250 441 2565 725 
Q 2881 1009 2881 1497 
Q 2881 1984 2565 2268 
Q 2250 2553 1709 2553 
Q 1456 2553 1204 2497 
Q 953 2441 691 2322 
L 691 4666 
z
" transform="scale(0.015625)"/>
       </defs>
       <use xlink:href="#DejaVuSans-32"/>
       <use xlink:href="#DejaVuSans-30" x="63.623047"/>
       <use xlink:href="#DejaVuSans-32" x="127.246094"/>
       <use xlink:href="#DejaVuSans-32" x="190.869141"/>
       <use xlink:href="#DejaVuSans-2d" x="254.492188"/>
       <use xlink:href="#DejaVuSans-30" x="290.576172"/>
       <use xlink:href="#DejaVuSans-35" x="354.199219"/>
      </g>
     </g>
    </g>
    <g id="xtick_4">
     <g id="line2d_7">
      <path d="M 284.439225 110.64351 
L 284.439225 3.00024 
" clip-path="url(#p4ebdd4e5a4)" style="fill: none; stroke: #808080; stroke-opacity: 0.2; stroke-linecap: square"/>
     </g>
     <g id="line2d_8">
      <g>
       <use xlink:href="#m16ff696167" x="284.439225" y="110.64351" style="stroke: #000000; stroke-width: 0.8"/>
      </g>
     </g>
     <g id="text_4">
      <!-- 2022-07 -->
      <g transform="translate(263.547818 125.241948) scale(0.1 -0.1)">
       <defs>
        <path id="DejaVuSans-37" d="M 525 4666 
L 3525 4666 
L 3525 4397 
L 1831 0 
L 1172 0 
L 2766 4134 
L 525 4134 
L 525 4666 
z
" transform="scale(0.015625)"/>
       </defs>
       <use xlink:href="#DejaVuSans-32"/>
       <use xlink:href="#DejaVuSans-30" x="63.623047"/>
       <use xlink:href="#DejaVuSans-32" x="127.246094"/>
       <use xlink:href="#DejaVuSans-32" x="190.869141"/>
       <use xlink:href="#DejaVuSans-2d" x="254.492188"/>
       <use xlink:href="#DejaVuSans-30" x="290.576172"/>
       <use xlink:href="#DejaVuSans-37" x="354.199219"/>
      </g>
     </g>
    </g>
    <g id="xtick_5">
     <g id="line2d_9">
      <path d="M 352.232909 110.64351 
L 352.232909 3.00024 
" clip-path="url(#p4ebdd4e5a4)" style="fill: none; stroke: #808080; stroke-opacity: 0.2; stroke-linecap: square"/>
     </g>
     <g id="line2d_10">
      <g>
       <use xlink:href="#m16ff696167" x="352.232909" y="110.64351" style="stroke: #000000; stroke-width: 0.8"/>
      </g>
     </g>
     <g id="text_5">
      <!-- 2022-09 -->
      <g transform="translate(331.341502 125.241948) scale(0.1 -0.1)">
       <defs>
        <path id="DejaVuSans-39" d="M 703 97 
L 703 672 
Q 941 559 1184 500 
Q 1428 441 1663 441 
Q 2288 441 2617 861 
Q 2947 1281 2994 2138 
Q 2813 1869 2534 1725 
Q 2256 1581 1919 1581 
Q 1219 1581 811 2004 
Q 403 2428 403 3163 
Q 403 3881 828 4315 
Q 1253 4750 1959 4750 
Q 2769 4750 3195 4129 
Q 3622 3509 3622 2328 
Q 3622 1225 3098 567 
Q 2575 -91 1691 -91 
Q 1453 -91 1209 -44 
Q 966 3 703 97 
z
M 1959 2075 
Q 2384 2075 2632 2365 
Q 2881 2656 2881 3163 
Q 2881 3666 2632 3958 
Q 2384 4250 1959 4250 
Q 1534 4250 1286 3958 
Q 1038 3666 1038 3163 
Q 1038 2656 1286 2365 
Q 1534 2075 1959 2075 
z
" transform="scale(0.015625)"/>
       </defs>
       <use xlink:href="#DejaVuSans-32"/>
       <use xlink:href="#DejaVuSans-30" x="63.623047"/>
       <use xlink:href="#DejaVuSans-32" x="127.246094"/>
       <use xlink:href="#DejaVuSans-32" x="190.869141"/>
       <use xlink:href="#DejaVuSans-2d" x="254.492188"/>
       <use xlink:href="#DejaVuSans-30" x="290.576172"/>
       <use xlink:href="#DejaVuSans-39" x="354.199219"/>
      </g>
     </g>
    </g>
    <g id="xtick_6">
     <g id="line2d_11">
      <path d="M 418.933146 110.64351 
L 418.933146 3.00024 
" clip-path="url(#p4ebdd4e5a4)" style="fill: none; stroke: #808080; stroke-opacity: 0.2; stroke-linecap: square"/>
     </g>
     <g id="line2d_12">
      <g>
       <use xlink:href="#m16ff696167" x="418.933146" y="110.64351" style="stroke: #000000; stroke-width: 0.8"/>
      </g>
     </g>
     <g id="text_6">
      <!-- 2022-11 -->
      <g transform="translate(398.04174 125.241948) scale(0.1 -0.1)">
       <use xlink:href="#DejaVuSans-32"/>
       <use xlink:href="#DejaVuSans-30" x="63.623047"/>
       <use xlink:href="#DejaVuSans-32" x="127.246094"/>
       <use xlink:href="#DejaVuSans-32" x="190.869141"/>
       <use xlink:href="#DejaVuSans-2d" x="254.492188"/>
       <use xlink:href="#DejaVuSans-31" x="290.576172"/>
       <use xlink:href="#DejaVuSans-31" x="354.199219"/>
      </g>
     </g>
    </g>
    <g id="xtick_7">
     <g id="line2d_13">
      <path d="M 485.633383 110.64351 
L 485.633383 3.00024 
" clip-path="url(#p4ebdd4e5a4)" style="fill: none; stroke: #808080; stroke-opacity: 0.2; stroke-linecap: square"/>
     </g>
     <g id="line2d_14">
      <g>
       <use xlink:href="#m16ff696167" x="485.633383" y="110.64351" style="stroke: #000000; stroke-width: 0.8"/>
      </g>
     </g>
     <g id="text_7">
      <!-- 2023-01 -->
      <g transform="translate(464.741977 125.241948) scale(0.1 -0.1)">
       <use xlink:href="#DejaVuSans-32"/>
       <use xlink:href="#DejaVuSans-30" x="63.623047"/>
       <use xlink:href="#DejaVuSans-32" x="127.246094"/>
       <use xlink:href="#DejaVuSans-33" x="190.869141"/>
       <use xlink:href="#DejaVuSans-2d" x="254.492188"/>
       <use xlink:href="#DejaVuSans-30" x="290.576172"/>
       <use xlink:href="#DejaVuSans-31" x="354.199219"/>
      </g>
     </g>
    </g>
    <g id="xtick_8">
     <g id="line2d_15">
      <path d="M 550.146728 110.64351 
L 550.146728 3.00024 
" clip-path="url(#p4ebdd4e5a4)" style="fill: none; stroke: #808080; stroke-opacity: 0.2; stroke-linecap: square"/>
     </g>
     <g id="line2d_16">
      <g>
       <use xlink:href="#m16ff696167" x="550.146728" y="110.64351" style="stroke: #000000; stroke-width: 0.8"/>
      </g>
     </g>
     <g id="text_8">
      <!-- 2023-03 -->
      <g transform="translate(529.255322 125.241948) scale(0.1 -0.1)">
       <use xlink:href="#DejaVuSans-32"/>
       <use xlink:href="#DejaVuSans-30" x="63.623047"/>
       <use xlink:href="#DejaVuSans-32" x="127.246094"/>
       <use xlink:href="#DejaVuSans-33" x="190.869141"/>
       <use xlink:href="#DejaVuSans-2d" x="254.492188"/>
       <use xlink:href="#DejaVuSans-30" x="290.576172"/>
       <use xlink:href="#DejaVuSans-33" x="354.199219"/>
      </g>
     </g>
    </g>
    <g id="text_9">
     <!-- ds -->
     <g transform="translate(315.8375 138.920073) scale(0.1 -0.1)">
      <defs>
       <path id="DejaVuSans-64" d="M 2906 2969 
L 2906 4863 
L 3481 4863 
L 3481 0 
L 2906 0 
L 2906 525 
Q 2725 213 2448 61 
Q 2172 -91 1784 -91 
Q 1150 -91 751 415 
Q 353 922 353 1747 
Q 353 2572 751 3078 
Q 1150 3584 1784 3584 
Q 2172 3584 2448 3432 
Q 2725 3281 2906 2969 
z
M 947 1747 
Q 947 1113 1208 752 
Q 1469 391 1925 391 
Q 2381 391 2643 752 
Q 2906 1113 2906 1747 
Q 2906 2381 2643 2742 
Q 2381 3103 1925 3103 
Q 1469 3103 1208 2742 
Q 947 2381 947 1747 
z
" transform="scale(0.015625)"/>
       <path id="DejaVuSans-73" d="M 2834 3397 
L 2834 2853 
Q 2591 2978 2328 3040 
Q 2066 3103 1784 3103 
Q 1356 3103 1142 2972 
Q 928 2841 928 2578 
Q 928 2378 1081 2264 
Q 1234 2150 1697 2047 
L 1894 2003 
Q 2506 1872 2764 1633 
Q 3022 1394 3022 966 
Q 3022 478 2636 193 
Q 2250 -91 1575 -91 
Q 1294 -91 989 -36 
Q 684 19 347 128 
L 347 722 
Q 666 556 975 473 
Q 1284 391 1588 391 
Q 1994 391 2212 530 
Q 2431 669 2431 922 
Q 2431 1156 2273 1281 
Q 2116 1406 1581 1522 
L 1381 1569 
Q 847 1681 609 1914 
Q 372 2147 372 2553 
Q 372 3047 722 3315 
Q 1072 3584 1716 3584 
Q 2034 3584 2315 3537 
Q 2597 3491 2834 3397 
z
" transform="scale(0.015625)"/>
      </defs>
      <use xlink:href="#DejaVuSans-64"/>
      <use xlink:href="#DejaVuSans-73" x="63.476562"/>
     </g>
    </g>
   </g>
   <g id="matplotlib.axis_2">
    <g id="ytick_1">
     <g id="line2d_17">
      <path d="M 70.233052 106.881285 
L 572.99976 106.881285 
" clip-path="url(#p4ebdd4e5a4)" style="fill: none; stroke: #808080; stroke-opacity: 0.2; stroke-linecap: square"/>
     </g>
     <g id="line2d_18">
      <defs>
       <path id="m1505d464c2" d="M 0 0 
L -3.5 0 
" style="stroke: #000000; stroke-width: 0.8"/>
      </defs>
      <g>
       <use xlink:href="#m1505d464c2" x="70.233052" y="106.881285" style="stroke: #000000; stroke-width: 0.8"/>
      </g>
     </g>
     <g id="text_10">
      <!-- −100000 -->
      <g transform="translate(16.678365 110.680504) scale(0.1 -0.1)">
       <defs>
        <path id="DejaVuSans-2212" d="M 678 2272 
L 4684 2272 
L 4684 1741 
L 678 1741 
L 678 2272 
z
" transform="scale(0.015625)"/>
       </defs>
       <use xlink:href="#DejaVuSans-2212"/>
       <use xlink:href="#DejaVuSans-31" x="83.789062"/>
       <use xlink:href="#DejaVuSans-30" x="147.412109"/>
       <use xlink:href="#DejaVuSans-30" x="211.035156"/>
       <use xlink:href="#DejaVuSans-30" x="274.658203"/>
       <use xlink:href="#DejaVuSans-30" x="338.28125"/>
       <use xlink:href="#DejaVuSans-30" x="401.904297"/>
      </g>
     </g>
    </g>
    <g id="ytick_2">
     <g id="line2d_19">
      <path d="M 70.233052 82.578438 
L 572.99976 82.578438 
" clip-path="url(#p4ebdd4e5a4)" style="fill: none; stroke: #808080; stroke-opacity: 0.2; stroke-linecap: square"/>
     </g>
     <g id="line2d_20">
      <g>
       <use xlink:href="#m1505d464c2" x="70.233052" y="82.578438" style="stroke: #000000; stroke-width: 0.8"/>
      </g>
     </g>
     <g id="text_11">
      <!-- 0 -->
      <g transform="translate(56.870553 86.377656) scale(0.1 -0.1)">
       <use xlink:href="#DejaVuSans-30"/>
      </g>
     </g>
    </g>
    <g id="ytick_3">
     <g id="line2d_21">
      <path d="M 70.233052 58.27559 
L 572.99976 58.27559 
" clip-path="url(#p4ebdd4e5a4)" style="fill: none; stroke: #808080; stroke-opacity: 0.2; stroke-linecap: square"/>
     </g>
     <g id="line2d_22">
      <g>
       <use xlink:href="#m1505d464c2" x="70.233052" y="58.27559" style="stroke: #000000; stroke-width: 0.8"/>
      </g>
     </g>
     <g id="text_12">
      <!-- 100000 -->
      <g transform="translate(25.058052 62.074809) scale(0.1 -0.1)">
       <use xlink:href="#DejaVuSans-31"/>
       <use xlink:href="#DejaVuSans-30" x="63.623047"/>
       <use xlink:href="#DejaVuSans-30" x="127.246094"/>
       <use xlink:href="#DejaVuSans-30" x="190.869141"/>
       <use xlink:href="#DejaVuSans-30" x="254.492188"/>
       <use xlink:href="#DejaVuSans-30" x="318.115234"/>
      </g>
     </g>
    </g>
    <g id="ytick_4">
     <g id="line2d_23">
      <path d="M 70.233052 33.972743 
L 572.99976 33.972743 
" clip-path="url(#p4ebdd4e5a4)" style="fill: none; stroke: #808080; stroke-opacity: 0.2; stroke-linecap: square"/>
     </g>
     <g id="line2d_24">
      <g>
       <use xlink:href="#m1505d464c2" x="70.233052" y="33.972743" style="stroke: #000000; stroke-width: 0.8"/>
      </g>
     </g>
     <g id="text_13">
      <!-- 200000 -->
      <g transform="translate(25.058052 37.771962) scale(0.1 -0.1)">
       <use xlink:href="#DejaVuSans-32"/>
       <use xlink:href="#DejaVuSans-30" x="63.623047"/>
       <use xlink:href="#DejaVuSans-30" x="127.246094"/>
       <use xlink:href="#DejaVuSans-30" x="190.869141"/>
       <use xlink:href="#DejaVuSans-30" x="254.492188"/>
       <use xlink:href="#DejaVuSans-30" x="318.115234"/>
      </g>
     </g>
    </g>
    <g id="ytick_5">
     <g id="line2d_25">
      <path d="M 70.233052 9.669896 
L 572.99976 9.669896 
" clip-path="url(#p4ebdd4e5a4)" style="fill: none; stroke: #808080; stroke-opacity: 0.2; stroke-linecap: square"/>
     </g>
     <g id="line2d_26">
      <g>
       <use xlink:href="#m1505d464c2" x="70.233052" y="9.669896" style="stroke: #000000; stroke-width: 0.8"/>
      </g>
     </g>
     <g id="text_14">
      <!-- 300000 -->
      <g transform="translate(25.058052 13.469114) scale(0.1 -0.1)">
       <use xlink:href="#DejaVuSans-33"/>
       <use xlink:href="#DejaVuSans-30" x="63.623047"/>
       <use xlink:href="#DejaVuSans-30" x="127.246094"/>
       <use xlink:href="#DejaVuSans-30" x="190.869141"/>
       <use xlink:href="#DejaVuSans-30" x="254.492188"/>
       <use xlink:href="#DejaVuSans-30" x="318.115234"/>
      </g>
     </g>
    </g>
    <g id="text_15">
     <!-- trend -->
     <g transform="translate(10.598677 70.144531) rotate(-90) scale(0.1 -0.1)">
      <defs>
       <path id="DejaVuSans-74" d="M 1172 4494 
L 1172 3500 
L 2356 3500 
L 2356 3053 
L 1172 3053 
L 1172 1153 
Q 1172 725 1289 603 
Q 1406 481 1766 481 
L 2356 481 
L 2356 0 
L 1766 0 
Q 1100 0 847 248 
Q 594 497 594 1153 
L 594 3053 
L 172 3053 
L 172 3500 
L 594 3500 
L 594 4494 
L 1172 4494 
z
" transform="scale(0.015625)"/>
       <path id="DejaVuSans-72" d="M 2631 2963 
Q 2534 3019 2420 3045 
Q 2306 3072 2169 3072 
Q 1681 3072 1420 2755 
Q 1159 2438 1159 1844 
L 1159 0 
L 581 0 
L 581 3500 
L 1159 3500 
L 1159 2956 
Q 1341 3275 1631 3429 
Q 1922 3584 2338 3584 
Q 2397 3584 2469 3576 
Q 2541 3569 2628 3553 
L 2631 2963 
z
" transform="scale(0.015625)"/>
       <path id="DejaVuSans-65" d="M 3597 1894 
L 3597 1613 
L 953 1613 
Q 991 1019 1311 708 
Q 1631 397 2203 397 
Q 2534 397 2845 478 
Q 3156 559 3463 722 
L 3463 178 
Q 3153 47 2828 -22 
Q 2503 -91 2169 -91 
Q 1331 -91 842 396 
Q 353 884 353 1716 
Q 353 2575 817 3079 
Q 1281 3584 2069 3584 
Q 2775 3584 3186 3129 
Q 3597 2675 3597 1894 
z
M 3022 2063 
Q 3016 2534 2758 2815 
Q 2500 3097 2075 3097 
Q 1594 3097 1305 2825 
Q 1016 2553 972 2059 
L 3022 2063 
z
" transform="scale(0.015625)"/>
       <path id="DejaVuSans-6e" d="M 3513 2113 
L 3513 0 
L 2938 0 
L 2938 2094 
Q 2938 2591 2744 2837 
Q 2550 3084 2163 3084 
Q 1697 3084 1428 2787 
Q 1159 2491 1159 1978 
L 1159 0 
L 581 0 
L 581 3500 
L 1159 3500 
L 1159 2956 
Q 1366 3272 1645 3428 
Q 1925 3584 2291 3584 
Q 2894 3584 3203 3211 
Q 3513 2838 3513 2113 
z
" transform="scale(0.015625)"/>
      </defs>
      <use xlink:href="#DejaVuSans-74"/>
      <use xlink:href="#DejaVuSans-72" x="39.208984"/>
      <use xlink:href="#DejaVuSans-65" x="78.072266"/>
      <use xlink:href="#DejaVuSans-6e" x="139.595703"/>
      <use xlink:href="#DejaVuSans-64" x="202.974609"/>
     </g>
    </g>
   </g>
   <g id="line2d_27">
    <path d="M 93.086085 50.336279 
L 118.235354 7.893116 
L 130.263266 7.945571 
L 180.561806 45.471403 
L 193.683164 52.542474 
L 206.804522 57.326108 
L 222.112773 61.961848 
L 231.953792 64.665839 
L 243.981704 66.92387 
L 282.252332 71.118252 
L 301.934369 72.571641 
L 310.681941 73.045923 
L 324.896746 73.601356 
L 351.139462 74.286096 
L 550.146728 79.259126 
L 550.146728 79.259126 
" clip-path="url(#p4ebdd4e5a4)" style="fill: none; stroke: #0072b2; stroke-width: 1.5; stroke-linecap: square"/>
   </g>
   <g id="patch_3">
    <path d="M 70.233052 110.64351 
L 70.233052 3.00024 
" style="fill: none; stroke: #000000; stroke-width: 0.8; stroke-linejoin: miter; stroke-linecap: square"/>
   </g>
   <g id="patch_4">
    <path d="M 572.99976 110.64351 
L 572.99976 3.00024 
" style="fill: none; stroke: #000000; stroke-width: 0.8; stroke-linejoin: miter; stroke-linecap: square"/>
   </g>
   <g id="patch_5">
    <path d="M 70.233052 110.64351 
L 572.99976 110.64351 
" style="fill: none; stroke: #000000; stroke-width: 0.8; stroke-linejoin: miter; stroke-linecap: square"/>
   </g>
   <g id="patch_6">
    <path d="M 70.233052 3.00024 
L 572.99976 3.00024 
" style="fill: none; stroke: #000000; stroke-width: 0.8; stroke-linejoin: miter; stroke-linecap: square"/>
   </g>
  </g>
  <g id="axes_2">
   <g id="patch_7">
    <path d="M 70.233052 254.64351 
L 572.99976 254.64351 
L 572.99976 147.00024 
L 70.233052 147.00024 
z
" style="fill: #ffffff"/>
   </g>
   <g id="PolyCollection_2">
    <defs>
     <path id="m4e61bd08fc" d="M 93.086085 -194.292161 
L 93.086085 -194.292161 
L 94.179531 -194.292161 
L 95.272978 -194.292161 
L 96.366424 -194.292161 
L 97.459871 -194.292161 
L 98.553317 -194.292161 
L 99.646764 -194.292161 
L 100.74021 -194.292161 
L 101.833657 -194.292161 
L 102.927103 -194.292161 
L 104.02055 -280.106884 
L 105.113996 -194.292161 
L 106.207443 -194.292161 
L 107.300889 -194.292161 
L 108.394336 -194.292161 
L 109.487782 -194.292161 
L 110.581229 -194.292161 
L 111.674675 -194.292161 
L 112.768122 -194.292161 
L 113.861568 -194.292161 
L 114.955015 -194.292161 
L 116.048461 -194.292161 
L 117.141908 -194.292161 
L 118.235354 -194.292161 
L 119.328801 -194.292161 
L 120.422248 -194.292161 
L 121.515694 -194.292161 
L 122.609141 -194.292161 
L 123.702587 -194.292161 
L 124.796034 -194.292161 
L 125.88948 -194.292161 
L 126.982927 -194.292161 
L 128.076373 -194.292161 
L 129.16982 -194.292161 
L 130.263266 -194.292161 
L 131.356713 -194.292161 
L 132.450159 -194.292161 
L 133.543606 -194.292161 
L 134.637052 -194.292161 
L 135.730499 -194.292161 
L 136.823945 -194.292161 
L 137.917392 -194.292161 
L 139.010838 -194.292161 
L 140.104285 -194.292161 
L 141.197731 -194.292161 
L 142.291178 -252.495912 
L 143.384624 -194.292161 
L 144.478071 -194.292161 
L 145.571517 -194.292161 
L 146.664964 -194.292161 
L 147.75841 -194.292161 
L 148.851857 -194.292161 
L 149.945303 -194.292161 
L 151.03875 -194.292161 
L 152.132196 -194.292161 
L 153.225643 -194.292161 
L 154.319089 -194.292161 
L 155.412536 -194.292161 
L 156.505983 -194.292161 
L 157.599429 -194.292161 
L 158.692876 -194.292161 
L 159.786322 -194.292161 
L 160.879769 -194.292161 
L 161.973215 -194.292161 
L 163.066662 -194.292161 
L 164.160108 -194.292161 
L 165.253555 -194.292161 
L 166.347001 -194.292161 
L 167.440448 -194.292161 
L 168.533894 -194.292161 
L 169.627341 -194.292161 
L 170.720787 -194.292161 
L 171.814234 -194.292161 
L 172.90768 -194.292161 
L 174.001127 -194.292161 
L 175.094573 -194.292161 
L 176.18802 -194.292161 
L 177.281466 -194.292161 
L 178.374913 -194.292161 
L 179.468359 -194.292161 
L 180.561806 -194.292161 
L 181.655252 -194.292161 
L 182.748699 -194.292161 
L 183.842145 -194.292161 
L 184.935592 -194.292161 
L 186.029038 -194.292161 
L 187.122485 -194.292161 
L 188.215931 -194.292161 
L 189.309378 -194.292161 
L 190.402824 -194.292161 
L 191.496271 -194.292161 
L 192.589718 -194.292161 
L 193.683164 -194.292161 
L 194.776611 -194.292161 
L 195.870057 -194.292161 
L 196.963504 -194.292161 
L 198.05695 -194.292161 
L 199.150397 -194.292161 
L 200.243843 -194.292161 
L 201.33729 -194.292161 
L 202.430736 -194.292161 
L 203.524183 -194.292161 
L 204.617629 -194.292161 
L 205.711076 -194.292161 
L 206.804522 -194.292161 
L 207.897969 -194.292161 
L 208.991415 -194.292161 
L 210.084862 -194.292161 
L 211.178308 -194.292161 
L 212.271755 -194.292161 
L 213.365201 -194.292161 
L 214.458648 -194.292161 
L 215.552094 -194.292161 
L 216.645541 -194.292161 
L 217.738987 -194.292161 
L 218.832434 -194.292161 
L 219.92588 -194.292161 
L 221.019327 -194.292161 
L 222.112773 -194.292161 
L 223.20622 -194.292161 
L 224.299666 -194.292161 
L 225.393113 -194.292161 
L 226.486559 -194.292161 
L 227.580006 -194.292161 
L 228.673452 -194.292161 
L 229.766899 -194.292161 
L 230.860346 -194.292161 
L 231.953792 -194.292161 
L 233.047239 -194.292161 
L 234.140685 -194.292161 
L 235.234132 -194.292161 
L 236.327578 -194.292161 
L 237.421025 -194.292161 
L 238.514471 -194.292161 
L 239.607918 -194.292161 
L 240.701364 -194.292161 
L 241.794811 -194.292161 
L 242.888257 -194.292161 
L 243.981704 -194.292161 
L 245.07515 -194.292161 
L 246.168597 -194.292161 
L 247.262043 -194.292161 
L 248.35549 -194.292161 
L 249.448936 -195.576688 
L 250.542383 -194.292161 
L 251.635829 -194.292161 
L 252.729276 -194.292161 
L 253.822722 -194.292161 
L 254.916169 -194.292161 
L 256.009615 -194.292161 
L 257.103062 -194.292161 
L 258.196508 -194.292161 
L 259.289955 -194.292161 
L 260.383401 -194.292161 
L 261.476848 -194.292161 
L 262.570294 -194.292161 
L 263.663741 -194.292161 
L 264.757187 -194.292161 
L 265.850634 -194.292161 
L 266.944081 -194.292161 
L 268.037527 -194.292161 
L 269.130974 -194.292161 
L 270.22442 -194.292161 
L 271.317867 -230.527549 
L 272.411313 -195.495533 
L 273.50476 -194.292161 
L 274.598206 -194.292161 
L 275.691653 -194.292161 
L 276.785099 -194.292161 
L 277.878546 -194.292161 
L 278.971992 -194.292161 
L 280.065439 -194.292161 
L 281.158885 -194.292161 
L 282.252332 -194.292161 
L 283.345778 -194.292161 
L 284.439225 -194.292161 
L 285.532671 -194.292161 
L 286.626118 -194.292161 
L 287.719564 -185.955144 
L 288.813011 -194.292161 
L 289.906457 -194.292161 
L 290.999904 -194.292161 
L 292.09335 -194.292161 
L 293.186797 -194.292161 
L 294.280243 -194.292161 
L 295.37369 -194.292161 
L 296.467136 -194.292161 
L 297.560583 -194.292161 
L 298.654029 -194.292161 
L 299.747476 -194.292161 
L 300.840922 -194.292161 
L 301.934369 -194.292161 
L 303.027815 -194.292161 
L 304.121262 -194.292161 
L 305.214709 -194.292161 
L 306.308155 -194.292161 
L 307.401602 -194.292161 
L 308.495048 -194.292161 
L 309.588495 -194.292161 
L 310.681941 -194.292161 
L 311.775388 -194.292161 
L 312.868834 -194.292161 
L 313.962281 -194.292161 
L 315.055727 -194.292161 
L 316.149174 -194.292161 
L 317.24262 -194.292161 
L 318.336067 -194.292161 
L 319.429513 -194.292161 
L 320.52296 -194.292161 
L 321.616406 -194.292161 
L 322.709853 -194.292161 
L 323.803299 -194.292161 
L 324.896746 -194.292161 
L 325.990192 -194.292161 
L 327.083639 -194.292161 
L 328.177085 -194.292161 
L 329.270532 -194.292161 
L 330.363978 -194.292161 
L 331.457425 -194.292161 
L 332.550871 -194.292161 
L 333.644318 -194.292161 
L 334.737764 -194.292161 
L 335.831211 -194.292161 
L 336.924657 -194.292161 
L 338.018104 -194.292161 
L 339.11155 -194.292161 
L 340.204997 -194.292161 
L 341.298444 -194.292161 
L 342.39189 -194.292161 
L 343.485337 -194.292161 
L 344.578783 -194.292161 
L 345.67223 -194.292161 
L 346.765676 -194.292161 
L 347.859123 -194.292161 
L 348.952569 -194.292161 
L 350.046016 -194.292161 
L 351.139462 -194.292161 
L 352.232909 -194.292161 
L 353.326355 -194.292161 
L 354.419802 -194.292161 
L 355.513248 -194.292161 
L 356.606695 -198.389528 
L 357.700141 -194.292161 
L 358.793588 -194.292161 
L 359.887034 -194.292161 
L 360.980481 -194.292161 
L 362.073927 -194.292161 
L 363.167374 -194.292161 
L 364.26082 -194.292161 
L 365.354267 -194.292161 
L 366.447713 -194.292161 
L 367.54116 -194.292161 
L 368.634606 -194.292161 
L 369.728053 -194.292161 
L 370.821499 -194.292161 
L 371.914946 -194.292161 
L 373.008392 -194.292161 
L 374.101839 -194.292161 
L 375.195285 -194.292161 
L 376.288732 -194.292161 
L 377.382179 -194.292161 
L 378.475625 -194.292161 
L 379.569072 -194.292161 
L 380.662518 -194.292161 
L 381.755965 -194.292161 
L 382.849411 -194.292161 
L 383.942858 -194.292161 
L 385.036304 -194.292161 
L 386.129751 -194.292161 
L 387.223197 -194.292161 
L 388.316644 -194.292161 
L 389.41009 -194.292161 
L 390.503537 -194.292161 
L 391.596983 -194.292161 
L 392.69043 -194.292161 
L 393.783876 -194.292161 
L 394.877323 -188.007109 
L 395.970769 -194.292161 
L 397.064216 -194.292161 
L 398.157662 -194.292161 
L 399.251109 -194.292161 
L 400.344555 -194.292161 
L 401.438002 -194.292161 
L 402.531448 -194.292161 
L 403.624895 -194.292161 
L 404.718341 -194.292161 
L 405.811788 -194.292161 
L 406.905234 -194.292161 
L 407.998681 -194.292161 
L 409.092127 -194.292161 
L 410.185574 -194.292161 
L 411.27902 -194.292161 
L 412.372467 -194.292161 
L 413.465913 -194.292161 
L 414.55936 -194.292161 
L 415.652807 -194.292161 
L 416.746253 -194.292161 
L 417.8397 -194.292161 
L 418.933146 -194.292161 
L 420.026593 -194.292161 
L 421.120039 -194.292161 
L 422.213486 -194.292161 
L 423.306932 -194.292161 
L 424.400379 -194.292161 
L 425.493825 -194.292161 
L 426.587272 -194.292161 
L 427.680718 -194.292161 
L 428.774165 -194.292161 
L 429.867611 -190.842007 
L 430.961058 -194.292161 
L 432.054504 -194.292161 
L 433.147951 -194.292161 
L 434.241397 -194.292161 
L 435.334844 -194.292161 
L 436.42829 -194.292161 
L 437.521737 -194.292161 
L 438.615183 -194.292161 
L 439.70863 -194.292161 
L 440.802076 -194.292161 
L 441.895523 -194.292161 
L 442.988969 -194.292161 
L 444.082416 -204.148636 
L 445.175862 -194.292161 
L 446.269309 -194.292161 
L 447.362755 -194.292161 
L 448.456202 -194.292161 
L 449.549648 -194.292161 
L 450.643095 -194.292161 
L 451.736542 -194.292161 
L 452.829988 -194.292161 
L 453.923435 -194.292161 
L 455.016881 -194.292161 
L 456.110328 -194.292161 
L 457.203774 -194.292161 
L 458.297221 -194.292161 
L 459.390667 -194.292161 
L 460.484114 -194.292161 
L 461.57756 -194.292161 
L 462.671007 -194.292161 
L 463.764453 -194.292161 
L 464.8579 -194.292161 
L 465.951346 -194.292161 
L 467.044793 -194.292161 
L 468.138239 -194.292161 
L 469.231686 -194.292161 
L 470.325132 -194.292161 
L 471.418579 -194.292161 
L 472.512025 -194.292161 
L 473.605472 -194.292161 
L 474.698918 -194.292161 
L 475.792365 -194.292161 
L 476.885811 -194.292161 
L 477.979258 -182.249366 
L 479.072704 -197.631439 
L 480.166151 -194.292161 
L 481.259597 -194.292161 
L 482.353044 -194.292161 
L 483.44649 -194.292161 
L 484.539937 -194.292161 
L 485.633383 -194.292161 
L 486.72683 -194.292161 
L 487.820276 -194.292161 
L 488.913723 -194.292161 
L 490.00717 -194.292161 
L 491.100616 -194.292161 
L 492.194063 -194.292161 
L 493.287509 -194.292161 
L 494.380956 -194.292161 
L 495.474402 -194.292161 
L 496.567849 -194.292161 
L 497.661295 -194.292161 
L 498.754742 -194.292161 
L 499.848188 -194.292161 
L 500.941635 -194.292161 
L 502.035081 -280.106884 
L 503.128528 -194.292161 
L 504.221974 -194.292161 
L 505.315421 -194.292161 
L 506.408867 -194.292161 
L 507.502314 -194.292161 
L 508.59576 -194.292161 
L 509.689207 -194.292161 
L 510.782653 -194.292161 
L 511.8761 -194.292161 
L 512.969546 -194.292161 
L 514.062993 -194.292161 
L 515.156439 -194.292161 
L 516.249886 -194.292161 
L 517.343332 -194.292161 
L 518.436779 -194.292161 
L 519.530225 -194.292161 
L 520.623672 -194.292161 
L 521.717118 -194.292161 
L 522.810565 -194.292161 
L 523.904011 -194.292161 
L 524.997458 -194.292161 
L 526.090905 -194.292161 
L 527.184351 -194.292161 
L 528.277798 -194.292161 
L 529.371244 -194.292161 
L 530.464691 -194.292161 
L 531.558137 -194.292161 
L 532.651584 -194.292161 
L 533.74503 -194.292161 
L 534.838477 -194.292161 
L 535.931923 -194.292161 
L 537.02537 -194.292161 
L 538.118816 -194.292161 
L 539.212263 -194.292161 
L 540.305709 -252.495912 
L 541.399156 -194.292161 
L 542.492602 -194.292161 
L 543.586049 -194.292161 
L 544.679495 -194.292161 
L 545.772942 -194.292161 
L 546.866388 -194.292161 
L 547.959835 -194.292161 
L 549.053281 -194.292161 
L 550.146728 -194.292161 
L 550.146728 -194.292161 
L 550.146728 -194.292161 
L 549.053281 -194.292161 
L 547.959835 -194.292161 
L 546.866388 -194.292161 
L 545.772942 -194.292161 
L 544.679495 -194.292161 
L 543.586049 -194.292161 
L 542.492602 -194.292161 
L 541.399156 -194.292161 
L 540.305709 -252.495912 
L 539.212263 -194.292161 
L 538.118816 -194.292161 
L 537.02537 -194.292161 
L 535.931923 -194.292161 
L 534.838477 -194.292161 
L 533.74503 -194.292161 
L 532.651584 -194.292161 
L 531.558137 -194.292161 
L 530.464691 -194.292161 
L 529.371244 -194.292161 
L 528.277798 -194.292161 
L 527.184351 -194.292161 
L 526.090905 -194.292161 
L 524.997458 -194.292161 
L 523.904011 -194.292161 
L 522.810565 -194.292161 
L 521.717118 -194.292161 
L 520.623672 -194.292161 
L 519.530225 -194.292161 
L 518.436779 -194.292161 
L 517.343332 -194.292161 
L 516.249886 -194.292161 
L 515.156439 -194.292161 
L 514.062993 -194.292161 
L 512.969546 -194.292161 
L 511.8761 -194.292161 
L 510.782653 -194.292161 
L 509.689207 -194.292161 
L 508.59576 -194.292161 
L 507.502314 -194.292161 
L 506.408867 -194.292161 
L 505.315421 -194.292161 
L 504.221974 -194.292161 
L 503.128528 -194.292161 
L 502.035081 -280.106884 
L 500.941635 -194.292161 
L 499.848188 -194.292161 
L 498.754742 -194.292161 
L 497.661295 -194.292161 
L 496.567849 -194.292161 
L 495.474402 -194.292161 
L 494.380956 -194.292161 
L 493.287509 -194.292161 
L 492.194063 -194.292161 
L 491.100616 -194.292161 
L 490.00717 -194.292161 
L 488.913723 -194.292161 
L 487.820276 -194.292161 
L 486.72683 -194.292161 
L 485.633383 -194.292161 
L 484.539937 -194.292161 
L 483.44649 -194.292161 
L 482.353044 -194.292161 
L 481.259597 -194.292161 
L 480.166151 -194.292161 
L 479.072704 -197.631439 
L 477.979258 -182.249366 
L 476.885811 -194.292161 
L 475.792365 -194.292161 
L 474.698918 -194.292161 
L 473.605472 -194.292161 
L 472.512025 -194.292161 
L 471.418579 -194.292161 
L 470.325132 -194.292161 
L 469.231686 -194.292161 
L 468.138239 -194.292161 
L 467.044793 -194.292161 
L 465.951346 -194.292161 
L 464.8579 -194.292161 
L 463.764453 -194.292161 
L 462.671007 -194.292161 
L 461.57756 -194.292161 
L 460.484114 -194.292161 
L 459.390667 -194.292161 
L 458.297221 -194.292161 
L 457.203774 -194.292161 
L 456.110328 -194.292161 
L 455.016881 -194.292161 
L 453.923435 -194.292161 
L 452.829988 -194.292161 
L 451.736542 -194.292161 
L 450.643095 -194.292161 
L 449.549648 -194.292161 
L 448.456202 -194.292161 
L 447.362755 -194.292161 
L 446.269309 -194.292161 
L 445.175862 -194.292161 
L 444.082416 -204.148636 
L 442.988969 -194.292161 
L 441.895523 -194.292161 
L 440.802076 -194.292161 
L 439.70863 -194.292161 
L 438.615183 -194.292161 
L 437.521737 -194.292161 
L 436.42829 -194.292161 
L 435.334844 -194.292161 
L 434.241397 -194.292161 
L 433.147951 -194.292161 
L 432.054504 -194.292161 
L 430.961058 -194.292161 
L 429.867611 -190.842007 
L 428.774165 -194.292161 
L 427.680718 -194.292161 
L 426.587272 -194.292161 
L 425.493825 -194.292161 
L 424.400379 -194.292161 
L 423.306932 -194.292161 
L 422.213486 -194.292161 
L 421.120039 -194.292161 
L 420.026593 -194.292161 
L 418.933146 -194.292161 
L 417.8397 -194.292161 
L 416.746253 -194.292161 
L 415.652807 -194.292161 
L 414.55936 -194.292161 
L 413.465913 -194.292161 
L 412.372467 -194.292161 
L 411.27902 -194.292161 
L 410.185574 -194.292161 
L 409.092127 -194.292161 
L 407.998681 -194.292161 
L 406.905234 -194.292161 
L 405.811788 -194.292161 
L 404.718341 -194.292161 
L 403.624895 -194.292161 
L 402.531448 -194.292161 
L 401.438002 -194.292161 
L 400.344555 -194.292161 
L 399.251109 -194.292161 
L 398.157662 -194.292161 
L 397.064216 -194.292161 
L 395.970769 -194.292161 
L 394.877323 -188.007109 
L 393.783876 -194.292161 
L 392.69043 -194.292161 
L 391.596983 -194.292161 
L 390.503537 -194.292161 
L 389.41009 -194.292161 
L 388.316644 -194.292161 
L 387.223197 -194.292161 
L 386.129751 -194.292161 
L 385.036304 -194.292161 
L 383.942858 -194.292161 
L 382.849411 -194.292161 
L 381.755965 -194.292161 
L 380.662518 -194.292161 
L 379.569072 -194.292161 
L 378.475625 -194.292161 
L 377.382179 -194.292161 
L 376.288732 -194.292161 
L 375.195285 -194.292161 
L 374.101839 -194.292161 
L 373.008392 -194.292161 
L 371.914946 -194.292161 
L 370.821499 -194.292161 
L 369.728053 -194.292161 
L 368.634606 -194.292161 
L 367.54116 -194.292161 
L 366.447713 -194.292161 
L 365.354267 -194.292161 
L 364.26082 -194.292161 
L 363.167374 -194.292161 
L 362.073927 -194.292161 
L 360.980481 -194.292161 
L 359.887034 -194.292161 
L 358.793588 -194.292161 
L 357.700141 -194.292161 
L 356.606695 -198.389528 
L 355.513248 -194.292161 
L 354.419802 -194.292161 
L 353.326355 -194.292161 
L 352.232909 -194.292161 
L 351.139462 -194.292161 
L 350.046016 -194.292161 
L 348.952569 -194.292161 
L 347.859123 -194.292161 
L 346.765676 -194.292161 
L 345.67223 -194.292161 
L 344.578783 -194.292161 
L 343.485337 -194.292161 
L 342.39189 -194.292161 
L 341.298444 -194.292161 
L 340.204997 -194.292161 
L 339.11155 -194.292161 
L 338.018104 -194.292161 
L 336.924657 -194.292161 
L 335.831211 -194.292161 
L 334.737764 -194.292161 
L 333.644318 -194.292161 
L 332.550871 -194.292161 
L 331.457425 -194.292161 
L 330.363978 -194.292161 
L 329.270532 -194.292161 
L 328.177085 -194.292161 
L 327.083639 -194.292161 
L 325.990192 -194.292161 
L 324.896746 -194.292161 
L 323.803299 -194.292161 
L 322.709853 -194.292161 
L 321.616406 -194.292161 
L 320.52296 -194.292161 
L 319.429513 -194.292161 
L 318.336067 -194.292161 
L 317.24262 -194.292161 
L 316.149174 -194.292161 
L 315.055727 -194.292161 
L 313.962281 -194.292161 
L 312.868834 -194.292161 
L 311.775388 -194.292161 
L 310.681941 -194.292161 
L 309.588495 -194.292161 
L 308.495048 -194.292161 
L 307.401602 -194.292161 
L 306.308155 -194.292161 
L 305.214709 -194.292161 
L 304.121262 -194.292161 
L 303.027815 -194.292161 
L 301.934369 -194.292161 
L 300.840922 -194.292161 
L 299.747476 -194.292161 
L 298.654029 -194.292161 
L 297.560583 -194.292161 
L 296.467136 -194.292161 
L 295.37369 -194.292161 
L 294.280243 -194.292161 
L 293.186797 -194.292161 
L 292.09335 -194.292161 
L 290.999904 -194.292161 
L 289.906457 -194.292161 
L 288.813011 -194.292161 
L 287.719564 -185.955144 
L 286.626118 -194.292161 
L 285.532671 -194.292161 
L 284.439225 -194.292161 
L 283.345778 -194.292161 
L 282.252332 -194.292161 
L 281.158885 -194.292161 
L 280.065439 -194.292161 
L 278.971992 -194.292161 
L 277.878546 -194.292161 
L 276.785099 -194.292161 
L 275.691653 -194.292161 
L 274.598206 -194.292161 
L 273.50476 -194.292161 
L 272.411313 -195.495533 
L 271.317867 -230.527549 
L 270.22442 -194.292161 
L 269.130974 -194.292161 
L 268.037527 -194.292161 
L 266.944081 -194.292161 
L 265.850634 -194.292161 
L 264.757187 -194.292161 
L 263.663741 -194.292161 
L 262.570294 -194.292161 
L 261.476848 -194.292161 
L 260.383401 -194.292161 
L 259.289955 -194.292161 
L 258.196508 -194.292161 
L 257.103062 -194.292161 
L 256.009615 -194.292161 
L 254.916169 -194.292161 
L 253.822722 -194.292161 
L 252.729276 -194.292161 
L 251.635829 -194.292161 
L 250.542383 -194.292161 
L 249.448936 -195.576688 
L 248.35549 -194.292161 
L 247.262043 -194.292161 
L 246.168597 -194.292161 
L 245.07515 -194.292161 
L 243.981704 -194.292161 
L 242.888257 -194.292161 
L 241.794811 -194.292161 
L 240.701364 -194.292161 
L 239.607918 -194.292161 
L 238.514471 -194.292161 
L 237.421025 -194.292161 
L 236.327578 -194.292161 
L 235.234132 -194.292161 
L 234.140685 -194.292161 
L 233.047239 -194.292161 
L 231.953792 -194.292161 
L 230.860346 -194.292161 
L 229.766899 -194.292161 
L 228.673452 -194.292161 
L 227.580006 -194.292161 
L 226.486559 -194.292161 
L 225.393113 -194.292161 
L 224.299666 -194.292161 
L 223.20622 -194.292161 
L 222.112773 -194.292161 
L 221.019327 -194.292161 
L 219.92588 -194.292161 
L 218.832434 -194.292161 
L 217.738987 -194.292161 
L 216.645541 -194.292161 
L 215.552094 -194.292161 
L 214.458648 -194.292161 
L 213.365201 -194.292161 
L 212.271755 -194.292161 
L 211.178308 -194.292161 
L 210.084862 -194.292161 
L 208.991415 -194.292161 
L 207.897969 -194.292161 
L 206.804522 -194.292161 
L 205.711076 -194.292161 
L 204.617629 -194.292161 
L 203.524183 -194.292161 
L 202.430736 -194.292161 
L 201.33729 -194.292161 
L 200.243843 -194.292161 
L 199.150397 -194.292161 
L 198.05695 -194.292161 
L 196.963504 -194.292161 
L 195.870057 -194.292161 
L 194.776611 -194.292161 
L 193.683164 -194.292161 
L 192.589718 -194.292161 
L 191.496271 -194.292161 
L 190.402824 -194.292161 
L 189.309378 -194.292161 
L 188.215931 -194.292161 
L 187.122485 -194.292161 
L 186.029038 -194.292161 
L 184.935592 -194.292161 
L 183.842145 -194.292161 
L 182.748699 -194.292161 
L 181.655252 -194.292161 
L 180.561806 -194.292161 
L 179.468359 -194.292161 
L 178.374913 -194.292161 
L 177.281466 -194.292161 
L 176.18802 -194.292161 
L 175.094573 -194.292161 
L 174.001127 -194.292161 
L 172.90768 -194.292161 
L 171.814234 -194.292161 
L 170.720787 -194.292161 
L 169.627341 -194.292161 
L 168.533894 -194.292161 
L 167.440448 -194.292161 
L 166.347001 -194.292161 
L 165.253555 -194.292161 
L 164.160108 -194.292161 
L 163.066662 -194.292161 
L 161.973215 -194.292161 
L 160.879769 -194.292161 
L 159.786322 -194.292161 
L 158.692876 -194.292161 
L 157.599429 -194.292161 
L 156.505983 -194.292161 
L 155.412536 -194.292161 
L 154.319089 -194.292161 
L 153.225643 -194.292161 
L 152.132196 -194.292161 
L 151.03875 -194.292161 
L 149.945303 -194.292161 
L 148.851857 -194.292161 
L 147.75841 -194.292161 
L 146.664964 -194.292161 
L 145.571517 -194.292161 
L 144.478071 -194.292161 
L 143.384624 -194.292161 
L 142.291178 -252.495912 
L 141.197731 -194.292161 
L 140.104285 -194.292161 
L 139.010838 -194.292161 
L 137.917392 -194.292161 
L 136.823945 -194.292161 
L 135.730499 -194.292161 
L 134.637052 -194.292161 
L 133.543606 -194.292161 
L 132.450159 -194.292161 
L 131.356713 -194.292161 
L 130.263266 -194.292161 
L 129.16982 -194.292161 
L 128.076373 -194.292161 
L 126.982927 -194.292161 
L 125.88948 -194.292161 
L 124.796034 -194.292161 
L 123.702587 -194.292161 
L 122.609141 -194.292161 
L 121.515694 -194.292161 
L 120.422248 -194.292161 
L 119.328801 -194.292161 
L 118.235354 -194.292161 
L 117.141908 -194.292161 
L 116.048461 -194.292161 
L 114.955015 -194.292161 
L 113.861568 -194.292161 
L 112.768122 -194.292161 
L 111.674675 -194.292161 
L 110.581229 -194.292161 
L 109.487782 -194.292161 
L 108.394336 -194.292161 
L 107.300889 -194.292161 
L 106.207443 -194.292161 
L 105.113996 -194.292161 
L 104.02055 -280.106884 
L 102.927103 -194.292161 
L 101.833657 -194.292161 
L 100.74021 -194.292161 
L 99.646764 -194.292161 
L 98.553317 -194.292161 
L 97.459871 -194.292161 
L 96.366424 -194.292161 
L 95.272978 -194.292161 
L 94.179531 -194.292161 
L 93.086085 -194.292161 
z
" style="stroke: #0072b2; stroke-opacity: 0.2"/>
    </defs>
    <g clip-path="url(#pac021700e1)">
     <use xlink:href="#m4e61bd08fc" x="0" y="432" style="fill: #0072b2; fill-opacity: 0.2; stroke: #0072b2; stroke-opacity: 0.2"/>
    </g>
   </g>
   <g id="matplotlib.axis_3">
    <g id="xtick_9">
     <g id="line2d_28">
      <path d="M 86.525406 254.64351 
L 86.525406 147.00024 
" clip-path="url(#pac021700e1)" style="fill: none; stroke: #808080; stroke-opacity: 0.2; stroke-linecap: square"/>
     </g>
     <g id="line2d_29">
      <g>
       <use xlink:href="#m16ff696167" x="86.525406" y="254.64351" style="stroke: #000000; stroke-width: 0.8"/>
      </g>
     </g>
     <g id="text_16">
      <!-- 2022-01 -->
      <g transform="translate(65.633999 269.241947) scale(0.1 -0.1)">
       <use xlink:href="#DejaVuSans-32"/>
       <use xlink:href="#DejaVuSans-30" x="63.623047"/>
       <use xlink:href="#DejaVuSans-32" x="127.246094"/>
       <use xlink:href="#DejaVuSans-32" x="190.869141"/>
       <use xlink:href="#DejaVuSans-2d" x="254.492188"/>
       <use xlink:href="#DejaVuSans-30" x="290.576172"/>
       <use xlink:href="#DejaVuSans-31" x="354.199219"/>
      </g>
     </g>
    </g>
    <g id="xtick_10">
     <g id="line2d_30">
      <path d="M 151.03875 254.64351 
L 151.03875 147.00024 
" clip-path="url(#pac021700e1)" style="fill: none; stroke: #808080; stroke-opacity: 0.2; stroke-linecap: square"/>
     </g>
     <g id="line2d_31">
      <g>
       <use xlink:href="#m16ff696167" x="151.03875" y="254.64351" style="stroke: #000000; stroke-width: 0.8"/>
      </g>
     </g>
     <g id="text_17">
      <!-- 2022-03 -->
      <g transform="translate(130.147344 269.241947) scale(0.1 -0.1)">
       <use xlink:href="#DejaVuSans-32"/>
       <use xlink:href="#DejaVuSans-30" x="63.623047"/>
       <use xlink:href="#DejaVuSans-32" x="127.246094"/>
       <use xlink:href="#DejaVuSans-32" x="190.869141"/>
       <use xlink:href="#DejaVuSans-2d" x="254.492188"/>
       <use xlink:href="#DejaVuSans-30" x="290.576172"/>
       <use xlink:href="#DejaVuSans-33" x="354.199219"/>
      </g>
     </g>
    </g>
    <g id="xtick_11">
     <g id="line2d_32">
      <path d="M 217.738987 254.64351 
L 217.738987 147.00024 
" clip-path="url(#pac021700e1)" style="fill: none; stroke: #808080; stroke-opacity: 0.2; stroke-linecap: square"/>
     </g>
     <g id="line2d_33">
      <g>
       <use xlink:href="#m16ff696167" x="217.738987" y="254.64351" style="stroke: #000000; stroke-width: 0.8"/>
      </g>
     </g>
     <g id="text_18">
      <!-- 2022-05 -->
      <g transform="translate(196.847581 269.241947) scale(0.1 -0.1)">
       <use xlink:href="#DejaVuSans-32"/>
       <use xlink:href="#DejaVuSans-30" x="63.623047"/>
       <use xlink:href="#DejaVuSans-32" x="127.246094"/>
       <use xlink:href="#DejaVuSans-32" x="190.869141"/>
       <use xlink:href="#DejaVuSans-2d" x="254.492188"/>
       <use xlink:href="#DejaVuSans-30" x="290.576172"/>
       <use xlink:href="#DejaVuSans-35" x="354.199219"/>
      </g>
     </g>
    </g>
    <g id="xtick_12">
     <g id="line2d_34">
      <path d="M 284.439225 254.64351 
L 284.439225 147.00024 
" clip-path="url(#pac021700e1)" style="fill: none; stroke: #808080; stroke-opacity: 0.2; stroke-linecap: square"/>
     </g>
     <g id="line2d_35">
      <g>
       <use xlink:href="#m16ff696167" x="284.439225" y="254.64351" style="stroke: #000000; stroke-width: 0.8"/>
      </g>
     </g>
     <g id="text_19">
      <!-- 2022-07 -->
      <g transform="translate(263.547818 269.241947) scale(0.1 -0.1)">
       <use xlink:href="#DejaVuSans-32"/>
       <use xlink:href="#DejaVuSans-30" x="63.623047"/>
       <use xlink:href="#DejaVuSans-32" x="127.246094"/>
       <use xlink:href="#DejaVuSans-32" x="190.869141"/>
       <use xlink:href="#DejaVuSans-2d" x="254.492188"/>
       <use xlink:href="#DejaVuSans-30" x="290.576172"/>
       <use xlink:href="#DejaVuSans-37" x="354.199219"/>
      </g>
     </g>
    </g>
    <g id="xtick_13">
     <g id="line2d_36">
      <path d="M 352.232909 254.64351 
L 352.232909 147.00024 
" clip-path="url(#pac021700e1)" style="fill: none; stroke: #808080; stroke-opacity: 0.2; stroke-linecap: square"/>
     </g>
     <g id="line2d_37">
      <g>
       <use xlink:href="#m16ff696167" x="352.232909" y="254.64351" style="stroke: #000000; stroke-width: 0.8"/>
      </g>
     </g>
     <g id="text_20">
      <!-- 2022-09 -->
      <g transform="translate(331.341502 269.241947) scale(0.1 -0.1)">
       <use xlink:href="#DejaVuSans-32"/>
       <use xlink:href="#DejaVuSans-30" x="63.623047"/>
       <use xlink:href="#DejaVuSans-32" x="127.246094"/>
       <use xlink:href="#DejaVuSans-32" x="190.869141"/>
       <use xlink:href="#DejaVuSans-2d" x="254.492188"/>
       <use xlink:href="#DejaVuSans-30" x="290.576172"/>
       <use xlink:href="#DejaVuSans-39" x="354.199219"/>
      </g>
     </g>
    </g>
    <g id="xtick_14">
     <g id="line2d_38">
      <path d="M 418.933146 254.64351 
L 418.933146 147.00024 
" clip-path="url(#pac021700e1)" style="fill: none; stroke: #808080; stroke-opacity: 0.2; stroke-linecap: square"/>
     </g>
     <g id="line2d_39">
      <g>
       <use xlink:href="#m16ff696167" x="418.933146" y="254.64351" style="stroke: #000000; stroke-width: 0.8"/>
      </g>
     </g>
     <g id="text_21">
      <!-- 2022-11 -->
      <g transform="translate(398.04174 269.241947) scale(0.1 -0.1)">
       <use xlink:href="#DejaVuSans-32"/>
       <use xlink:href="#DejaVuSans-30" x="63.623047"/>
       <use xlink:href="#DejaVuSans-32" x="127.246094"/>
       <use xlink:href="#DejaVuSans-32" x="190.869141"/>
       <use xlink:href="#DejaVuSans-2d" x="254.492188"/>
       <use xlink:href="#DejaVuSans-31" x="290.576172"/>
       <use xlink:href="#DejaVuSans-31" x="354.199219"/>
      </g>
     </g>
    </g>
    <g id="xtick_15">
     <g id="line2d_40">
      <path d="M 485.633383 254.64351 
L 485.633383 147.00024 
" clip-path="url(#pac021700e1)" style="fill: none; stroke: #808080; stroke-opacity: 0.2; stroke-linecap: square"/>
     </g>
     <g id="line2d_41">
      <g>
       <use xlink:href="#m16ff696167" x="485.633383" y="254.64351" style="stroke: #000000; stroke-width: 0.8"/>
      </g>
     </g>
     <g id="text_22">
      <!-- 2023-01 -->
      <g transform="translate(464.741977 269.241947) scale(0.1 -0.1)">
       <use xlink:href="#DejaVuSans-32"/>
       <use xlink:href="#DejaVuSans-30" x="63.623047"/>
       <use xlink:href="#DejaVuSans-32" x="127.246094"/>
       <use xlink:href="#DejaVuSans-33" x="190.869141"/>
       <use xlink:href="#DejaVuSans-2d" x="254.492188"/>
       <use xlink:href="#DejaVuSans-30" x="290.576172"/>
       <use xlink:href="#DejaVuSans-31" x="354.199219"/>
      </g>
     </g>
    </g>
    <g id="xtick_16">
     <g id="line2d_42">
      <path d="M 550.146728 254.64351 
L 550.146728 147.00024 
" clip-path="url(#pac021700e1)" style="fill: none; stroke: #808080; stroke-opacity: 0.2; stroke-linecap: square"/>
     </g>
     <g id="line2d_43">
      <g>
       <use xlink:href="#m16ff696167" x="550.146728" y="254.64351" style="stroke: #000000; stroke-width: 0.8"/>
      </g>
     </g>
     <g id="text_23">
      <!-- 2023-03 -->
      <g transform="translate(529.255322 269.241947) scale(0.1 -0.1)">
       <use xlink:href="#DejaVuSans-32"/>
       <use xlink:href="#DejaVuSans-30" x="63.623047"/>
       <use xlink:href="#DejaVuSans-32" x="127.246094"/>
       <use xlink:href="#DejaVuSans-33" x="190.869141"/>
       <use xlink:href="#DejaVuSans-2d" x="254.492188"/>
       <use xlink:href="#DejaVuSans-30" x="290.576172"/>
       <use xlink:href="#DejaVuSans-33" x="354.199219"/>
      </g>
     </g>
    </g>
    <g id="text_24">
     <!-- ds -->
     <g transform="translate(315.8375 282.920072) scale(0.1 -0.1)">
      <use xlink:href="#DejaVuSans-64"/>
      <use xlink:href="#DejaVuSans-73" x="63.476562"/>
     </g>
    </g>
   </g>
   <g id="matplotlib.axis_4">
    <g id="ytick_6">
     <g id="line2d_44">
      <path d="M 70.233052 237.707839 
L 572.99976 237.707839 
" clip-path="url(#pac021700e1)" style="fill: none; stroke: #808080; stroke-opacity: 0.2; stroke-linecap: square"/>
     </g>
     <g id="line2d_45">
      <g>
       <use xlink:href="#m1505d464c2" x="70.233052" y="237.707839" style="stroke: #000000; stroke-width: 0.8"/>
      </g>
     </g>
     <g id="text_25">
      <!-- 0 -->
      <g transform="translate(56.870553 241.507058) scale(0.1 -0.1)">
       <use xlink:href="#DejaVuSans-30"/>
      </g>
     </g>
    </g>
    <g id="ytick_7">
     <g id="line2d_46">
      <path d="M 70.233052 209.549491 
L 572.99976 209.549491 
" clip-path="url(#pac021700e1)" style="fill: none; stroke: #808080; stroke-opacity: 0.2; stroke-linecap: square"/>
     </g>
     <g id="line2d_47">
      <g>
       <use xlink:href="#m1505d464c2" x="70.233052" y="209.549491" style="stroke: #000000; stroke-width: 0.8"/>
      </g>
     </g>
     <g id="text_26">
      <!-- 5000 -->
      <g transform="translate(37.783052 213.34871) scale(0.1 -0.1)">
       <use xlink:href="#DejaVuSans-35"/>
       <use xlink:href="#DejaVuSans-30" x="63.623047"/>
       <use xlink:href="#DejaVuSans-30" x="127.246094"/>
       <use xlink:href="#DejaVuSans-30" x="190.869141"/>
      </g>
     </g>
    </g>
    <g id="ytick_8">
     <g id="line2d_48">
      <path d="M 70.233052 181.391143 
L 572.99976 181.391143 
" clip-path="url(#pac021700e1)" style="fill: none; stroke: #808080; stroke-opacity: 0.2; stroke-linecap: square"/>
     </g>
     <g id="line2d_49">
      <g>
       <use xlink:href="#m1505d464c2" x="70.233052" y="181.391143" style="stroke: #000000; stroke-width: 0.8"/>
      </g>
     </g>
     <g id="text_27">
      <!-- 10000 -->
      <g transform="translate(31.420552 185.190361) scale(0.1 -0.1)">
       <use xlink:href="#DejaVuSans-31"/>
       <use xlink:href="#DejaVuSans-30" x="63.623047"/>
       <use xlink:href="#DejaVuSans-30" x="127.246094"/>
       <use xlink:href="#DejaVuSans-30" x="190.869141"/>
       <use xlink:href="#DejaVuSans-30" x="254.492188"/>
      </g>
     </g>
    </g>
    <g id="ytick_9">
     <g id="line2d_50">
      <path d="M 70.233052 153.232794 
L 572.99976 153.232794 
" clip-path="url(#pac021700e1)" style="fill: none; stroke: #808080; stroke-opacity: 0.2; stroke-linecap: square"/>
     </g>
     <g id="line2d_51">
      <g>
       <use xlink:href="#m1505d464c2" x="70.233052" y="153.232794" style="stroke: #000000; stroke-width: 0.8"/>
      </g>
     </g>
     <g id="text_28">
      <!-- 15000 -->
      <g transform="translate(31.420552 157.032013) scale(0.1 -0.1)">
       <use xlink:href="#DejaVuSans-31"/>
       <use xlink:href="#DejaVuSans-35" x="63.623047"/>
       <use xlink:href="#DejaVuSans-30" x="127.246094"/>
       <use xlink:href="#DejaVuSans-30" x="190.869141"/>
       <use xlink:href="#DejaVuSans-30" x="254.492188"/>
      </g>
     </g>
    </g>
    <g id="text_29">
     <!-- holidays -->
     <g transform="translate(25.340865 221.630469) rotate(-90) scale(0.1 -0.1)">
      <defs>
       <path id="DejaVuSans-68" d="M 3513 2113 
L 3513 0 
L 2938 0 
L 2938 2094 
Q 2938 2591 2744 2837 
Q 2550 3084 2163 3084 
Q 1697 3084 1428 2787 
Q 1159 2491 1159 1978 
L 1159 0 
L 581 0 
L 581 4863 
L 1159 4863 
L 1159 2956 
Q 1366 3272 1645 3428 
Q 1925 3584 2291 3584 
Q 2894 3584 3203 3211 
Q 3513 2838 3513 2113 
z
" transform="scale(0.015625)"/>
       <path id="DejaVuSans-6f" d="M 1959 3097 
Q 1497 3097 1228 2736 
Q 959 2375 959 1747 
Q 959 1119 1226 758 
Q 1494 397 1959 397 
Q 2419 397 2687 759 
Q 2956 1122 2956 1747 
Q 2956 2369 2687 2733 
Q 2419 3097 1959 3097 
z
M 1959 3584 
Q 2709 3584 3137 3096 
Q 3566 2609 3566 1747 
Q 3566 888 3137 398 
Q 2709 -91 1959 -91 
Q 1206 -91 779 398 
Q 353 888 353 1747 
Q 353 2609 779 3096 
Q 1206 3584 1959 3584 
z
" transform="scale(0.015625)"/>
       <path id="DejaVuSans-6c" d="M 603 4863 
L 1178 4863 
L 1178 0 
L 603 0 
L 603 4863 
z
" transform="scale(0.015625)"/>
       <path id="DejaVuSans-69" d="M 603 3500 
L 1178 3500 
L 1178 0 
L 603 0 
L 603 3500 
z
M 603 4863 
L 1178 4863 
L 1178 4134 
L 603 4134 
L 603 4863 
z
" transform="scale(0.015625)"/>
       <path id="DejaVuSans-61" d="M 2194 1759 
Q 1497 1759 1228 1600 
Q 959 1441 959 1056 
Q 959 750 1161 570 
Q 1363 391 1709 391 
Q 2188 391 2477 730 
Q 2766 1069 2766 1631 
L 2766 1759 
L 2194 1759 
z
M 3341 1997 
L 3341 0 
L 2766 0 
L 2766 531 
Q 2569 213 2275 61 
Q 1981 -91 1556 -91 
Q 1019 -91 701 211 
Q 384 513 384 1019 
Q 384 1609 779 1909 
Q 1175 2209 1959 2209 
L 2766 2209 
L 2766 2266 
Q 2766 2663 2505 2880 
Q 2244 3097 1772 3097 
Q 1472 3097 1187 3025 
Q 903 2953 641 2809 
L 641 3341 
Q 956 3463 1253 3523 
Q 1550 3584 1831 3584 
Q 2591 3584 2966 3190 
Q 3341 2797 3341 1997 
z
" transform="scale(0.015625)"/>
       <path id="DejaVuSans-79" d="M 2059 -325 
Q 1816 -950 1584 -1140 
Q 1353 -1331 966 -1331 
L 506 -1331 
L 506 -850 
L 844 -850 
Q 1081 -850 1212 -737 
Q 1344 -625 1503 -206 
L 1606 56 
L 191 3500 
L 800 3500 
L 1894 763 
L 2988 3500 
L 3597 3500 
L 2059 -325 
z
" transform="scale(0.015625)"/>
      </defs>
      <use xlink:href="#DejaVuSans-68"/>
      <use xlink:href="#DejaVuSans-6f" x="63.378906"/>
      <use xlink:href="#DejaVuSans-6c" x="124.560547"/>
      <use xlink:href="#DejaVuSans-69" x="152.34375"/>
      <use xlink:href="#DejaVuSans-64" x="180.126953"/>
      <use xlink:href="#DejaVuSans-61" x="243.603516"/>
      <use xlink:href="#DejaVuSans-79" x="304.882812"/>
      <use xlink:href="#DejaVuSans-73" x="364.0625"/>
     </g>
    </g>
   </g>
   <g id="line2d_52">
    <path d="M 93.086085 237.707839 
L 102.927103 237.707839 
L 104.02055 151.893116 
L 105.113996 237.707839 
L 141.197731 237.707839 
L 142.291178 179.504088 
L 143.384624 237.707839 
L 248.35549 237.707839 
L 249.448936 236.423312 
L 250.542383 237.707839 
L 270.22442 237.707839 
L 271.317867 201.472451 
L 272.411313 236.504467 
L 273.50476 237.707839 
L 286.626118 237.707839 
L 287.719564 246.044856 
L 288.813011 237.707839 
L 355.513248 237.707839 
L 356.606695 233.610472 
L 357.700141 237.707839 
L 393.783876 237.707839 
L 394.877323 243.992891 
L 395.970769 237.707839 
L 428.774165 237.707839 
L 429.867611 241.157993 
L 430.961058 237.707839 
L 442.988969 237.707839 
L 444.082416 227.851364 
L 445.175862 237.707839 
L 476.885811 237.707839 
L 477.979258 249.750634 
L 479.072704 234.368561 
L 480.166151 237.707839 
L 500.941635 237.707839 
L 502.035081 151.893116 
L 503.128528 237.707839 
L 539.212263 237.707839 
L 540.305709 179.504088 
L 541.399156 237.707839 
L 550.146728 237.707839 
L 550.146728 237.707839 
" clip-path="url(#pac021700e1)" style="fill: none; stroke: #0072b2; stroke-width: 1.5; stroke-linecap: square"/>
   </g>
   <g id="patch_8">
    <path d="M 70.233052 254.64351 
L 70.233052 147.00024 
" style="fill: none; stroke: #000000; stroke-width: 0.8; stroke-linejoin: miter; stroke-linecap: square"/>
   </g>
   <g id="patch_9">
    <path d="M 572.99976 254.64351 
L 572.99976 147.00024 
" style="fill: none; stroke: #000000; stroke-width: 0.8; stroke-linejoin: miter; stroke-linecap: square"/>
   </g>
   <g id="patch_10">
    <path d="M 70.233052 254.64351 
L 572.99976 254.64351 
" style="fill: none; stroke: #000000; stroke-width: 0.8; stroke-linejoin: miter; stroke-linecap: square"/>
   </g>
   <g id="patch_11">
    <path d="M 70.233052 147.00024 
L 572.99976 147.00024 
" style="fill: none; stroke: #000000; stroke-width: 0.8; stroke-linejoin: miter; stroke-linecap: square"/>
   </g>
  </g>
  <g id="axes_3">
   <g id="patch_12">
    <path d="M 70.233052 398.64351 
L 572.99976 398.64351 
L 572.99976 291.00024 
L 70.233052 291.00024 
z
" style="fill: #ffffff"/>
   </g>
   <g id="PolyCollection_3">
    <defs>
     <path id="mf13645fb30" d="M 93.086085 -38.249366 
L 93.086085 -38.249366 
L 169.262859 -65.703403 
L 245.439632 -111.020076 
L 321.616406 -136.106884 
L 397.79318 -105.873635 
L 473.969954 -94.681619 
L 550.146728 -53.571785 
L 550.146728 -53.571785 
L 550.146728 -53.571785 
L 473.969954 -94.681619 
L 397.79318 -105.873635 
L 321.616406 -136.106884 
L 245.439632 -111.020076 
L 169.262859 -65.703403 
L 93.086085 -38.249366 
z
" style="stroke: #0072b2; stroke-opacity: 0.2"/>
    </defs>
    <g clip-path="url(#p10bdcc6357)">
     <use xlink:href="#mf13645fb30" x="0" y="432" style="fill: #0072b2; fill-opacity: 0.2; stroke: #0072b2; stroke-opacity: 0.2"/>
    </g>
   </g>
   <g id="matplotlib.axis_5">
    <g id="xtick_17">
     <g id="line2d_53">
      <path d="M 93.086085 398.64351 
L 93.086085 291.00024 
" clip-path="url(#p10bdcc6357)" style="fill: none; stroke: #808080; stroke-opacity: 0.2; stroke-linecap: square"/>
     </g>
     <g id="line2d_54">
      <g>
       <use xlink:href="#m16ff696167" x="93.086085" y="398.64351" style="stroke: #000000; stroke-width: 0.8"/>
      </g>
     </g>
     <g id="text_30">
      <!-- Sunday -->
      <g transform="translate(74.37671 413.241947) scale(0.1 -0.1)">
       <defs>
        <path id="DejaVuSans-53" d="M 3425 4513 
L 3425 3897 
Q 3066 4069 2747 4153 
Q 2428 4238 2131 4238 
Q 1616 4238 1336 4038 
Q 1056 3838 1056 3469 
Q 1056 3159 1242 3001 
Q 1428 2844 1947 2747 
L 2328 2669 
Q 3034 2534 3370 2195 
Q 3706 1856 3706 1288 
Q 3706 609 3251 259 
Q 2797 -91 1919 -91 
Q 1588 -91 1214 -16 
Q 841 59 441 206 
L 441 856 
Q 825 641 1194 531 
Q 1563 422 1919 422 
Q 2459 422 2753 634 
Q 3047 847 3047 1241 
Q 3047 1584 2836 1778 
Q 2625 1972 2144 2069 
L 1759 2144 
Q 1053 2284 737 2584 
Q 422 2884 422 3419 
Q 422 4038 858 4394 
Q 1294 4750 2059 4750 
Q 2388 4750 2728 4690 
Q 3069 4631 3425 4513 
z
" transform="scale(0.015625)"/>
        <path id="DejaVuSans-75" d="M 544 1381 
L 544 3500 
L 1119 3500 
L 1119 1403 
Q 1119 906 1312 657 
Q 1506 409 1894 409 
Q 2359 409 2629 706 
Q 2900 1003 2900 1516 
L 2900 3500 
L 3475 3500 
L 3475 0 
L 2900 0 
L 2900 538 
Q 2691 219 2414 64 
Q 2138 -91 1772 -91 
Q 1169 -91 856 284 
Q 544 659 544 1381 
z
M 1991 3584 
L 1991 3584 
z
" transform="scale(0.015625)"/>
       </defs>
       <use xlink:href="#DejaVuSans-53"/>
       <use xlink:href="#DejaVuSans-75" x="63.476562"/>
       <use xlink:href="#DejaVuSans-6e" x="126.855469"/>
       <use xlink:href="#DejaVuSans-64" x="190.234375"/>
       <use xlink:href="#DejaVuSans-61" x="253.710938"/>
       <use xlink:href="#DejaVuSans-79" x="314.990234"/>
      </g>
     </g>
    </g>
    <g id="xtick_18">
     <g id="line2d_55">
      <path d="M 169.262859 398.64351 
L 169.262859 291.00024 
" clip-path="url(#p10bdcc6357)" style="fill: none; stroke: #808080; stroke-opacity: 0.2; stroke-linecap: square"/>
     </g>
     <g id="line2d_56">
      <g>
       <use xlink:href="#m16ff696167" x="169.262859" y="398.64351" style="stroke: #000000; stroke-width: 0.8"/>
      </g>
     </g>
     <g id="text_31">
      <!-- Monday -->
      <g transform="translate(149.523015 413.241947) scale(0.1 -0.1)">
       <defs>
        <path id="DejaVuSans-4d" d="M 628 4666 
L 1569 4666 
L 2759 1491 
L 3956 4666 
L 4897 4666 
L 4897 0 
L 4281 0 
L 4281 4097 
L 3078 897 
L 2444 897 
L 1241 4097 
L 1241 0 
L 628 0 
L 628 4666 
z
" transform="scale(0.015625)"/>
       </defs>
       <use xlink:href="#DejaVuSans-4d"/>
       <use xlink:href="#DejaVuSans-6f" x="86.279297"/>
       <use xlink:href="#DejaVuSans-6e" x="147.460938"/>
       <use xlink:href="#DejaVuSans-64" x="210.839844"/>
       <use xlink:href="#DejaVuSans-61" x="274.316406"/>
       <use xlink:href="#DejaVuSans-79" x="335.595703"/>
      </g>
     </g>
    </g>
    <g id="xtick_19">
     <g id="line2d_57">
      <path d="M 245.439632 398.64351 
L 245.439632 291.00024 
" clip-path="url(#p10bdcc6357)" style="fill: none; stroke: #808080; stroke-opacity: 0.2; stroke-linecap: square"/>
     </g>
     <g id="line2d_58">
      <g>
       <use xlink:href="#m16ff696167" x="245.439632" y="398.64351" style="stroke: #000000; stroke-width: 0.8"/>
      </g>
     </g>
     <g id="text_32">
      <!-- Tuesday -->
      <g transform="translate(225.09432 413.241947) scale(0.1 -0.1)">
       <defs>
        <path id="DejaVuSans-54" d="M -19 4666 
L 3928 4666 
L 3928 4134 
L 2272 4134 
L 2272 0 
L 1638 0 
L 1638 4134 
L -19 4134 
L -19 4666 
z
" transform="scale(0.015625)"/>
       </defs>
       <use xlink:href="#DejaVuSans-54"/>
       <use xlink:href="#DejaVuSans-75" x="45.958984"/>
       <use xlink:href="#DejaVuSans-65" x="109.337891"/>
       <use xlink:href="#DejaVuSans-73" x="170.861328"/>
       <use xlink:href="#DejaVuSans-64" x="222.960938"/>
       <use xlink:href="#DejaVuSans-61" x="286.4375"/>
       <use xlink:href="#DejaVuSans-79" x="347.716797"/>
      </g>
     </g>
    </g>
    <g id="xtick_20">
     <g id="line2d_59">
      <path d="M 321.616406 398.64351 
L 321.616406 291.00024 
" clip-path="url(#p10bdcc6357)" style="fill: none; stroke: #808080; stroke-opacity: 0.2; stroke-linecap: square"/>
     </g>
     <g id="line2d_60">
      <g>
       <use xlink:href="#m16ff696167" x="321.616406" y="398.64351" style="stroke: #000000; stroke-width: 0.8"/>
      </g>
     </g>
     <g id="text_33">
      <!-- Wednesday -->
      <g transform="translate(292.667969 413.241947) scale(0.1 -0.1)">
       <defs>
        <path id="DejaVuSans-57" d="M 213 4666 
L 850 4666 
L 1831 722 
L 2809 4666 
L 3519 4666 
L 4500 722 
L 5478 4666 
L 6119 4666 
L 4947 0 
L 4153 0 
L 3169 4050 
L 2175 0 
L 1381 0 
L 213 4666 
z
" transform="scale(0.015625)"/>
       </defs>
       <use xlink:href="#DejaVuSans-57"/>
       <use xlink:href="#DejaVuSans-65" x="93.001953"/>
       <use xlink:href="#DejaVuSans-64" x="154.525391"/>
       <use xlink:href="#DejaVuSans-6e" x="218.001953"/>
       <use xlink:href="#DejaVuSans-65" x="281.380859"/>
       <use xlink:href="#DejaVuSans-73" x="342.904297"/>
       <use xlink:href="#DejaVuSans-64" x="395.003906"/>
       <use xlink:href="#DejaVuSans-61" x="458.480469"/>
       <use xlink:href="#DejaVuSans-79" x="519.759766"/>
      </g>
     </g>
    </g>
    <g id="xtick_21">
     <g id="line2d_61">
      <path d="M 397.79318 398.64351 
L 397.79318 291.00024 
" clip-path="url(#p10bdcc6357)" style="fill: none; stroke: #808080; stroke-opacity: 0.2; stroke-linecap: square"/>
     </g>
     <g id="line2d_62">
      <g>
       <use xlink:href="#m16ff696167" x="397.79318" y="398.64351" style="stroke: #000000; stroke-width: 0.8"/>
      </g>
     </g>
     <g id="text_34">
      <!-- Thursday -->
      <g transform="translate(374.543961 413.241947) scale(0.1 -0.1)">
       <use xlink:href="#DejaVuSans-54"/>
       <use xlink:href="#DejaVuSans-68" x="61.083984"/>
       <use xlink:href="#DejaVuSans-75" x="124.462891"/>
       <use xlink:href="#DejaVuSans-72" x="187.841797"/>
       <use xlink:href="#DejaVuSans-73" x="228.955078"/>
       <use xlink:href="#DejaVuSans-64" x="281.054688"/>
       <use xlink:href="#DejaVuSans-61" x="344.53125"/>
       <use xlink:href="#DejaVuSans-79" x="405.810547"/>
      </g>
     </g>
    </g>
    <g id="xtick_22">
     <g id="line2d_63">
      <path d="M 473.969954 398.64351 
L 473.969954 291.00024 
" clip-path="url(#p10bdcc6357)" style="fill: none; stroke: #808080; stroke-opacity: 0.2; stroke-linecap: square"/>
     </g>
     <g id="line2d_64">
      <g>
       <use xlink:href="#m16ff696167" x="473.969954" y="398.64351" style="stroke: #000000; stroke-width: 0.8"/>
      </g>
     </g>
     <g id="text_35">
      <!-- Friday -->
      <g transform="translate(458.814485 413.241947) scale(0.1 -0.1)">
       <defs>
        <path id="DejaVuSans-46" d="M 628 4666 
L 3309 4666 
L 3309 4134 
L 1259 4134 
L 1259 2759 
L 3109 2759 
L 3109 2228 
L 1259 2228 
L 1259 0 
L 628 0 
L 628 4666 
z
" transform="scale(0.015625)"/>
       </defs>
       <use xlink:href="#DejaVuSans-46"/>
       <use xlink:href="#DejaVuSans-72" x="50.269531"/>
       <use xlink:href="#DejaVuSans-69" x="91.382812"/>
       <use xlink:href="#DejaVuSans-64" x="119.166016"/>
       <use xlink:href="#DejaVuSans-61" x="182.642578"/>
       <use xlink:href="#DejaVuSans-79" x="243.921875"/>
      </g>
     </g>
    </g>
    <g id="xtick_23">
     <g id="line2d_65">
      <path d="M 550.146728 398.64351 
L 550.146728 291.00024 
" clip-path="url(#p10bdcc6357)" style="fill: none; stroke: #808080; stroke-opacity: 0.2; stroke-linecap: square"/>
     </g>
     <g id="line2d_66">
      <g>
       <use xlink:href="#m16ff696167" x="550.146728" y="398.64351" style="stroke: #000000; stroke-width: 0.8"/>
      </g>
     </g>
     <g id="text_36">
      <!-- Saturday -->
      <g transform="translate(527.613915 413.241947) scale(0.1 -0.1)">
       <use xlink:href="#DejaVuSans-53"/>
       <use xlink:href="#DejaVuSans-61" x="63.476562"/>
       <use xlink:href="#DejaVuSans-74" x="124.755859"/>
       <use xlink:href="#DejaVuSans-75" x="163.964844"/>
       <use xlink:href="#DejaVuSans-72" x="227.34375"/>
       <use xlink:href="#DejaVuSans-64" x="266.707031"/>
       <use xlink:href="#DejaVuSans-61" x="330.183594"/>
       <use xlink:href="#DejaVuSans-79" x="391.462891"/>
      </g>
     </g>
    </g>
    <g id="text_37">
     <!-- Day of week -->
     <g transform="translate(290.607812 426.920073) scale(0.1 -0.1)">
      <defs>
       <path id="DejaVuSans-44" d="M 1259 4147 
L 1259 519 
L 2022 519 
Q 2988 519 3436 956 
Q 3884 1394 3884 2338 
Q 3884 3275 3436 3711 
Q 2988 4147 2022 4147 
L 1259 4147 
z
M 628 4666 
L 1925 4666 
Q 3281 4666 3915 4102 
Q 4550 3538 4550 2338 
Q 4550 1131 3912 565 
Q 3275 0 1925 0 
L 628 0 
L 628 4666 
z
" transform="scale(0.015625)"/>
       <path id="DejaVuSans-20" transform="scale(0.015625)"/>
       <path id="DejaVuSans-66" d="M 2375 4863 
L 2375 4384 
L 1825 4384 
Q 1516 4384 1395 4259 
Q 1275 4134 1275 3809 
L 1275 3500 
L 2222 3500 
L 2222 3053 
L 1275 3053 
L 1275 0 
L 697 0 
L 697 3053 
L 147 3053 
L 147 3500 
L 697 3500 
L 697 3744 
Q 697 4328 969 4595 
Q 1241 4863 1831 4863 
L 2375 4863 
z
" transform="scale(0.015625)"/>
       <path id="DejaVuSans-77" d="M 269 3500 
L 844 3500 
L 1563 769 
L 2278 3500 
L 2956 3500 
L 3675 769 
L 4391 3500 
L 4966 3500 
L 4050 0 
L 3372 0 
L 2619 2869 
L 1863 0 
L 1184 0 
L 269 3500 
z
" transform="scale(0.015625)"/>
       <path id="DejaVuSans-6b" d="M 581 4863 
L 1159 4863 
L 1159 1991 
L 2875 3500 
L 3609 3500 
L 1753 1863 
L 3688 0 
L 2938 0 
L 1159 1709 
L 1159 0 
L 581 0 
L 581 4863 
z
" transform="scale(0.015625)"/>
      </defs>
      <use xlink:href="#DejaVuSans-44"/>
      <use xlink:href="#DejaVuSans-61" x="77.001953"/>
      <use xlink:href="#DejaVuSans-79" x="138.28125"/>
      <use xlink:href="#DejaVuSans-20" x="197.460938"/>
      <use xlink:href="#DejaVuSans-6f" x="229.248047"/>
      <use xlink:href="#DejaVuSans-66" x="290.429688"/>
      <use xlink:href="#DejaVuSans-20" x="325.634766"/>
      <use xlink:href="#DejaVuSans-77" x="357.421875"/>
      <use xlink:href="#DejaVuSans-65" x="439.208984"/>
      <use xlink:href="#DejaVuSans-65" x="500.732422"/>
      <use xlink:href="#DejaVuSans-6b" x="562.255859"/>
     </g>
    </g>
   </g>
   <g id="matplotlib.axis_6">
    <g id="ytick_10">
     <g id="line2d_67">
      <path d="M 70.233052 373.296553 
L 572.99976 373.296553 
" clip-path="url(#p10bdcc6357)" style="fill: none; stroke: #808080; stroke-opacity: 0.2; stroke-linecap: square"/>
     </g>
     <g id="line2d_68">
      <g>
       <use xlink:href="#m1505d464c2" x="70.233052" y="373.296553" style="stroke: #000000; stroke-width: 0.8"/>
      </g>
     </g>
     <g id="text_38">
      <!-- −2000 -->
      <g transform="translate(29.403365 377.095772) scale(0.1 -0.1)">
       <use xlink:href="#DejaVuSans-2212"/>
       <use xlink:href="#DejaVuSans-32" x="83.789062"/>
       <use xlink:href="#DejaVuSans-30" x="147.412109"/>
       <use xlink:href="#DejaVuSans-30" x="211.035156"/>
       <use xlink:href="#DejaVuSans-30" x="274.658203"/>
      </g>
     </g>
    </g>
    <g id="ytick_11">
     <g id="line2d_69">
      <path d="M 70.233052 345.54189 
L 572.99976 345.54189 
" clip-path="url(#p10bdcc6357)" style="fill: none; stroke: #808080; stroke-opacity: 0.2; stroke-linecap: square"/>
     </g>
     <g id="line2d_70">
      <g>
       <use xlink:href="#m1505d464c2" x="70.233052" y="345.54189" style="stroke: #000000; stroke-width: 0.8"/>
      </g>
     </g>
     <g id="text_39">
      <!-- 0 -->
      <g transform="translate(56.870553 349.341109) scale(0.1 -0.1)">
       <use xlink:href="#DejaVuSans-30"/>
      </g>
     </g>
    </g>
    <g id="ytick_12">
     <g id="line2d_71">
      <path d="M 70.233052 317.787227 
L 572.99976 317.787227 
" clip-path="url(#p10bdcc6357)" style="fill: none; stroke: #808080; stroke-opacity: 0.2; stroke-linecap: square"/>
     </g>
     <g id="line2d_72">
      <g>
       <use xlink:href="#m1505d464c2" x="70.233052" y="317.787227" style="stroke: #000000; stroke-width: 0.8"/>
      </g>
     </g>
     <g id="text_40">
      <!-- 2000 -->
      <g transform="translate(37.783052 321.586446) scale(0.1 -0.1)">
       <use xlink:href="#DejaVuSans-32"/>
       <use xlink:href="#DejaVuSans-30" x="63.623047"/>
       <use xlink:href="#DejaVuSans-30" x="127.246094"/>
       <use xlink:href="#DejaVuSans-30" x="190.869141"/>
      </g>
     </g>
    </g>
    <g id="text_41">
     <!-- weekly -->
     <g transform="translate(23.323677 362.307812) rotate(-90) scale(0.1 -0.1)">
      <use xlink:href="#DejaVuSans-77"/>
      <use xlink:href="#DejaVuSans-65" x="81.787109"/>
      <use xlink:href="#DejaVuSans-65" x="143.310547"/>
      <use xlink:href="#DejaVuSans-6b" x="204.833984"/>
      <use xlink:href="#DejaVuSans-6c" x="262.744141"/>
      <use xlink:href="#DejaVuSans-79" x="290.527344"/>
     </g>
    </g>
   </g>
   <g id="line2d_73">
    <path d="M 93.086085 393.750634 
L 169.262859 366.296597 
L 245.439632 320.979924 
L 321.616406 295.893116 
L 397.79318 326.126365 
L 473.969954 337.318381 
L 550.146728 378.428215 
" clip-path="url(#p10bdcc6357)" style="fill: none; stroke: #0072b2; stroke-width: 1.5; stroke-linecap: square"/>
   </g>
   <g id="patch_13">
    <path d="M 70.233052 398.64351 
L 70.233052 291.00024 
" style="fill: none; stroke: #000000; stroke-width: 0.8; stroke-linejoin: miter; stroke-linecap: square"/>
   </g>
   <g id="patch_14">
    <path d="M 572.99976 398.64351 
L 572.99976 291.00024 
" style="fill: none; stroke: #000000; stroke-width: 0.8; stroke-linejoin: miter; stroke-linecap: square"/>
   </g>
   <g id="patch_15">
    <path d="M 70.233052 398.64351 
L 572.99976 398.64351 
" style="fill: none; stroke: #000000; stroke-width: 0.8; stroke-linejoin: miter; stroke-linecap: square"/>
   </g>
   <g id="patch_16">
    <path d="M 70.233052 291.00024 
L 572.99976 291.00024 
" style="fill: none; stroke: #000000; stroke-width: 0.8; stroke-linejoin: miter; stroke-linecap: square"/>
   </g>
  </g>
 </g>
 <defs>
  <clipPath id="p4ebdd4e5a4">
   <rect x="70.233052" y="3.00024" width="502.766707" height="107.64327"/>
  </clipPath>
  <clipPath id="pac021700e1">
   <rect x="70.233052" y="147.00024" width="502.766707" height="107.64327"/>
  </clipPath>
  <clipPath id="p10bdcc6357">
   <rect x="70.233052" y="291.00024" width="502.766707" height="107.64327"/>
  </clipPath>
 </defs>
</svg>
