<svg xmlns:ed="https://www.edrawsoft.cn/xml/2017/SVGExtensions/" ed:name="页面-1" xmlns="http://www.w3.org/2000/svg" viewBox="0 0 1387 451" ed:hSpacing="30" xmlns:ev="http://www.w3.org/2001/xml-events" xmlns:xlink="http://www.w3.org/1999/xlink" ed:vSpacing="30" width="1387" height="451" id="page300000100"><style type="text/css"><![CDATA[
g[ed\:togtopicid],g[ed\:hyperlink],g[ed\:comment],g[ed\:note] {cursor:pointer;}
g[id] {-moz-user-select: none;-ms-user-select: none;user-select: none;}
svg text::selection,svg tspan::selection{background-color: #4285f4;color: #ffffff;fill: #ffffff;}
.st22 {fill:#000000;font-family:Times New Roman;font-size:14pt;font-weight:bold}
.st23 {fill:#000000;font-family:Times New Roman;font-size:14pt}
.st21 {fill:#000000;font-family:Times New Roman;font-size:15pt;font-weight:bold}
.st18 {fill:#000000;font-family:Times New Roman;font-size:18pt;font-weight:bold}
.st25 {fill:#303030;font-family:Times New Roman;font-size:14pt;font-weight:bold}
.st20 {fill:#303030;font-family:Times New Roman;font-size:15pt;font-weight:bold}
.st17 {fill:#303030;font-family:Times New Roman;font-size:18pt;font-weight:bold}
.st24 {fill:#303030;font-weight:bold}
.st19 {fill:#303030}
.st16 {fill:#ffffff;font-family:Times New Roman;font-size:24pt;font-weight:bold}
]]></style><defs/><rect x="0" fill="#ffffff" y="0" width="1387" height="451"/><path d="M-21.3,-36.6C6.3,21.2,70.1,90.2,154.8,90.2" stroke-width="3" stroke-linecap="round" fill="none" stroke="#454545" stroke-linejoin="round" ed:tosuperid="102" transform="matrix(1,0,0,1,424.51,313.57)" ed:parentid="101" id="103"/><path d="M-21.3,36.6C6.3,-21.2,70.1,-90.2,154.8,-90.2" stroke-width="3" stroke-linecap="round" fill="none" stroke="#454545" stroke-linejoin="round" ed:tosuperid="104" transform="matrix(1,0,0,1,424.51,133.13)" ed:parentid="101" id="105"/><path d="M78.7,7.3C97.4,18.6,123.6,27.8,154.8,27.8" stroke-width="3" stroke-linecap="round" fill="none" stroke="#454545" stroke-linejoin="round" ed:tosuperid="106" transform="matrix(1,0,0,1,424.51,251.12)" ed:parentid="101" id="107"/><path d="M58.6,-11.1C82.5,-26.3,115.5,-38.5,154.8,-38.5" stroke-width="3" stroke-linecap="round" fill="none" stroke="#454545" stroke-linejoin="round" ed:tosuperid="108" transform="matrix(1,0,0,1,424.51,184.82)" ed:parentid="101" id="109"/><path d="M-21.6,9L-10.6,9C5.7,-9,5.7,-9,21.6,-9" stroke-linecap="round" fill="none" stroke="#454545" stroke-linejoin="round" ed:tosuperid="112" transform="matrix(1,0,0,1,907.94,137.3)" ed:parentid="108" id="113"/><path d="M-21.6,16.4L-10.6,16.4C5.7,-16.4,5.7,-16.4,21.6,-16.4" stroke-linecap="round" fill="none" stroke="#454545" stroke-linejoin="round" ed:tosuperid="114" transform="matrix(1,0,0,1,916.74,262.5)" ed:parentid="106" id="115"/><path d="M-10.6,-16.4C5.7,16.4,5.7,16.4,21.6,16.4" stroke-linecap="round" fill="none" stroke="#454545" stroke-linejoin="round" ed:tosuperid="116" transform="matrix(1,0,0,1,916.74,295.3)" ed:parentid="106" id="117"/><path d="M-21.6,16.4L-10.6,16.4C5.7,-16.4,5.7,-16.4,21.6,-16.4" stroke-linecap="round" fill="none" stroke="#454545" stroke-linejoin="round" ed:tosuperid="118" transform="matrix(1,0,0,1,1172.34,295.3)" ed:parentid="116" id="119"/><path d="M-10.6,0C5.7,0,5.7,0,21.6,0" stroke-linecap="round" fill="none" stroke="#454545" stroke-linejoin="round" ed:tosuperid="120" transform="matrix(1,0,0,1,1172.34,311.7)" ed:parentid="116" id="121"/><path d="M-10.6,-16.4C5.7,16.4,5.7,16.4,21.6,16.4" stroke-linecap="round" fill="none" stroke="#454545" stroke-linejoin="round" ed:tosuperid="122" transform="matrix(1,0,0,1,1172.34,328.1)" ed:parentid="116" id="123"/><path d="M-10.6,-9C5.7,9,5.7,9,21.6,9" stroke-linecap="round" fill="none" stroke="#454545" stroke-linejoin="round" ed:tosuperid="124" transform="matrix(1,0,0,1,907.94,155.3)" ed:parentid="108" id="125"/><path d="M-21.6,0L-10.6,0C5.7,0,5.7,0,21.6,0" stroke-linecap="round" fill="none" stroke="#454545" stroke-linejoin="round" ed:tosuperid="126" transform="matrix(1,0,0,1,799.14,403.8)" ed:parentid="102" id="127"/><g ed:topictype="mainidea" ed:width="493.3439999999999" ed:height="107.2" ed:layout="map" transform="matrix(1,0,0,1,23,169.75)" id="101"><path d="M53.6,0L439.7,0C469.3,0,493.3,24,493.3,53.6C493.3,83.2,469.3,107.2,439.7,107.2L53.6,107.2C24,107.2,0,83.2,0,53.6C0,24,24,0,53.6,0z" stroke-width="3" fill="#00af54" stroke="#00af54" stroke-linejoin="round"/><text class="st16"><tspan x="132" textLength="228" y="46.5" style="white-space:pre">Uncertainties Of</tspan><tspan x="42" textLength="414" y="84.1" style="white-space:pre">Distribution Prediction Model</tspan></text></g><g ed:width="198.2" ed:height="45.8" ed:layout="rightmap" transform="matrix(1,0,0,1,579.34,380.9)" ed:parentid="101" id="102"><path d="M4,0L194.2,0C196.9,0,198.2,1.3,198.2,4L198.2,41.8C198.2,44.5,196.9,45.8,194.2,45.8L4,45.8C1.3,45.8,0,44.5,0,41.8L0,4C0,1.3,1.3,0,4,0z" stroke-width="2" fill="#ffffff" stroke="#454545" stroke-linejoin="round"/><text class="st17"><tspan x="18" textLength="168" y="31.8" style="white-space:pre">prediction error</tspan></text></g><g ed:width="391" ed:height="45.8" ed:layout="rightmap" transform="matrix(1,0,0,1,579.34,20)" ed:parentid="101" id="104"><path d="M4,0L387,0C389.7,0,391,1.3,391,4L391,41.8C391,44.5,389.7,45.8,387,45.8L4,45.8C1.3,45.8,0,44.5,0,41.8L0,4C0,1.3,1.3,0,4,0z" stroke-width="2" fill="#ffffff" stroke="#454545" stroke-linejoin="round"/><text class="st18"><tspan class="st19" x="18" textLength="363" y="31.8" style="white-space:pre">Uncertainties Of Variable Selection</tspan></text></g><g ed:width="315.8" ed:height="45.8" ed:layout="rightmap" transform="matrix(1,0,0,1,579.34,256)" ed:parentid="101" id="106"><path d="M4,0L311.8,0C314.5,0,315.8,1.3,315.8,4L315.8,41.8C315.8,44.5,314.5,45.8,311.8,45.8L4,45.8C1.3,45.8,0,44.5,0,41.8L0,4C0,1.3,1.3,0,4,0z" stroke-width="2" fill="#ffffff" stroke="#454545" stroke-linejoin="round"/><text class="st18"><tspan class="st19" x="18" textLength="281" y="31.8" style="white-space:pre">Uncertainties Of input data</tspan></text></g><g ed:width="307" ed:height="74.59999999999999" ed:layout="rightmap" transform="matrix(1,0,0,1,579.34,109)" ed:parentid="101" id="108"><path d="M4,0L303,0C305.7,0,307,1.3,307,4L307,70.6C307,73.3,305.7,74.6,303,74.6L4,74.6C1.3,74.6,0,73.3,0,70.6L0,4C0,1.3,1.3,0,4,0z" stroke-width="2" fill="#ffffff" stroke="#454545" stroke-linejoin="round"/><text class="st18"><tspan class="st19" x="18" textLength="214" y="31.8" style="white-space:pre">Uncertainties Of the </tspan><tspan class="st19" x="18" textLength="275" y="60.6" style="white-space:pre">Dirchlet Regression Model</tspan></text></g><g ed:width="318" ed:height="29.5" ed:layout="rightmap" transform="matrix(1,0,0,1,929.54,98.8)" ed:parentid="108" id="112"><path d="M0,0L318,0L318,29.5L0,29.5L0,0z" fill="#ffffff"/><path d="M0,29.5L318,29.5" fill="none" stroke="#454545" stroke-linejoin="round"/><text class="st20"><tspan x="8" textLength="297" y="22.75" style="white-space:pre">Selection of appropriate predictors </tspan></text></g><g ed:width="340.4" ed:height="29.5" ed:layout="rightmap" transform="matrix(1,0,0,1,938.34,216.6)" ed:parentid="106" id="114"><path d="M0,0L340.4,0L340.4,29.5L0,29.5L0,0z" fill="#ffffff"/><path d="M0,29.5L340.4,29.5" fill="none" stroke="#454545" stroke-linejoin="round"/><text class="st21"><tspan class="st19" x="8" textLength="320" y="22.75" style="white-space:pre">Uncertainties of parameter estimation</tspan></text></g><g ed:width="212.4" ed:height="29.5" ed:layout="rightmap" transform="matrix(1,0,0,1,938.34,282.2)" ed:parentid="106" id="116"><path d="M0,0L212.4,0L212.4,29.5L0,29.5L0,0z" fill="#ffffff"/><path d="M0,29.5L212.4,29.5" fill="none" stroke="#454545" stroke-linejoin="round"/><text class="st20"><tspan x="8" textLength="189" y="22.75" style="white-space:pre">Data quality problems </tspan></text></g><g ed:width="172.4" ed:height="26.3" ed:layout="rightmap" transform="matrix(1,0,0,1,1193.94,252.6)" ed:parentid="116" id="118"><path d="M0,0L172.4,0L172.4,26.3L0,26.3L0,0z" fill="#ffffff"/><path d="M0,26.3L172.4,26.3" fill="none" stroke="#454545" stroke-linejoin="round"/><text class="st22"><tspan class="st19" x="8" textLength="159" y="19.55" style="white-space:pre">insufficient samples</tspan></text></g><g ed:width="109.2" ed:height="26.3" ed:layout="rightmap" transform="matrix(1,0,0,1,1193.94,285.4)" ed:parentid="116" id="120"><path d="M0,0L109.2,0L109.2,26.3L0,26.3L0,0z" fill="#ffffff"/><path d="M0,26.3L109.2,26.3" fill="none" stroke="#454545" stroke-linejoin="round"/><text class="st22"><tspan class="st19" x="8" textLength="95" y="19.55" style="white-space:pre">sample bias</tspan></text></g><g ed:width="81.2" ed:height="26.3" ed:layout="rightmap" transform="matrix(1,0,0,1,1193.94,318.2)" ed:parentid="116" id="122"><path d="M0,0L81.2,0L81.2,26.3L0,26.3L0,0z" fill="#ffffff"/><path d="M0,26.3L81.2,26.3" fill="none" stroke="#454545" stroke-linejoin="round"/><text class="st23"><tspan class="st24" x="8" textLength="66" y="19.55" style="white-space:pre"> outliers</tspan></text></g><g ed:width="237.2" ed:height="29.5" ed:layout="rightmap" transform="matrix(1,0,0,1,929.54,134.8)" ed:parentid="108" id="124"><path d="M0,0L237.2,0L237.2,29.5L0,29.5L0,0z" fill="#ffffff"/><path d="M0,29.5L237.2,29.5" fill="none" stroke="#454545" stroke-linejoin="round"/><text class="st21"><tspan class="st19" x="8" textLength="216" y="22.75" style="white-space:pre">Selection of link functions</tspan></text></g><g ed:width="174" ed:height="26.3" ed:layout="rightmap" transform="matrix(1,0,0,1,820.74,377.5)" ed:parentid="102" id="126"><path d="M0,0L174,0L174,26.3L0,26.3L0,0z" fill="#ffffff"/><path d="M0,26.3L174,26.3" fill="none" stroke="#454545" stroke-linejoin="round"/><text class="st25"><tspan x="8" textLength="157" y="19.55" style="white-space:pre">unit-sum constraint</tspan></text></g></svg>