<?xml version="1.0" encoding="utf-8" standalone="no"?>
<!DOCTYPE svg PUBLIC "-//W3C//DTD SVG 1.1//EN"
  "http://www.w3.org/Graphics/SVG/1.1/DTD/svg11.dtd">
<svg xmlns:xlink="http://www.w3.org/1999/xlink" width="515.92pt" height="410.67pt" viewBox="0 0 515.92 410.67" xmlns="http://www.w3.org/2000/svg" version="1.1">
 <metadata>
  <rdf:RDF xmlns:dc="http://purl.org/dc/elements/1.1/" xmlns:cc="http://creativecommons.org/ns#" xmlns:rdf="http://www.w3.org/1999/02/22-rdf-syntax-ns#">
   <cc:Work>
    <dc:type rdf:resource="http://purl.org/dc/dcmitype/StillImage"/>
    <dc:date>2022-09-18T00:28:56.034635</dc:date>
    <dc:format>image/svg+xml</dc:format>
    <dc:creator>
     <cc:Agent>
      <dc:title>Matplotlib v3.5.1, https://matplotlib.org/</dc:title>
     </cc:Agent>
    </dc:creator>
   </cc:Work>
  </rdf:RDF>
 </metadata>
 <defs>
  <style type="text/css">*{stroke-linejoin: round; stroke-linecap: butt}</style>
 </defs>
 <g id="figure_1">
  <g id="patch_1">
   <path d="M 0 410.67 
L 515.92 410.67 
L 515.92 0 
L 0 0 
z
" style="fill: #ffffff"/>
  </g>
  <g id="axes_1">
   <g id="matplotlib.axis_1"/>
   <g id="matplotlib.axis_2"/>
   <g id="patch_2">
    <path d="M 65.644005 137.106 
C 56.219955 153.428934 49.9093 171.361258 47.033781 189.988719 
C 44.158262 208.61618 44.76759 227.61674 48.830701 246.021686 
C 52.893812 264.426633 60.340461 281.917774 70.790992 297.60335 
C 81.241522 313.288927 94.515263 326.897762 109.935472 337.736031 
C 125.355681 348.574299 142.65577 356.454625 160.953719 360.975242 
C 179.251667 365.495859 198.231136 366.578613 216.924486 364.168302 
C 235.617835 361.757992 253.701889 355.896286 270.254659 346.882035 
C 286.807428 337.867784 301.542745 325.85683 313.709352 311.461532 
C 325.875958 297.066234 335.263513 280.535463 341.393408 262.712015 
C 347.523302 244.888566 350.28956 226.080578 349.551148 207.246947 
C 348.812736 188.413316 344.58242 169.879644 337.075876 152.590841 
C 329.569332 135.302038 318.916336 119.556999 305.660014 106.15846 
C 292.403692 92.759921 276.773224 81.939521 259.565505 74.248921 
C 242.357787 66.558321 223.87031 62.130479 205.04563 61.191141 
C 186.220951 60.251803 167.384516 62.81721 149.496672 68.756566 
C 131.608829 74.695923 114.978827 83.90655 100.454523 95.918855 
L 197.46 213.21 
L 65.644005 137.106 
z
" style="fill: #1f77b4"/>
   </g>
   <g id="patch_3">
    <path d="M 95.256475 90.360214 
C 92.876449 92.328611 90.556887 94.368994 88.301012 96.478529 
C 86.045136 98.588064 83.853992 100.765773 81.730622 103.008632 
L 192.261953 207.651359 
L 95.256475 90.360214 
z
" style="fill: #98df8a"/>
   </g>
   <g id="patch_4">
    <path d="M 81.151209 103.613574 
C 79.433123 105.428343 77.759991 107.285149 76.133335 109.182305 
C 74.506679 111.07946 72.926993 113.016389 71.395714 114.99133 
L 191.68254 208.2563 
L 81.151209 103.613574 
z
" style="fill: #ff9896"/>
   </g>
   <g id="patch_5">
    <path d="M 77.173174 119.945029 
C 76.320132 121.045225 75.482225 122.157072 74.659688 123.280257 
C 73.837152 124.403442 73.030064 125.537858 72.238652 126.683187 
L 197.46 213.21 
L 77.173174 119.945029 
z
" style="fill: #ffbb78"/>
   </g>
   <g id="patch_6">
    <path d="M 72.238652 126.683187 
C 71.744404 127.398462 71.256293 128.117959 70.774373 128.841598 
C 70.292454 129.565237 69.816743 130.292992 69.347294 131.024783 
L 197.46 213.21 
L 72.238652 126.683187 
z
" style="fill: #ff7f0e"/>
   </g>
   <g id="patch_7">
    <path d="M 69.347294 131.024783 
C 69.105371 131.4019 68.865114 131.780084 68.62653 132.159323 
C 68.387946 132.538562 68.151038 132.918853 67.915812 133.300184 
L 197.46 213.21 
L 69.347294 131.024783 
z
" style="fill: #8c564b"/>
   </g>
   <g id="patch_8">
    <path d="M 67.915812 133.300184 
C 67.693188 133.661087 67.472073 134.022918 67.252473 134.385669 
C 67.032873 134.74842 66.81479 135.112086 66.598229 135.47666 
L 197.46 213.21 
L 67.915812 133.300184 
z
" style="fill: #d62728"/>
   </g>
   <g id="patch_9">
    <path d="M 66.598229 135.47666 
C 66.437511 135.747224 66.277633 136.018285 66.118596 136.28984 
C 65.95956 136.561396 65.801366 136.833444 65.644017 137.105981 
L 197.46 213.21 
L 66.598229 135.47666 
z
" style="fill: #2ca02c"/>
   </g>
   <g id="patch_10">
    <path d="M 65.644017 137.105981 
C 65.644017 137.105981 65.644017 137.105981 65.644017 137.105981 
L 197.46 213.21 
L 65.644017 137.105981 
z
" style="fill: #aec7e8"/>
   </g>
   <g id="patch_11">
    <path d="M 65.644017 137.105981 
C 65.644017 137.105981 65.644017 137.105981 65.644017 137.105981 
L 197.46 213.21 
L 65.644017 137.105981 
z
" style="fill: #9467bd"/>
   </g>
   <g id="patch_12">
    <path d="M 65.644017 137.105981 
C 65.644017 137.105981 65.644017 137.105981 65.644017 137.105981 
L 197.46 213.21 
L 65.644017 137.105981 
z
" style="fill: #c5b0d5"/>
   </g>
   <g id="patch_13">
    <path d="M 65.644017 137.105981 
C 65.644017 137.105981 65.644017 137.105981 65.644017 137.105981 
L 197.46 213.21 
L 65.644017 137.105981 
z
" style="fill: #c49c94"/>
   </g>
   <g id="patch_14">
    <path d="M 65.644017 137.105981 
C 65.644017 137.105981 65.644017 137.105981 65.644017 137.105981 
L 197.46 213.21 
L 65.644017 137.105981 
z
" style="fill: #e377c2"/>
   </g>
   <g id="patch_15">
    <path d="M 65.644017 137.105981 
C 65.644017 137.105981 65.644017 137.105981 65.644017 137.105981 
L 197.46 213.21 
L 65.644017 137.105981 
z
" style="fill: #f7b6d2"/>
   </g>
   <g id="text_1">
    <!-- 风化高钾各化学成分含量的饼状图 -->
    <g style="fill: #262626" transform="translate(107.46 16.95)scale(0.12 -0.12)">
     <defs>
      <path id="SimHei-98ce" d="M 5100 4950 
Q 5050 3950 5062 3137 
Q 5075 2325 5087 1825 
Q 5100 1325 5262 712 
Q 5425 100 5525 150 
Q 5625 200 5700 775 
Q 5925 550 6200 450 
Q 5950 -475 5687 -562 
Q 5425 -650 5175 -337 
Q 4925 -25 4787 575 
Q 4650 1175 4625 1862 
Q 4600 2550 4600 4500 
L 1500 4500 
Q 1500 2475 1437 1825 
Q 1375 1175 1187 525 
Q 1000 -125 625 -675 
Q 400 -425 275 -275 
Q 600 150 775 737 
Q 950 1325 1000 2062 
Q 1050 2800 1050 3675 
Q 1050 4550 1025 4950 
L 5100 4950 
z
M 4225 3625 
Q 4075 3425 3875 2950 
Q 3675 2475 3475 2100 
Q 4025 1200 4350 525 
Q 4100 400 3925 275 
Q 3750 700 3225 1625 
Q 2950 1250 2650 925 
Q 2350 600 1950 250 
Q 1750 525 1600 625 
Q 2000 875 2375 1287 
Q 2750 1700 2950 2025 
Q 2450 2825 1850 3450 
Q 2075 3600 2200 3750 
Q 2700 3175 3200 2475 
Q 3475 3000 3725 3925 
L 4225 3625 
z
" transform="scale(0.015625)"/>
      <path id="SimHei-5316" d="M 3925 5025 
Q 3900 4900 3900 4400 
L 3900 2625 
Q 4375 3025 4775 3450 
Q 5175 3875 5400 4300 
Q 5600 4100 5900 3925 
Q 5700 3700 5225 3212 
Q 4750 2725 4487 2512 
Q 4225 2300 3900 2025 
L 3900 450 
Q 3900 50 4225 50 
L 5200 50 
Q 5400 75 5462 262 
Q 5525 450 5575 850 
Q 5800 650 6150 600 
Q 6000 -100 5825 -250 
Q 5650 -400 5350 -400 
L 3950 -400 
Q 3425 -400 3400 200 
L 3400 1675 
Q 3225 1525 2962 1350 
Q 2700 1175 2375 975 
Q 2225 1225 2025 1400 
Q 2350 1550 2737 1787 
Q 3125 2025 3400 2250 
L 3400 4500 
Q 3400 4800 3375 5025 
L 3925 5025 
z
M 2400 4850 
Q 2175 4550 2075 4337 
Q 1975 4125 1825 3775 
L 1825 675 
Q 1825 -75 1850 -550 
L 1325 -550 
Q 1350 -125 1350 650 
L 1350 3050 
Q 1125 2725 962 2525 
Q 800 2325 675 2175 
Q 500 2375 275 2525 
Q 625 2850 875 3212 
Q 1125 3575 1312 3912 
Q 1500 4250 1625 4575 
Q 1750 4900 1825 5100 
Q 1975 4975 2400 4850 
z
" transform="scale(0.015625)"/>
      <path id="SimHei-9ad8" d="M 5825 -25 
Q 5850 -400 5550 -500 
Q 5250 -600 4975 -625 
Q 4875 -325 4725 -100 
Q 4975 -100 5175 -87 
Q 5375 -75 5350 250 
L 5350 1825 
L 1100 1825 
L 1100 -575 
L 600 -575 
Q 625 -225 625 850 
Q 625 1950 600 2200 
L 5850 2200 
Q 5825 1850 5825 1425 
L 5825 -25 
z
M 4925 3800 
Q 4900 3475 4900 3175 
Q 4900 2900 4925 2600 
L 1400 2600 
Q 1425 2825 1425 3175 
Q 1425 3525 1400 3800 
L 4925 3800 
z
M 4500 1400 
Q 4475 1125 4475 800 
Q 4475 500 4500 200 
L 1950 200 
Q 2000 500 2000 800 
Q 2000 1125 1950 1400 
L 4500 1400 
z
M 425 4600 
Q 750 4575 1125 4575 
L 2925 4575 
Q 2850 4875 2750 5100 
Q 3050 5125 3350 5200 
Q 3400 4950 3525 4575 
L 5250 4575 
Q 5600 4575 5975 4600 
L 5975 4150 
Q 5600 4175 5050 4175 
L 1150 4175 
Q 750 4175 425 4150 
L 425 4600 
z
M 4450 2975 
L 4450 3425 
L 1900 3425 
L 1900 2975 
L 4450 2975 
z
M 4025 550 
L 4025 1050 
L 2400 1050 
L 2400 550 
L 4025 550 
z
" transform="scale(0.015625)"/>
      <path id="SimHei-94be" d="M 5775 4775 
Q 5750 4325 5750 3775 
L 5750 2075 
Q 5750 1625 5775 1200 
L 5300 1200 
L 5300 1450 
L 4475 1450 
L 4475 550 
Q 4475 125 4500 -575 
L 4000 -575 
Q 4025 150 4025 550 
L 4025 1450 
L 3225 1450 
L 3225 1150 
L 2750 1150 
Q 2775 1625 2775 2075 
L 2775 3800 
Q 2775 4300 2750 4775 
L 5775 4775 
z
M 1800 5000 
Q 1525 4525 1375 4225 
L 1675 4225 
Q 1975 4225 2400 4250 
L 2400 3775 
Q 1950 3800 1675 3800 
L 1150 3800 
Q 925 3425 775 3200 
Q 1150 3175 1525 3175 
Q 1900 3175 2350 3200 
L 2350 2750 
Q 1900 2775 1650 2775 
L 1650 2000 
L 1800 2000 
Q 2050 2000 2450 2025 
L 2450 1575 
Q 2000 1600 1650 1600 
L 1650 325 
Q 1975 600 2200 850 
Q 2300 625 2475 400 
Q 2200 225 1900 -25 
Q 1600 -275 1425 -475 
Q 1225 -250 1050 -75 
Q 1150 25 1200 200 
L 1200 1600 
Q 850 1600 475 1575 
L 475 2025 
Q 875 2000 1200 2000 
L 1200 2775 
Q 1050 2775 700 2750 
L 700 3075 
L 575 2900 
Q 425 3075 200 3250 
Q 500 3550 812 4125 
Q 1125 4700 1275 5200 
Q 1475 5125 1800 5000 
z
M 5300 3300 
L 5300 4375 
L 4475 4375 
L 4475 3300 
L 5300 3300 
z
M 5300 1850 
L 5300 2900 
L 4475 2900 
L 4475 1850 
L 5300 1850 
z
M 4025 3300 
L 4025 4375 
L 3225 4375 
L 3225 3300 
L 4025 3300 
z
M 4025 1850 
L 4025 2900 
L 3225 2900 
L 3225 1850 
L 4025 1850 
z
" transform="scale(0.015625)"/>
      <path id="SimHei-5404" d="M 5100 4425 
Q 4850 4000 4525 3600 
Q 4200 3200 3675 2750 
Q 4050 2500 4750 2325 
Q 5450 2150 6050 2125 
Q 5825 1825 5775 1600 
Q 5050 1750 4412 1962 
Q 3775 2175 3300 2475 
Q 2750 2150 2000 1875 
Q 1250 1600 550 1425 
Q 475 1625 275 1850 
Q 900 1950 1662 2200 
Q 2425 2450 2950 2750 
Q 2525 3150 2100 3900 
Q 1900 3575 1675 3300 
Q 1450 3025 1250 2800 
Q 1050 3000 850 3100 
Q 1200 3400 1587 3950 
Q 1975 4500 2175 5225 
Q 2450 5075 2725 5000 
Q 2600 4850 2375 4425 
L 5100 4425 
z
M 4975 1675 
Q 4950 1125 4950 400 
Q 4950 -325 4975 -575 
L 4475 -575 
L 4475 -225 
L 2050 -225 
L 2050 -625 
L 1550 -625 
Q 1575 -275 1575 400 
Q 1575 1075 1550 1675 
L 4975 1675 
z
M 4475 200 
L 4475 1250 
L 2050 1250 
L 2050 200 
L 4475 200 
z
M 3325 3000 
Q 3875 3450 4300 4025 
L 2500 4025 
Q 2975 3275 3325 3000 
z
" transform="scale(0.015625)"/>
      <path id="SimHei-5b66" d="M 4875 2675 
L 4875 2150 
Q 4525 2075 4237 1912 
Q 3950 1750 3575 1575 
L 3575 1350 
L 5150 1350 
Q 5450 1350 5925 1375 
L 5925 875 
Q 5425 900 5150 900 
L 3575 900 
L 3575 -125 
Q 3575 -475 3300 -562 
Q 3025 -650 2400 -700 
Q 2325 -425 2150 -150 
L 2825 -150 
Q 3075 -150 3075 125 
L 3075 900 
L 1350 900 
Q 950 900 450 875 
L 450 1375 
Q 975 1350 1325 1350 
L 3075 1350 
Q 3075 1550 3025 1800 
L 3925 2250 
L 2550 2250 
Q 2075 2250 1475 2225 
L 1475 2700 
Q 2025 2675 2525 2675 
L 4875 2675 
z
M 5350 4975 
Q 4850 4400 4500 3800 
L 5875 3800 
Q 5850 3575 5850 3275 
Q 5850 2975 5875 2700 
L 5350 2700 
L 5350 3375 
L 1025 3375 
L 1025 2675 
L 500 2675 
Q 525 2975 525 3275 
Q 525 3575 500 3800 
L 3975 3800 
Q 4175 4150 4387 4537 
Q 4600 4925 4725 5300 
Q 5125 5075 5350 4975 
z
M 2950 5225 
Q 3425 4625 3575 4350 
Q 3350 4175 3100 4025 
Q 2900 4425 2500 4925 
Q 2750 5100 2950 5225 
z
M 1250 5050 
Q 1700 4675 2025 4275 
Q 1750 4075 1600 3900 
Q 1275 4375 850 4725 
Q 1125 4925 1250 5050 
z
" transform="scale(0.015625)"/>
      <path id="SimHei-6210" d="M 3500 4000 
Q 3475 4725 3450 5225 
Q 3750 5200 4025 5175 
Q 3975 4850 4000 4000 
L 4725 4000 
Q 5250 4000 5875 4025 
L 5875 3550 
Q 5225 3575 4725 3575 
L 4025 3575 
Q 4050 2625 4350 1500 
Q 4825 2225 5100 3175 
Q 5350 2975 5675 2825 
Q 5475 2600 5225 2075 
Q 4975 1550 4575 975 
Q 4800 525 5062 262 
Q 5325 0 5425 37 
Q 5525 75 5625 900 
Q 5875 700 6150 600 
Q 5975 -425 5762 -537 
Q 5550 -650 5250 -537 
Q 4950 -425 4687 -112 
Q 4425 200 4250 575 
Q 3650 -75 2725 -650 
Q 2600 -425 2350 -250 
Q 2850 -25 3312 350 
Q 3775 725 4000 1050 
Q 3825 1525 3700 2212 
Q 3575 2900 3550 3575 
L 1400 3575 
L 1400 2700 
L 3025 2700 
Q 2975 2250 2950 1775 
L 2875 775 
Q 2850 300 2612 200 
Q 2375 100 1800 50 
Q 1775 275 1600 600 
Q 2225 575 2325 675 
Q 2425 775 2450 1250 
L 2500 2250 
L 1400 2250 
Q 1400 1275 1250 625 
Q 1100 -25 700 -575 
Q 425 -375 200 -300 
Q 525 100 650 462 
Q 775 825 837 1250 
Q 900 1675 912 2450 
Q 925 3225 900 4000 
L 3500 4000 
z
M 4750 5225 
Q 5250 4825 5625 4425 
Q 5400 4250 5225 4075 
Q 4925 4475 4425 4900 
Q 4600 5050 4750 5225 
z
" transform="scale(0.015625)"/>
      <path id="SimHei-5206" d="M 1000 -650 
Q 825 -375 575 -225 
Q 975 -75 1300 137 
Q 1625 350 1875 662 
Q 2125 975 2250 1350 
Q 2375 1725 2425 2275 
Q 1850 2275 1500 2250 
L 1500 2775 
Q 1900 2750 2525 2750 
L 5025 2750 
Q 4975 2375 4950 2100 
L 4750 250 
Q 4700 -200 4350 -350 
Q 4000 -500 3575 -525 
Q 3550 -275 3325 50 
Q 3850 25 4037 87 
Q 4225 150 4275 525 
L 4450 2275 
L 2950 2275 
Q 2875 1625 2737 1187 
Q 2600 750 2350 425 
Q 2100 100 1750 -175 
Q 1400 -450 1000 -650 
z
M 3950 5175 
Q 4125 4650 4662 3975 
Q 5200 3300 6175 2800 
Q 5975 2625 5775 2275 
Q 5325 2600 4987 2887 
Q 4650 3175 4425 3425 
Q 4200 3675 3925 4137 
Q 3650 4600 3475 5000 
Q 3750 5075 3950 5175 
z
M 2700 4825 
Q 2475 4425 2325 4125 
Q 2175 3825 2025 3587 
Q 1875 3350 1575 2950 
Q 1275 2550 850 2125 
Q 625 2350 400 2475 
Q 900 2925 1187 3300 
Q 1475 3675 1737 4112 
Q 2000 4550 2200 5075 
Q 2400 4925 2700 4825 
z
" transform="scale(0.015625)"/>
      <path id="SimHei-542b" d="M 4525 -575 
L 4525 -200 
L 1850 -200 
L 1850 -625 
L 1325 -625 
Q 1350 -275 1350 275 
Q 1350 850 1325 1450 
L 5050 1450 
Q 5025 1175 5025 425 
Q 5025 -300 5050 -575 
L 4525 -575 
z
M 3350 4850 
Q 3625 4525 4325 4062 
Q 5025 3600 6150 3300 
Q 5850 3075 5750 2750 
Q 5050 3025 4337 3462 
Q 3625 3900 3125 4500 
Q 2500 3800 1912 3387 
Q 1325 2975 625 2650 
Q 550 2850 275 3100 
Q 1100 3325 1862 3925 
Q 2625 4525 2975 5275 
Q 3325 5150 3525 5050 
L 3350 4850 
z
M 4525 200 
L 4525 1050 
L 1850 1050 
L 1850 200 
L 4525 200 
z
M 4775 2875 
Q 4525 2600 4200 2200 
Q 3875 1800 3600 1500 
Q 3425 1675 3250 1750 
Q 3525 2025 3875 2500 
L 1975 2500 
Q 1750 2500 1350 2475 
L 1350 2900 
Q 1750 2875 1975 2875 
L 4775 2875 
z
M 3050 3925 
Q 3425 3400 3475 3225 
Q 3375 3200 3050 3025 
Q 2850 3475 2675 3700 
Q 2925 3800 3050 3925 
z
" transform="scale(0.015625)"/>
      <path id="SimHei-91cf" d="M 5250 2500 
Q 5225 2200 5225 1700 
Q 5225 1225 5250 950 
L 3425 950 
L 3425 625 
L 4575 625 
Q 5000 625 5375 650 
L 5375 275 
Q 5025 300 4575 300 
L 3425 300 
L 3425 -75 
L 5125 -75 
Q 5525 -75 5925 -50 
L 5925 -425 
Q 5525 -400 5125 -400 
L 1275 -400 
Q 900 -400 475 -425 
L 475 -50 
Q 925 -50 1275 -75 
L 2975 -75 
L 2975 300 
L 1725 300 
Q 1350 300 975 250 
L 975 650 
Q 1375 625 1725 625 
L 2975 625 
L 2975 950 
L 1150 950 
Q 1175 1375 1175 1775 
Q 1175 2175 1150 2500 
L 5250 2500 
z
M 5200 4950 
Q 5175 4575 5175 4250 
Q 5175 3925 5200 3400 
L 1200 3400 
Q 1225 3925 1225 4250 
Q 1225 4575 1200 4950 
L 5200 4950 
z
M 4900 3100 
Q 5500 3125 6000 3150 
L 6000 2750 
Q 5500 2775 4925 2775 
L 1650 2775 
Q 975 2775 325 2750 
L 325 3150 
Q 975 3125 1650 3100 
L 4900 3100 
z
M 4725 3700 
L 4725 4025 
L 1675 4025 
L 1675 3700 
L 4725 3700 
z
M 4725 4350 
L 4725 4650 
L 1675 4650 
L 1675 4350 
L 4725 4350 
z
M 4750 1875 
L 4750 2175 
L 3425 2175 
L 3425 1875 
L 4750 1875 
z
M 2975 1875 
L 2975 2175 
L 1650 2175 
L 1650 1875 
L 2975 1875 
z
M 2975 1275 
L 2975 1550 
L 1650 1550 
L 1650 1275 
L 2975 1275 
z
M 4750 1275 
L 4750 1550 
L 3425 1550 
L 3425 1275 
L 4750 1275 
z
" transform="scale(0.015625)"/>
      <path id="SimHei-7684" d="M 2100 4975 
Q 1975 4750 1750 3950 
L 2875 3950 
Q 2850 3525 2850 2875 
L 2850 675 
Q 2850 300 2875 -400 
L 2375 -400 
L 2375 100 
L 1100 100 
L 1100 -450 
L 600 -450 
Q 625 350 625 550 
L 625 2850 
Q 625 3525 600 3950 
L 1325 3950 
Q 1450 4525 1525 5150 
Q 1875 5025 2100 4975 
z
M 5825 3075 
Q 5800 1550 5700 175 
Q 5650 -275 5225 -425 
Q 4800 -575 4275 -625 
Q 4250 -350 4050 -50 
Q 4550 -75 4837 -25 
Q 5125 25 5200 200 
Q 5275 375 5312 1225 
Q 5350 2075 5375 3600 
L 3925 3600 
Q 3725 3125 3350 2475 
Q 3175 2650 2925 2750 
Q 3150 3050 3350 3475 
Q 3550 3900 3700 4400 
Q 3850 4900 3875 5175 
Q 4225 5025 4475 4950 
Q 4350 4750 4262 4512 
Q 4175 4275 4075 4050 
L 5850 4050 
Q 5825 3525 5825 3075 
z
M 2375 525 
L 2375 1850 
L 1100 1850 
L 1100 525 
L 2375 525 
z
M 2375 2275 
L 2375 3525 
L 1100 3525 
L 1100 2275 
L 2375 2275 
z
M 4350 2050 
Q 4500 1750 4700 1275 
Q 4525 1200 4225 1025 
Q 4050 1500 3900 1837 
Q 3750 2175 3600 2400 
Q 3775 2500 4050 2650 
L 4350 2050 
z
" transform="scale(0.015625)"/>
      <path id="SimHei-997c" d="M 5200 2125 
L 5575 2125 
Q 5900 2125 6150 2150 
L 6150 1675 
Q 5850 1700 5650 1700 
L 5200 1700 
L 5200 225 
Q 5200 -325 5225 -625 
L 4700 -625 
Q 4725 -350 4725 225 
L 4725 1700 
L 3900 1700 
Q 3825 775 3562 337 
Q 3300 -100 2625 -700 
Q 2375 -450 2100 -300 
Q 2700 25 3050 475 
Q 3400 925 3425 1700 
Q 2675 1700 2450 1650 
L 2450 2150 
Q 2650 2125 3425 2125 
L 3425 3400 
Q 3150 3400 2750 3375 
L 2750 3850 
Q 3025 3825 3325 3825 
L 4525 3825 
Q 4775 4400 4975 5225 
Q 5275 5075 5575 4950 
Q 5400 4800 5275 4512 
Q 5150 4225 4975 3825 
L 5425 3825 
Q 5650 3825 5900 3850 
L 5900 3375 
Q 5675 3400 5200 3400 
L 5200 2125 
z
M 1150 3650 
Q 900 3125 500 2600 
Q 375 2825 200 3000 
Q 500 3325 762 3925 
Q 1025 4525 1125 5125 
Q 1425 4975 1725 4900 
Q 1600 4750 1487 4525 
Q 1375 4300 1300 4075 
L 2600 4075 
Q 2450 3600 2275 2900 
Q 1950 2950 1800 2950 
Q 1900 3325 2000 3650 
L 1150 3650 
z
M 1625 2825 
Q 1575 2575 1575 2175 
L 1575 725 
Q 1925 1000 2250 1375 
Q 2325 1075 2475 850 
Q 2150 625 1825 337 
Q 1500 50 1250 -300 
Q 1075 -50 900 150 
Q 1100 425 1100 925 
L 1100 2175 
Q 1100 2550 1075 2825 
L 1625 2825 
z
M 4725 2125 
L 4725 3400 
L 3900 3400 
L 3900 2125 
L 4725 2125 
z
M 3600 5200 
Q 3775 4825 4100 4200 
Q 3800 4125 3600 3975 
Q 3375 4550 3125 4975 
Q 3350 5050 3600 5200 
z
" transform="scale(0.015625)"/>
      <path id="SimHei-72b6" d="M 2225 -275 
Q 2675 25 2975 475 
Q 3275 925 3450 1350 
Q 3625 1775 3700 2175 
Q 3775 2575 3800 2875 
L 3225 2875 
Q 2850 2875 2500 2850 
L 2500 3325 
Q 2850 3300 3200 3300 
L 3825 3300 
Q 3825 3975 3812 4375 
Q 3800 4775 3775 5075 
L 4425 5075 
Q 4350 4750 4337 4412 
Q 4325 4075 4325 3300 
L 5350 3300 
Q 5625 3300 5975 3325 
L 5975 2850 
Q 5625 2875 5350 2875 
L 4375 2875 
Q 4675 1450 5012 962 
Q 5350 475 5625 262 
Q 5900 50 6125 -75 
Q 5775 -225 5625 -525 
Q 5225 -200 4987 112 
Q 4750 425 4587 725 
Q 4425 1025 4312 1337 
Q 4200 1650 4125 2000 
Q 4000 1400 3812 975 
Q 3625 550 3425 237 
Q 3225 -75 2750 -625 
Q 2525 -400 2225 -275 
z
M 2225 5200 
Q 2200 4825 2200 4250 
L 2200 775 
Q 2200 50 2225 -625 
L 1675 -625 
Q 1700 75 1700 775 
L 1700 1950 
Q 1525 1750 1200 1350 
Q 875 950 700 750 
Q 500 1000 275 1150 
Q 575 1375 912 1712 
Q 1250 2050 1700 2600 
L 1700 4250 
Q 1700 4825 1675 5200 
L 2225 5200 
z
M 625 4325 
Q 800 4125 1000 3875 
Q 1200 3625 1375 3375 
Q 1175 3225 1050 3075 
Q 850 3350 250 4050 
Q 400 4175 625 4325 
z
M 5475 3650 
Q 5250 3975 4700 4475 
Q 4900 4625 5025 4750 
Q 5250 4575 5425 4387 
Q 5600 4200 5825 3975 
Q 5625 3800 5475 3650 
z
" transform="scale(0.015625)"/>
      <path id="SimHei-56fe" d="M 5800 4975 
Q 5775 4350 5775 3600 
L 5775 925 
Q 5775 150 5800 -600 
L 5300 -600 
L 5300 -275 
L 1125 -275 
L 1125 -650 
L 625 -650 
Q 650 125 650 950 
L 650 3600 
Q 650 4325 625 4975 
L 5800 4975 
z
M 5300 150 
L 5300 4575 
L 1125 4575 
L 1125 150 
L 5300 150 
z
M 3225 4250 
Q 3075 4100 2950 3925 
L 4625 3925 
Q 4525 3700 4300 3375 
Q 4075 3050 3600 2600 
Q 4350 2225 5075 2150 
Q 4900 1925 4775 1675 
Q 3850 1950 3225 2350 
Q 2500 1875 1675 1650 
Q 1600 1875 1400 2075 
Q 2200 2200 2875 2600 
Q 2525 2925 2375 3150 
Q 2150 2900 1900 2650 
Q 1725 2850 1525 2950 
Q 1950 3300 2250 3737 
Q 2550 4175 2675 4475 
Q 2925 4350 3225 4250 
z
M 2450 1275 
Q 3550 950 4100 725 
Q 3975 525 3850 300 
Q 2825 725 2275 850 
Q 2375 1050 2450 1275 
z
M 2925 2050 
Q 3775 1700 4075 1600 
Q 3950 1400 3850 1150 
Q 3000 1550 2700 1650 
Q 2825 1825 2925 2050 
z
M 2625 3450 
Q 3000 3025 3275 2850 
Q 3600 3100 3875 3525 
L 2675 3525 
L 2625 3450 
z
" transform="scale(0.015625)"/>
     </defs>
     <use xlink:href="#SimHei-98ce"/>
     <use xlink:href="#SimHei-5316" x="100"/>
     <use xlink:href="#SimHei-9ad8" x="200"/>
     <use xlink:href="#SimHei-94be" x="300"/>
     <use xlink:href="#SimHei-5404" x="400"/>
     <use xlink:href="#SimHei-5316" x="500"/>
     <use xlink:href="#SimHei-5b66" x="600"/>
     <use xlink:href="#SimHei-6210" x="700"/>
     <use xlink:href="#SimHei-5206" x="800"/>
     <use xlink:href="#SimHei-542b" x="900"/>
     <use xlink:href="#SimHei-91cf" x="1000"/>
     <use xlink:href="#SimHei-7684" x="1100"/>
     <use xlink:href="#SimHei-997c" x="1200"/>
     <use xlink:href="#SimHei-72b6" x="1300"/>
     <use xlink:href="#SimHei-56fe" x="1400"/>
    </g>
   </g>
   <g id="legend_1">
    <g id="patch_16">
     <path d="M 396.72 122.917031 
L 416.72 122.917031 
L 416.72 115.917031 
L 396.72 115.917031 
z
" style="fill: #1f77b4"/>
    </g>
    <g id="text_2">
     <!-- 二氧化硅(SiO2) -->
     <g style="fill: #262626" transform="translate(424.72 122.917031)scale(0.1 -0.1)">
      <defs>
       <path id="SimHei-4e8c" d="M 5050 625 
Q 5650 625 6025 675 
L 6025 50 
Q 5625 75 5050 75 
L 1425 75 
Q 775 75 350 50 
L 350 650 
Q 800 625 1400 625 
L 5050 625 
z
M 4350 4150 
Q 4900 4175 5350 4200 
L 5350 3575 
Q 4900 3600 4375 3600 
L 2050 3600 
Q 1450 3600 1000 3575 
L 1000 4175 
Q 1450 4150 2025 4150 
L 4350 4150 
z
" transform="scale(0.015625)"/>
       <path id="SimHei-6c27" d="M 1825 2675 
Q 2125 2375 2300 2100 
Q 2125 1975 1950 1900 
L 2900 1900 
Q 3150 2200 3325 2625 
Q 3525 2500 3850 2400 
Q 3700 2300 3400 1900 
L 3625 1900 
Q 3950 1900 4300 1925 
L 4300 1525 
Q 3825 1550 3525 1550 
L 2850 1550 
L 2850 1075 
L 3400 1075 
Q 3675 1075 4050 1100 
L 4050 700 
Q 3675 725 3400 725 
L 2850 725 
L 2850 325 
L 3775 325 
Q 4075 325 4450 350 
L 4450 -75 
Q 4075 -50 3775 -50 
L 2850 -50 
Q 2850 -350 2875 -675 
L 2375 -675 
Q 2400 -350 2400 -50 
L 1325 -50 
Q 975 -50 600 -75 
L 600 350 
Q 975 350 1325 325 
L 2400 325 
L 2400 725 
L 1700 725 
Q 1300 725 925 700 
L 925 1100 
Q 1300 1100 1675 1075 
L 2400 1075 
L 2400 1550 
L 1525 1550 
Q 1200 1550 750 1525 
L 750 1925 
Q 1200 1925 1525 1900 
L 1925 1900 
Q 1725 2175 1475 2425 
Q 1600 2525 1825 2675 
z
M 1775 2750 
Q 1375 2750 750 2700 
L 750 3175 
Q 1375 3150 1775 3150 
L 5225 3150 
Q 5125 2250 5150 1537 
Q 5175 825 5325 250 
Q 5475 -325 5650 550 
Q 5800 325 6125 225 
Q 5800 -575 5587 -650 
Q 5375 -725 5100 -337 
Q 4825 50 4750 1000 
Q 4675 1950 4725 2750 
L 1775 2750 
z
M 2225 5025 
Q 2050 4900 1925 4775 
L 4675 4775 
Q 5000 4775 5575 4800 
L 5575 4350 
Q 5125 4375 4725 4375 
L 1675 4375 
Q 1475 4150 1212 3862 
Q 950 3575 600 3275 
Q 450 3425 200 3600 
Q 500 3800 925 4250 
Q 1350 4700 1675 5300 
Q 1925 5125 2225 5025 
z
M 4250 3925 
Q 4725 3925 5050 3950 
L 5050 3525 
Q 4725 3550 4250 3550 
L 2500 3550 
Q 2025 3550 1425 3525 
L 1425 3950 
Q 2025 3925 2500 3925 
L 4250 3925 
z
" transform="scale(0.015625)"/>
       <path id="SimHei-7845" d="M 575 1700 
Q 475 1925 250 2150 
Q 650 2500 937 3075 
Q 1225 3650 1350 4225 
Q 750 4225 500 4200 
L 500 4675 
Q 700 4650 1150 4650 
L 1900 4650 
Q 2350 4650 2600 4675 
L 2600 4200 
Q 2325 4225 1800 4225 
Q 1650 3575 1400 2925 
L 2550 2925 
Q 2525 2350 2525 1550 
Q 2525 750 2550 75 
L 2075 75 
L 2075 550 
L 1425 550 
L 1425 -200 
L 950 -200 
Q 975 375 975 700 
L 975 2250 
Q 800 1975 575 1700 
z
M 4200 1450 
Q 4200 2000 4175 2225 
L 4675 2225 
Q 4650 1775 4650 1450 
L 5100 1450 
Q 5475 1450 5875 1475 
L 5875 1000 
Q 5450 1025 5125 1025 
L 4650 1025 
L 4650 -50 
L 5350 -50 
Q 5700 -50 6150 0 
L 6150 -475 
Q 5700 -450 5375 -450 
L 3500 -450 
Q 3175 -450 2700 -475 
L 2700 -25 
Q 3125 -50 3450 -50 
L 4175 -50 
L 4175 1050 
L 3775 1050 
Q 3375 1050 3025 1025 
L 3025 1500 
Q 3400 1450 3800 1450 
L 4200 1450 
z
M 3025 4375 
Q 3400 4350 3775 4350 
L 4175 4350 
Q 4175 4975 4150 5275 
L 4650 5275 
Q 4625 4900 4625 4350 
L 5025 4350 
Q 5400 4350 5825 4375 
L 5825 3925 
Q 5350 3950 5050 3950 
L 4625 3950 
L 4625 2925 
L 5275 2925 
Q 5600 2925 6125 2950 
L 6125 2500 
Q 5625 2525 5275 2525 
L 3700 2525 
Q 3375 2525 2850 2500 
L 2850 2950 
Q 3225 2925 3700 2925 
L 4175 2925 
L 4175 3950 
L 3800 3950 
Q 3400 3950 3025 3925 
L 3025 4375 
z
M 2075 975 
L 2075 2500 
L 1425 2500 
L 1425 975 
L 2075 975 
z
" transform="scale(0.015625)"/>
       <path id="SimHei-28" d="M 2975 -200 
L 2700 -475 
Q 2075 125 1762 775 
Q 1450 1425 1450 2250 
Q 1450 3075 1762 3725 
Q 2075 4375 2700 5000 
L 2975 4725 
Q 2400 4175 2112 3587 
Q 1825 3000 1825 2250 
Q 1825 1500 2112 912 
Q 2400 325 2975 -200 
z
" transform="scale(0.015625)"/>
       <path id="SimHei-53" d="M 2900 1325 
Q 2900 750 2537 412 
Q 2175 75 1550 75 
Q 925 75 575 425 
Q 225 775 225 1300 
L 225 1475 
L 800 1475 
L 800 1325 
Q 800 950 1025 750 
Q 1250 550 1550 550 
Q 1950 550 2137 762 
Q 2325 975 2325 1275 
Q 2325 1525 2100 1737 
Q 1875 1950 1450 2125 
Q 850 2350 587 2625 
Q 325 2900 325 3275 
Q 325 3800 687 4125 
Q 1050 4450 1550 4450 
Q 2200 4450 2487 4062 
Q 2775 3675 2775 3225 
L 2200 3225 
Q 2225 3500 2050 3725 
Q 1875 3950 1550 3950 
Q 1250 3950 1075 3787 
Q 900 3625 900 3350 
Q 900 3125 1037 2962 
Q 1175 2800 1750 2575 
Q 2300 2350 2600 2037 
Q 2900 1725 2900 1325 
z
" transform="scale(0.015625)"/>
       <path id="SimHei-69" d="M 1800 3725 
L 1300 3725 
L 1300 4375 
L 1800 4375 
L 1800 3725 
z
M 1800 125 
L 1300 125 
L 1300 2925 
L 1800 2925 
L 1800 125 
z
" transform="scale(0.015625)"/>
       <path id="SimHei-4f" d="M 2950 2275 
Q 2950 1100 2587 587 
Q 2225 75 1575 75 
Q 925 75 550 587 
Q 175 1100 175 2275 
Q 175 3450 550 3950 
Q 925 4450 1575 4450 
Q 2225 4450 2587 3950 
Q 2950 3450 2950 2275 
z
M 2350 2275 
Q 2350 3325 2125 3650 
Q 1900 3975 1575 3975 
Q 1250 3975 1012 3650 
Q 775 3325 775 2275 
Q 775 1225 1012 887 
Q 1250 550 1575 550 
Q 1900 550 2125 887 
Q 2350 1225 2350 2275 
z
" transform="scale(0.015625)"/>
       <path id="SimHei-32" d="M 300 250 
Q 325 625 650 925 
Q 975 1225 1475 1862 
Q 1975 2500 2125 2850 
Q 2275 3200 2237 3450 
Q 2200 3700 2000 3862 
Q 1800 4025 1537 4000 
Q 1275 3975 1037 3800 
Q 800 3625 675 3275 
L 200 3350 
Q 400 3925 712 4187 
Q 1025 4450 1450 4475 
Q 1700 4500 1900 4462 
Q 2100 4425 2312 4287 
Q 2525 4150 2662 3875 
Q 2800 3600 2762 3212 
Q 2725 2825 2375 2287 
Q 2025 1750 1025 600 
L 2825 600 
L 2825 150 
L 300 150 
L 300 250 
z
" transform="scale(0.015625)"/>
       <path id="SimHei-29" d="M 1675 2250 
Q 1675 1425 1362 775 
Q 1050 125 425 -475 
L 150 -200 
Q 725 325 1012 912 
Q 1300 1500 1300 2250 
Q 1300 3000 1012 3587 
Q 725 4175 150 4725 
L 425 5000 
Q 1050 4375 1362 3725 
Q 1675 3075 1675 2250 
z
" transform="scale(0.015625)"/>
      </defs>
      <use xlink:href="#SimHei-4e8c"/>
      <use xlink:href="#SimHei-6c27" x="100"/>
      <use xlink:href="#SimHei-5316" x="200"/>
      <use xlink:href="#SimHei-7845" x="300"/>
      <use xlink:href="#SimHei-28" x="400"/>
      <use xlink:href="#SimHei-53" x="450"/>
      <use xlink:href="#SimHei-69" x="500"/>
      <use xlink:href="#SimHei-4f" x="550"/>
      <use xlink:href="#SimHei-32" x="600"/>
      <use xlink:href="#SimHei-29" x="650"/>
     </g>
    </g>
    <g id="patch_17">
     <path d="M 396.72 137.331094 
L 416.72 137.331094 
L 416.72 130.331094 
L 396.72 130.331094 
z
" style="fill: #98df8a"/>
    </g>
    <g id="text_3">
     <!-- 氧化铝(Al2O3) -->
     <g style="fill: #262626" transform="translate(424.72 137.331094)scale(0.1 -0.1)">
      <defs>
       <path id="SimHei-94dd" d="M 5775 2175 
Q 5750 1850 5750 1375 
L 5750 475 
Q 5750 -75 5775 -600 
L 5300 -600 
L 5300 -75 
L 3175 -75 
L 3175 -600 
L 2700 -600 
Q 2725 -175 2725 375 
L 2725 1350 
Q 2725 1775 2700 2175 
L 5775 2175 
z
M 5525 4975 
Q 5500 4700 5500 4250 
L 5500 3825 
Q 5500 3250 5525 2900 
L 2925 2900 
Q 2950 3375 2950 3725 
L 2950 4225 
Q 2950 4625 2925 4975 
L 5525 4975 
z
M 1975 3225 
Q 2150 3225 2400 3250 
L 2400 2800 
Q 2000 2825 1750 2825 
L 1750 2075 
Q 2150 2075 2550 2100 
L 2550 1625 
Q 2150 1650 1750 1650 
L 1750 400 
Q 2175 775 2425 975 
Q 2500 750 2625 550 
Q 2400 400 2087 125 
Q 1775 -150 1425 -500 
Q 1275 -275 1075 -100 
Q 1225 75 1275 350 
L 1275 1650 
Q 950 1650 575 1625 
L 575 2100 
Q 975 2075 1275 2075 
L 1275 2825 
Q 1150 2825 900 2800 
L 900 3225 
L 550 2775 
Q 375 3000 200 3175 
Q 575 3550 837 4087 
Q 1100 4625 1250 5250 
Q 1475 5075 1900 4975 
Q 1550 4475 1475 4275 
L 1800 4275 
Q 2100 4275 2550 4300 
L 2550 3850 
Q 2100 3875 1800 3875 
L 1300 3875 
Q 1200 3725 925 3250 
Q 1075 3250 1325 3225 
L 1975 3225 
z
M 5300 350 
L 5300 1750 
L 3175 1750 
L 3175 350 
L 5300 350 
z
M 5050 3300 
L 5050 4575 
L 3400 4575 
L 3400 3300 
L 5050 3300 
z
" transform="scale(0.015625)"/>
       <path id="SimHei-41" d="M 3075 125 
L 2475 125 
L 2125 1450 
L 1025 1450 
L 675 125 
L 75 125 
L 1325 4450 
L 1825 4450 
L 3075 125 
z
M 2000 1925 
L 1600 3450 
L 1550 3450 
L 1150 1925 
L 2000 1925 
z
" transform="scale(0.015625)"/>
       <path id="SimHei-6c" d="M 1825 125 
L 1325 125 
L 1325 4400 
L 1825 4400 
L 1825 125 
z
" transform="scale(0.015625)"/>
       <path id="SimHei-33" d="M 250 1225 
L 700 1300 
Q 800 975 1025 762 
Q 1250 550 1587 562 
Q 1925 575 2125 837 
Q 2325 1100 2300 1437 
Q 2275 1775 2037 1962 
Q 1800 2150 1275 2225 
L 1275 2550 
Q 1800 2600 2037 2825 
Q 2275 3050 2250 3412 
Q 2225 3775 1925 3937 
Q 1625 4100 1287 3975 
Q 950 3850 750 3275 
L 300 3350 
Q 450 3800 712 4100 
Q 975 4400 1425 4450 
Q 1875 4500 2212 4337 
Q 2550 4175 2687 3837 
Q 2825 3500 2725 3100 
Q 2625 2700 2150 2400 
Q 2500 2250 2687 1950 
Q 2875 1650 2812 1162 
Q 2750 675 2375 375 
Q 2000 75 1525 87 
Q 1050 100 700 387 
Q 350 675 250 1225 
z
" transform="scale(0.015625)"/>
      </defs>
      <use xlink:href="#SimHei-6c27"/>
      <use xlink:href="#SimHei-5316" x="100"/>
      <use xlink:href="#SimHei-94dd" x="200"/>
      <use xlink:href="#SimHei-28" x="300"/>
      <use xlink:href="#SimHei-41" x="350"/>
      <use xlink:href="#SimHei-6c" x="400"/>
      <use xlink:href="#SimHei-32" x="450"/>
      <use xlink:href="#SimHei-4f" x="500"/>
      <use xlink:href="#SimHei-33" x="550"/>
      <use xlink:href="#SimHei-29" x="600"/>
     </g>
    </g>
    <g id="patch_18">
     <path d="M 396.72 151.745156 
L 416.72 151.745156 
L 416.72 144.745156 
L 396.72 144.745156 
z
" style="fill: #ff9896"/>
    </g>
    <g id="text_4">
     <!-- 氧化铜(CuO) -->
     <g style="fill: #262626" transform="translate(424.72 151.745156)scale(0.1 -0.1)">
      <defs>
       <path id="SimHei-94dc" d="M 5825 4850 
Q 5800 4350 5800 3850 
L 5800 -100 
Q 5800 -350 5612 -475 
Q 5425 -600 4975 -700 
Q 4975 -350 4800 -75 
Q 5300 -100 5325 100 
L 5325 4450 
L 3100 4450 
L 3100 -675 
L 2625 -675 
Q 2650 -225 2650 400 
L 2650 3850 
Q 2650 4550 2625 4850 
L 5825 4850 
z
M 1800 4975 
Q 1625 4800 1375 4250 
Q 1850 4250 2250 4275 
L 2250 3800 
Q 1850 3825 1575 3825 
L 1200 3825 
Q 975 3450 800 3150 
Q 1100 3125 1425 3125 
Q 1775 3125 2125 3150 
L 2125 2700 
Q 1750 2725 1550 2725 
L 1550 1925 
Q 1900 1925 2275 1950 
L 2275 1500 
Q 1900 1525 1550 1525 
L 1550 275 
Q 1875 575 2125 850 
Q 2200 525 2275 325 
Q 2075 175 1762 -75 
Q 1450 -325 1225 -575 
Q 1075 -300 925 -150 
Q 1050 -50 1125 200 
L 1125 1525 
Q 750 1525 400 1500 
L 400 1950 
Q 800 1925 1125 1925 
L 1125 2725 
Q 1000 2725 700 2700 
L 700 3000 
Q 650 2975 525 2800 
Q 375 3075 200 3200 
Q 600 3650 900 4262 
Q 1200 4875 1275 5225 
Q 1550 5075 1800 4975 
z
M 4925 2650 
Q 4900 2300 4900 1675 
Q 4900 1050 4925 700 
L 3475 700 
Q 3500 1150 3500 1725 
Q 3500 2325 3475 2650 
L 4925 2650 
z
M 4475 1075 
L 4475 2275 
L 3925 2275 
L 3925 1075 
L 4475 1075 
z
M 4975 3275 
L 3425 3275 
L 3425 3675 
L 4975 3675 
L 4975 3275 
z
" transform="scale(0.015625)"/>
       <path id="SimHei-43" d="M 2975 1825 
Q 2950 875 2575 475 
Q 2200 75 1675 75 
Q 1075 75 650 562 
Q 225 1050 225 2125 
Q 225 3300 637 3875 
Q 1050 4450 1700 4450 
Q 2250 4450 2612 4037 
Q 2975 3625 2950 2875 
L 2400 2875 
Q 2400 3425 2225 3700 
Q 2050 3975 1700 3975 
Q 1300 3975 1062 3562 
Q 825 3150 825 2175 
Q 825 1275 1062 912 
Q 1300 550 1675 550 
Q 1950 550 2175 812 
Q 2400 1075 2400 1825 
L 2975 1825 
z
" transform="scale(0.015625)"/>
       <path id="SimHei-75" d="M 2800 125 
L 2300 125 
L 2300 650 
Q 2100 375 1862 225 
Q 1625 75 1250 75 
Q 800 75 575 325 
Q 350 575 350 950 
L 350 2925 
L 850 2925 
L 850 1125 
Q 850 825 1000 650 
Q 1150 475 1400 475 
Q 1725 475 2012 812 
Q 2300 1150 2300 1650 
L 2300 2925 
L 2800 2925 
L 2800 125 
z
" transform="scale(0.015625)"/>
      </defs>
      <use xlink:href="#SimHei-6c27"/>
      <use xlink:href="#SimHei-5316" x="100"/>
      <use xlink:href="#SimHei-94dc" x="200"/>
      <use xlink:href="#SimHei-28" x="300"/>
      <use xlink:href="#SimHei-43" x="350"/>
      <use xlink:href="#SimHei-75" x="400"/>
      <use xlink:href="#SimHei-4f" x="450"/>
      <use xlink:href="#SimHei-29" x="500"/>
     </g>
    </g>
    <g id="patch_19">
     <path d="M 396.72 166.159219 
L 416.72 166.159219 
L 416.72 159.159219 
L 396.72 159.159219 
z
" style="fill: #ffbb78"/>
    </g>
    <g id="text_5">
     <!-- 氧化钙(CaO) -->
     <g style="fill: #262626" transform="translate(424.72 166.159219)scale(0.1 -0.1)">
      <defs>
       <path id="SimHei-9499" d="M 3525 3725 
Q 3500 3175 3500 3000 
L 3500 2000 
L 4175 2000 
L 4175 4400 
L 3575 4400 
Q 3400 4400 2900 4375 
L 2900 4825 
Q 3350 4800 3575 4800 
L 5375 4800 
Q 5425 4800 6000 4825 
L 6000 4375 
Q 5425 4400 5400 4400 
L 4625 4400 
L 4625 3475 
L 5200 3475 
Q 5450 3475 5775 3500 
L 5775 3050 
Q 5450 3075 5200 3075 
L 4625 3075 
L 4625 2000 
L 5975 2000 
Q 5950 1725 5925 1375 
L 5825 200 
Q 5775 -375 5425 -475 
Q 5075 -575 4425 -625 
Q 4425 -450 4225 -100 
Q 4975 -125 5150 -50 
Q 5325 25 5350 350 
L 5450 1600 
L 3025 1600 
Q 3050 2000 3050 2700 
Q 3050 3425 3025 3725 
L 3525 3725 
z
M 2550 950 
Q 2650 700 2750 475 
Q 2425 250 2075 -12 
Q 1725 -275 1425 -575 
Q 1275 -325 1075 -150 
Q 1275 25 1325 325 
L 1325 1600 
L 1000 1600 
Q 700 1600 450 1550 
L 450 2025 
Q 675 2000 850 2000 
L 1325 2000 
L 1325 2825 
Q 1175 2825 875 2800 
L 875 3150 
Q 675 2900 550 2775 
Q 400 2975 225 3100 
Q 800 3700 1050 4225 
Q 1300 4750 1400 5250 
Q 1650 5125 1950 5050 
Q 1850 4950 1750 4725 
Q 1650 4500 1575 4325 
L 1925 4325 
Q 2225 4325 2525 4350 
L 2525 3925 
Q 2175 3950 1925 3950 
L 1425 3950 
Q 1175 3550 925 3225 
Q 1275 3200 1625 3200 
Q 1975 3200 2350 3225 
L 2350 2800 
Q 1975 2825 1775 2825 
L 1775 2000 
L 2000 2000 
Q 2225 2000 2600 2025 
L 2600 1575 
Q 2225 1600 2050 1600 
L 1775 1600 
L 1775 325 
Q 1950 425 2550 950 
z
" transform="scale(0.015625)"/>
       <path id="SimHei-61" d="M 2875 125 
L 2275 125 
Q 2225 175 2200 262 
Q 2175 350 2175 475 
Q 2000 275 1750 175 
Q 1500 75 1225 75 
Q 825 75 550 275 
Q 275 475 275 850 
Q 275 1225 525 1450 
Q 775 1675 1300 1750 
Q 1650 1800 1912 1875 
Q 2175 1950 2175 2075 
Q 2175 2225 2062 2375 
Q 1950 2525 1575 2525 
Q 1275 2525 1137 2412 
Q 1000 2300 950 2100 
L 400 2100 
Q 450 2500 762 2737 
Q 1075 2975 1575 2975 
Q 2125 2975 2400 2725 
Q 2675 2475 2675 2025 
L 2675 650 
Q 2675 500 2725 375 
Q 2775 250 2875 125 
z
M 2175 1050 
L 2175 1550 
Q 2025 1500 1887 1462 
Q 1750 1425 1425 1375 
Q 1050 1325 937 1200 
Q 825 1075 825 900 
Q 825 750 937 637 
Q 1050 525 1275 525 
Q 1500 525 1762 650 
Q 2025 775 2175 1050 
z
" transform="scale(0.015625)"/>
      </defs>
      <use xlink:href="#SimHei-6c27"/>
      <use xlink:href="#SimHei-5316" x="100"/>
      <use xlink:href="#SimHei-9499" x="200"/>
      <use xlink:href="#SimHei-28" x="300"/>
      <use xlink:href="#SimHei-43" x="350"/>
      <use xlink:href="#SimHei-61" x="400"/>
      <use xlink:href="#SimHei-4f" x="450"/>
      <use xlink:href="#SimHei-29" x="500"/>
     </g>
    </g>
    <g id="patch_20">
     <path d="M 396.72 180.573281 
L 416.72 180.573281 
L 416.72 173.573281 
L 396.72 173.573281 
z
" style="fill: #ff7f0e"/>
    </g>
    <g id="text_6">
     <!-- 氧化钾(K2O) -->
     <g style="fill: #262626" transform="translate(424.72 180.573281)scale(0.1 -0.1)">
      <defs>
       <path id="SimHei-4b" d="M 3050 125 
L 2400 125 
L 1250 2250 
L 850 1725 
L 850 125 
L 275 125 
L 275 4400 
L 850 4400 
L 850 2550 
L 2275 4400 
L 2950 4400 
L 1625 2725 
L 3050 125 
z
" transform="scale(0.015625)"/>
      </defs>
      <use xlink:href="#SimHei-6c27"/>
      <use xlink:href="#SimHei-5316" x="100"/>
      <use xlink:href="#SimHei-94be" x="200"/>
      <use xlink:href="#SimHei-28" x="300"/>
      <use xlink:href="#SimHei-4b" x="350"/>
      <use xlink:href="#SimHei-32" x="400"/>
      <use xlink:href="#SimHei-4f" x="450"/>
      <use xlink:href="#SimHei-29" x="500"/>
     </g>
    </g>
    <g id="patch_21">
     <path d="M 396.72 194.987344 
L 416.72 194.987344 
L 416.72 187.987344 
L 396.72 187.987344 
z
" style="fill: #8c564b"/>
    </g>
    <g id="text_7">
     <!-- 五氧化二磷(P2O5) -->
     <g style="fill: #262626" transform="translate(424.72 194.987344)scale(0.1 -0.1)">
      <defs>
       <path id="SimHei-4e94" d="M 4975 4600 
Q 5325 4600 5650 4625 
L 5650 4175 
Q 5325 4200 5000 4200 
L 3150 4200 
L 3000 2875 
L 4950 2875 
Q 4900 2575 4900 2125 
L 4850 300 
Q 5650 300 6000 325 
L 6000 -200 
Q 5650 -175 4975 -175 
L 1375 -175 
Q 775 -175 425 -225 
L 425 325 
Q 800 300 1325 300 
L 2150 300 
L 2450 2475 
L 1850 2475 
Q 1400 2475 1125 2450 
L 1125 2900 
Q 1425 2875 1850 2875 
L 2525 2875 
L 2675 4200 
L 1550 4200 
Q 1150 4200 800 4175 
L 800 4625 
Q 1125 4600 1550 4600 
L 4975 4600 
z
M 4350 300 
L 4425 2475 
L 2950 2475 
L 2650 300 
L 4350 300 
z
" transform="scale(0.015625)"/>
       <path id="SimHei-78f7" d="M 1700 4575 
Q 1975 4575 2400 4600 
L 2400 4175 
Q 2050 4200 1750 4200 
Q 1675 3800 1575 3525 
L 1425 3050 
L 2300 3050 
Q 2275 2575 2275 2225 
L 2275 1275 
Q 2275 900 2300 275 
L 1875 275 
L 1875 600 
L 1400 600 
L 1400 50 
L 950 50 
Q 975 550 975 900 
L 975 2250 
Q 875 2125 762 2012 
Q 650 1900 550 1775 
Q 425 2000 250 2200 
Q 650 2450 912 2975 
Q 1175 3500 1275 4200 
Q 1000 4200 575 4175 
L 575 4600 
Q 950 4575 1225 4575 
L 1700 4575 
z
M 4125 4075 
L 4125 4575 
Q 4125 4850 4075 5250 
L 4575 5250 
Q 4550 4875 4550 4625 
L 4550 4075 
L 5175 4075 
Q 5550 4075 5975 4100 
L 5975 3675 
Q 5550 3700 5200 3700 
L 4950 3700 
Q 5200 3400 5450 3262 
Q 5700 3125 6150 3050 
Q 5975 2825 5875 2600 
Q 5350 2800 5037 3050 
Q 4725 3300 4550 3575 
L 4550 3200 
Q 4550 2850 4575 2450 
L 4100 2450 
Q 4125 2850 4125 3200 
L 4125 3675 
L 4075 3675 
Q 3900 3375 3637 3075 
Q 3375 2775 2800 2425 
Q 2725 2575 2475 2825 
Q 2900 3000 3137 3175 
Q 3375 3350 3575 3700 
L 3450 3700 
Q 3225 3700 2750 3675 
L 2750 4100 
Q 3175 4075 3775 4075 
L 4125 4075 
z
M 5150 1950 
Q 5125 2200 5125 2500 
L 5600 2500 
Q 5550 2200 5550 1950 
Q 5725 1950 6100 1975 
L 6100 1525 
Q 5725 1550 5550 1550 
L 5550 850 
Q 5750 850 6150 875 
L 6150 400 
Q 5775 425 5550 425 
Q 5550 -50 5575 -650 
L 5125 -650 
Q 5150 -50 5150 425 
L 4250 425 
Q 4250 600 4287 850 
Q 4325 1100 4325 1400 
Q 4550 1375 4800 1325 
Q 4725 1125 4700 825 
L 5150 825 
L 5150 1550 
L 4875 1550 
Q 4700 1550 4325 1525 
L 4325 1975 
Q 4700 1950 4850 1950 
L 5150 1950 
z
M 3800 2400 
Q 3650 2300 3575 2162 
Q 3500 2025 3400 1900 
L 4200 1900 
Q 4150 1375 4037 975 
Q 3925 575 3737 300 
Q 3550 25 3287 -212 
Q 3025 -450 2625 -675 
Q 2500 -425 2275 -225 
Q 2625 -125 2875 50 
Q 3125 225 3275 450 
Q 3125 600 2850 850 
Q 2975 975 3150 1175 
Q 3350 1000 3525 800 
Q 3625 1000 3662 1162 
Q 3700 1325 3725 1525 
L 3225 1525 
Q 3075 1325 2750 950 
Q 2550 1200 2375 1275 
Q 2750 1600 2937 1900 
Q 3125 2200 3275 2625 
Q 3525 2525 3800 2400 
z
M 1875 1000 
L 1875 2675 
L 1400 2675 
L 1400 1000 
L 1875 1000 
z
M 5350 4125 
Q 5100 4250 4925 4300 
Q 5025 4475 5112 4662 
Q 5200 4850 5275 5025 
Q 5475 4925 5725 4825 
Q 5600 4675 5525 4500 
Q 5450 4325 5350 4125 
z
M 3400 4950 
Q 3500 4825 3600 4687 
Q 3700 4550 3825 4375 
Q 3600 4250 3450 4125 
Q 3325 4325 3225 4462 
Q 3125 4600 3025 4700 
Q 3200 4825 3400 4950 
z
" transform="scale(0.015625)"/>
       <path id="SimHei-50" d="M 2950 3100 
Q 2950 2500 2600 2150 
Q 2250 1800 1625 1800 
L 900 1800 
L 900 125 
L 325 125 
L 325 4400 
L 1625 4400 
Q 2250 4400 2600 4050 
Q 2950 3700 2950 3100 
z
M 2375 3100 
Q 2375 3575 2150 3750 
Q 1925 3925 1475 3925 
L 900 3925 
L 900 2275 
L 1475 2275 
Q 1925 2275 2150 2450 
Q 2375 2625 2375 3100 
z
" transform="scale(0.015625)"/>
       <path id="SimHei-35" d="M 550 1325 
Q 725 650 1150 575 
Q 1575 500 1837 662 
Q 2100 825 2212 1087 
Q 2325 1350 2312 1675 
Q 2300 2000 2137 2225 
Q 1975 2450 1725 2525 
Q 1475 2600 1162 2525 
Q 850 2450 650 2175 
L 225 2225 
Q 275 2375 700 4375 
L 2675 4375 
L 2675 3925 
L 1075 3925 
Q 950 3250 825 2850 
Q 1200 3025 1525 3012 
Q 1850 3000 2150 2862 
Q 2450 2725 2587 2487 
Q 2725 2250 2787 2012 
Q 2850 1775 2837 1500 
Q 2825 1225 2725 937 
Q 2625 650 2425 462 
Q 2225 275 1937 162 
Q 1650 50 1275 75 
Q 900 100 562 350 
Q 225 600 100 1200 
L 550 1325 
z
" transform="scale(0.015625)"/>
      </defs>
      <use xlink:href="#SimHei-4e94"/>
      <use xlink:href="#SimHei-6c27" x="100"/>
      <use xlink:href="#SimHei-5316" x="200"/>
      <use xlink:href="#SimHei-4e8c" x="300"/>
      <use xlink:href="#SimHei-78f7" x="400"/>
      <use xlink:href="#SimHei-28" x="500"/>
      <use xlink:href="#SimHei-50" x="550"/>
      <use xlink:href="#SimHei-32" x="600"/>
      <use xlink:href="#SimHei-4f" x="650"/>
      <use xlink:href="#SimHei-35" x="700"/>
      <use xlink:href="#SimHei-29" x="750"/>
     </g>
    </g>
    <g id="patch_22">
     <path d="M 396.72 209.401406 
L 416.72 209.401406 
L 416.72 202.401406 
L 396.72 202.401406 
z
" style="fill: #d62728"/>
    </g>
    <g id="text_8">
     <!-- 氧化铁(Fe2O3) -->
     <g style="fill: #262626" transform="translate(424.72 209.401406)scale(0.1 -0.1)">
      <defs>
       <path id="SimHei-94c1" d="M 3675 4550 
Q 3550 4375 3425 3950 
L 4050 3950 
Q 4050 4850 4025 5200 
Q 4275 5175 4600 5150 
Q 4525 4925 4512 4625 
Q 4500 4325 4500 3950 
Q 5375 3950 5725 3975 
L 5725 3525 
Q 5375 3550 4500 3550 
Q 4500 2975 4475 2325 
L 5225 2325 
Q 5625 2325 5975 2350 
L 5975 1900 
Q 5625 1925 5225 1925 
L 4600 1925 
Q 4925 1125 5362 625 
Q 5800 125 6200 -50 
Q 5875 -300 5775 -550 
Q 5225 -100 4850 437 
Q 4475 975 4325 1450 
Q 4100 775 3687 300 
Q 3275 -175 2625 -600 
Q 2500 -350 2225 -200 
Q 2950 125 3375 687 
Q 3800 1250 3925 1900 
Q 2975 1900 2575 1875 
L 2575 2325 
L 4000 2325 
Q 4050 2925 4050 3550 
L 3325 3550 
L 3025 2700 
Q 2825 2825 2575 2875 
Q 2800 3350 2950 3850 
Q 3100 4350 3125 4725 
Q 3400 4625 3675 4550 
z
M 1800 4850 
Q 1650 4725 1325 4200 
L 1900 4200 
Q 2175 4200 2625 4225 
L 2625 3775 
Q 2175 3800 1900 3800 
L 1125 3800 
Q 950 3500 725 3150 
Q 1100 3125 1525 3125 
Q 1975 3125 2350 3150 
L 2350 2725 
Q 1975 2750 1575 2750 
L 1575 2000 
Q 1975 2000 2425 2025 
L 2425 1575 
Q 1975 1600 1575 1600 
L 1575 400 
Q 2025 725 2375 1075 
Q 2475 825 2625 600 
Q 2350 450 1962 150 
Q 1575 -150 1300 -450 
Q 1125 -175 950 -25 
Q 1100 150 1125 375 
L 1125 1600 
Q 825 1600 450 1575 
L 450 2025 
Q 825 2000 1125 2000 
L 1125 2750 
Q 975 2750 625 2725 
L 625 3050 
L 500 2875 
Q 375 3075 200 3250 
Q 500 3550 812 4137 
Q 1125 4725 1225 5100 
Q 1500 4950 1800 4850 
z
" transform="scale(0.015625)"/>
       <path id="SimHei-46" d="M 2925 3925 
L 875 3925 
L 875 2525 
L 2425 2525 
L 2425 2050 
L 875 2050 
L 875 125 
L 300 125 
L 300 4400 
L 2925 4400 
L 2925 3925 
z
" transform="scale(0.015625)"/>
       <path id="SimHei-65" d="M 2850 1075 
Q 2800 625 2450 350 
Q 2100 75 1625 75 
Q 1025 75 637 462 
Q 250 850 250 1525 
Q 250 2200 637 2587 
Q 1025 2975 1625 2975 
Q 2150 2975 2487 2637 
Q 2825 2300 2825 1525 
L 800 1525 
Q 800 975 1037 750 
Q 1275 525 1625 525 
Q 1900 525 2075 662 
Q 2250 800 2300 1075 
L 2850 1075 
z
M 2250 1925 
Q 2200 2275 2025 2412 
Q 1850 2550 1575 2550 
Q 1325 2550 1125 2412 
Q 925 2275 825 1925 
L 2250 1925 
z
" transform="scale(0.015625)"/>
      </defs>
      <use xlink:href="#SimHei-6c27"/>
      <use xlink:href="#SimHei-5316" x="100"/>
      <use xlink:href="#SimHei-94c1" x="200"/>
      <use xlink:href="#SimHei-28" x="300"/>
      <use xlink:href="#SimHei-46" x="350"/>
      <use xlink:href="#SimHei-65" x="400"/>
      <use xlink:href="#SimHei-32" x="450"/>
      <use xlink:href="#SimHei-4f" x="500"/>
      <use xlink:href="#SimHei-33" x="550"/>
      <use xlink:href="#SimHei-29" x="600"/>
     </g>
    </g>
    <g id="patch_23">
     <path d="M 396.72 223.932656 
L 416.72 223.932656 
L 416.72 216.932656 
L 396.72 216.932656 
z
" style="fill: #2ca02c"/>
    </g>
    <g id="text_9">
     <!-- 氧化镁(MgO) -->
     <g style="fill: #262626" transform="translate(424.72 223.932656)scale(0.1 -0.1)">
      <defs>
       <path id="SimHei-9541" d="M 1825 3175 
Q 2025 3175 2275 3200 
L 2275 2750 
Q 1875 2775 1625 2775 
L 1625 2075 
Q 1900 2075 2275 2100 
L 2275 1650 
Q 1900 1675 1625 1675 
L 1625 400 
Q 2050 725 2300 975 
Q 2325 750 2425 450 
Q 2225 350 1912 112 
Q 1600 -125 1300 -450 
L 950 -50 
Q 1125 175 1175 375 
L 1175 1675 
Q 850 1675 450 1650 
L 450 2100 
Q 850 2075 1175 2075 
L 1175 2775 
Q 1025 2775 800 2750 
L 800 3175 
Q 700 3050 575 2900 
Q 425 3075 200 3225 
Q 625 3625 825 4062 
Q 1025 4500 1275 5175 
Q 1500 5075 1825 4950 
Q 1675 4775 1587 4575 
Q 1500 4375 1400 4200 
Q 1775 4200 2250 4225 
L 2250 3750 
Q 1725 3800 1250 3800 
Q 975 3425 825 3200 
Q 1000 3175 1250 3175 
L 1825 3175 
z
M 5375 4975 
Q 5175 4825 5050 4662 
Q 4925 4500 4800 4325 
L 5075 4325 
Q 5450 4325 5825 4350 
L 5825 3900 
Q 5450 3950 5075 3950 
L 4450 3950 
L 4450 3400 
L 5075 3400 
Q 5200 3400 5650 3425 
L 5650 3000 
Q 5200 3025 4875 3025 
L 4450 3025 
L 4450 2525 
L 5050 2525 
Q 5450 2525 5900 2550 
L 5900 2100 
Q 5450 2150 5050 2150 
L 3425 2150 
Q 3025 2150 2600 2125 
L 2600 2550 
Q 3050 2525 3425 2525 
L 4000 2525 
L 4000 3025 
L 3550 3025 
Q 3375 3025 2925 3000 
L 2925 3425 
Q 3375 3400 3600 3400 
L 4000 3400 
L 4000 3950 
L 3450 3950 
Q 3175 3950 2675 3900 
L 2675 4350 
Q 3175 4325 3450 4325 
L 4375 4325 
Q 4525 4575 4800 5275 
Q 5200 5075 5375 4975 
z
M 3900 1500 
Q 3925 1725 3925 2100 
Q 4250 2050 4550 2000 
Q 4425 1750 4400 1500 
L 5050 1500 
Q 5400 1500 5800 1525 
L 5800 1100 
Q 5425 1125 5050 1125 
L 4575 1125 
Q 4775 675 5162 362 
Q 5550 50 6175 -125 
Q 5875 -350 5725 -625 
Q 5125 -250 4800 62 
Q 4475 375 4200 900 
Q 4025 375 3650 12 
Q 3275 -350 2725 -675 
Q 2450 -350 2250 -225 
Q 3025 25 3350 375 
Q 3675 725 3825 1125 
L 3450 1125 
Q 2900 1125 2650 1100 
L 2650 1525 
Q 2900 1500 3425 1500 
L 3900 1500 
z
M 3650 5200 
Q 3700 5075 3950 4550 
Q 3725 4475 3500 4375 
Q 3425 4550 3225 5000 
Q 3400 5100 3650 5200 
z
" transform="scale(0.015625)"/>
       <path id="SimHei-4d" d="M 2925 125 
L 2425 125 
L 2425 3175 
L 2375 3175 
L 1775 125 
L 1375 125 
L 775 3175 
L 725 3175 
L 725 125 
L 225 125 
L 225 4400 
L 1000 4400 
L 1550 1575 
L 1600 1575 
L 2150 4400 
L 2925 4400 
L 2925 125 
z
" transform="scale(0.015625)"/>
       <path id="SimHei-67" d="M 2975 2500 
Q 2800 2550 2637 2562 
Q 2475 2575 2300 2525 
Q 2375 2450 2425 2337 
Q 2475 2225 2475 2000 
Q 2475 1575 2187 1300 
Q 1900 1025 1475 1025 
Q 1375 1025 1212 1062 
Q 1050 1100 950 1150 
Q 875 1100 850 1050 
Q 825 1000 825 925 
Q 825 800 1000 737 
Q 1175 675 1625 675 
Q 2350 675 2612 475 
Q 2875 275 2875 -25 
Q 2875 -425 2487 -612 
Q 2100 -800 1575 -800 
Q 900 -800 575 -625 
Q 250 -450 250 -150 
Q 250 0 375 150 
Q 500 300 700 400 
Q 550 475 462 587 
Q 375 700 375 875 
Q 375 1025 487 1137 
Q 600 1250 750 1325 
Q 625 1450 550 1625 
Q 475 1800 475 2000 
Q 475 2425 762 2700 
Q 1050 2975 1475 2975 
Q 1700 2975 1862 2912 
Q 2025 2850 2150 2725 
Q 2350 2875 2550 2937 
Q 2750 3000 2975 2975 
L 2975 2500 
z
M 1975 2000 
Q 1975 2250 1850 2400 
Q 1725 2550 1475 2550 
Q 1225 2550 1100 2400 
Q 975 2250 975 2000 
Q 975 1750 1100 1600 
Q 1225 1450 1475 1450 
Q 1725 1450 1850 1600 
Q 1975 1750 1975 2000 
z
M 2400 -75 
Q 2400 25 2287 125 
Q 2175 225 1725 225 
Q 1625 225 1450 237 
Q 1275 250 1050 275 
Q 850 200 775 100 
Q 700 0 700 -100 
Q 700 -250 900 -350 
Q 1100 -450 1600 -450 
Q 2025 -450 2212 -337 
Q 2400 -225 2400 -75 
z
" transform="scale(0.015625)"/>
      </defs>
      <use xlink:href="#SimHei-6c27"/>
      <use xlink:href="#SimHei-5316" x="100"/>
      <use xlink:href="#SimHei-9541" x="200"/>
      <use xlink:href="#SimHei-28" x="300"/>
      <use xlink:href="#SimHei-4d" x="350"/>
      <use xlink:href="#SimHei-67" x="400"/>
      <use xlink:href="#SimHei-4f" x="450"/>
      <use xlink:href="#SimHei-29" x="500"/>
     </g>
    </g>
    <g id="patch_24">
     <path d="M 396.72 238.346719 
L 416.72 238.346719 
L 416.72 231.346719 
L 396.72 231.346719 
z
" style="fill: #aec7e8"/>
    </g>
    <g id="text_10">
     <!-- 氧化钠(Na2O) -->
     <g style="fill: #262626" transform="translate(424.72 238.346719)scale(0.1 -0.1)">
      <defs>
       <path id="SimHei-94a0" d="M 3250 -475 
L 2800 -475 
Q 2825 -25 2825 650 
L 2825 3050 
Q 2825 3675 2800 4125 
L 4100 4125 
Q 4100 4650 4075 5200 
Q 4350 5200 4650 5175 
Q 4575 5000 4550 4737 
Q 4525 4475 4525 4125 
L 5925 4125 
Q 5900 3775 5900 3175 
L 5900 50 
Q 5900 -325 5637 -400 
Q 5375 -475 5050 -525 
Q 4950 -250 4825 -25 
Q 5200 -25 5325 12 
Q 5450 50 5450 275 
L 5450 3750 
L 4525 3750 
Q 4500 3250 4450 2700 
Q 5100 2025 5350 1600 
Q 5150 1425 5000 1275 
Q 4700 1825 4350 2250 
Q 4025 1575 3625 1025 
Q 3425 1150 3250 1225 
L 3250 -475 
z
M 200 3050 
Q 450 3300 725 3850 
Q 1000 4400 1150 5150 
Q 1400 5050 1700 5025 
Q 1600 4825 1375 4225 
L 1850 4225 
Q 2100 4225 2575 4250 
L 2575 3825 
Q 2225 3850 1850 3850 
L 1225 3850 
Q 1100 3575 875 3150 
Q 1150 3125 1525 3125 
Q 1900 3125 2275 3150 
L 2275 2750 
Q 2000 2775 1675 2775 
L 1675 2000 
L 2050 2000 
Q 2250 2000 2500 2025 
L 2500 1600 
Q 2250 1625 2100 1625 
L 1675 1625 
L 1675 450 
Q 2200 825 2425 1000 
Q 2450 800 2525 550 
Q 2300 400 1950 150 
Q 1600 -100 1350 -350 
Q 1175 -125 1025 50 
Q 1175 125 1250 525 
L 1250 1625 
Q 925 1625 525 1600 
L 525 2025 
Q 925 2000 1250 2000 
L 1250 2775 
Q 1100 2775 800 2750 
L 800 3025 
L 600 2725 
Q 425 2925 200 3050 
z
M 3250 1375 
Q 3525 1675 3687 1962 
Q 3850 2250 3950 2562 
Q 4050 2875 4100 3750 
L 3250 3750 
L 3250 1375 
z
" transform="scale(0.015625)"/>
       <path id="SimHei-4e" d="M 2850 125 
L 2225 125 
L 850 3225 
L 825 3225 
L 825 125 
L 250 125 
L 250 4400 
L 875 4400 
L 2250 1300 
L 2275 1300 
L 2275 4400 
L 2850 4400 
L 2850 125 
z
" transform="scale(0.015625)"/>
      </defs>
      <use xlink:href="#SimHei-6c27"/>
      <use xlink:href="#SimHei-5316" x="100"/>
      <use xlink:href="#SimHei-94a0" x="200"/>
      <use xlink:href="#SimHei-28" x="300"/>
      <use xlink:href="#SimHei-4e" x="350"/>
      <use xlink:href="#SimHei-61" x="400"/>
      <use xlink:href="#SimHei-32" x="450"/>
      <use xlink:href="#SimHei-4f" x="500"/>
      <use xlink:href="#SimHei-29" x="550"/>
     </g>
    </g>
    <g id="patch_25">
     <path d="M 396.72 252.760781 
L 416.72 252.760781 
L 416.72 245.760781 
L 396.72 245.760781 
z
" style="fill: #9467bd"/>
    </g>
    <g id="text_11">
     <!-- 氧化铅(PbO) -->
     <g style="fill: #262626" transform="translate(424.72 252.760781)scale(0.1 -0.1)">
      <defs>
       <path id="SimHei-94c5" d="M 5800 2125 
Q 5775 1700 5775 900 
Q 5775 100 5800 -525 
L 5325 -525 
L 5325 75 
L 3600 75 
L 3600 -575 
L 3125 -575 
Q 3150 100 3150 800 
Q 3150 1525 3125 2125 
L 5800 2125 
z
M 2400 900 
Q 2450 750 2625 475 
Q 2500 375 2150 87 
Q 1800 -200 1425 -575 
Q 1275 -350 1100 -175 
Q 1250 50 1250 300 
L 1250 1600 
Q 725 1600 300 1575 
L 300 2025 
Q 725 2000 1250 2000 
L 1250 2775 
Q 975 2775 725 2750 
L 725 3200 
Q 975 3175 1275 3175 
L 1900 3175 
Q 2200 3175 2450 3200 
L 2450 2750 
Q 2050 2775 1725 2775 
L 1725 2000 
Q 2300 2000 2675 2025 
L 2675 1575 
Q 2300 1600 1725 1600 
L 1725 225 
Q 2200 650 2400 900 
z
M 6125 3125 
Q 6025 2925 6025 2625 
Q 5525 2600 5237 2625 
Q 4950 2650 4950 3100 
L 4950 4425 
L 3875 4425 
Q 3875 3525 3737 3150 
Q 3600 2775 3125 2375 
Q 2950 2625 2675 2750 
Q 3350 3050 3387 3762 
Q 3425 4475 3400 4800 
L 5400 4800 
Q 5400 3850 5412 3512 
Q 5425 3175 5537 3112 
Q 5650 3050 6125 3125 
z
M 5325 450 
L 5325 1725 
L 3600 1725 
L 3600 450 
L 5325 450 
z
M 1850 5050 
Q 1575 4800 1350 4375 
L 2000 4375 
Q 2225 4375 2600 4400 
L 2600 3975 
Q 2225 4000 1975 4000 
L 1125 4000 
Q 750 3450 525 3175 
Q 400 3425 200 3500 
Q 575 3850 887 4375 
Q 1200 4900 1300 5300 
Q 1525 5150 1850 5050 
z
" transform="scale(0.015625)"/>
       <path id="SimHei-62" d="M 2825 1525 
Q 2825 800 2475 437 
Q 2125 75 1625 75 
Q 1350 75 1150 175 
Q 950 275 800 500 
L 800 125 
L 300 125 
L 300 4400 
L 800 4400 
L 800 2550 
Q 950 2775 1150 2887 
Q 1350 3000 1625 3000 
Q 2125 3000 2475 2625 
Q 2825 2250 2825 1525 
z
M 2275 1525 
Q 2275 2000 2087 2275 
Q 1900 2550 1525 2550 
Q 1225 2550 1012 2275 
Q 800 2000 800 1525 
Q 800 1050 1012 787 
Q 1225 525 1525 525 
Q 1900 525 2087 787 
Q 2275 1050 2275 1525 
z
" transform="scale(0.015625)"/>
      </defs>
      <use xlink:href="#SimHei-6c27"/>
      <use xlink:href="#SimHei-5316" x="100"/>
      <use xlink:href="#SimHei-94c5" x="200"/>
      <use xlink:href="#SimHei-28" x="300"/>
      <use xlink:href="#SimHei-50" x="350"/>
      <use xlink:href="#SimHei-62" x="400"/>
      <use xlink:href="#SimHei-4f" x="450"/>
      <use xlink:href="#SimHei-29" x="500"/>
     </g>
    </g>
    <g id="patch_26">
     <path d="M 396.72 267.174844 
L 416.72 267.174844 
L 416.72 260.174844 
L 396.72 260.174844 
z
" style="fill: #c5b0d5"/>
    </g>
    <g id="text_12">
     <!-- 氧化钡(BaO) -->
     <g style="fill: #262626" transform="translate(424.72 267.174844)scale(0.1 -0.1)">
      <defs>
       <path id="SimHei-94a1" d="M 5800 4750 
Q 5775 4350 5775 2925 
Q 5775 1500 5800 1075 
L 5325 1075 
L 5325 4350 
L 3425 4350 
L 3425 1075 
L 2975 1075 
Q 3000 1575 3000 2925 
Q 3000 4300 2975 4750 
L 5800 4750 
z
M 950 3200 
Q 1250 3175 1650 3175 
Q 2050 3175 2400 3200 
L 2400 2800 
Q 2000 2825 1750 2825 
L 1750 1975 
Q 2350 1975 2625 2000 
L 2625 1600 
Q 2300 1625 1750 1625 
L 1750 400 
Q 2175 750 2425 1025 
Q 2500 800 2650 600 
Q 2400 400 2087 137 
Q 1775 -125 1400 -475 
Q 1225 -250 1100 -100 
Q 1350 100 1325 575 
L 1325 1625 
Q 950 1625 525 1600 
L 525 2000 
Q 975 1975 1325 1975 
L 1325 2825 
Q 1150 2825 950 2800 
L 950 3200 
z
M 4675 3575 
Q 4625 3125 4600 2337 
Q 4575 1550 4425 1025 
Q 4275 525 3850 125 
Q 3425 -275 2775 -600 
Q 2625 -375 2375 -175 
Q 3050 50 3475 437 
Q 3900 825 4025 1325 
Q 4125 1825 4137 2475 
Q 4150 3125 4125 3650 
Q 4400 3600 4675 3575 
z
M 1900 5000 
Q 1775 4775 1525 4225 
L 1950 4225 
Q 2125 4225 2625 4250 
L 2625 3825 
Q 2100 3850 1800 3850 
L 1325 3850 
Q 1100 3550 900 3287 
Q 700 3025 525 2825 
Q 375 3050 225 3200 
Q 600 3575 912 4075 
Q 1225 4575 1375 5200 
Q 1625 5075 1900 5000 
z
M 4950 875 
Q 5600 350 6175 -150 
Q 5975 -325 5800 -575 
Q 5250 25 4625 475 
Q 4800 650 4950 875 
z
" transform="scale(0.015625)"/>
       <path id="SimHei-42" d="M 2950 1400 
Q 2950 675 2550 400 
Q 2150 125 1525 125 
L 275 125 
L 275 4400 
L 1575 4400 
Q 2200 4400 2512 4075 
Q 2825 3750 2825 3300 
Q 2825 2850 2612 2637 
Q 2400 2425 2175 2350 
Q 2475 2275 2712 2037 
Q 2950 1800 2950 1400 
z
M 2250 3300 
Q 2250 3625 2062 3775 
Q 1875 3925 1600 3925 
L 850 3925 
L 850 2600 
L 1575 2600 
Q 1850 2600 2050 2762 
Q 2250 2925 2250 3300 
z
M 2350 1400 
Q 2350 1800 2087 1962 
Q 1825 2125 1500 2125 
L 850 2125 
L 850 600 
L 1425 600 
Q 1875 600 2112 775 
Q 2350 950 2350 1400 
z
" transform="scale(0.015625)"/>
      </defs>
      <use xlink:href="#SimHei-6c27"/>
      <use xlink:href="#SimHei-5316" x="100"/>
      <use xlink:href="#SimHei-94a1" x="200"/>
      <use xlink:href="#SimHei-28" x="300"/>
      <use xlink:href="#SimHei-42" x="350"/>
      <use xlink:href="#SimHei-61" x="400"/>
      <use xlink:href="#SimHei-4f" x="450"/>
      <use xlink:href="#SimHei-29" x="500"/>
     </g>
    </g>
    <g id="patch_27">
     <path d="M 396.72 281.588906 
L 416.72 281.588906 
L 416.72 274.588906 
L 396.72 274.588906 
z
" style="fill: #c49c94"/>
    </g>
    <g id="text_13">
     <!-- 氧化锶(SrO) -->
     <g style="fill: #262626" transform="translate(424.72 281.588906)scale(0.1 -0.1)">
      <defs>
       <path id="SimHei-9536" d="M 5725 4925 
Q 5700 4375 5700 3550 
Q 5700 2750 5725 2000 
L 2750 2000 
Q 2775 2550 2775 3450 
Q 2775 4375 2750 4925 
L 5725 4925 
z
M 1775 5075 
Q 1650 4925 1325 4225 
Q 2100 4225 2475 4275 
L 2475 3825 
Q 2100 3850 1175 3850 
Q 875 3325 775 3175 
Q 1100 3150 1525 3150 
Q 1975 3150 2325 3175 
L 2325 2725 
Q 1925 2750 1575 2750 
L 1575 1925 
Q 2050 1925 2400 1950 
L 2400 1525 
Q 2075 1550 1575 1550 
L 1575 300 
Q 2025 625 2225 800 
Q 2250 625 2375 275 
Q 2050 100 1737 -125 
Q 1425 -350 1225 -525 
Q 1075 -275 925 -75 
Q 1125 75 1150 275 
L 1150 1550 
Q 800 1550 450 1525 
L 450 1950 
Q 800 1925 1150 1925 
L 1150 2750 
Q 1000 2750 750 2725 
L 750 3100 
Q 650 3000 525 2750 
Q 350 3000 200 3175 
Q 700 3900 912 4450 
Q 1125 5000 1175 5275 
Q 1450 5175 1775 5075 
z
M 3900 1400 
Q 3875 1075 3875 750 
L 3875 150 
Q 3850 -225 4075 -225 
L 4675 -225 
Q 4925 -225 4900 300 
Q 5100 175 5400 100 
Q 5250 -650 4775 -600 
L 3850 -600 
Q 3400 -600 3450 -150 
L 3450 750 
Q 3450 1075 3425 1400 
L 3900 1400 
z
M 5250 3625 
L 5250 4525 
L 4425 4525 
L 4425 3625 
L 5250 3625 
z
M 2325 -250 
Q 2475 0 2562 425 
Q 2650 850 2700 1250 
Q 2975 1200 3225 1150 
Q 3125 1025 3037 537 
Q 2950 50 2800 -375 
Q 2550 -300 2325 -250 
z
M 5250 2400 
L 5250 3250 
L 4425 3250 
L 4425 2400 
L 5250 2400 
z
M 4000 3625 
L 4000 4525 
L 3225 4525 
L 3225 3625 
L 4000 3625 
z
M 4000 2400 
L 4000 3250 
L 3225 3250 
L 3225 2400 
L 4000 2400 
z
M 5700 -175 
Q 5575 425 5250 1075 
Q 5425 1150 5675 1250 
Q 6000 475 6150 25 
Q 5925 -50 5700 -175 
z
M 4525 1725 
Q 4600 1500 4850 675 
Q 4600 625 4400 525 
Q 4350 825 4125 1600 
Q 4300 1675 4525 1725 
z
" transform="scale(0.015625)"/>
       <path id="SimHei-72" d="M 2500 2425 
Q 2025 2500 1700 2287 
Q 1375 2075 1150 1550 
L 1150 125 
L 650 125 
L 650 2925 
L 1150 2925 
L 1150 2200 
Q 1375 2600 1712 2787 
Q 2050 2975 2500 2975 
L 2500 2425 
z
" transform="scale(0.015625)"/>
      </defs>
      <use xlink:href="#SimHei-6c27"/>
      <use xlink:href="#SimHei-5316" x="100"/>
      <use xlink:href="#SimHei-9536" x="200"/>
      <use xlink:href="#SimHei-28" x="300"/>
      <use xlink:href="#SimHei-53" x="350"/>
      <use xlink:href="#SimHei-72" x="400"/>
      <use xlink:href="#SimHei-4f" x="450"/>
      <use xlink:href="#SimHei-29" x="500"/>
     </g>
    </g>
    <g id="patch_28">
     <path d="M 396.72 296.002969 
L 416.72 296.002969 
L 416.72 289.002969 
L 396.72 289.002969 
z
" style="fill: #e377c2"/>
    </g>
    <g id="text_14">
     <!-- 氧化锡(SnO2) -->
     <g style="fill: #262626" transform="translate(424.72 296.002969)scale(0.1 -0.1)">
      <defs>
       <path id="SimHei-9521" d="M 5650 4975 
Q 5625 4750 5625 3950 
Q 5625 3150 5650 2875 
L 3875 2875 
Q 3775 2575 3625 2325 
L 6050 2325 
Q 6000 1400 5937 575 
Q 5875 -250 5600 -387 
Q 5325 -525 4775 -550 
Q 4850 -250 4600 125 
Q 5325 0 5425 200 
Q 5525 400 5575 1975 
L 5125 1975 
Q 4950 1025 4562 537 
Q 4175 50 3800 -225 
Q 3425 -500 3125 -675 
Q 3025 -500 2775 -325 
Q 3375 -50 3900 462 
Q 4425 975 4700 1975 
L 4300 1975 
Q 4050 1250 3712 875 
Q 3375 500 3000 200 
Q 2850 400 2600 525 
Q 3175 900 3437 1225 
Q 3700 1550 3850 1975 
L 3450 1975 
Q 3100 1475 2800 1175 
Q 2600 1375 2375 1425 
Q 3075 2000 3400 2875 
L 2950 2875 
Q 2975 3275 2975 3925 
Q 2975 4575 2950 4975 
L 5650 4975 
z
M 1825 5100 
Q 1625 4925 1350 4375 
Q 2125 4375 2525 4400 
L 2525 4000 
Q 1925 4025 1200 4025 
Q 900 3500 775 3300 
Q 1175 3250 1525 3250 
Q 2075 3250 2325 3275 
L 2325 2850 
Q 1950 2875 1625 2875 
L 1625 2075 
Q 2125 2075 2450 2100 
L 2450 1675 
Q 2075 1700 1625 1700 
L 1625 400 
Q 2050 775 2225 900 
Q 2250 700 2375 450 
Q 2125 300 1800 50 
L 1250 -400 
Q 1150 -200 950 25 
Q 1125 125 1175 275 
L 1175 1700 
Q 825 1700 375 1675 
L 375 2100 
Q 825 2075 1175 2075 
L 1175 2875 
Q 1000 2875 700 2850 
L 700 3200 
L 550 3025 
Q 375 3200 200 3350 
Q 600 3800 850 4362 
Q 1100 4925 1225 5300 
Q 1475 5150 1825 5100 
z
M 5200 3225 
L 5200 3750 
L 3400 3750 
L 3400 3225 
L 5200 3225 
z
M 5200 4125 
L 5200 4625 
L 3400 4625 
L 3400 4125 
L 5200 4125 
z
" transform="scale(0.015625)"/>
       <path id="SimHei-6e" d="M 2800 125 
L 2300 125 
L 2300 1925 
Q 2300 2225 2150 2400 
Q 2000 2575 1750 2575 
Q 1425 2575 1137 2237 
Q 850 1900 850 1400 
L 850 125 
L 350 125 
L 350 2925 
L 850 2925 
L 850 2400 
Q 1050 2675 1287 2825 
Q 1525 2975 1900 2975 
Q 2350 2975 2575 2725 
Q 2800 2475 2800 2100 
L 2800 125 
z
" transform="scale(0.015625)"/>
      </defs>
      <use xlink:href="#SimHei-6c27"/>
      <use xlink:href="#SimHei-5316" x="100"/>
      <use xlink:href="#SimHei-9521" x="200"/>
      <use xlink:href="#SimHei-28" x="300"/>
      <use xlink:href="#SimHei-53" x="350"/>
      <use xlink:href="#SimHei-6e" x="400"/>
      <use xlink:href="#SimHei-4f" x="450"/>
      <use xlink:href="#SimHei-32" x="500"/>
      <use xlink:href="#SimHei-29" x="550"/>
     </g>
    </g>
    <g id="patch_29">
     <path d="M 396.72 310.417031 
L 416.72 310.417031 
L 416.72 303.417031 
L 396.72 303.417031 
z
" style="fill: #f7b6d2"/>
    </g>
    <g id="text_15">
     <!-- 二氧化硫(SO2) -->
     <g style="fill: #262626" transform="translate(424.72 310.417031)scale(0.1 -0.1)">
      <defs>
       <path id="SimHei-786b" d="M 1725 4200 
Q 1675 4000 1587 3612 
Q 1500 3225 1375 2900 
L 2350 2900 
Q 2325 2450 2325 2100 
L 2325 1025 
Q 2325 700 2350 225 
L 1900 225 
L 1900 575 
L 1325 575 
L 1325 -50 
L 875 -50 
Q 900 400 900 750 
L 900 2075 
Q 825 1875 575 1600 
Q 450 1825 275 2000 
Q 675 2375 925 2987 
Q 1175 3600 1250 4200 
Q 850 4200 475 4175 
L 475 4600 
Q 800 4575 1125 4575 
L 1825 4575 
Q 2125 4575 2400 4600 
L 2400 4175 
Q 2050 4200 1725 4200 
z
M 5950 2425 
Q 5675 2225 5550 2125 
Q 5375 2425 5250 2575 
Q 4025 2475 3562 2437 
Q 3100 2400 2825 2325 
Q 2725 2650 2650 2800 
Q 2800 2825 3125 3212 
Q 3450 3600 3700 4075 
L 3300 4075 
Q 2900 4075 2575 4050 
L 2575 4500 
Q 2950 4475 3300 4475 
L 3950 4475 
Q 3875 4750 3675 5000 
Q 3850 5050 4150 5175 
Q 4375 4800 4500 4475 
L 5150 4475 
Q 5600 4475 6025 4500 
L 6025 4050 
Q 5700 4075 5150 4075 
L 3775 4075 
Q 3850 4025 3975 3937 
Q 4100 3850 4200 3800 
Q 4025 3700 3800 3437 
Q 3575 3175 3250 2825 
Q 4100 2875 5025 2925 
Q 4750 3225 4550 3375 
L 4875 3675 
Q 5625 2850 5950 2425 
z
M 5200 2050 
Q 5175 1625 5175 1400 
L 5175 300 
Q 5150 -75 5262 -125 
Q 5375 -175 5487 -150 
Q 5600 -125 5650 0 
Q 5700 125 5700 500 
Q 5900 350 6175 300 
Q 6075 -300 5912 -425 
Q 5750 -550 5425 -550 
Q 5100 -550 4925 -450 
Q 4750 -350 4750 -50 
L 4750 1350 
Q 4750 1650 4725 2050 
L 5200 2050 
z
M 3450 2000 
Q 3400 1725 3375 1450 
Q 3350 1175 3287 837 
Q 3225 500 3012 87 
Q 2800 -325 2375 -650 
Q 2275 -475 2025 -300 
Q 2350 -150 2562 175 
Q 2775 500 2862 862 
Q 2950 1225 2925 2075 
Q 3175 2000 3450 2000 
z
M 4300 1850 
Q 4275 1500 4275 1225 
L 4275 300 
Q 4275 -25 4300 -475 
L 3825 -475 
Q 3850 0 3850 300 
L 3850 1375 
Q 3850 1650 3825 1850 
L 4300 1850 
z
M 1900 950 
L 1900 2500 
L 1325 2500 
L 1325 950 
L 1900 950 
z
" transform="scale(0.015625)"/>
      </defs>
      <use xlink:href="#SimHei-4e8c"/>
      <use xlink:href="#SimHei-6c27" x="100"/>
      <use xlink:href="#SimHei-5316" x="200"/>
      <use xlink:href="#SimHei-786b" x="300"/>
      <use xlink:href="#SimHei-28" x="400"/>
      <use xlink:href="#SimHei-53" x="450"/>
      <use xlink:href="#SimHei-4f" x="500"/>
      <use xlink:href="#SimHei-32" x="550"/>
      <use xlink:href="#SimHei-29" x="600"/>
     </g>
    </g>
   </g>
  </g>
 </g>
</svg>
