<?xml version="1.0" encoding="utf-8" standalone="no"?>
<!DOCTYPE svg PUBLIC "-//W3C//DTD SVG 1.1//EN"
  "http://www.w3.org/Graphics/SVG/1.1/DTD/svg11.dtd">
<svg xmlns:xlink="http://www.w3.org/1999/xlink" width="360pt" height="288pt" viewBox="0 0 360 288" xmlns="http://www.w3.org/2000/svg" version="1.1">
 <metadata>
  <rdf:RDF xmlns:dc="http://purl.org/dc/elements/1.1/" xmlns:cc="http://creativecommons.org/ns#" xmlns:rdf="http://www.w3.org/1999/02/22-rdf-syntax-ns#">
   <cc:Work>
    <dc:type rdf:resource="http://purl.org/dc/dcmitype/StillImage"/>
    <dc:date>2022-09-18T12:22:26.046382</dc:date>
    <dc:format>image/svg+xml</dc:format>
    <dc:creator>
     <cc:Agent>
      <dc:title>Matplotlib v3.5.1, https://matplotlib.org/</dc:title>
     </cc:Agent>
    </dc:creator>
   </cc:Work>
  </rdf:RDF>
 </metadata>
 <defs>
  <style type="text/css">*{stroke-linejoin: round; stroke-linecap: butt}</style>
 </defs>
 <g id="figure_1">
  <g id="patch_1">
   <path d="M 0 288 
L 360 288 
L 360 0 
L 0 0 
L 0 288 
z
" style="fill: none"/>
  </g>
  <g id="axes_1">
   <g id="patch_2">
    <path d="M 45 252 
L 324 252 
L 324 34.56 
L 45 34.56 
z
" style="fill: #ffffff"/>
   </g>
   <g id="PathCollection_1">
    <defs>
     <path id="mb352005b46" d="M 0 3 
C 0.795609 3 1.55874 2.683901 2.12132 2.12132 
C 2.683901 1.55874 3 0.795609 3 0 
C 3 -0.795609 2.683901 -1.55874 2.12132 -2.12132 
C 1.55874 -2.683901 0.795609 -3 0 -3 
C -0.795609 -3 -1.55874 -2.683901 -2.12132 -2.12132 
C -2.683901 -1.55874 -3 -0.795609 -3 0 
C -3 0.795609 -2.683901 1.55874 -2.12132 2.12132 
C -1.55874 2.683901 -0.795609 3 0 3 
z
" style="stroke: #1f77b4; stroke-opacity: 0.8"/>
    </defs>
    <g clip-path="url(#p619bc06146)">
     <use xlink:href="#mb352005b46" x="134.214261" y="185.170909" style="fill: #1f77b4; fill-opacity: 0.8; stroke: #1f77b4; stroke-opacity: 0.8"/>
     <use xlink:href="#mb352005b46" x="137.403112" y="242.116364" style="fill: #1f77b4; fill-opacity: 0.8; stroke: #1f77b4; stroke-opacity: 0.8"/>
     <use xlink:href="#mb352005b46" x="172.725778" y="171.425455" style="fill: #1f77b4; fill-opacity: 0.8; stroke: #1f77b4; stroke-opacity: 0.8"/>
     <use xlink:href="#mb352005b46" x="195.783629" y="174.698182" style="fill: #1f77b4; fill-opacity: 0.8; stroke: #1f77b4; stroke-opacity: 0.8"/>
     <use xlink:href="#mb352005b46" x="221.785036" y="156.370909" style="fill: #1f77b4; fill-opacity: 0.8; stroke: #1f77b4; stroke-opacity: 0.8"/>
     <use xlink:href="#mb352005b46" x="311.318182" y="163.898182" style="fill: #1f77b4; fill-opacity: 0.8; stroke: #1f77b4; stroke-opacity: 0.8"/>
     <use xlink:href="#mb352005b46" x="284.33559" y="44.443636" style="fill: #1f77b4; fill-opacity: 0.8; stroke: #1f77b4; stroke-opacity: 0.8"/>
     <use xlink:href="#mb352005b46" x="86.381484" y="236.552727" style="fill: #1f77b4; fill-opacity: 0.8; stroke: #1f77b4; stroke-opacity: 0.8"/>
     <use xlink:href="#mb352005b46" x="70.191929" y="231.643636" style="fill: #1f77b4; fill-opacity: 0.8; stroke: #1f77b4; stroke-opacity: 0.8"/>
     <use xlink:href="#mb352005b46" x="57.681818" y="233.607273" style="fill: #1f77b4; fill-opacity: 0.8; stroke: #1f77b4; stroke-opacity: 0.8"/>
     <use xlink:href="#mb352005b46" x="73.626077" y="232.625455" style="fill: #1f77b4; fill-opacity: 0.8; stroke: #1f77b4; stroke-opacity: 0.8"/>
     <use xlink:href="#mb352005b46" x="188.915333" y="147.861818" style="fill: #1f77b4; fill-opacity: 0.8; stroke: #1f77b4; stroke-opacity: 0.8"/>
     <use xlink:href="#mb352005b46" x="264.221294" y="225.752727" style="fill: #1f77b4; fill-opacity: 0.8; stroke: #1f77b4; stroke-opacity: 0.8"/>
     <use xlink:href="#mb352005b46" x="189.405926" y="228.370909" style="fill: #1f77b4; fill-opacity: 0.8; stroke: #1f77b4; stroke-opacity: 0.8"/>
     <use xlink:href="#mb352005b46" x="112.628187" y="242.116364" style="fill: #1f77b4; fill-opacity: 0.8; stroke: #1f77b4; stroke-opacity: 0.8"/>
     <use xlink:href="#mb352005b46" x="189.651222" y="164.552727" style="fill: #1f77b4; fill-opacity: 0.8; stroke: #1f77b4; stroke-opacity: 0.8"/>
     <use xlink:href="#mb352005b46" x="123.66652" y="230.661818" style="fill: #1f77b4; fill-opacity: 0.8; stroke: #1f77b4; stroke-opacity: 0.8"/>
     <use xlink:href="#mb352005b46" x="99.382187" y="235.570909" style="fill: #1f77b4; fill-opacity: 0.8; stroke: #1f77b4; stroke-opacity: 0.8"/>
    </g>
   </g>
   <g id="matplotlib.axis_1">
    <g id="xtick_1">
     <g id="line2d_1">
      <defs>
       <path id="m2446efd703" d="M 0 0 
L 0 3.5 
" style="stroke: #000000; stroke-width: 0.8"/>
      </defs>
      <g>
       <use xlink:href="#m2446efd703" x="99.136891" y="252" style="stroke: #000000; stroke-width: 0.8"/>
      </g>
     </g>
     <g id="text_1">
      <!-- 2.5 -->
      <g transform="translate(87.136891 270)scale(0.16 -0.16)">
       <defs>
        <path id="SimHei-32" d="M 300 250 
Q 325 625 650 925 
Q 975 1225 1475 1862 
Q 1975 2500 2125 2850 
Q 2275 3200 2237 3450 
Q 2200 3700 2000 3862 
Q 1800 4025 1537 4000 
Q 1275 3975 1037 3800 
Q 800 3625 675 3275 
L 200 3350 
Q 400 3925 712 4187 
Q 1025 4450 1450 4475 
Q 1700 4500 1900 4462 
Q 2100 4425 2312 4287 
Q 2525 4150 2662 3875 
Q 2800 3600 2762 3212 
Q 2725 2825 2375 2287 
Q 2025 1750 1025 600 
L 2825 600 
L 2825 150 
L 300 150 
L 300 250 
z
" transform="scale(0.015625)"/>
        <path id="SimHei-2e" d="M 1075 125 
L 500 125 
L 500 675 
L 1075 675 
L 1075 125 
z
" transform="scale(0.015625)"/>
        <path id="SimHei-35" d="M 550 1325 
Q 725 650 1150 575 
Q 1575 500 1837 662 
Q 2100 825 2212 1087 
Q 2325 1350 2312 1675 
Q 2300 2000 2137 2225 
Q 1975 2450 1725 2525 
Q 1475 2600 1162 2525 
Q 850 2450 650 2175 
L 225 2225 
Q 275 2375 700 4375 
L 2675 4375 
L 2675 3925 
L 1075 3925 
Q 950 3250 825 2850 
Q 1200 3025 1525 3012 
Q 1850 3000 2150 2862 
Q 2450 2725 2587 2487 
Q 2725 2250 2787 2012 
Q 2850 1775 2837 1500 
Q 2825 1225 2725 937 
Q 2625 650 2425 462 
Q 2225 275 1937 162 
Q 1650 50 1275 75 
Q 900 100 562 350 
Q 225 600 100 1200 
L 550 1325 
z
" transform="scale(0.015625)"/>
       </defs>
       <use xlink:href="#SimHei-32"/>
       <use xlink:href="#SimHei-2e" x="50"/>
       <use xlink:href="#SimHei-35" x="100"/>
      </g>
     </g>
    </g>
    <g id="xtick_2">
     <g id="line2d_2">
      <g>
       <use xlink:href="#m2446efd703" x="160.460964" y="252" style="stroke: #000000; stroke-width: 0.8"/>
      </g>
     </g>
     <g id="text_2">
      <!-- 5.0 -->
      <g transform="translate(148.460964 270)scale(0.16 -0.16)">
       <defs>
        <path id="SimHei-30" d="M 225 2537 
Q 250 3200 412 3587 
Q 575 3975 875 4225 
Q 1175 4475 1612 4475 
Q 2050 4475 2375 4112 
Q 2700 3750 2800 3200 
Q 2900 2650 2862 1937 
Q 2825 1225 2612 775 
Q 2400 325 1975 150 
Q 1550 -25 1125 187 
Q 700 400 525 750 
Q 350 1100 275 1487 
Q 200 1875 225 2537 
z
M 750 2687 
Q 675 2000 800 1462 
Q 925 925 1212 700 
Q 1500 475 1800 612 
Q 2100 750 2237 1162 
Q 2375 1575 2375 2062 
Q 2375 2550 2337 2950 
Q 2300 3350 2112 3675 
Q 1925 4000 1612 4012 
Q 1300 4025 1062 3700 
Q 825 3375 750 2687 
z
" transform="scale(0.015625)"/>
       </defs>
       <use xlink:href="#SimHei-35"/>
       <use xlink:href="#SimHei-2e" x="50"/>
       <use xlink:href="#SimHei-30" x="100"/>
      </g>
     </g>
    </g>
    <g id="xtick_3">
     <g id="line2d_3">
      <g>
       <use xlink:href="#m2446efd703" x="221.785036" y="252" style="stroke: #000000; stroke-width: 0.8"/>
      </g>
     </g>
     <g id="text_3">
      <!-- 7.5 -->
      <g transform="translate(209.785036 270)scale(0.16 -0.16)">
       <defs>
        <path id="SimHei-37" d="M 850 150 
Q 1300 2050 2425 3925 
L 275 3925 
L 275 4375 
L 2950 4375 
L 2950 3950 
Q 1775 2050 1400 150 
L 850 150 
z
" transform="scale(0.015625)"/>
       </defs>
       <use xlink:href="#SimHei-37"/>
       <use xlink:href="#SimHei-2e" x="50"/>
       <use xlink:href="#SimHei-35" x="100"/>
      </g>
     </g>
    </g>
    <g id="xtick_4">
     <g id="line2d_4">
      <g>
       <use xlink:href="#m2446efd703" x="283.109108" y="252" style="stroke: #000000; stroke-width: 0.8"/>
      </g>
     </g>
     <g id="text_4">
      <!-- 10.0 -->
      <g transform="translate(267.109108 270)scale(0.16 -0.16)">
       <defs>
        <path id="SimHei-31" d="M 1400 3600 
Q 1075 3275 575 2975 
L 575 3450 
Q 1200 3875 1600 4450 
L 1900 4450 
L 1900 150 
L 1400 150 
L 1400 3600 
z
" transform="scale(0.015625)"/>
       </defs>
       <use xlink:href="#SimHei-31"/>
       <use xlink:href="#SimHei-30" x="50"/>
       <use xlink:href="#SimHei-2e" x="100"/>
       <use xlink:href="#SimHei-30" x="150"/>
      </g>
     </g>
    </g>
    <g id="text_5">
     <!-- 氧化铝(Al2O3) -->
     <g transform="translate(132.5 289.0625)scale(0.16 -0.16)">
      <defs>
       <path id="SimHei-6c27" d="M 1825 2675 
Q 2125 2375 2300 2100 
Q 2125 1975 1950 1900 
L 2900 1900 
Q 3150 2200 3325 2625 
Q 3525 2500 3850 2400 
Q 3700 2300 3400 1900 
L 3625 1900 
Q 3950 1900 4300 1925 
L 4300 1525 
Q 3825 1550 3525 1550 
L 2850 1550 
L 2850 1075 
L 3400 1075 
Q 3675 1075 4050 1100 
L 4050 700 
Q 3675 725 3400 725 
L 2850 725 
L 2850 325 
L 3775 325 
Q 4075 325 4450 350 
L 4450 -75 
Q 4075 -50 3775 -50 
L 2850 -50 
Q 2850 -350 2875 -675 
L 2375 -675 
Q 2400 -350 2400 -50 
L 1325 -50 
Q 975 -50 600 -75 
L 600 350 
Q 975 350 1325 325 
L 2400 325 
L 2400 725 
L 1700 725 
Q 1300 725 925 700 
L 925 1100 
Q 1300 1100 1675 1075 
L 2400 1075 
L 2400 1550 
L 1525 1550 
Q 1200 1550 750 1525 
L 750 1925 
Q 1200 1925 1525 1900 
L 1925 1900 
Q 1725 2175 1475 2425 
Q 1600 2525 1825 2675 
z
M 1775 2750 
Q 1375 2750 750 2700 
L 750 3175 
Q 1375 3150 1775 3150 
L 5225 3150 
Q 5125 2250 5150 1537 
Q 5175 825 5325 250 
Q 5475 -325 5650 550 
Q 5800 325 6125 225 
Q 5800 -575 5587 -650 
Q 5375 -725 5100 -337 
Q 4825 50 4750 1000 
Q 4675 1950 4725 2750 
L 1775 2750 
z
M 2225 5025 
Q 2050 4900 1925 4775 
L 4675 4775 
Q 5000 4775 5575 4800 
L 5575 4350 
Q 5125 4375 4725 4375 
L 1675 4375 
Q 1475 4150 1212 3862 
Q 950 3575 600 3275 
Q 450 3425 200 3600 
Q 500 3800 925 4250 
Q 1350 4700 1675 5300 
Q 1925 5125 2225 5025 
z
M 4250 3925 
Q 4725 3925 5050 3950 
L 5050 3525 
Q 4725 3550 4250 3550 
L 2500 3550 
Q 2025 3550 1425 3525 
L 1425 3950 
Q 2025 3925 2500 3925 
L 4250 3925 
z
" transform="scale(0.015625)"/>
       <path id="SimHei-5316" d="M 3925 5025 
Q 3900 4900 3900 4400 
L 3900 2625 
Q 4375 3025 4775 3450 
Q 5175 3875 5400 4300 
Q 5600 4100 5900 3925 
Q 5700 3700 5225 3212 
Q 4750 2725 4487 2512 
Q 4225 2300 3900 2025 
L 3900 450 
Q 3900 50 4225 50 
L 5200 50 
Q 5400 75 5462 262 
Q 5525 450 5575 850 
Q 5800 650 6150 600 
Q 6000 -100 5825 -250 
Q 5650 -400 5350 -400 
L 3950 -400 
Q 3425 -400 3400 200 
L 3400 1675 
Q 3225 1525 2962 1350 
Q 2700 1175 2375 975 
Q 2225 1225 2025 1400 
Q 2350 1550 2737 1787 
Q 3125 2025 3400 2250 
L 3400 4500 
Q 3400 4800 3375 5025 
L 3925 5025 
z
M 2400 4850 
Q 2175 4550 2075 4337 
Q 1975 4125 1825 3775 
L 1825 675 
Q 1825 -75 1850 -550 
L 1325 -550 
Q 1350 -125 1350 650 
L 1350 3050 
Q 1125 2725 962 2525 
Q 800 2325 675 2175 
Q 500 2375 275 2525 
Q 625 2850 875 3212 
Q 1125 3575 1312 3912 
Q 1500 4250 1625 4575 
Q 1750 4900 1825 5100 
Q 1975 4975 2400 4850 
z
" transform="scale(0.015625)"/>
       <path id="SimHei-94dd" d="M 5775 2175 
Q 5750 1850 5750 1375 
L 5750 475 
Q 5750 -75 5775 -600 
L 5300 -600 
L 5300 -75 
L 3175 -75 
L 3175 -600 
L 2700 -600 
Q 2725 -175 2725 375 
L 2725 1350 
Q 2725 1775 2700 2175 
L 5775 2175 
z
M 5525 4975 
Q 5500 4700 5500 4250 
L 5500 3825 
Q 5500 3250 5525 2900 
L 2925 2900 
Q 2950 3375 2950 3725 
L 2950 4225 
Q 2950 4625 2925 4975 
L 5525 4975 
z
M 1975 3225 
Q 2150 3225 2400 3250 
L 2400 2800 
Q 2000 2825 1750 2825 
L 1750 2075 
Q 2150 2075 2550 2100 
L 2550 1625 
Q 2150 1650 1750 1650 
L 1750 400 
Q 2175 775 2425 975 
Q 2500 750 2625 550 
Q 2400 400 2087 125 
Q 1775 -150 1425 -500 
Q 1275 -275 1075 -100 
Q 1225 75 1275 350 
L 1275 1650 
Q 950 1650 575 1625 
L 575 2100 
Q 975 2075 1275 2075 
L 1275 2825 
Q 1150 2825 900 2800 
L 900 3225 
L 550 2775 
Q 375 3000 200 3175 
Q 575 3550 837 4087 
Q 1100 4625 1250 5250 
Q 1475 5075 1900 4975 
Q 1550 4475 1475 4275 
L 1800 4275 
Q 2100 4275 2550 4300 
L 2550 3850 
Q 2100 3875 1800 3875 
L 1300 3875 
Q 1200 3725 925 3250 
Q 1075 3250 1325 3225 
L 1975 3225 
z
M 5300 350 
L 5300 1750 
L 3175 1750 
L 3175 350 
L 5300 350 
z
M 5050 3300 
L 5050 4575 
L 3400 4575 
L 3400 3300 
L 5050 3300 
z
" transform="scale(0.015625)"/>
       <path id="SimHei-28" d="M 2975 -200 
L 2700 -475 
Q 2075 125 1762 775 
Q 1450 1425 1450 2250 
Q 1450 3075 1762 3725 
Q 2075 4375 2700 5000 
L 2975 4725 
Q 2400 4175 2112 3587 
Q 1825 3000 1825 2250 
Q 1825 1500 2112 912 
Q 2400 325 2975 -200 
z
" transform="scale(0.015625)"/>
       <path id="SimHei-41" d="M 3075 125 
L 2475 125 
L 2125 1450 
L 1025 1450 
L 675 125 
L 75 125 
L 1325 4450 
L 1825 4450 
L 3075 125 
z
M 2000 1925 
L 1600 3450 
L 1550 3450 
L 1150 1925 
L 2000 1925 
z
" transform="scale(0.015625)"/>
       <path id="SimHei-6c" d="M 1825 125 
L 1325 125 
L 1325 4400 
L 1825 4400 
L 1825 125 
z
" transform="scale(0.015625)"/>
       <path id="SimHei-4f" d="M 2950 2275 
Q 2950 1100 2587 587 
Q 2225 75 1575 75 
Q 925 75 550 587 
Q 175 1100 175 2275 
Q 175 3450 550 3950 
Q 925 4450 1575 4450 
Q 2225 4450 2587 3950 
Q 2950 3450 2950 2275 
z
M 2350 2275 
Q 2350 3325 2125 3650 
Q 1900 3975 1575 3975 
Q 1250 3975 1012 3650 
Q 775 3325 775 2275 
Q 775 1225 1012 887 
Q 1250 550 1575 550 
Q 1900 550 2125 887 
Q 2350 1225 2350 2275 
z
" transform="scale(0.015625)"/>
       <path id="SimHei-33" d="M 250 1225 
L 700 1300 
Q 800 975 1025 762 
Q 1250 550 1587 562 
Q 1925 575 2125 837 
Q 2325 1100 2300 1437 
Q 2275 1775 2037 1962 
Q 1800 2150 1275 2225 
L 1275 2550 
Q 1800 2600 2037 2825 
Q 2275 3050 2250 3412 
Q 2225 3775 1925 3937 
Q 1625 4100 1287 3975 
Q 950 3850 750 3275 
L 300 3350 
Q 450 3800 712 4100 
Q 975 4400 1425 4450 
Q 1875 4500 2212 4337 
Q 2550 4175 2687 3837 
Q 2825 3500 2725 3100 
Q 2625 2700 2150 2400 
Q 2500 2250 2687 1950 
Q 2875 1650 2812 1162 
Q 2750 675 2375 375 
Q 2000 75 1525 87 
Q 1050 100 700 387 
Q 350 675 250 1225 
z
" transform="scale(0.015625)"/>
       <path id="SimHei-29" d="M 1675 2250 
Q 1675 1425 1362 775 
Q 1050 125 425 -475 
L 150 -200 
Q 725 325 1012 912 
Q 1300 1500 1300 2250 
Q 1300 3000 1012 3587 
Q 725 4175 150 4725 
L 425 5000 
Q 1050 4375 1362 3725 
Q 1675 3075 1675 2250 
z
" transform="scale(0.015625)"/>
      </defs>
      <use xlink:href="#SimHei-6c27"/>
      <use xlink:href="#SimHei-5316" x="100"/>
      <use xlink:href="#SimHei-94dd" x="200"/>
      <use xlink:href="#SimHei-28" x="300"/>
      <use xlink:href="#SimHei-41" x="350"/>
      <use xlink:href="#SimHei-6c" x="400"/>
      <use xlink:href="#SimHei-32" x="450"/>
      <use xlink:href="#SimHei-4f" x="500"/>
      <use xlink:href="#SimHei-33" x="550"/>
      <use xlink:href="#SimHei-29" x="600"/>
     </g>
    </g>
   </g>
   <g id="matplotlib.axis_2">
    <g id="ytick_1">
     <g id="line2d_5">
      <defs>
       <path id="mef76d47bd9" d="M 0 0 
L -3.5 0 
" style="stroke: #000000; stroke-width: 0.8"/>
      </defs>
      <g>
       <use xlink:href="#mef76d47bd9" x="45" y="242.116364" style="stroke: #000000; stroke-width: 0.8"/>
      </g>
     </g>
     <g id="text_6">
      <!-- 0 -->
      <g transform="translate(30 247.616364)scale(0.16 -0.16)">
       <use xlink:href="#SimHei-30"/>
      </g>
     </g>
    </g>
    <g id="ytick_2">
     <g id="line2d_6">
      <g>
       <use xlink:href="#mef76d47bd9" x="45" y="176.661818" style="stroke: #000000; stroke-width: 0.8"/>
      </g>
     </g>
     <g id="text_7">
      <!-- 2 -->
      <g transform="translate(30 182.161818)scale(0.16 -0.16)">
       <use xlink:href="#SimHei-32"/>
      </g>
     </g>
    </g>
    <g id="ytick_3">
     <g id="line2d_7">
      <g>
       <use xlink:href="#mef76d47bd9" x="45" y="111.207273" style="stroke: #000000; stroke-width: 0.8"/>
      </g>
     </g>
     <g id="text_8">
      <!-- 4 -->
      <g transform="translate(30 116.707273)scale(0.16 -0.16)">
       <defs>
        <path id="SimHei-34" d="M 2000 1100 
L 75 1100 
L 75 1525 
L 2100 4450 
L 2475 4450 
L 2475 1525 
L 3075 1525 
L 3075 1100 
L 2475 1100 
L 2475 150 
L 2000 150 
L 2000 1100 
z
M 2000 1525 
L 2000 3500 
L 600 1525 
L 2000 1525 
z
" transform="scale(0.015625)"/>
       </defs>
       <use xlink:href="#SimHei-34"/>
      </g>
     </g>
    </g>
    <g id="ytick_4">
     <g id="line2d_8">
      <g>
       <use xlink:href="#mef76d47bd9" x="45" y="45.752727" style="stroke: #000000; stroke-width: 0.8"/>
      </g>
     </g>
     <g id="text_9">
      <!-- 6 -->
      <g transform="translate(30 51.252727)scale(0.16 -0.16)">
       <defs>
        <path id="SimHei-36" d="M 250 1612 
Q 275 1975 387 2225 
Q 500 2475 725 2850 
L 1750 4450 
L 2325 4450 
L 1275 2800 
Q 1950 2975 2350 2750 
Q 2750 2525 2887 2237 
Q 3025 1950 3037 1612 
Q 3050 1275 2937 950 
Q 2825 625 2537 362 
Q 2250 100 1737 75 
Q 1225 50 862 262 
Q 500 475 362 862 
Q 225 1250 250 1612 
z
M 1025 787 
Q 1250 550 1625 525 
Q 2000 500 2250 775 
Q 2500 1050 2500 1575 
Q 2500 2100 2187 2300 
Q 1875 2500 1487 2450 
Q 1100 2400 925 2075 
Q 750 1750 775 1387 
Q 800 1025 1025 787 
z
" transform="scale(0.015625)"/>
       </defs>
       <use xlink:href="#SimHei-36"/>
      </g>
     </g>
    </g>
    <g id="text_10">
     <!-- 氧化铁(Fe2O3) -->
     <g transform="translate(24 195.28)rotate(-90)scale(0.16 -0.16)">
      <defs>
       <path id="SimHei-94c1" d="M 3675 4550 
Q 3550 4375 3425 3950 
L 4050 3950 
Q 4050 4850 4025 5200 
Q 4275 5175 4600 5150 
Q 4525 4925 4512 4625 
Q 4500 4325 4500 3950 
Q 5375 3950 5725 3975 
L 5725 3525 
Q 5375 3550 4500 3550 
Q 4500 2975 4475 2325 
L 5225 2325 
Q 5625 2325 5975 2350 
L 5975 1900 
Q 5625 1925 5225 1925 
L 4600 1925 
Q 4925 1125 5362 625 
Q 5800 125 6200 -50 
Q 5875 -300 5775 -550 
Q 5225 -100 4850 437 
Q 4475 975 4325 1450 
Q 4100 775 3687 300 
Q 3275 -175 2625 -600 
Q 2500 -350 2225 -200 
Q 2950 125 3375 687 
Q 3800 1250 3925 1900 
Q 2975 1900 2575 1875 
L 2575 2325 
L 4000 2325 
Q 4050 2925 4050 3550 
L 3325 3550 
L 3025 2700 
Q 2825 2825 2575 2875 
Q 2800 3350 2950 3850 
Q 3100 4350 3125 4725 
Q 3400 4625 3675 4550 
z
M 1800 4850 
Q 1650 4725 1325 4200 
L 1900 4200 
Q 2175 4200 2625 4225 
L 2625 3775 
Q 2175 3800 1900 3800 
L 1125 3800 
Q 950 3500 725 3150 
Q 1100 3125 1525 3125 
Q 1975 3125 2350 3150 
L 2350 2725 
Q 1975 2750 1575 2750 
L 1575 2000 
Q 1975 2000 2425 2025 
L 2425 1575 
Q 1975 1600 1575 1600 
L 1575 400 
Q 2025 725 2375 1075 
Q 2475 825 2625 600 
Q 2350 450 1962 150 
Q 1575 -150 1300 -450 
Q 1125 -175 950 -25 
Q 1100 150 1125 375 
L 1125 1600 
Q 825 1600 450 1575 
L 450 2025 
Q 825 2000 1125 2000 
L 1125 2750 
Q 975 2750 625 2725 
L 625 3050 
L 500 2875 
Q 375 3075 200 3250 
Q 500 3550 812 4137 
Q 1125 4725 1225 5100 
Q 1500 4950 1800 4850 
z
" transform="scale(0.015625)"/>
       <path id="SimHei-46" d="M 2925 3925 
L 875 3925 
L 875 2525 
L 2425 2525 
L 2425 2050 
L 875 2050 
L 875 125 
L 300 125 
L 300 4400 
L 2925 4400 
L 2925 3925 
z
" transform="scale(0.015625)"/>
       <path id="SimHei-65" d="M 2850 1075 
Q 2800 625 2450 350 
Q 2100 75 1625 75 
Q 1025 75 637 462 
Q 250 850 250 1525 
Q 250 2200 637 2587 
Q 1025 2975 1625 2975 
Q 2150 2975 2487 2637 
Q 2825 2300 2825 1525 
L 800 1525 
Q 800 975 1037 750 
Q 1275 525 1625 525 
Q 1900 525 2075 662 
Q 2250 800 2300 1075 
L 2850 1075 
z
M 2250 1925 
Q 2200 2275 2025 2412 
Q 1850 2550 1575 2550 
Q 1325 2550 1125 2412 
Q 925 2275 825 1925 
L 2250 1925 
z
" transform="scale(0.015625)"/>
      </defs>
      <use xlink:href="#SimHei-6c27"/>
      <use xlink:href="#SimHei-5316" x="100"/>
      <use xlink:href="#SimHei-94c1" x="200"/>
      <use xlink:href="#SimHei-28" x="300"/>
      <use xlink:href="#SimHei-46" x="350"/>
      <use xlink:href="#SimHei-65" x="400"/>
      <use xlink:href="#SimHei-32" x="450"/>
      <use xlink:href="#SimHei-4f" x="500"/>
      <use xlink:href="#SimHei-33" x="550"/>
      <use xlink:href="#SimHei-29" x="600"/>
     </g>
    </g>
   </g>
   <g id="patch_3">
    <path d="M 45 252 
L 45 34.56 
" style="fill: none; stroke: #000000; stroke-width: 0.8; stroke-linejoin: miter; stroke-linecap: square"/>
   </g>
   <g id="patch_4">
    <path d="M 324 252 
L 324 34.56 
" style="fill: none; stroke: #000000; stroke-width: 0.8; stroke-linejoin: miter; stroke-linecap: square"/>
   </g>
   <g id="patch_5">
    <path d="M 45 252 
L 324 252 
" style="fill: none; stroke: #000000; stroke-width: 0.8; stroke-linejoin: miter; stroke-linecap: square"/>
   </g>
   <g id="patch_6">
    <path d="M 45 34.56 
L 324 34.56 
" style="fill: none; stroke: #000000; stroke-width: 0.8; stroke-linejoin: miter; stroke-linecap: square"/>
   </g>
   <g id="text_11">
    <!-- 高钾组氧化铝与氧化铁散点图 -->
    <g transform="translate(80.5 28.56)scale(0.16 -0.16)">
     <defs>
      <path id="SimHei-9ad8" d="M 5825 -25 
Q 5850 -400 5550 -500 
Q 5250 -600 4975 -625 
Q 4875 -325 4725 -100 
Q 4975 -100 5175 -87 
Q 5375 -75 5350 250 
L 5350 1825 
L 1100 1825 
L 1100 -575 
L 600 -575 
Q 625 -225 625 850 
Q 625 1950 600 2200 
L 5850 2200 
Q 5825 1850 5825 1425 
L 5825 -25 
z
M 4925 3800 
Q 4900 3475 4900 3175 
Q 4900 2900 4925 2600 
L 1400 2600 
Q 1425 2825 1425 3175 
Q 1425 3525 1400 3800 
L 4925 3800 
z
M 4500 1400 
Q 4475 1125 4475 800 
Q 4475 500 4500 200 
L 1950 200 
Q 2000 500 2000 800 
Q 2000 1125 1950 1400 
L 4500 1400 
z
M 425 4600 
Q 750 4575 1125 4575 
L 2925 4575 
Q 2850 4875 2750 5100 
Q 3050 5125 3350 5200 
Q 3400 4950 3525 4575 
L 5250 4575 
Q 5600 4575 5975 4600 
L 5975 4150 
Q 5600 4175 5050 4175 
L 1150 4175 
Q 750 4175 425 4150 
L 425 4600 
z
M 4450 2975 
L 4450 3425 
L 1900 3425 
L 1900 2975 
L 4450 2975 
z
M 4025 550 
L 4025 1050 
L 2400 1050 
L 2400 550 
L 4025 550 
z
" transform="scale(0.015625)"/>
      <path id="SimHei-94be" d="M 5775 4775 
Q 5750 4325 5750 3775 
L 5750 2075 
Q 5750 1625 5775 1200 
L 5300 1200 
L 5300 1450 
L 4475 1450 
L 4475 550 
Q 4475 125 4500 -575 
L 4000 -575 
Q 4025 150 4025 550 
L 4025 1450 
L 3225 1450 
L 3225 1150 
L 2750 1150 
Q 2775 1625 2775 2075 
L 2775 3800 
Q 2775 4300 2750 4775 
L 5775 4775 
z
M 1800 5000 
Q 1525 4525 1375 4225 
L 1675 4225 
Q 1975 4225 2400 4250 
L 2400 3775 
Q 1950 3800 1675 3800 
L 1150 3800 
Q 925 3425 775 3200 
Q 1150 3175 1525 3175 
Q 1900 3175 2350 3200 
L 2350 2750 
Q 1900 2775 1650 2775 
L 1650 2000 
L 1800 2000 
Q 2050 2000 2450 2025 
L 2450 1575 
Q 2000 1600 1650 1600 
L 1650 325 
Q 1975 600 2200 850 
Q 2300 625 2475 400 
Q 2200 225 1900 -25 
Q 1600 -275 1425 -475 
Q 1225 -250 1050 -75 
Q 1150 25 1200 200 
L 1200 1600 
Q 850 1600 475 1575 
L 475 2025 
Q 875 2000 1200 2000 
L 1200 2775 
Q 1050 2775 700 2750 
L 700 3075 
L 575 2900 
Q 425 3075 200 3250 
Q 500 3550 812 4125 
Q 1125 4700 1275 5200 
Q 1475 5125 1800 5000 
z
M 5300 3300 
L 5300 4375 
L 4475 4375 
L 4475 3300 
L 5300 3300 
z
M 5300 1850 
L 5300 2900 
L 4475 2900 
L 4475 1850 
L 5300 1850 
z
M 4025 3300 
L 4025 4375 
L 3225 4375 
L 3225 3300 
L 4025 3300 
z
M 4025 1850 
L 4025 2900 
L 3225 2900 
L 3225 1850 
L 4025 1850 
z
" transform="scale(0.015625)"/>
      <path id="SimHei-7ec4" d="M 6125 -425 
Q 5750 -400 5225 -400 
L 3275 -400 
Q 2775 -400 2400 -425 
L 2400 50 
Q 2725 25 2950 25 
L 2950 3775 
Q 2950 4375 2900 4625 
L 5525 4625 
Q 5500 4400 5500 3775 
L 5500 25 
Q 5825 25 6125 50 
L 6125 -425 
z
M 1725 4825 
Q 1500 4550 1287 4137 
Q 1075 3725 725 3050 
Q 950 3050 1550 3075 
Q 1800 3550 1900 3975 
Q 2075 3825 2450 3675 
Q 2225 3350 1937 2875 
Q 1650 2400 1150 1625 
Q 1950 1725 2425 1775 
L 2425 1350 
Q 2100 1325 1575 1250 
Q 1050 1175 575 1050 
Q 550 1300 400 1575 
Q 675 1675 912 1975 
Q 1150 2275 1375 2725 
Q 1225 2725 950 2687 
Q 675 2650 425 2525 
Q 325 2825 225 3050 
Q 450 3300 712 3862 
Q 975 4425 1150 5075 
Q 1425 4925 1725 4825 
z
M 5025 25 
L 5025 1275 
L 3425 1275 
L 3425 25 
L 5025 25 
z
M 5025 3125 
L 5025 4225 
L 3425 4225 
L 3425 3125 
L 5025 3125 
z
M 5025 1700 
L 5025 2725 
L 3425 2725 
L 3425 1700 
L 5025 1700 
z
M 2375 175 
Q 1875 100 1375 -12 
Q 875 -125 450 -300 
Q 375 -75 250 250 
Q 925 325 1162 375 
Q 1400 425 2375 600 
L 2375 175 
z
" transform="scale(0.015625)"/>
      <path id="SimHei-4e0e" d="M 5350 100 
Q 5275 -300 4925 -425 
Q 4575 -550 3900 -600 
Q 3875 -375 3650 -25 
Q 4375 -50 4575 0 
Q 4775 50 4837 225 
Q 4900 400 5100 2350 
L 1125 2350 
Q 1450 4350 1475 5200 
Q 1800 5150 2075 5125 
Q 1975 4825 1900 4275 
L 4900 4275 
Q 5400 4275 5800 4300 
L 5800 3825 
Q 5400 3850 4950 3850 
L 1850 3850 
L 1700 2750 
L 5675 2750 
Q 5625 2450 5575 2050 
L 5350 100 
z
M 3675 1350 
Q 4125 1350 4500 1375 
L 4500 875 
Q 4125 900 3850 900 
L 1450 900 
Q 1000 900 500 875 
L 500 1375 
Q 1000 1350 1450 1350 
L 3675 1350 
z
" transform="scale(0.015625)"/>
      <path id="SimHei-6563" d="M 4750 4975 
Q 4625 4850 4537 4600 
Q 4450 4350 4325 3975 
L 5350 3975 
Q 5650 3975 6050 4000 
L 6050 3550 
Q 5675 3575 5475 3575 
Q 5450 2800 5350 2112 
Q 5250 1425 4925 875 
Q 5450 250 6200 -100 
Q 5950 -200 5750 -500 
Q 5075 0 4650 500 
Q 4275 -50 3525 -600 
Q 3375 -425 3100 -300 
Q 3875 150 4375 875 
Q 3925 1575 3800 2700 
Q 3700 2525 3550 2275 
Q 3350 2425 3125 2525 
Q 3450 2975 3725 3662 
Q 4000 4350 4150 5150 
L 4750 4975 
z
M 3025 2550 
Q 3000 2075 3000 1625 
L 3000 25 
Q 3000 -450 2250 -500 
Q 2225 -275 2050 0 
Q 2525 0 2525 200 
L 2525 525 
L 1275 525 
L 1275 -550 
L 800 -550 
Q 825 -75 825 450 
L 825 1650 
Q 825 2100 800 2550 
L 3025 2550 
z
M 1075 4350 
Q 1075 4775 1050 5150 
L 1550 5150 
Q 1525 4825 1525 4350 
L 2225 4350 
Q 2225 4850 2200 5150 
L 2725 5150 
Q 2700 4850 2700 4350 
Q 2925 4350 3250 4375 
L 3250 3950 
Q 2925 3975 2700 3975 
L 2700 3375 
Q 2900 3375 3300 3400 
L 3300 2975 
Q 2925 3000 2525 3000 
L 1100 3000 
Q 750 3000 275 2975 
L 275 3400 
Q 750 3375 1075 3375 
L 1075 3975 
Q 825 3975 425 3950 
L 425 4375 
Q 800 4350 1075 4350 
z
M 4150 3375 
Q 4250 2000 4625 1300 
Q 4800 1625 4900 2187 
Q 5000 2750 5025 3575 
L 4225 3575 
L 4150 3375 
z
M 2525 900 
L 2525 1350 
L 1275 1350 
L 1275 900 
L 2525 900 
z
M 2525 1725 
L 2525 2175 
L 1275 2175 
L 1275 1725 
L 2525 1725 
z
M 2225 3375 
L 2225 3975 
L 1525 3975 
L 1525 3375 
L 2225 3375 
z
" transform="scale(0.015625)"/>
      <path id="SimHei-70b9" d="M 3325 5200 
Q 3300 4925 3300 4375 
L 4900 4375 
Q 5275 4375 5725 4400 
L 5725 3925 
Q 5300 3950 4900 3950 
L 3300 3950 
L 3300 3225 
L 5225 3225 
Q 5200 2700 5200 2150 
Q 5200 1625 5225 1175 
L 1175 1175 
Q 1200 1625 1200 2175 
Q 1200 2725 1175 3225 
L 2775 3225 
L 2775 4500 
Q 2775 4900 2750 5200 
L 3325 5200 
z
M 4700 1600 
L 4700 2800 
L 1725 2800 
L 1725 1600 
L 4700 1600 
z
M 1500 750 
Q 1025 -250 825 -625 
Q 625 -475 325 -375 
Q 650 50 950 925 
Q 1200 800 1500 750 
z
M 5325 850 
Q 5775 150 6075 -350 
Q 5925 -425 5575 -625 
Q 5375 -150 4900 575 
Q 5150 700 5325 850 
z
M 3975 -575 
Q 3775 -100 3400 575 
Q 3575 675 3825 825 
Q 4350 -75 4450 -325 
Q 4200 -450 3975 -575 
z
M 2375 -575 
Q 2350 -300 1975 550 
Q 2200 625 2425 775 
Q 2800 -75 2900 -350 
Q 2625 -450 2375 -575 
z
" transform="scale(0.015625)"/>
      <path id="SimHei-56fe" d="M 5800 4975 
Q 5775 4350 5775 3600 
L 5775 925 
Q 5775 150 5800 -600 
L 5300 -600 
L 5300 -275 
L 1125 -275 
L 1125 -650 
L 625 -650 
Q 650 125 650 950 
L 650 3600 
Q 650 4325 625 4975 
L 5800 4975 
z
M 5300 150 
L 5300 4575 
L 1125 4575 
L 1125 150 
L 5300 150 
z
M 3225 4250 
Q 3075 4100 2950 3925 
L 4625 3925 
Q 4525 3700 4300 3375 
Q 4075 3050 3600 2600 
Q 4350 2225 5075 2150 
Q 4900 1925 4775 1675 
Q 3850 1950 3225 2350 
Q 2500 1875 1675 1650 
Q 1600 1875 1400 2075 
Q 2200 2200 2875 2600 
Q 2525 2925 2375 3150 
Q 2150 2900 1900 2650 
Q 1725 2850 1525 2950 
Q 1950 3300 2250 3737 
Q 2550 4175 2675 4475 
Q 2925 4350 3225 4250 
z
M 2450 1275 
Q 3550 950 4100 725 
Q 3975 525 3850 300 
Q 2825 725 2275 850 
Q 2375 1050 2450 1275 
z
M 2925 2050 
Q 3775 1700 4075 1600 
Q 3950 1400 3850 1150 
Q 3000 1550 2700 1650 
Q 2825 1825 2925 2050 
z
M 2625 3450 
Q 3000 3025 3275 2850 
Q 3600 3100 3875 3525 
L 2675 3525 
L 2625 3450 
z
" transform="scale(0.015625)"/>
     </defs>
     <use xlink:href="#SimHei-9ad8"/>
     <use xlink:href="#SimHei-94be" x="100"/>
     <use xlink:href="#SimHei-7ec4" x="200"/>
     <use xlink:href="#SimHei-6c27" x="300"/>
     <use xlink:href="#SimHei-5316" x="400"/>
     <use xlink:href="#SimHei-94dd" x="500"/>
     <use xlink:href="#SimHei-4e0e" x="600"/>
     <use xlink:href="#SimHei-6c27" x="700"/>
     <use xlink:href="#SimHei-5316" x="800"/>
     <use xlink:href="#SimHei-94c1" x="900"/>
     <use xlink:href="#SimHei-6563" x="1000"/>
     <use xlink:href="#SimHei-70b9" x="1100"/>
     <use xlink:href="#SimHei-56fe" x="1200"/>
    </g>
   </g>
  </g>
 </g>
 <defs>
  <clipPath id="p619bc06146">
   <rect x="45" y="34.56" width="279" height="217.44"/>
  </clipPath>
 </defs>
</svg>
