<?xml version="1.0" encoding="utf-8" standalone="no"?>
<!DOCTYPE svg PUBLIC "-//W3C//DTD SVG 1.1//EN"
  "http://www.w3.org/Graphics/SVG/1.1/DTD/svg11.dtd">
<svg xmlns:xlink="http://www.w3.org/1999/xlink" width="720pt" height="576pt" viewBox="0 0 720 576" xmlns="http://www.w3.org/2000/svg" version="1.1">
 <metadata>
  <rdf:RDF xmlns:dc="http://purl.org/dc/elements/1.1/" xmlns:cc="http://creativecommons.org/ns#" xmlns:rdf="http://www.w3.org/1999/02/22-rdf-syntax-ns#">
   <cc:Work>
    <dc:type rdf:resource="http://purl.org/dc/dcmitype/StillImage"/>
    <dc:date>2022-09-18T17:33:50.726318</dc:date>
    <dc:format>image/svg+xml</dc:format>
    <dc:creator>
     <cc:Agent>
      <dc:title>Matplotlib v3.5.1, https://matplotlib.org/</dc:title>
     </cc:Agent>
    </dc:creator>
   </cc:Work>
  </rdf:RDF>
 </metadata>
 <defs>
  <style type="text/css">*{stroke-linejoin: round; stroke-linecap: butt}</style>
 </defs>
 <g id="figure_1">
  <g id="patch_1">
   <path d="M 0 576 
L 720 576 
L 720 0 
L 0 0 
L 0 576 
z
" style="fill: none"/>
  </g>
  <g id="axes_1">
   <g id="patch_2">
    <path d="M 90 504 
L 648 504 
L 648 69.12 
L 90 69.12 
z
" style="fill: #ffffff"/>
   </g>
   <g id="PathCollection_1">
    <defs>
     <path id="mcc037a5324" d="M 0 3 
C 0.795609 3 1.55874 2.683901 2.12132 2.12132 
C 2.683901 1.55874 3 0.795609 3 0 
C 3 -0.795609 2.683901 -1.55874 2.12132 -2.12132 
C 1.55874 -2.683901 0.795609 -3 0 -3 
C -0.795609 -3 -1.55874 -2.683901 -2.12132 -2.12132 
C -2.683901 -1.55874 -3 -0.795609 -3 0 
C -3 0.795609 -2.683901 1.55874 -2.12132 2.12132 
C -1.55874 2.683901 -0.795609 3 0 3 
z
" style="stroke: #1f77b4"/>
    </defs>
    <g clip-path="url(#pd28ebde7e8)">
     <use xlink:href="#mcc037a5324" x="506.626432" y="342.711465" style="fill: #1f77b4; stroke: #1f77b4"/>
     <use xlink:href="#mcc037a5324" x="324.030958" y="322.268423" style="fill: #1f77b4; stroke: #1f77b4"/>
     <use xlink:href="#mcc037a5324" x="508.206198" y="163.270777" style="fill: #1f77b4; stroke: #1f77b4"/>
     <use xlink:href="#mcc037a5324" x="494.132328" y="386.800844" style="fill: #1f77b4; stroke: #1f77b4"/>
     <use xlink:href="#mcc037a5324" x="560.648279" y="467.03491" style="fill: #1f77b4; stroke: #1f77b4"/>
     <use xlink:href="#mcc037a5324" x="279.820748" y="389.914249" style="fill: #1f77b4; stroke: #1f77b4"/>
     <use xlink:href="#mcc037a5324" x="466.407746" y="367.254012" style="fill: #1f77b4; stroke: #1f77b4"/>
     <use xlink:href="#mcc037a5324" x="348.899453" y="369.595208" style="fill: #1f77b4; stroke: #1f77b4"/>
     <use xlink:href="#mcc037a5324" x="455.876941" y="397.730381" style="fill: #1f77b4; stroke: #1f77b4"/>
     <use xlink:href="#mcc037a5324" x="362.298746" y="361.641447" style="fill: #1f77b4; stroke: #1f77b4"/>
     <use xlink:href="#mcc037a5324" x="622.636364" y="484.232727" style="fill: #1f77b4; stroke: #1f77b4"/>
     <use xlink:href="#mcc037a5324" x="607.188936" y="406.891673" style="fill: #1f77b4; stroke: #1f77b4"/>
     <use xlink:href="#mcc037a5324" x="503.749833" y="163.696193" style="fill: #1f77b4; stroke: #1f77b4"/>
     <use xlink:href="#mcc037a5324" x="376.899434" y="162.752459" style="fill: #1f77b4; stroke: #1f77b4"/>
     <use xlink:href="#mcc037a5324" x="523.804191" y="387.958604" style="fill: #1f77b4; stroke: #1f77b4"/>
     <use xlink:href="#mcc037a5324" x="477.827101" y="459.46708" style="fill: #1f77b4; stroke: #1f77b4"/>
     <use xlink:href="#mcc037a5324" x="434.252627" y="269.835743" style="fill: #1f77b4; stroke: #1f77b4"/>
     <use xlink:href="#mcc037a5324" x="353.669745" y="335.079528" style="fill: #1f77b4; stroke: #1f77b4"/>
     <use xlink:href="#mcc037a5324" x="482.527314" y="361.68377" style="fill: #1f77b4; stroke: #1f77b4"/>
     <use xlink:href="#mcc037a5324" x="546.19239" y="427.932498" style="fill: #1f77b4; stroke: #1f77b4"/>
     <use xlink:href="#mcc037a5324" x="584.435953" y="449.307829" style="fill: #1f77b4; stroke: #1f77b4"/>
     <use xlink:href="#mcc037a5324" x="471.982532" y="337.591555" style="fill: #1f77b4; stroke: #1f77b4"/>
     <use xlink:href="#mcc037a5324" x="299.540593" y="338.917586" style="fill: #1f77b4; stroke: #1f77b4"/>
     <use xlink:href="#mcc037a5324" x="522.327307" y="338.738236" style="fill: #1f77b4; stroke: #1f77b4"/>
     <use xlink:href="#mcc037a5324" x="273.618534" y="360.60805" style="fill: #1f77b4; stroke: #1f77b4"/>
     <use xlink:href="#mcc037a5324" x="289.163488" y="346.076645" style="fill: #1f77b4; stroke: #1f77b4"/>
     <use xlink:href="#mcc037a5324" x="571.471856" y="88.887273" style="fill: #1f77b4; stroke: #1f77b4"/>
     <use xlink:href="#mcc037a5324" x="308.283869" y="338.311983" style="fill: #1f77b4; stroke: #1f77b4"/>
     <use xlink:href="#mcc037a5324" x="484.024053" y="412.548847" style="fill: #1f77b4; stroke: #1f77b4"/>
     <use xlink:href="#mcc037a5324" x="558.440193" y="422.73461" style="fill: #1f77b4; stroke: #1f77b4"/>
    </g>
   </g>
   <g id="PathCollection_2">
    <defs>
     <path id="m45cdf1a6aa" d="M 0 3 
C 0.795609 3 1.55874 2.683901 2.12132 2.12132 
C 2.683901 1.55874 3 0.795609 3 0 
C 3 -0.795609 2.683901 -1.55874 2.12132 -2.12132 
C 1.55874 -2.683901 0.795609 -3 0 -3 
C -0.795609 -3 -1.55874 -2.683901 -2.12132 -2.12132 
C -2.683901 -1.55874 -3 -0.795609 -3 0 
C -3 0.795609 -2.683901 1.55874 -2.12132 2.12132 
C -1.55874 2.683901 -0.795609 3 0 3 
z
" style="stroke: #ff7f0e"/>
    </defs>
    <g clip-path="url(#pd28ebde7e8)">
     <use xlink:href="#m45cdf1a6aa" x="192.57435" y="348.400619" style="fill: #ff7f0e; stroke: #ff7f0e"/>
     <use xlink:href="#m45cdf1a6aa" x="225.839899" y="304.456845" style="fill: #ff7f0e; stroke: #ff7f0e"/>
     <use xlink:href="#m45cdf1a6aa" x="220.674091" y="310.776284" style="fill: #ff7f0e; stroke: #ff7f0e"/>
     <use xlink:href="#m45cdf1a6aa" x="149.898883" y="389.540258" style="fill: #ff7f0e; stroke: #ff7f0e"/>
     <use xlink:href="#m45cdf1a6aa" x="224.633841" y="308.250149" style="fill: #ff7f0e; stroke: #ff7f0e"/>
     <use xlink:href="#m45cdf1a6aa" x="212.582998" y="319.091786" style="fill: #ff7f0e; stroke: #ff7f0e"/>
     <use xlink:href="#m45cdf1a6aa" x="239.86005" y="290.843946" style="fill: #ff7f0e; stroke: #ff7f0e"/>
     <use xlink:href="#m45cdf1a6aa" x="124.351487" y="416.555123" style="fill: #ff7f0e; stroke: #ff7f0e"/>
     <use xlink:href="#m45cdf1a6aa" x="175.949256" y="361.355" style="fill: #ff7f0e; stroke: #ff7f0e"/>
     <use xlink:href="#m45cdf1a6aa" x="131.108652" y="410.180301" style="fill: #ff7f0e; stroke: #ff7f0e"/>
     <use xlink:href="#m45cdf1a6aa" x="121.881263" y="419.47563" style="fill: #ff7f0e; stroke: #ff7f0e"/>
     <use xlink:href="#m45cdf1a6aa" x="249.017302" y="279.539929" style="fill: #ff7f0e; stroke: #ff7f0e"/>
     <use xlink:href="#m45cdf1a6aa" x="115.363636" y="426.412715" style="fill: #ff7f0e; stroke: #ff7f0e"/>
     <use xlink:href="#m45cdf1a6aa" x="249.326718" y="284.733672" style="fill: #ff7f0e; stroke: #ff7f0e"/>
     <use xlink:href="#m45cdf1a6aa" x="130.822104" y="409.461049" style="fill: #ff7f0e; stroke: #ff7f0e"/>
     <use xlink:href="#m45cdf1a6aa" x="240.381755" y="303.849424" style="fill: #ff7f0e; stroke: #ff7f0e"/>
    </g>
   </g>
   <g id="matplotlib.axis_1">
    <g id="xtick_1">
     <g id="line2d_1">
      <defs>
       <path id="m3573e97550" d="M 0 0 
L 0 3.5 
" style="stroke: #000000; stroke-width: 0.8"/>
      </defs>
      <g>
       <use xlink:href="#m3573e97550" x="169.499602" y="504" style="stroke: #000000; stroke-width: 0.8"/>
      </g>
     </g>
     <g id="text_1">
      <!-- -40 -->
      <g transform="translate(157.499602 522)scale(0.16 -0.16)">
       <defs>
        <path id="SimHei-2d" d="M 2975 2125 
L 125 2125 
L 125 2525 
L 2975 2525 
L 2975 2125 
z
" transform="scale(0.015625)"/>
        <path id="SimHei-34" d="M 2000 1100 
L 75 1100 
L 75 1525 
L 2100 4450 
L 2475 4450 
L 2475 1525 
L 3075 1525 
L 3075 1100 
L 2475 1100 
L 2475 150 
L 2000 150 
L 2000 1100 
z
M 2000 1525 
L 2000 3500 
L 600 1525 
L 2000 1525 
z
" transform="scale(0.015625)"/>
        <path id="SimHei-30" d="M 225 2537 
Q 250 3200 412 3587 
Q 575 3975 875 4225 
Q 1175 4475 1612 4475 
Q 2050 4475 2375 4112 
Q 2700 3750 2800 3200 
Q 2900 2650 2862 1937 
Q 2825 1225 2612 775 
Q 2400 325 1975 150 
Q 1550 -25 1125 187 
Q 700 400 525 750 
Q 350 1100 275 1487 
Q 200 1875 225 2537 
z
M 750 2687 
Q 675 2000 800 1462 
Q 925 925 1212 700 
Q 1500 475 1800 612 
Q 2100 750 2237 1162 
Q 2375 1575 2375 2062 
Q 2375 2550 2337 2950 
Q 2300 3350 2112 3675 
Q 1925 4000 1612 4012 
Q 1300 4025 1062 3700 
Q 825 3375 750 2687 
z
" transform="scale(0.015625)"/>
       </defs>
       <use xlink:href="#SimHei-2d"/>
       <use xlink:href="#SimHei-34" x="50"/>
       <use xlink:href="#SimHei-30" x="100"/>
      </g>
     </g>
    </g>
    <g id="xtick_2">
     <g id="line2d_2">
      <g>
       <use xlink:href="#m3573e97550" x="265.219914" y="504" style="stroke: #000000; stroke-width: 0.8"/>
      </g>
     </g>
     <g id="text_2">
      <!-- -20 -->
      <g transform="translate(253.219914 522)scale(0.16 -0.16)">
       <defs>
        <path id="SimHei-32" d="M 300 250 
Q 325 625 650 925 
Q 975 1225 1475 1862 
Q 1975 2500 2125 2850 
Q 2275 3200 2237 3450 
Q 2200 3700 2000 3862 
Q 1800 4025 1537 4000 
Q 1275 3975 1037 3800 
Q 800 3625 675 3275 
L 200 3350 
Q 400 3925 712 4187 
Q 1025 4450 1450 4475 
Q 1700 4500 1900 4462 
Q 2100 4425 2312 4287 
Q 2525 4150 2662 3875 
Q 2800 3600 2762 3212 
Q 2725 2825 2375 2287 
Q 2025 1750 1025 600 
L 2825 600 
L 2825 150 
L 300 150 
L 300 250 
z
" transform="scale(0.015625)"/>
       </defs>
       <use xlink:href="#SimHei-2d"/>
       <use xlink:href="#SimHei-32" x="50"/>
       <use xlink:href="#SimHei-30" x="100"/>
      </g>
     </g>
    </g>
    <g id="xtick_3">
     <g id="line2d_3">
      <g>
       <use xlink:href="#m3573e97550" x="360.940227" y="504" style="stroke: #000000; stroke-width: 0.8"/>
      </g>
     </g>
     <g id="text_3">
      <!-- 0 -->
      <g transform="translate(356.940227 522)scale(0.16 -0.16)">
       <use xlink:href="#SimHei-30"/>
      </g>
     </g>
    </g>
    <g id="xtick_4">
     <g id="line2d_4">
      <g>
       <use xlink:href="#m3573e97550" x="456.660539" y="504" style="stroke: #000000; stroke-width: 0.8"/>
      </g>
     </g>
     <g id="text_4">
      <!-- 20 -->
      <g transform="translate(448.660539 522)scale(0.16 -0.16)">
       <use xlink:href="#SimHei-32"/>
       <use xlink:href="#SimHei-30" x="50"/>
      </g>
     </g>
    </g>
    <g id="xtick_5">
     <g id="line2d_5">
      <g>
       <use xlink:href="#m3573e97550" x="552.380852" y="504" style="stroke: #000000; stroke-width: 0.8"/>
      </g>
     </g>
     <g id="text_5">
      <!-- 40 -->
      <g transform="translate(544.380852 522)scale(0.16 -0.16)">
       <use xlink:href="#SimHei-34"/>
       <use xlink:href="#SimHei-30" x="50"/>
      </g>
     </g>
    </g>
    <g id="text_6">
     <!-- PC1 -->
     <g transform="translate(357 539)scale(0.16 -0.16)">
      <defs>
       <path id="SimHei-50" d="M 2950 3100 
Q 2950 2500 2600 2150 
Q 2250 1800 1625 1800 
L 900 1800 
L 900 125 
L 325 125 
L 325 4400 
L 1625 4400 
Q 2250 4400 2600 4050 
Q 2950 3700 2950 3100 
z
M 2375 3100 
Q 2375 3575 2150 3750 
Q 1925 3925 1475 3925 
L 900 3925 
L 900 2275 
L 1475 2275 
Q 1925 2275 2150 2450 
Q 2375 2625 2375 3100 
z
" transform="scale(0.015625)"/>
       <path id="SimHei-43" d="M 2975 1825 
Q 2950 875 2575 475 
Q 2200 75 1675 75 
Q 1075 75 650 562 
Q 225 1050 225 2125 
Q 225 3300 637 3875 
Q 1050 4450 1700 4450 
Q 2250 4450 2612 4037 
Q 2975 3625 2950 2875 
L 2400 2875 
Q 2400 3425 2225 3700 
Q 2050 3975 1700 3975 
Q 1300 3975 1062 3562 
Q 825 3150 825 2175 
Q 825 1275 1062 912 
Q 1300 550 1675 550 
Q 1950 550 2175 812 
Q 2400 1075 2400 1825 
L 2975 1825 
z
" transform="scale(0.015625)"/>
       <path id="SimHei-31" d="M 1400 3600 
Q 1075 3275 575 2975 
L 575 3450 
Q 1200 3875 1600 4450 
L 1900 4450 
L 1900 150 
L 1400 150 
L 1400 3600 
z
" transform="scale(0.015625)"/>
      </defs>
      <use xlink:href="#SimHei-50"/>
      <use xlink:href="#SimHei-43" x="50"/>
      <use xlink:href="#SimHei-31" x="100"/>
     </g>
    </g>
   </g>
   <g id="matplotlib.axis_2">
    <g id="ytick_1">
     <g id="line2d_6">
      <defs>
       <path id="m1cfb74329a" d="M 0 0 
L -3.5 0 
" style="stroke: #000000; stroke-width: 0.8"/>
      </defs>
      <g>
       <use xlink:href="#m1cfb74329a" x="90" y="502.675419" style="stroke: #000000; stroke-width: 0.8"/>
      </g>
     </g>
     <g id="text_7">
      <!-- -20 -->
      <g transform="translate(59 508.175419)scale(0.16 -0.16)">
       <use xlink:href="#SimHei-2d"/>
       <use xlink:href="#SimHei-32" x="50"/>
       <use xlink:href="#SimHei-30" x="100"/>
      </g>
     </g>
    </g>
    <g id="ytick_2">
     <g id="line2d_7">
      <g>
       <use xlink:href="#m1cfb74329a" x="90" y="425.733333" style="stroke: #000000; stroke-width: 0.8"/>
      </g>
     </g>
     <g id="text_8">
      <!-- -10 -->
      <g transform="translate(59 431.233333)scale(0.16 -0.16)">
       <use xlink:href="#SimHei-2d"/>
       <use xlink:href="#SimHei-31" x="50"/>
       <use xlink:href="#SimHei-30" x="100"/>
      </g>
     </g>
    </g>
    <g id="ytick_3">
     <g id="line2d_8">
      <g>
       <use xlink:href="#m1cfb74329a" x="90" y="348.791246" style="stroke: #000000; stroke-width: 0.8"/>
      </g>
     </g>
     <g id="text_9">
      <!-- 0 -->
      <g transform="translate(75 354.291246)scale(0.16 -0.16)">
       <use xlink:href="#SimHei-30"/>
      </g>
     </g>
    </g>
    <g id="ytick_4">
     <g id="line2d_9">
      <g>
       <use xlink:href="#m1cfb74329a" x="90" y="271.84916" style="stroke: #000000; stroke-width: 0.8"/>
      </g>
     </g>
     <g id="text_10">
      <!-- 10 -->
      <g transform="translate(67 277.34916)scale(0.16 -0.16)">
       <use xlink:href="#SimHei-31"/>
       <use xlink:href="#SimHei-30" x="50"/>
      </g>
     </g>
    </g>
    <g id="ytick_5">
     <g id="line2d_10">
      <g>
       <use xlink:href="#m1cfb74329a" x="90" y="194.907074" style="stroke: #000000; stroke-width: 0.8"/>
      </g>
     </g>
     <g id="text_11">
      <!-- 20 -->
      <g transform="translate(67 200.407074)scale(0.16 -0.16)">
       <use xlink:href="#SimHei-32"/>
       <use xlink:href="#SimHei-30" x="50"/>
      </g>
     </g>
    </g>
    <g id="ytick_6">
     <g id="line2d_11">
      <g>
       <use xlink:href="#m1cfb74329a" x="90" y="117.964988" style="stroke: #000000; stroke-width: 0.8"/>
      </g>
     </g>
     <g id="text_12">
      <!-- 30 -->
      <g transform="translate(67 123.464988)scale(0.16 -0.16)">
       <defs>
        <path id="SimHei-33" d="M 250 1225 
L 700 1300 
Q 800 975 1025 762 
Q 1250 550 1587 562 
Q 1925 575 2125 837 
Q 2325 1100 2300 1437 
Q 2275 1775 2037 1962 
Q 1800 2150 1275 2225 
L 1275 2550 
Q 1800 2600 2037 2825 
Q 2275 3050 2250 3412 
Q 2225 3775 1925 3937 
Q 1625 4100 1287 3975 
Q 950 3850 750 3275 
L 300 3350 
Q 450 3800 712 4100 
Q 975 4400 1425 4450 
Q 1875 4500 2212 4337 
Q 2550 4175 2687 3837 
Q 2825 3500 2725 3100 
Q 2625 2700 2150 2400 
Q 2500 2250 2687 1950 
Q 2875 1650 2812 1162 
Q 2750 675 2375 375 
Q 2000 75 1525 87 
Q 1050 100 700 387 
Q 350 675 250 1225 
z
" transform="scale(0.015625)"/>
       </defs>
       <use xlink:href="#SimHei-33"/>
       <use xlink:href="#SimHei-30" x="50"/>
      </g>
     </g>
    </g>
    <g id="text_13">
     <!-- PC2 -->
     <g transform="translate(53 298.56)rotate(-90)scale(0.16 -0.16)">
      <use xlink:href="#SimHei-50"/>
      <use xlink:href="#SimHei-43" x="50"/>
      <use xlink:href="#SimHei-32" x="100"/>
     </g>
    </g>
   </g>
   <g id="patch_3">
    <path d="M 90 504 
L 90 69.12 
" style="fill: none; stroke: #000000; stroke-width: 0.8; stroke-linejoin: miter; stroke-linecap: square"/>
   </g>
   <g id="patch_4">
    <path d="M 648 504 
L 648 69.12 
" style="fill: none; stroke: #000000; stroke-width: 0.8; stroke-linejoin: miter; stroke-linecap: square"/>
   </g>
   <g id="patch_5">
    <path d="M 90 504 
L 648 504 
" style="fill: none; stroke: #000000; stroke-width: 0.8; stroke-linejoin: miter; stroke-linecap: square"/>
   </g>
   <g id="patch_6">
    <path d="M 90 69.12 
L 648 69.12 
" style="fill: none; stroke: #000000; stroke-width: 0.8; stroke-linejoin: miter; stroke-linecap: square"/>
   </g>
   <g id="text_14">
    <!-- 对玻璃样本应用主成分降维后的散点图 -->
    <g transform="translate(233 63.12)scale(0.16 -0.16)">
     <defs>
      <path id="SimHei-5bf9" d="M 525 4250 
Q 900 4225 1400 4225 
L 2825 4225 
Q 2575 2625 2200 1750 
Q 2825 875 3125 400 
Q 2950 275 2725 75 
Q 2200 975 1950 1300 
Q 1650 775 1350 425 
Q 1050 75 600 -350 
Q 425 -125 200 -25 
Q 625 275 975 675 
Q 1325 1075 1650 1700 
Q 1050 2425 550 2900 
Q 700 3025 900 3225 
Q 1625 2425 1875 2150 
Q 2200 3050 2300 3825 
L 1400 3825 
Q 900 3825 525 3800 
L 525 4250 
z
M 2925 3700 
Q 3525 3675 3750 3675 
L 4825 3675 
L 4825 4425 
Q 4825 4750 4775 5125 
L 5350 5125 
Q 5325 4825 5325 4375 
L 5325 3675 
Q 5575 3675 6150 3700 
L 6150 3250 
Q 5575 3275 5325 3275 
L 5325 125 
Q 5350 -350 5012 -475 
Q 4675 -600 4250 -650 
Q 4175 -350 4025 -100 
Q 4575 -100 4712 -37 
Q 4850 25 4825 325 
L 4825 3275 
L 3775 3275 
Q 3550 3275 2925 3225 
L 2925 3700 
z
M 3450 2725 
Q 3875 1975 4175 1325 
Q 3850 1200 3700 1075 
Q 3475 1750 3050 2475 
Q 3225 2550 3450 2725 
z
" transform="scale(0.015625)"/>
      <path id="SimHei-73bb" d="M 3975 4225 
Q 3975 4825 3950 5175 
L 4475 5175 
Q 4450 5000 4450 4725 
L 4450 4225 
L 6025 4225 
L 5850 3725 
Q 5775 3475 5700 3150 
Q 5425 3200 5150 3225 
Q 5275 3525 5350 3800 
L 4450 3800 
L 4450 2700 
L 5675 2700 
Q 5550 2250 5362 1712 
Q 5175 1175 4775 600 
Q 5050 350 5412 187 
Q 5775 25 6150 -25 
Q 5850 -300 5750 -575 
Q 4975 -225 4450 225 
Q 3900 -275 3075 -675 
Q 2900 -425 2650 -250 
Q 3475 0 4150 575 
Q 3650 1200 3375 2275 
L 3175 2275 
Q 3175 1675 3100 1212 
Q 3025 750 2825 312 
Q 2625 -125 2150 -650 
Q 1925 -450 1650 -350 
Q 2075 -25 2325 375 
Q 2575 775 2662 1387 
Q 2750 2000 2737 2875 
Q 2725 3750 2700 4225 
L 3975 4225 
z
M 1750 4350 
Q 2000 4350 2475 4375 
L 2475 3875 
Q 2000 3900 1575 3900 
L 1575 2725 
Q 1875 2725 2300 2750 
L 2300 2275 
Q 1875 2300 1575 2300 
L 1575 1000 
Q 1925 1125 2350 1350 
Q 2350 1100 2450 900 
Q 1925 700 1387 450 
Q 850 200 500 0 
Q 375 325 200 550 
Q 475 600 1125 825 
L 1125 2300 
Q 750 2300 375 2275 
L 375 2750 
Q 750 2725 1125 2725 
L 1125 3900 
Q 575 3900 275 3875 
L 275 4375 
Q 600 4350 900 4350 
L 1750 4350 
z
M 3850 2275 
Q 4100 1375 4475 950 
Q 4875 1500 5075 2275 
L 3850 2275 
z
M 3975 2700 
L 3975 3800 
L 3175 3800 
L 3175 2700 
L 3975 2700 
z
" transform="scale(0.015625)"/>
      <path id="SimHei-7483" d="M 4650 700 
Q 4475 950 4425 1025 
Q 4575 1125 4775 1275 
Q 5000 975 5475 350 
Q 5300 250 5100 50 
Q 4950 275 4850 400 
Q 4175 325 3862 275 
Q 3550 225 3225 100 
Q 3125 350 3025 575 
Q 3200 625 3337 850 
Q 3475 1075 3625 1375 
L 2800 1375 
L 2800 -600 
L 2325 -600 
Q 2350 -200 2350 550 
Q 2350 1325 2325 1750 
L 3775 1750 
Q 3875 2025 3925 2200 
L 2550 2200 
Q 2575 2450 2575 3050 
Q 2575 3650 2550 3850 
L 3050 3850 
Q 3025 3650 3025 3425 
L 3025 2575 
L 5325 2575 
L 5325 3400 
Q 5325 3650 5300 3875 
L 5800 3875 
Q 5775 3650 5775 3050 
Q 5775 2450 5800 2200 
L 4375 2200 
Q 4275 1950 4200 1750 
L 6050 1750 
Q 6025 1375 6025 950 
L 6025 0 
Q 6025 -325 5887 -450 
Q 5750 -575 5175 -675 
Q 5100 -375 4950 -150 
Q 5350 -150 5462 -112 
Q 5575 -75 5575 150 
L 5575 1375 
L 4050 1375 
Q 3925 1125 3625 625 
Q 4100 650 4650 700 
z
M 1625 4650 
Q 1850 4650 2125 4675 
L 2125 4200 
Q 1825 4225 1625 4225 
L 1450 4225 
L 1450 2900 
Q 1775 2900 2075 2925 
L 2075 2475 
Q 1775 2500 1450 2500 
L 1450 925 
Q 1900 1100 2175 1250 
Q 2225 1000 2275 825 
Q 1850 675 1312 437 
Q 775 200 475 25 
Q 350 250 200 500 
Q 525 600 1050 800 
L 1050 2500 
Q 700 2500 400 2450 
L 400 2925 
Q 650 2900 1050 2900 
L 1050 4225 
L 775 4225 
Q 650 4225 350 4200 
L 350 4675 
Q 650 4650 875 4650 
L 1625 4650 
z
M 4200 5275 
Q 4250 5075 4350 4700 
L 5300 4700 
Q 5675 4700 5975 4750 
L 5975 4275 
Q 5650 4300 5300 4300 
L 3025 4300 
Q 2650 4300 2325 4275 
L 2325 4725 
Q 2650 4700 3025 4700 
L 3850 4700 
Q 3775 5000 3700 5175 
L 4200 5275 
z
M 4975 3875 
Q 4875 3775 4750 3675 
Q 4625 3575 4475 3425 
Q 4775 3200 5100 2950 
Q 4900 2800 4750 2650 
Q 4425 2975 4200 3125 
Q 3875 2875 3550 2600 
Q 3400 2800 3250 2925 
Q 3575 3075 3900 3400 
Q 3600 3650 3350 3825 
Q 3500 3975 3625 4125 
Q 3900 3875 4200 3700 
Q 4400 3900 4625 4200 
Q 4725 4050 4975 3875 
z
" transform="scale(0.015625)"/>
      <path id="SimHei-6837" d="M 4350 4025 
Q 4600 4575 4850 5225 
Q 5250 5075 5375 5000 
Q 5150 4725 4850 4025 
L 4950 4025 
Q 5650 4050 5950 4050 
L 5950 3600 
Q 5675 3625 5175 3625 
L 4550 3625 
L 4550 2650 
L 4950 2650 
Q 5525 2675 5800 2675 
L 5800 2225 
Q 5475 2250 5025 2250 
L 4550 2250 
L 4550 1225 
L 5325 1225 
Q 5800 1250 6100 1250 
L 6100 800 
Q 5825 825 5325 825 
L 4550 825 
L 4550 275 
Q 4550 -250 4575 -600 
L 4075 -600 
L 4075 825 
L 3475 825 
Q 3000 825 2550 800 
L 2550 1275 
Q 3000 1250 3500 1225 
L 4075 1225 
L 4075 2250 
L 3650 2250 
Q 3225 2250 2900 2225 
L 2900 2700 
Q 3200 2675 3675 2650 
L 4075 2650 
L 4075 3625 
L 3475 3625 
Q 3050 3625 2750 3600 
L 2750 4075 
Q 3050 4050 3475 4025 
L 4350 4025 
z
M 1325 4350 
Q 1325 4775 1300 5125 
L 1825 5125 
Q 1800 4725 1800 4350 
L 1800 3750 
Q 2125 3750 2475 3775 
L 2475 3325 
Q 2125 3350 1800 3350 
L 1800 2425 
Q 2000 2600 2100 2675 
Q 2375 2325 2725 1775 
Q 2575 1700 2300 1475 
Q 2025 1975 1800 2350 
L 1800 475 
Q 1800 -50 1825 -575 
L 1300 -575 
Q 1325 -25 1325 475 
L 1325 2250 
Q 925 1300 525 725 
Q 425 950 225 1175 
Q 950 2150 1225 3350 
Q 825 3350 350 3325 
L 350 3775 
Q 825 3750 1325 3750 
L 1325 4350 
z
M 3575 5200 
Q 3800 4775 3950 4350 
Q 3650 4250 3525 4175 
Q 3350 4600 3150 5000 
Q 3425 5125 3575 5200 
z
" transform="scale(0.015625)"/>
      <path id="SimHei-672c" d="M 2950 3925 
L 2950 4425 
Q 2950 4825 2925 5175 
L 3475 5175 
Q 3450 4900 3450 4450 
L 3450 3925 
L 4850 3925 
Q 5275 3925 5850 3950 
L 5850 3475 
Q 5300 3500 4875 3500 
L 3850 3500 
Q 4200 2350 4862 1687 
Q 5525 1025 6075 800 
Q 5850 625 5650 325 
Q 4800 900 4262 1637 
Q 3725 2375 3450 3350 
L 3450 1000 
L 3775 1000 
Q 4175 1000 4600 1025 
L 4600 550 
Q 4175 575 3750 575 
L 3450 575 
Q 3450 0 3475 -600 
L 2925 -600 
Q 2950 0 2950 575 
L 2625 575 
Q 2225 575 1825 550 
L 1825 1025 
Q 2225 1000 2625 1000 
L 2950 1000 
L 2950 3300 
Q 2550 2275 2062 1575 
Q 1575 875 750 175 
Q 550 450 275 575 
Q 1100 1075 1650 1825 
Q 2200 2575 2525 3500 
L 1425 3500 
Q 1025 3500 575 3475 
L 575 3950 
Q 1025 3925 1400 3925 
L 2950 3925 
z
" transform="scale(0.015625)"/>
      <path id="SimHei-5e94" d="M 3525 5275 
Q 3700 4825 3850 4400 
L 4750 4400 
Q 5275 4400 5850 4425 
L 5850 3975 
Q 5275 4000 4750 4000 
L 1475 4000 
Q 1475 2525 1425 1900 
Q 1375 1275 1237 625 
Q 1100 -25 750 -625 
Q 575 -400 300 -250 
Q 625 175 800 937 
Q 975 1700 1000 2575 
Q 1025 3450 1000 4400 
L 3250 4400 
Q 3175 4750 3000 5100 
Q 3250 5150 3525 5275 
z
M 5625 3125 
Q 5375 2575 5187 2050 
Q 5000 1525 4450 225 
L 5150 225 
Q 5500 225 5925 250 
L 5925 -275 
Q 5500 -250 5150 -250 
L 2475 -250 
Q 2050 -250 1450 -275 
L 1450 250 
Q 2025 225 2475 225 
L 3950 225 
Q 4325 1000 4612 1850 
Q 4900 2700 5025 3350 
Q 5350 3175 5625 3125 
z
M 2100 2850 
Q 2750 1825 3075 1050 
Q 2900 950 2650 800 
Q 2150 1925 1700 2575 
Q 1925 2750 2100 2850 
z
M 3300 3425 
Q 3800 2550 4175 1700 
Q 3950 1575 3700 1450 
Q 3400 2300 2900 3200 
Q 3100 3275 3300 3425 
z
" transform="scale(0.015625)"/>
      <path id="SimHei-7528" d="M 350 -300 
Q 650 125 812 600 
Q 975 1075 1012 1550 
Q 1050 2025 1050 3150 
Q 1050 4275 1025 4950 
L 5500 4950 
Q 5475 4225 5475 3650 
L 5475 375 
Q 5475 -150 5175 -275 
Q 4875 -400 4475 -450 
Q 4425 -75 4300 125 
Q 4800 100 4887 162 
Q 4975 225 4975 400 
L 4975 1650 
L 3450 1650 
L 3450 675 
Q 3450 125 3475 -325 
L 2925 -325 
Q 2950 100 2950 650 
L 2950 1650 
L 1525 1650 
Q 1425 575 850 -525 
Q 575 -350 350 -300 
z
M 4975 3475 
L 4975 4550 
L 3450 4550 
L 3450 3475 
L 4975 3475 
z
M 4975 2050 
L 4975 3100 
L 3450 3100 
L 3450 2050 
L 4975 2050 
z
M 2950 3475 
L 2950 4550 
L 1525 4550 
L 1525 3475 
L 2950 3475 
z
M 2950 2050 
L 2950 3100 
L 1525 3100 
L 1525 2050 
L 2950 2050 
z
" transform="scale(0.015625)"/>
      <path id="SimHei-4e3b" d="M 4750 3850 
Q 5150 3850 5750 3875 
L 5750 3400 
Q 5150 3425 4750 3425 
L 3425 3425 
L 3425 2175 
L 4425 2175 
Q 4825 2175 5375 2200 
L 5375 1725 
Q 4825 1750 4425 1750 
L 3425 1750 
L 3425 150 
L 5000 150 
Q 5450 150 6050 175 
L 6050 -300 
Q 5450 -275 5000 -275 
L 350 -275 
L 350 200 
Q 950 150 1425 150 
L 2900 150 
L 2900 1750 
L 1925 1750 
Q 1525 1750 975 1725 
L 975 2200 
Q 1575 2175 1925 2175 
L 2900 2175 
L 2900 3425 
L 1650 3425 
Q 1125 3425 625 3400 
L 625 3875 
Q 1175 3850 1675 3850 
L 4750 3850 
z
M 3175 3900 
Q 2875 4350 2400 4875 
Q 2650 5050 2800 5200 
Q 3325 4600 3625 4175 
Q 3475 4100 3175 3900 
z
" transform="scale(0.015625)"/>
      <path id="SimHei-6210" d="M 3500 4000 
Q 3475 4725 3450 5225 
Q 3750 5200 4025 5175 
Q 3975 4850 4000 4000 
L 4725 4000 
Q 5250 4000 5875 4025 
L 5875 3550 
Q 5225 3575 4725 3575 
L 4025 3575 
Q 4050 2625 4350 1500 
Q 4825 2225 5100 3175 
Q 5350 2975 5675 2825 
Q 5475 2600 5225 2075 
Q 4975 1550 4575 975 
Q 4800 525 5062 262 
Q 5325 0 5425 37 
Q 5525 75 5625 900 
Q 5875 700 6150 600 
Q 5975 -425 5762 -537 
Q 5550 -650 5250 -537 
Q 4950 -425 4687 -112 
Q 4425 200 4250 575 
Q 3650 -75 2725 -650 
Q 2600 -425 2350 -250 
Q 2850 -25 3312 350 
Q 3775 725 4000 1050 
Q 3825 1525 3700 2212 
Q 3575 2900 3550 3575 
L 1400 3575 
L 1400 2700 
L 3025 2700 
Q 2975 2250 2950 1775 
L 2875 775 
Q 2850 300 2612 200 
Q 2375 100 1800 50 
Q 1775 275 1600 600 
Q 2225 575 2325 675 
Q 2425 775 2450 1250 
L 2500 2250 
L 1400 2250 
Q 1400 1275 1250 625 
Q 1100 -25 700 -575 
Q 425 -375 200 -300 
Q 525 100 650 462 
Q 775 825 837 1250 
Q 900 1675 912 2450 
Q 925 3225 900 4000 
L 3500 4000 
z
M 4750 5225 
Q 5250 4825 5625 4425 
Q 5400 4250 5225 4075 
Q 4925 4475 4425 4900 
Q 4600 5050 4750 5225 
z
" transform="scale(0.015625)"/>
      <path id="SimHei-5206" d="M 1000 -650 
Q 825 -375 575 -225 
Q 975 -75 1300 137 
Q 1625 350 1875 662 
Q 2125 975 2250 1350 
Q 2375 1725 2425 2275 
Q 1850 2275 1500 2250 
L 1500 2775 
Q 1900 2750 2525 2750 
L 5025 2750 
Q 4975 2375 4950 2100 
L 4750 250 
Q 4700 -200 4350 -350 
Q 4000 -500 3575 -525 
Q 3550 -275 3325 50 
Q 3850 25 4037 87 
Q 4225 150 4275 525 
L 4450 2275 
L 2950 2275 
Q 2875 1625 2737 1187 
Q 2600 750 2350 425 
Q 2100 100 1750 -175 
Q 1400 -450 1000 -650 
z
M 3950 5175 
Q 4125 4650 4662 3975 
Q 5200 3300 6175 2800 
Q 5975 2625 5775 2275 
Q 5325 2600 4987 2887 
Q 4650 3175 4425 3425 
Q 4200 3675 3925 4137 
Q 3650 4600 3475 5000 
Q 3750 5075 3950 5175 
z
M 2700 4825 
Q 2475 4425 2325 4125 
Q 2175 3825 2025 3587 
Q 1875 3350 1575 2950 
Q 1275 2550 850 2125 
Q 625 2350 400 2475 
Q 900 2925 1187 3300 
Q 1475 3675 1737 4112 
Q 2000 4550 2200 5075 
Q 2400 4925 2700 4825 
z
" transform="scale(0.015625)"/>
      <path id="SimHei-964d" d="M 4075 5050 
Q 3850 4800 3775 4625 
L 5650 4625 
Q 5425 4175 5187 3837 
Q 4950 3500 4650 3200 
Q 4900 3025 5275 2925 
Q 5650 2825 6200 2800 
Q 6025 2525 5975 2300 
Q 5375 2400 4950 2562 
Q 4525 2725 4275 2900 
Q 3950 2700 3550 2500 
Q 3150 2300 2525 2125 
Q 2450 2350 2250 2550 
Q 2775 2650 3212 2825 
Q 3650 3000 3875 3200 
Q 3550 3525 3325 3875 
Q 3000 3450 2825 3275 
Q 2650 3450 2450 3550 
Q 2775 3850 3075 4325 
Q 3375 4800 3575 5300 
Q 3950 5100 4075 5050 
z
M 2350 4975 
Q 2225 4650 2025 4062 
Q 1825 3475 1675 2975 
Q 2075 2450 2200 2175 
Q 2325 1900 2287 1550 
Q 2250 1200 2012 1012 
Q 1775 825 1350 775 
Q 1300 1025 1150 1325 
Q 1650 1300 1737 1512 
Q 1825 1725 1787 1962 
Q 1750 2200 1200 2925 
L 1450 3600 
Q 1600 4025 1725 4550 
L 975 4550 
L 975 -600 
L 500 -600 
Q 525 325 525 875 
L 525 3750 
Q 525 4325 500 4975 
L 2350 4975 
z
M 5100 2075 
Q 5275 2075 5725 2100 
L 5725 1650 
Q 5450 1675 5150 1675 
L 4575 1675 
L 4575 900 
L 5200 900 
Q 5675 900 6050 925 
L 6050 475 
Q 5700 500 5225 500 
L 4575 500 
L 4575 125 
Q 4575 -250 4600 -600 
L 4100 -600 
Q 4125 -225 4125 100 
L 4125 500 
L 2375 500 
Q 2500 1100 2500 1400 
L 3025 1325 
Q 2925 1025 2925 900 
L 4125 900 
L 4125 1675 
L 3475 1675 
Q 3100 1675 2775 1650 
L 2775 2100 
Q 3225 2075 3475 2075 
L 4125 2075 
Q 4125 2375 4100 2625 
L 4575 2625 
Q 4550 2225 4550 2075 
L 5100 2075 
z
M 4275 3475 
Q 4600 3725 4925 4250 
L 3550 4250 
Q 4025 3650 4275 3475 
z
" transform="scale(0.015625)"/>
      <path id="SimHei-7ef4" d="M 3700 5075 
Q 3575 4900 3475 4637 
Q 3375 4375 3300 4150 
L 4900 4150 
Q 5400 4150 5800 4175 
L 5800 3725 
Q 5375 3750 4900 3750 
L 4650 3750 
L 4650 2900 
Q 5250 2900 5625 2925 
L 5625 2475 
Q 5250 2500 4650 2500 
L 4650 1600 
Q 5275 1600 5650 1625 
L 5650 1200 
Q 5275 1225 4650 1225 
L 4650 325 
L 5050 325 
Q 5550 325 6050 350 
L 6050 -75 
Q 5550 -50 5050 -50 
L 3250 -50 
L 3250 -625 
L 2775 -625 
Q 2800 -150 2800 650 
L 2800 3075 
Q 2650 2700 2475 2375 
Q 2225 2550 2050 2650 
Q 2275 2975 2450 3312 
Q 2625 3650 2837 4250 
Q 3050 4850 3100 5250 
Q 3375 5150 3700 5075 
z
M 1750 5000 
Q 1525 4775 1300 4225 
Q 1075 3675 825 3150 
Q 1175 3200 1525 3225 
Q 1775 3775 1825 4100 
L 2375 3900 
Q 2225 3725 1950 3200 
Q 1675 2675 1125 1575 
L 2250 1725 
Q 2150 1425 2125 1250 
Q 1800 1250 1387 1187 
Q 975 1125 575 1000 
Q 475 1300 425 1525 
Q 650 1625 875 1987 
Q 1100 2350 1325 2800 
Q 1050 2775 812 2737 
Q 575 2700 400 2625 
Q 325 2825 200 3125 
Q 425 3275 687 3875 
Q 950 4475 1150 5175 
Q 1425 5075 1750 5000 
z
M 2475 650 
Q 2450 400 2450 200 
Q 2000 125 1450 12 
Q 900 -100 450 -275 
Q 350 0 250 300 
Q 750 350 1187 412 
Q 1625 475 2475 650 
z
M 4200 1600 
L 4200 2500 
L 3250 2500 
L 3250 1600 
L 4200 1600 
z
M 4200 325 
L 4200 1225 
L 3250 1225 
L 3250 325 
L 4200 325 
z
M 4200 2900 
L 4200 3750 
L 3250 3750 
L 3250 2900 
L 4200 2900 
z
M 4500 5225 
Q 4600 5075 4900 4475 
Q 4700 4400 4475 4275 
Q 4350 4575 4100 4975 
L 4500 5225 
z
" transform="scale(0.015625)"/>
      <path id="SimHei-540e" d="M 5475 2150 
Q 5450 1750 5450 775 
Q 5450 -175 5500 -550 
L 4975 -550 
L 4975 -25 
L 2525 -25 
L 2525 -600 
L 2025 -600 
Q 2050 -175 2050 775 
Q 2050 1750 2025 2150 
L 5475 2150 
z
M 5175 5075 
Q 5300 4800 5525 4525 
Q 4950 4475 3750 4337 
Q 2550 4200 1575 4175 
L 1575 3375 
L 5200 3375 
Q 5550 3375 5975 3400 
L 5975 2900 
Q 5575 2925 5200 2925 
L 1575 2925 
Q 1550 2425 1487 1875 
Q 1425 1325 1250 712 
Q 1075 100 800 -325 
Q 650 -200 225 -50 
Q 625 325 825 1062 
Q 1025 1800 1050 2825 
Q 1075 3850 1075 4575 
Q 2300 4600 3625 4775 
Q 4950 4950 5175 5075 
z
M 4975 375 
L 4975 1725 
L 2525 1725 
L 2525 375 
L 4975 375 
z
" transform="scale(0.015625)"/>
      <path id="SimHei-7684" d="M 2100 4975 
Q 1975 4750 1750 3950 
L 2875 3950 
Q 2850 3525 2850 2875 
L 2850 675 
Q 2850 300 2875 -400 
L 2375 -400 
L 2375 100 
L 1100 100 
L 1100 -450 
L 600 -450 
Q 625 350 625 550 
L 625 2850 
Q 625 3525 600 3950 
L 1325 3950 
Q 1450 4525 1525 5150 
Q 1875 5025 2100 4975 
z
M 5825 3075 
Q 5800 1550 5700 175 
Q 5650 -275 5225 -425 
Q 4800 -575 4275 -625 
Q 4250 -350 4050 -50 
Q 4550 -75 4837 -25 
Q 5125 25 5200 200 
Q 5275 375 5312 1225 
Q 5350 2075 5375 3600 
L 3925 3600 
Q 3725 3125 3350 2475 
Q 3175 2650 2925 2750 
Q 3150 3050 3350 3475 
Q 3550 3900 3700 4400 
Q 3850 4900 3875 5175 
Q 4225 5025 4475 4950 
Q 4350 4750 4262 4512 
Q 4175 4275 4075 4050 
L 5850 4050 
Q 5825 3525 5825 3075 
z
M 2375 525 
L 2375 1850 
L 1100 1850 
L 1100 525 
L 2375 525 
z
M 2375 2275 
L 2375 3525 
L 1100 3525 
L 1100 2275 
L 2375 2275 
z
M 4350 2050 
Q 4500 1750 4700 1275 
Q 4525 1200 4225 1025 
Q 4050 1500 3900 1837 
Q 3750 2175 3600 2400 
Q 3775 2500 4050 2650 
L 4350 2050 
z
" transform="scale(0.015625)"/>
      <path id="SimHei-6563" d="M 4750 4975 
Q 4625 4850 4537 4600 
Q 4450 4350 4325 3975 
L 5350 3975 
Q 5650 3975 6050 4000 
L 6050 3550 
Q 5675 3575 5475 3575 
Q 5450 2800 5350 2112 
Q 5250 1425 4925 875 
Q 5450 250 6200 -100 
Q 5950 -200 5750 -500 
Q 5075 0 4650 500 
Q 4275 -50 3525 -600 
Q 3375 -425 3100 -300 
Q 3875 150 4375 875 
Q 3925 1575 3800 2700 
Q 3700 2525 3550 2275 
Q 3350 2425 3125 2525 
Q 3450 2975 3725 3662 
Q 4000 4350 4150 5150 
L 4750 4975 
z
M 3025 2550 
Q 3000 2075 3000 1625 
L 3000 25 
Q 3000 -450 2250 -500 
Q 2225 -275 2050 0 
Q 2525 0 2525 200 
L 2525 525 
L 1275 525 
L 1275 -550 
L 800 -550 
Q 825 -75 825 450 
L 825 1650 
Q 825 2100 800 2550 
L 3025 2550 
z
M 1075 4350 
Q 1075 4775 1050 5150 
L 1550 5150 
Q 1525 4825 1525 4350 
L 2225 4350 
Q 2225 4850 2200 5150 
L 2725 5150 
Q 2700 4850 2700 4350 
Q 2925 4350 3250 4375 
L 3250 3950 
Q 2925 3975 2700 3975 
L 2700 3375 
Q 2900 3375 3300 3400 
L 3300 2975 
Q 2925 3000 2525 3000 
L 1100 3000 
Q 750 3000 275 2975 
L 275 3400 
Q 750 3375 1075 3375 
L 1075 3975 
Q 825 3975 425 3950 
L 425 4375 
Q 800 4350 1075 4350 
z
M 4150 3375 
Q 4250 2000 4625 1300 
Q 4800 1625 4900 2187 
Q 5000 2750 5025 3575 
L 4225 3575 
L 4150 3375 
z
M 2525 900 
L 2525 1350 
L 1275 1350 
L 1275 900 
L 2525 900 
z
M 2525 1725 
L 2525 2175 
L 1275 2175 
L 1275 1725 
L 2525 1725 
z
M 2225 3375 
L 2225 3975 
L 1525 3975 
L 1525 3375 
L 2225 3375 
z
" transform="scale(0.015625)"/>
      <path id="SimHei-70b9" d="M 3325 5200 
Q 3300 4925 3300 4375 
L 4900 4375 
Q 5275 4375 5725 4400 
L 5725 3925 
Q 5300 3950 4900 3950 
L 3300 3950 
L 3300 3225 
L 5225 3225 
Q 5200 2700 5200 2150 
Q 5200 1625 5225 1175 
L 1175 1175 
Q 1200 1625 1200 2175 
Q 1200 2725 1175 3225 
L 2775 3225 
L 2775 4500 
Q 2775 4900 2750 5200 
L 3325 5200 
z
M 4700 1600 
L 4700 2800 
L 1725 2800 
L 1725 1600 
L 4700 1600 
z
M 1500 750 
Q 1025 -250 825 -625 
Q 625 -475 325 -375 
Q 650 50 950 925 
Q 1200 800 1500 750 
z
M 5325 850 
Q 5775 150 6075 -350 
Q 5925 -425 5575 -625 
Q 5375 -150 4900 575 
Q 5150 700 5325 850 
z
M 3975 -575 
Q 3775 -100 3400 575 
Q 3575 675 3825 825 
Q 4350 -75 4450 -325 
Q 4200 -450 3975 -575 
z
M 2375 -575 
Q 2350 -300 1975 550 
Q 2200 625 2425 775 
Q 2800 -75 2900 -350 
Q 2625 -450 2375 -575 
z
" transform="scale(0.015625)"/>
      <path id="SimHei-56fe" d="M 5800 4975 
Q 5775 4350 5775 3600 
L 5775 925 
Q 5775 150 5800 -600 
L 5300 -600 
L 5300 -275 
L 1125 -275 
L 1125 -650 
L 625 -650 
Q 650 125 650 950 
L 650 3600 
Q 650 4325 625 4975 
L 5800 4975 
z
M 5300 150 
L 5300 4575 
L 1125 4575 
L 1125 150 
L 5300 150 
z
M 3225 4250 
Q 3075 4100 2950 3925 
L 4625 3925 
Q 4525 3700 4300 3375 
Q 4075 3050 3600 2600 
Q 4350 2225 5075 2150 
Q 4900 1925 4775 1675 
Q 3850 1950 3225 2350 
Q 2500 1875 1675 1650 
Q 1600 1875 1400 2075 
Q 2200 2200 2875 2600 
Q 2525 2925 2375 3150 
Q 2150 2900 1900 2650 
Q 1725 2850 1525 2950 
Q 1950 3300 2250 3737 
Q 2550 4175 2675 4475 
Q 2925 4350 3225 4250 
z
M 2450 1275 
Q 3550 950 4100 725 
Q 3975 525 3850 300 
Q 2825 725 2275 850 
Q 2375 1050 2450 1275 
z
M 2925 2050 
Q 3775 1700 4075 1600 
Q 3950 1400 3850 1150 
Q 3000 1550 2700 1650 
Q 2825 1825 2925 2050 
z
M 2625 3450 
Q 3000 3025 3275 2850 
Q 3600 3100 3875 3525 
L 2675 3525 
L 2625 3450 
z
" transform="scale(0.015625)"/>
     </defs>
     <use xlink:href="#SimHei-5bf9"/>
     <use xlink:href="#SimHei-73bb" x="100"/>
     <use xlink:href="#SimHei-7483" x="200"/>
     <use xlink:href="#SimHei-6837" x="300"/>
     <use xlink:href="#SimHei-672c" x="400"/>
     <use xlink:href="#SimHei-5e94" x="500"/>
     <use xlink:href="#SimHei-7528" x="600"/>
     <use xlink:href="#SimHei-4e3b" x="700"/>
     <use xlink:href="#SimHei-6210" x="800"/>
     <use xlink:href="#SimHei-5206" x="900"/>
     <use xlink:href="#SimHei-964d" x="1000"/>
     <use xlink:href="#SimHei-7ef4" x="1100"/>
     <use xlink:href="#SimHei-540e" x="1200"/>
     <use xlink:href="#SimHei-7684" x="1300"/>
     <use xlink:href="#SimHei-6563" x="1400"/>
     <use xlink:href="#SimHei-70b9" x="1500"/>
     <use xlink:href="#SimHei-56fe" x="1600"/>
    </g>
   </g>
   <g id="legend_1">
    <g id="patch_7">
     <path d="M 101.2 127.2325 
L 184.4 127.2325 
Q 187.6 127.2325 187.6 124.0325 
L 187.6 80.32 
Q 187.6 77.12 184.4 77.12 
L 101.2 77.12 
Q 98 77.12 98 80.32 
L 98 124.0325 
Q 98 127.2325 101.2 127.2325 
z
" style="fill: #ffffff; opacity: 0.8; stroke: #cccccc; stroke-linejoin: miter"/>
    </g>
    <g id="PathCollection_3">
     <g>
      <use xlink:href="#mcc037a5324" x="120.4" y="92.07" style="fill: #1f77b4; stroke: #1f77b4"/>
     </g>
    </g>
    <g id="text_15">
     <!-- 铅钡 -->
     <g transform="translate(149.2 96.27)scale(0.16 -0.16)">
      <defs>
       <path id="SimHei-94c5" d="M 5800 2125 
Q 5775 1700 5775 900 
Q 5775 100 5800 -525 
L 5325 -525 
L 5325 75 
L 3600 75 
L 3600 -575 
L 3125 -575 
Q 3150 100 3150 800 
Q 3150 1525 3125 2125 
L 5800 2125 
z
M 2400 900 
Q 2450 750 2625 475 
Q 2500 375 2150 87 
Q 1800 -200 1425 -575 
Q 1275 -350 1100 -175 
Q 1250 50 1250 300 
L 1250 1600 
Q 725 1600 300 1575 
L 300 2025 
Q 725 2000 1250 2000 
L 1250 2775 
Q 975 2775 725 2750 
L 725 3200 
Q 975 3175 1275 3175 
L 1900 3175 
Q 2200 3175 2450 3200 
L 2450 2750 
Q 2050 2775 1725 2775 
L 1725 2000 
Q 2300 2000 2675 2025 
L 2675 1575 
Q 2300 1600 1725 1600 
L 1725 225 
Q 2200 650 2400 900 
z
M 6125 3125 
Q 6025 2925 6025 2625 
Q 5525 2600 5237 2625 
Q 4950 2650 4950 3100 
L 4950 4425 
L 3875 4425 
Q 3875 3525 3737 3150 
Q 3600 2775 3125 2375 
Q 2950 2625 2675 2750 
Q 3350 3050 3387 3762 
Q 3425 4475 3400 4800 
L 5400 4800 
Q 5400 3850 5412 3512 
Q 5425 3175 5537 3112 
Q 5650 3050 6125 3125 
z
M 5325 450 
L 5325 1725 
L 3600 1725 
L 3600 450 
L 5325 450 
z
M 1850 5050 
Q 1575 4800 1350 4375 
L 2000 4375 
Q 2225 4375 2600 4400 
L 2600 3975 
Q 2225 4000 1975 4000 
L 1125 4000 
Q 750 3450 525 3175 
Q 400 3425 200 3500 
Q 575 3850 887 4375 
Q 1200 4900 1300 5300 
Q 1525 5150 1850 5050 
z
" transform="scale(0.015625)"/>
       <path id="SimHei-94a1" d="M 5800 4750 
Q 5775 4350 5775 2925 
Q 5775 1500 5800 1075 
L 5325 1075 
L 5325 4350 
L 3425 4350 
L 3425 1075 
L 2975 1075 
Q 3000 1575 3000 2925 
Q 3000 4300 2975 4750 
L 5800 4750 
z
M 950 3200 
Q 1250 3175 1650 3175 
Q 2050 3175 2400 3200 
L 2400 2800 
Q 2000 2825 1750 2825 
L 1750 1975 
Q 2350 1975 2625 2000 
L 2625 1600 
Q 2300 1625 1750 1625 
L 1750 400 
Q 2175 750 2425 1025 
Q 2500 800 2650 600 
Q 2400 400 2087 137 
Q 1775 -125 1400 -475 
Q 1225 -250 1100 -100 
Q 1350 100 1325 575 
L 1325 1625 
Q 950 1625 525 1600 
L 525 2000 
Q 975 1975 1325 1975 
L 1325 2825 
Q 1150 2825 950 2800 
L 950 3200 
z
M 4675 3575 
Q 4625 3125 4600 2337 
Q 4575 1550 4425 1025 
Q 4275 525 3850 125 
Q 3425 -275 2775 -600 
Q 2625 -375 2375 -175 
Q 3050 50 3475 437 
Q 3900 825 4025 1325 
Q 4125 1825 4137 2475 
Q 4150 3125 4125 3650 
Q 4400 3600 4675 3575 
z
M 1900 5000 
Q 1775 4775 1525 4225 
L 1950 4225 
Q 2125 4225 2625 4250 
L 2625 3825 
Q 2100 3850 1800 3850 
L 1325 3850 
Q 1100 3550 900 3287 
Q 700 3025 525 2825 
Q 375 3050 225 3200 
Q 600 3575 912 4075 
Q 1225 4575 1375 5200 
Q 1625 5075 1900 5000 
z
M 4950 875 
Q 5600 350 6175 -150 
Q 5975 -325 5800 -575 
Q 5250 25 4625 475 
Q 4800 650 4950 875 
z
" transform="scale(0.015625)"/>
      </defs>
      <use xlink:href="#SimHei-94c5"/>
      <use xlink:href="#SimHei-94a1" x="100"/>
     </g>
    </g>
    <g id="PathCollection_4">
     <g>
      <use xlink:href="#m45cdf1a6aa" x="120.4" y="114.6325" style="fill: #ff7f0e; stroke: #ff7f0e"/>
     </g>
    </g>
    <g id="text_16">
     <!-- 高钾 -->
     <g transform="translate(149.2 118.8325)scale(0.16 -0.16)">
      <defs>
       <path id="SimHei-9ad8" d="M 5825 -25 
Q 5850 -400 5550 -500 
Q 5250 -600 4975 -625 
Q 4875 -325 4725 -100 
Q 4975 -100 5175 -87 
Q 5375 -75 5350 250 
L 5350 1825 
L 1100 1825 
L 1100 -575 
L 600 -575 
Q 625 -225 625 850 
Q 625 1950 600 2200 
L 5850 2200 
Q 5825 1850 5825 1425 
L 5825 -25 
z
M 4925 3800 
Q 4900 3475 4900 3175 
Q 4900 2900 4925 2600 
L 1400 2600 
Q 1425 2825 1425 3175 
Q 1425 3525 1400 3800 
L 4925 3800 
z
M 4500 1400 
Q 4475 1125 4475 800 
Q 4475 500 4500 200 
L 1950 200 
Q 2000 500 2000 800 
Q 2000 1125 1950 1400 
L 4500 1400 
z
M 425 4600 
Q 750 4575 1125 4575 
L 2925 4575 
Q 2850 4875 2750 5100 
Q 3050 5125 3350 5200 
Q 3400 4950 3525 4575 
L 5250 4575 
Q 5600 4575 5975 4600 
L 5975 4150 
Q 5600 4175 5050 4175 
L 1150 4175 
Q 750 4175 425 4150 
L 425 4600 
z
M 4450 2975 
L 4450 3425 
L 1900 3425 
L 1900 2975 
L 4450 2975 
z
M 4025 550 
L 4025 1050 
L 2400 1050 
L 2400 550 
L 4025 550 
z
" transform="scale(0.015625)"/>
       <path id="SimHei-94be" d="M 5775 4775 
Q 5750 4325 5750 3775 
L 5750 2075 
Q 5750 1625 5775 1200 
L 5300 1200 
L 5300 1450 
L 4475 1450 
L 4475 550 
Q 4475 125 4500 -575 
L 4000 -575 
Q 4025 150 4025 550 
L 4025 1450 
L 3225 1450 
L 3225 1150 
L 2750 1150 
Q 2775 1625 2775 2075 
L 2775 3800 
Q 2775 4300 2750 4775 
L 5775 4775 
z
M 1800 5000 
Q 1525 4525 1375 4225 
L 1675 4225 
Q 1975 4225 2400 4250 
L 2400 3775 
Q 1950 3800 1675 3800 
L 1150 3800 
Q 925 3425 775 3200 
Q 1150 3175 1525 3175 
Q 1900 3175 2350 3200 
L 2350 2750 
Q 1900 2775 1650 2775 
L 1650 2000 
L 1800 2000 
Q 2050 2000 2450 2025 
L 2450 1575 
Q 2000 1600 1650 1600 
L 1650 325 
Q 1975 600 2200 850 
Q 2300 625 2475 400 
Q 2200 225 1900 -25 
Q 1600 -275 1425 -475 
Q 1225 -250 1050 -75 
Q 1150 25 1200 200 
L 1200 1600 
Q 850 1600 475 1575 
L 475 2025 
Q 875 2000 1200 2000 
L 1200 2775 
Q 1050 2775 700 2750 
L 700 3075 
L 575 2900 
Q 425 3075 200 3250 
Q 500 3550 812 4125 
Q 1125 4700 1275 5200 
Q 1475 5125 1800 5000 
z
M 5300 3300 
L 5300 4375 
L 4475 4375 
L 4475 3300 
L 5300 3300 
z
M 5300 1850 
L 5300 2900 
L 4475 2900 
L 4475 1850 
L 5300 1850 
z
M 4025 3300 
L 4025 4375 
L 3225 4375 
L 3225 3300 
L 4025 3300 
z
M 4025 1850 
L 4025 2900 
L 3225 2900 
L 3225 1850 
L 4025 1850 
z
" transform="scale(0.015625)"/>
      </defs>
      <use xlink:href="#SimHei-9ad8"/>
      <use xlink:href="#SimHei-94be" x="100"/>
     </g>
    </g>
   </g>
  </g>
 </g>
 <defs>
  <clipPath id="pd28ebde7e8">
   <rect x="90" y="69.12" width="558" height="434.88"/>
  </clipPath>
 </defs>
</svg>
